<?xml version="1.0" encoding="utf-8"?>
<!-- Generator: Adobe Illustrator 26.0.3, SVG Export Plug-In . SVG Version: 6.00 Build 0)  -->
<svg version="1.1" id="Layer_1" xmlns="http://www.w3.org/2000/svg" xmlns:xlink="http://www.w3.org/1999/xlink" x="0px" y="0px"
	 viewBox="0 0 40 40" style="enable-background:new 0 0 40 40;" xml:space="preserve">
<g id="Regular-S" transform="matrix(1 0 0 1 1401.53 696)">
	<path d="M-1399.6-689.8c0,7.6,3.8,12.5,11.3,14.6c1,1.1,2.1,2.1,3.2,2.8v7.9h-2.6c-2.7,0-4.1,1.6-4.1,4.1v2.9
		c0,0.9,0.7,1.5,1.6,1.5h17.5c0.8,0,1.6-0.6,1.6-1.5v-2.9c0-2.5-1.4-4.1-4.1-4.1h-2.6v-7.9c1.1-0.7,2.2-1.6,3.2-2.8
		c7.5-2.1,11.3-7,11.3-14.6c0-2-1.2-3.1-3.2-3.1h-3.7c-0.3-1.9-1.7-3-4-3h-14.3c-2.3,0-3.7,1.1-4,3h-3.7
		C-1398.4-693-1399.6-691.8-1399.6-689.8z M-1372.1-679.1c1.1-2.2,1.9-4.8,1.9-7.6v-3.2h3.5c0.2,0,0.4,0.2,0.4,0.4
		C-1366.4-684.4-1368.3-680.9-1372.1-679.1z M-1396.7-689.5c0-0.2,0.2-0.4,0.4-0.4h3.5v3.2c0,2.8,0.7,5.4,1.9,7.6
		C-1394.7-680.9-1396.7-684.4-1396.7-689.5z"/>
</g>
</svg>
