<?xml version="1.0" encoding="utf-8"?>
<!-- Generator: Adobe Illustrator 26.0.3, SVG Export Plug-In . SVG Version: 6.00 Build 0)  -->
<svg version="1.1" id="Layer_1" xmlns="http://www.w3.org/2000/svg" xmlns:xlink="http://www.w3.org/1999/xlink" x="0px" y="0px"
	 viewBox="0 0 100 100" style="enable-background:new 0 0 100 100;" xml:space="preserve">
<g>
	<circle style="fill:#FFFFFF;" cx="50" cy="50.05" r="47.5"/>
	<path style="fill:#ED2024;" d="M50,5.05c24.81,0,45,20.19,45,45s-20.19,45-45,45s-45-20.19-45-45S25.19,5.05,50,5.05 M50,0.05
		c-27.61,0-50,22.39-50,50c0,27.61,22.39,50,50,50c27.61,0,50-22.39,50-50C100,22.44,77.61,0.05,50,0.05L50,0.05z"/>
</g>
<g>
	<path style="fill:#ED2024;" d="M80.8,74.54c-1.29,2.01-2.75,3.88-4.38,5.61c-1.63,1.74-3.54,3.24-5.75,4.51
		c-2.2,1.27-4.77,2.27-7.71,3.01c-2.94,0.73-6.36,1.1-10.26,1.1c-11.35,0-19.77-3.22-25.27-9.67c-5.5-6.45-8.24-16.13-8.24-29.06
		c0-13,2.76-22.7,8.27-29.11c5.51-6.41,13.75-9.61,24.71-9.61c3.76,0,7.09,0.35,9.99,1.05s5.46,1.66,7.68,2.87
		c2.22,1.22,4.13,2.66,5.72,4.32c1.59,1.67,2.96,3.46,4.11,5.4l-9.99,7.25c-0.79-1.22-1.66-2.42-2.6-3.6
		c-0.95-1.18-2.1-2.23-3.44-3.14c-1.34-0.91-2.93-1.65-4.75-2.2c-1.83-0.55-3.99-0.83-6.5-0.83c-6.98,0-12.1,2.31-15.36,6.93
		c-3.26,4.62-4.89,11.51-4.89,20.68c0,4.91,0.44,9.1,1.32,12.57c0.88,3.47,2.17,6.33,3.89,8.57c1.72,2.24,3.85,3.88,6.39,4.92
		c2.54,1.04,5.46,1.56,8.75,1.56c2.47,0,4.64-0.27,6.5-0.81c1.86-0.54,3.5-1.26,4.91-2.18s2.66-1.99,3.73-3.22s2.08-2.55,3.01-3.95
		L80.8,74.54z"/>
</g>
<g id="Regular-S_00000103983187266216391620000004661283557947893939_" transform="matrix(1 0 0 1 1395.25 696)">
	<path style="fill:#ED2024;" d="M-1332.56-657.44c-0.92,0-1.81,0.14-2.7,0.41c-0.88,0.28-1.68,0.67-2.39,1.2
		c-0.71,0.52-1.28,1.15-1.71,1.89c-0.07,0.12-0.11,0.25-0.12,0.37c-0.01,0.12-0.02,0.3-0.02,0.55v17.45c0,0.31,0.1,0.56,0.29,0.74
		c0.19,0.18,0.46,0.27,0.8,0.27c0.16,0,0.31-0.03,0.46-0.08c0.15-0.05,0.29-0.14,0.43-0.25c0.77-0.65,1.64-1.14,2.6-1.48
		c0.96-0.34,1.94-0.51,2.93-0.51c0.91,0,1.79,0.15,2.64,0.44c0.85,0.29,1.62,0.73,2.31,1.31c0.14,0.12,0.29,0.19,0.45,0.19
		c0.15,0,0.27-0.05,0.37-0.15c0.1-0.1,0.15-0.23,0.15-0.4v-18.36c0-0.17-0.01-0.29-0.04-0.37s-0.11-0.21-0.24-0.4
		c-0.56-0.87-1.41-1.57-2.53-2.08C-1330-657.19-1331.22-657.44-1332.56-657.44z M-1317.75-657.44c-1.34,0-2.58,0.26-3.7,0.77
		c-1.12,0.51-1.96,1.2-2.52,2.08c-0.14,0.19-0.22,0.32-0.24,0.4s-0.04,0.2-0.04,0.37v18.36c0,0.17,0.05,0.3,0.15,0.4
		c0.1,0.1,0.22,0.15,0.37,0.15c0.17,0,0.32-0.06,0.45-0.19c0.69-0.58,1.46-1.02,2.31-1.31c0.85-0.29,1.73-0.44,2.62-0.44
		c1,0,1.98,0.17,2.95,0.51c0.96,0.34,1.83,0.83,2.6,1.48c0.14,0.11,0.28,0.2,0.43,0.25c0.15,0.05,0.3,0.08,0.46,0.08
		c0.34,0,0.61-0.09,0.8-0.27c0.19-0.18,0.29-0.43,0.29-0.74v-17.45c0-0.25-0.01-0.43-0.02-0.55c-0.01-0.12-0.05-0.24-0.12-0.37
		c-0.43-0.74-1-1.37-1.71-1.89c-0.71-0.52-1.51-0.92-2.39-1.2C-1315.93-657.31-1316.83-657.44-1317.75-657.44z"/>
</g>
</svg>
