<?xml version="1.0" encoding="utf-8"?>
<!-- Generator: Adobe Illustrator 26.0.3, SVG Export Plug-In . SVG Version: 6.00 Build 0)  -->
<svg version="1.1" id="Layer_1" xmlns="http://www.w3.org/2000/svg" xmlns:xlink="http://www.w3.org/1999/xlink" x="0px" y="0px"
	 viewBox="0 0 40 40" style="enable-background:new 0 0 40 40;" xml:space="preserve">
<style type="text/css">
	.st0{fill:#212121;}
</style>
<g id="Regular-S" transform="matrix(1 0 0 1 1403.58 696)">
	<path d="M-1383.6-656c10.9,0,20-9.1,20-20s-9.1-20-20-20c-10.9,0-20,9.1-20,20S-1394.5-656-1383.6-656z M-1383.6-659.8
		c-9,0-16.2-7.2-16.2-16.2s7.2-16.2,16.1-16.2c9,0,16.2,7.2,16.2,16.2S-1374.6-659.8-1383.6-659.8z"/>
	<path class="st0" d="M-1383.6-666.3c1,0,1.7-0.7,1.7-1.6v-8.7l-0.2-4.4l1.9,2.3l2,2c0.3,0.3,0.7,0.5,1.2,0.5c0.9,0,1.6-0.7,1.6-1.6
		c0-0.4-0.1-0.9-0.4-1.1l-6.3-6.3c-0.4-0.4-0.8-0.6-1.3-0.6c-0.5,0-0.8,0.2-1.3,0.6l-6.3,6.3c-0.3,0.3-0.4,0.7-0.4,1.1
		c0,0.9,0.7,1.6,1.6,1.6c0.5,0,0.9-0.2,1.2-0.5l2-2l1.8-2.3l-0.2,4.4v8.7C-1385.2-666.9-1384.5-666.3-1383.6-666.3z"/>
</g>
</svg>
