<?xml version="1.0" encoding="utf-8"?>
<!-- Generator: Adobe Illustrator 26.0.3, SVG Export Plug-In . SVG Version: 6.00 Build 0)  -->
<svg version="1.1" id="Layer_1" xmlns="http://www.w3.org/2000/svg" xmlns:xlink="http://www.w3.org/1999/xlink" x="0px" y="0px"
	 viewBox="0 0 40 40" style="enable-background:new 0 0 40 40;" xml:space="preserve">
<path d="M20,0C9.1,0,0,9.1,0,20s9.1,20,20,20s20-9.1,20-20S30.9,0,20,0z M28.9,21.8h-9.4l-4.6-0.2l2.4,1.9l2.1,2.1
	c0.3,0.3,0.5,0.7,0.5,1.2c0,0.9-0.7,1.7-1.7,1.7c-0.5,0-0.9-0.2-1.2-0.5l-6.6-6.6c-0.5-0.5-0.7-0.9-0.7-1.4s0.2-0.9,0.7-1.3l6.6-6.6
	c0.3-0.3,0.7-0.4,1.2-0.4c1,0,1.7,0.7,1.7,1.7c0,0.5-0.2,0.9-0.5,1.2l-2.1,2.1l-2.4,1.9l4.6-0.2h9.4c1,0,1.7,0.7,1.7,1.7
	S29.9,21.8,28.9,21.8z"/>
</svg>
