<?xml version="1.0" encoding="utf-8"?>
<!-- Generator: Adobe Illustrator 26.0.3, SVG Export Plug-In . SVG Version: 6.00 Build 0)  -->
<svg version="1.1" id="Layer_1" xmlns="http://www.w3.org/2000/svg" xmlns:xlink="http://www.w3.org/1999/xlink" x="0px" y="0px"
	 viewBox="0 0 40 40" style="enable-background:new 0 0 40 40;" xml:space="preserve">
<path d="M20,0C9.1,0,0,9.1,0,20s9.1,20,20,20s20-9.1,20-20S30.9,0,20,0z M29.7,21.4L23.1,28c-0.3,0.3-0.7,0.5-1.2,0.5
	c-0.9,0-1.7-0.7-1.7-1.7c0-0.5,0.2-0.9,0.5-1.2l2.1-2.1l2.4-1.9l-4.6,0.2h-9.4c-1,0-1.7-0.7-1.7-1.7s0.7-1.7,1.7-1.7h9.4l4.6,0.2
	l-2.4-1.9l-2.1-2.1c-0.3-0.3-0.5-0.7-0.5-1.2c0-0.9,0.7-1.7,1.7-1.7c0.5,0,0.9,0.1,1.2,0.4l6.6,6.6c0.5,0.4,0.7,0.8,0.7,1.3
	S30.2,20.9,29.7,21.4z"/>
</svg>
