<?xml version="1.0" encoding="utf-8"?>
<!-- Generator: Adobe Illustrator 26.0.3, SVG Export Plug-In . SVG Version: 6.00 Build 0)  -->
<svg version="1.1" id="Layer_1" xmlns="http://www.w3.org/2000/svg" xmlns:xlink="http://www.w3.org/1999/xlink" x="0px" y="0px"
	 viewBox="0 0 100 100" style="enable-background:new 0 0 100 100;" xml:space="preserve">
<circle style="fill:#ED2024;" cx="49.76" cy="50" r="50"/>
<g>
	<path style="fill:#FFFFFF;" d="M80.56,74.49c-1.29,2.01-2.75,3.88-4.38,5.61c-1.63,1.74-3.54,3.24-5.75,4.51
		c-2.2,1.27-4.77,2.27-7.71,3.01c-2.94,0.73-6.36,1.1-10.26,1.1c-11.35,0-19.77-3.22-25.27-9.67c-5.5-6.45-8.24-16.13-8.24-29.06
		c0-13,2.76-22.7,8.27-29.11c5.51-6.41,13.75-9.61,24.71-9.61c3.76,0,7.09,0.35,9.99,1.05s5.46,1.66,7.68,2.87
		c2.22,1.22,4.13,2.66,5.72,4.32c1.59,1.67,2.96,3.46,4.11,5.4l-9.99,7.25c-0.79-1.22-1.66-2.42-2.6-3.6
		c-0.95-1.18-2.1-2.23-3.44-3.14c-1.34-0.91-2.93-1.65-4.75-2.2c-1.83-0.55-3.99-0.83-6.5-0.83c-6.98,0-12.1,2.31-15.36,6.93
		C33.53,33.94,31.9,40.83,31.9,50c0,4.91,0.44,9.1,1.32,12.57c0.88,3.47,2.17,6.33,3.89,8.57c1.72,2.24,3.85,3.88,6.39,4.92
		c2.54,1.04,5.46,1.56,8.75,1.56c2.47,0,4.64-0.27,6.5-0.81c1.86-0.54,3.5-1.26,4.91-2.18s2.66-1.99,3.73-3.22s2.08-2.55,3.01-3.95
		L80.56,74.49z"/>
</g>
</svg>
