<?xml version="1.0" encoding="utf-8"?>
<!-- Generator: Adobe Illustrator 26.0.3, SVG Export Plug-In . SVG Version: 6.00 Build 0)  -->
<svg version="1.1" id="Layer_1" xmlns="http://www.w3.org/2000/svg" xmlns:xlink="http://www.w3.org/1999/xlink" x="0px" y="0px"
	 viewBox="0 0 40 40" style="enable-background:new 0 0 40 40;" xml:space="preserve">
<g id="Regular-S" transform="matrix(1 0 0 1 1409.41 696)">
	<path d="M-1408.7-656.7c1,1,2.7,1,3.7,0l15.6-15.6l15.6,15.6c1,1,2.6,1,3.6,0c1-1,1-2.7,0-3.6l-15.6-15.6l15.6-15.6
		c1-1,1-2.7,0-3.7c-1-1-2.7-1-3.6,0l-15.6,15.6l-15.6-15.6c-1-1-2.7-1-3.7,0c-1,1-1,2.7,0,3.7l15.6,15.6l-15.6,15.6
		C-1409.6-659.4-1409.7-657.7-1408.7-656.7z"/>
</g>
</svg>
