<?xml version="1.0" encoding="utf-8"?>
<!-- Generator: Adobe Illustrator 26.0.3, SVG Export Plug-In . SVG Version: 6.00 Build 0)  -->
<svg version="1.1" id="Layer_1" xmlns="http://www.w3.org/2000/svg" xmlns:xlink="http://www.w3.org/1999/xlink" x="0px" y="0px"
	 viewBox="0 0 40 33.9" style="enable-background:new 0 0 40 33.9;" xml:space="preserve">
<g id="Regular-S" transform="matrix(1 0 0 1 1399.04 696)">
	<path d="M-1365-662.1c3.9,0,5.9-2,5.9-5.9v-22.2c0-3.9-2-5.9-5.9-5.9h-16c-2.2,0-4.1,0.6-5.7,2.3l-10.6,11.1
		c-1.2,1.3-1.8,2.4-1.8,3.6s0.6,2.3,1.8,3.6l10.6,11.1c1.6,1.6,3.5,2.3,5.7,2.3L-1365-662.1z M-1365-665.5h-16
		c-1.3,0-2.2-0.3-3.1-1.2l-10.6-11c-0.6-0.6-0.7-1-0.7-1.4s0.2-0.8,0.7-1.4l10.5-11c0.9-1,1.7-1.2,3.1-1.2h16c1.7,0,2.6,0.9,2.6,2.6
		v21.8C-1362.4-666.4-1363.3-665.5-1365-665.5z"/>
	<path d="M-1381.8-671.2c0.4,0,0.9-0.2,1.2-0.5l5-5l5,5c0.3,0.3,0.7,0.5,1.2,0.5c0.9,0,1.7-0.8,1.7-1.7c0-0.5-0.2-0.8-0.5-1.2l-5-5
		l5-5c0.3-0.3,0.5-0.7,0.5-1.1c0-0.9-0.7-1.7-1.7-1.7c-0.4,0-0.8,0.1-1.1,0.5l-5,5l-5-5c-0.3-0.3-0.7-0.5-1.1-0.5
		c-0.9,0-1.7,0.7-1.7,1.6c0,0.4,0.2,0.8,0.5,1.1l5,5l-5,5c-0.3,0.3-0.5,0.7-0.5,1.1C-1383.5-672-1382.7-671.2-1381.8-671.2z"/>
</g>
</svg>
