<?xml version="1.0" encoding="utf-8"?>
<!-- Generator: Adobe Illustrator 26.0.3, SVG Export Plug-In . SVG Version: 6.00 Build 0)  -->
<svg version="1.1" id="Layer_1" xmlns="http://www.w3.org/2000/svg" xmlns:xlink="http://www.w3.org/1999/xlink" x="0px" y="0px"
	 viewBox="0 0 40 40" style="enable-background:new 0 0 40 40;" xml:space="preserve">
<g id="Regular-S" transform="matrix(1 0 0 1 1397.43 696)">
	<path d="M-1377.4-674.1c0.8,0,1.4-0.3,2.2-1.2l15.7-15.5c-0.7-0.6-2-0.9-3.7-0.9h-29c-1.5,0-2.5,0.3-3.1,0.8l15.7,15.6
		C-1378.9-674.4-1378.2-674.1-1377.4-674.1z M-1391.6-660.4h29c1.5,0,2.5-0.3,3.1-0.8l-12.9-12.9l-1.1,1.1c-1.3,1.2-2.5,1.8-3.8,1.8
		c-1.4,0-2.5-0.6-3.8-1.8l-1.1-1.1l-12.9,12.9C-1394.6-660.7-1393.3-660.4-1391.6-660.4z M-1397-663.4l12.6-12.6l-12.7-12.5
		c-0.3,0.5-0.4,1.4-0.4,2.7v19.8C-1397.4-664.8-1397.3-664-1397-663.4z M-1357.8-663.4c0.3-0.5,0.4-1.4,0.4-2.7v-19.8
		c0-1.2-0.1-2.1-0.4-2.6l-12.6,12.5L-1357.8-663.4z"/>
</g>
</svg>
