<?xml version="1.0" encoding="utf-8"?>
<!-- Generator: Adobe Illustrator 26.0.3, SVG Export Plug-In . SVG Version: 6.00 Build 0)  -->
<svg version="1.1" id="Layer_1" xmlns="http://www.w3.org/2000/svg" xmlns:xlink="http://www.w3.org/1999/xlink" x="0px" y="0px"
	 viewBox="0 0 40 40" style="enable-background:new 0 0 40 40;" xml:space="preserve">
<g id="Regular-S_00000093893241214187289780000014266079933000670357_" transform="matrix(1 0 0 1 1403.58 696)">
	<path d="M-1383.6-656c10.9,0,20-9.1,20-20s-9.1-20-20-20c-10.9,0-20,9.1-20,20S-1394.5-656-1383.6-656z M-1383.6-659.8
		c-9,0-16.2-7.2-16.2-16.2s7.2-16.2,16.1-16.2c9,0,16.2,7.2,16.2,16.2S-1374.6-659.8-1383.6-659.8z"/>
	<path d="M-1384-671.9c1.1,0,1.8-0.7,1.8-1.6c0,0,0-0.1,0-0.1c0-1,0.6-1.7,2-2.6c1.8-1.2,3.3-2.3,3.3-4.8c0-3.4-3-5.2-6.4-5.2
		c-3.4,0-5.7,1.5-6.3,3.2c-0.1,0.3-0.2,0.7-0.2,1c0,1,0.8,1.5,1.5,1.5c0.7,0,1.2-0.3,1.6-0.8l0.4-0.5c0.8-1,1.7-1.5,2.8-1.5
		c1.6,0,2.7,0.9,2.7,2.4c0,1.3-0.8,1.9-2.5,3c-1.3,0.9-2.5,2-2.5,4c0,0,0,0.1,0,0.1C-1385.8-672.5-1385.2-671.9-1384-671.9z
		 M-1384-666c1.2,0,2.3-1,2.3-2.2c0-1.2-1-2.2-2.3-2.2c-1.2,0-2.3,1-2.3,2.2C-1386.3-667-1385.3-666-1384-666z"/>
</g>
</svg>
