<?xml version="1.0" encoding="UTF-8"?><svg id="Layer_1" xmlns="http://www.w3.org/2000/svg" xmlns:xlink="http://www.w3.org/1999/xlink" viewBox="0 0 130.02 129.99"><defs><radialGradient id="radial-gradient" cx="-247.57" cy="-245.7" fx="-247.57" fy="-245.7" r="65" gradientTransform="translate(-418.52 -350.67) rotate(-90) scale(1.98 -1.84)" gradientUnits="userSpaceOnUse"><stop offset="0" stop-color="#fd5"/><stop offset=".1" stop-color="#fd5"/><stop offset=".5" stop-color="#ff543e"/><stop offset="1" stop-color="#c837ab"/></radialGradient><radialGradient id="radial-gradient-2" cx="324.78" cy="35.02" fx="324.78" fy="35.02" r="65" gradientTransform="translate(-203.69 -247.66) rotate(78.68) scale(.89 -3.65)" gradientUnits="userSpaceOnUse"><stop offset="0" stop-color="#3771c8"/><stop offset=".13" stop-color="#3771c8"/><stop offset="1" stop-color="#60f" stop-opacity="0"/></radialGradient></defs><path d="M65.03,0C37.89,0,29.95,.03,28.41,.16c-5.57,.46-9.04,1.34-12.81,3.22-2.91,1.45-5.2,3.12-7.47,5.47C4,13.13,1.5,18.39,.6,24.66,.16,27.7,.03,28.32,0,43.84,0,49.02,0,55.83,0,64.97,0,92.09,.03,100.02,.16,101.56c.45,5.42,1.3,8.83,3.1,12.56,3.44,7.14,10.01,12.5,17.75,14.5,2.68,.69,5.64,1.07,9.44,1.25,1.61,.07,18.02,.12,34.44,.12s32.84-.02,34.41-.1c4.4-.21,6.96-.55,9.78-1.28,7.79-2.01,14.24-7.29,17.75-14.53,1.76-3.64,2.66-7.18,3.07-12.32,.09-1.12,.12-18.98,.12-36.81s-.04-35.66-.13-36.78c-.41-5.22-1.3-8.73-3.13-12.44-1.5-3.04-3.15-5.3-5.57-7.62-4.3-4.11-9.56-6.61-15.83-7.51-3.04-.44-3.64-.57-19.18-.6h-21.16Z" fill="url(#radial-gradient)"/><path d="M65.03,0C37.89,0,29.95,.03,28.41,.16c-5.57,.46-9.04,1.34-12.81,3.22-2.91,1.45-5.2,3.12-7.47,5.47C4,13.13,1.5,18.39,.6,24.66,.16,27.7,.03,28.32,0,43.84,0,49.02,0,55.83,0,64.97,0,92.09,.03,100.02,.16,101.56c.45,5.42,1.3,8.83,3.1,12.56,3.44,7.14,10.01,12.5,17.75,14.5,2.68,.69,5.64,1.07,9.44,1.25,1.61,.07,18.02,.12,34.44,.12s32.84-.02,34.41-.1c4.4-.21,6.96-.55,9.78-1.28,7.79-2.01,14.24-7.29,17.75-14.53,1.76-3.64,2.66-7.18,3.07-12.32,.09-1.12,.12-18.98,.12-36.81s-.04-35.66-.13-36.78c-.41-5.22-1.3-8.73-3.13-12.44-1.5-3.04-3.15-5.3-5.57-7.62-4.3-4.11-9.56-6.61-15.83-7.51-3.04-.44-3.64-.57-19.18-.6h-21.16Z" fill="url(#radial-gradient-2)"/><path d="M65,17c-13.04,0-14.67,.06-19.79,.29-5.11,.23-8.6,1.04-11.65,2.23-3.16,1.23-5.83,2.87-8.5,5.53-2.67,2.67-4.31,5.35-5.54,8.5-1.19,3.05-2,6.54-2.23,11.65-.23,5.12-.29,6.76-.29,19.79s.06,14.67,.29,19.79c.24,5.11,1.04,8.6,2.23,11.65,1.23,3.16,2.87,5.83,5.54,8.5,2.67,2.67,5.34,4.31,8.5,5.54,3.05,1.19,6.54,2,11.65,2.23,5.12,.23,6.76,.29,19.79,.29s14.67-.06,19.79-.29c5.11-.23,8.6-1.04,11.66-2.23,3.16-1.23,5.83-2.87,8.5-5.54,2.67-2.67,4.31-5.35,5.54-8.5,1.18-3.05,1.99-6.54,2.23-11.65,.23-5.12,.29-6.75,.29-19.79s-.06-14.67-.29-19.79c-.24-5.11-1.05-8.6-2.23-11.65-1.23-3.16-2.87-5.83-5.54-8.5-2.67-2.67-5.34-4.31-8.5-5.53-3.06-1.19-6.55-2-11.66-2.23-5.12-.23-6.75-.29-19.79-.29h.01Zm-4.31,8.65c1.28,0,2.7,0,4.31,0,12.82,0,14.33,.05,19.4,.28,4.68,.21,7.22,1,8.91,1.65,2.24,.87,3.84,1.91,5.52,3.59,1.68,1.68,2.72,3.28,3.59,5.52,.66,1.69,1.44,4.23,1.65,8.91,.23,5.06,.28,6.58,.28,19.39s-.05,14.33-.28,19.39c-.21,4.68-1,7.22-1.65,8.91-.87,2.24-1.91,3.83-3.59,5.51-1.68,1.68-3.28,2.72-5.52,3.59-1.69,.66-4.23,1.44-8.91,1.65-5.06,.23-6.58,.28-19.4,.28s-14.34-.05-19.4-.28c-4.68-.22-7.22-1-8.91-1.65-2.24-.87-3.84-1.91-5.52-3.59-1.68-1.68-2.72-3.28-3.59-5.52-.66-1.69-1.44-4.23-1.65-8.91-.23-5.06-.28-6.58-.28-19.4s.05-14.33,.28-19.39c.21-4.68,1-7.22,1.65-8.91,.87-2.24,1.91-3.84,3.59-5.52,1.68-1.68,3.28-2.72,5.52-3.59,1.69-.66,4.23-1.44,8.91-1.66,4.43-.2,6.14-.26,15.09-.27h0Zm29.93,7.98c-3.18,0-5.76,2.58-5.76,5.76s2.58,5.76,5.76,5.76,5.76-2.58,5.76-5.76-2.58-5.76-5.76-5.76h0Zm-25.62,6.73c-13.61,0-24.65,11.04-24.65,24.65s11.04,24.65,24.65,24.65c13.61,0,24.65-11.03,24.65-24.65s-11.03-24.65-24.65-24.65h0Zm0,8.65c8.84,0,16,7.16,16,16s-7.16,16-16,16-16-7.16-16-16,7.16-16,16-16Z" fill="#fff"/></svg>