<?xml version="1.0" encoding="UTF-8"?><svg id="Layer_1" xmlns="http://www.w3.org/2000/svg" viewBox="0 0 94.69 99.87"><path d="M47.34,5.47l8,15.72c.13.26.39.42.68.42.12,0,.23-.03.34-.08.02-.01.03-.02.04-.02l8.6-4.97-4.83,24.9c-.08.41.19.81.6.89.05,0,.1,0,.14,0,.21,0,.41-.09.55-.24l10.14-10.87,2.75,6.47c.12.28.39.46.69.46.05,0,.1,0,.15-.02l13.23-2.81-4.51,13.87c-.12.36.05.76.4.92l5.71,2.67-21.8,17.65c-.25.2-.34.55-.23.85l2.99,8.25-20.29-3.56c-.08-.01-.16-.02-.24-.02-.69,0-1.28.5-1.4,1.18-.02.1-.02.2-.02.31l1.04,19.93h-5.46l1.04-19.93c.04-.78-.57-1.45-1.36-1.48h-.06c-.08,0-.16.01-.24.02l-20.29,3.57,2.99-8.24c.11-.31.02-.65-.23-.85L4.65,52.79l5.72-2.67c.34-.16.51-.56.39-.92l-4.51-13.86,13.23,2.81s.1.02.15.02c.3,0,.58-.18.69-.46l2.75-6.47,10.14,10.88c.14.15.34.23.55.23.19,0,.38-.07.52-.21.19-.18.27-.44.22-.69l-4.83-24.9,8.59,4.96c.12.07.25.11.39.11.27,0,.52-.14.66-.37,0-.01,0-.02.02-.03l8.01-15.75M47.34,0l-2.21,4.35-7.18,14.11-7.02-4.06-4.72-2.73,1.04,5.35,3.68,18.99-6.03-6.47-2.61-2.8-1.5,3.52-2.2,5.16-11.82-2.51-4.21-.89,1.33,4.09,4.04,12.42-4.33,2.02-3.6,1.68,3.09,2.5,20.84,16.88-2.57,7.09-1.46,4.04,4.23-.74,18.97-3.33-.97,18.59-.14,2.61h10.7l-.14-2.61-.97-18.59,18.98,3.33,4.23.74-1.46-4.04-2.57-7.1,20.84-16.87,3.09-2.5-3.6-1.68-4.33-2.02,4.04-12.42,1.33-4.09-4.21.89-11.84,2.51-2.19-5.16-1.5-3.52-2.61,2.8-6.02,6.47,3.68-18.99,1.04-5.35-4.72,2.73-7.02,4.06-7.18-14.12-2.22-4.34h0Z"/></svg>