<?xml version="1.0" encoding="UTF-8"?><svg id="Layer_1" xmlns="http://www.w3.org/2000/svg" viewBox="0 0 637.44 682.04"><path d="M298.93,677.04l7.53-144.45c.26-5.65-4.15-10.49-9.84-10.75-.15-.01-.3-.01-.46-.01-.58,0-1.18.05-1.75.15l-147.05,25.84,21.65-59.74c.83-2.23.15-4.7-1.68-6.18L9.36,353.95l41.43-19.35c2.47-1.17,3.71-4.03,2.85-6.65l-32.68-100.51,95.89,20.35c.35.07.73.11,1.1.11,2.19,0,4.17-1.3,5.03-3.32l19.95-46.91,73.48,78.86c1.02,1.07,2.43,1.68,3.95,1.68,1.41,0,2.75-.53,3.77-1.5,1.37-1.29,1.97-3.17,1.61-5.01l-34.99-180.45,62.24,35.97c.87.51,1.83.77,2.79.77,1.94,0,3.76-1.04,4.75-2.71.06-.1.1-.17.13-.23l58.06-114.03,58,113.91c.95,1.91,2.84,3.07,4.93,3.07.85,0,1.67-.2,2.44-.58.15-.07.21-.11.27-.14l62.31-36.01-34.99,180.45c-.57,2.96,1.38,5.84,4.35,6.42.34.07.69.1,1.03.1,1.5,0,2.95-.62,3.98-1.71l73.44-78.83,19.95,46.92c.86,2,2.84,3.31,5.03,3.31.37,0,.75-.04,1.12-.12l95.88-20.34-32.68,100.5c-.86,2.63.37,5.49,2.87,6.67l41.41,19.32-157.96,127.93c-1.82,1.47-2.5,3.95-1.68,6.16l21.66,59.76-147.06-25.83c-.57-.1-1.16-.15-1.75-.15-5.03,0-9.3,3.61-10.16,8.57-.13.74-.18,1.48-.14,2.22l7.54,144.42h-39.58Z" fill="red" stroke="#000" stroke-miterlimit="10"/><path d="M318.72,22.04l53.55,105.16c1.84,3.67,5.54,5.8,9.39,5.8,1.58,0,3.18-.36,4.68-1.11.21-.1.41-.21.61-.33l52.74-30.48-32.9,169.68c-1.09,5.69,2.63,11.18,8.31,12.28.66.13,1.32.19,1.98.19,2.85,0,5.61-1.17,7.61-3.27l68.23-73.23,16.94,39.84c1.68,3.91,5.51,6.35,9.63,6.35.71,0,1.43-.07,2.14-.22l87.42-18.55-30,92.26c-1.64,5.02.71,10.48,5.48,12.74l34.19,15.95-151.77,122.9c-3.49,2.83-4.78,7.56-3.23,11.77l18.71,51.61-138.55-24.34c-.88-.15-1.75-.22-2.61-.22-7.32,0-13.8,5.26-15.09,12.72-.19,1.09-.26,2.2-.21,3.3l7.27,139.2h-29.04l7.26-139.19c.39-8.45-6.15-15.62-14.6-16.01-.23-.01-.46-.02-.69-.02-.88,0-1.74.08-2.61.23l-138.55,24.35,18.71-51.62c1.56-4.21.26-8.94-3.23-11.77L18.72,355.1l34.19-15.97c4.78-2.26,7.13-7.72,5.48-12.74l-30-92.26,87.42,18.55c.72.15,1.43.22,2.14.22,4.12,0,7.95-2.44,9.63-6.35l16.94-39.84,68.23,73.23c2.06,2.17,4.83,3.27,7.61,3.27,2.59,0,5.18-.95,7.21-2.87,2.6-2.46,3.76-6.08,3.08-9.59l-32.9-169.68,52.74,30.48c1.67.98,3.49,1.44,5.29,1.44,3.6,0,7.1-1.86,9.06-5.18.12-.2.23-.4.33-.61l53.55-105.16M318.72,0l-8.91,17.5-53.55,105.16-.05.09c-.13.21-.34.24-.43.24-.08,0-.15-.02-.24-.07l-.03-.02-.03-.02-52.74-30.48-19-10.98,4.18,21.54,32.9,169.68c.03.15-.02.32-.14.42-.05.04-.14.14-.33.14s-.29-.09-.34-.13l-68.19-73.18-10.49-11.26-6.02,14.17-16.94,39.84c-.09.21-.32.27-.42.27-.03,0-.06,0-.1,0l-87.39-18.54-16.94-3.59,5.36,16.47,30,92.26c.08.26-.03.5-.24.61l-34.15,15.93-14.49,6.77,12.43,10.06,151.77,122.91c.16.13.22.33.15.52v.03s-.02.03-.02.03l-18.71,51.62-5.9,16.26,17.02-2.99,138.55-24.35c.28-.05.58-.07.88-.07.08,0,.16,0,.24.01,2.91.13,5.18,2.61,5.06,5.53l-7.26,139.16-.55,10.51h50.12l-.55-10.52-7.27-139.16c-.01-.37.01-.74.07-1.1.45-2.58,2.65-4.44,5.24-4.44.3,0,.61.03.92.08l138.51,24.33,17.02,2.99-5.89-16.25-18.71-51.61c-.09-.25-.03-.46.13-.59l151.76-122.9,12.43-10.07-14.5-6.76-34.14-15.93c-.22-.11-.33-.36-.25-.59l30-92.27,5.36-16.47-16.94,3.59-87.42,18.55h-.07c-.12,0-.34-.06-.44-.3l-16.92-39.8-6.02-14.17-10.49,11.26-68.18,73.17c-.09.09-.22.14-.35.14-.03,0-.05,0-.08-.01-.27-.05-.44-.31-.39-.58l32.9-169.66,4.18-21.54-19,10.98-52.74,30.48-.06.03h-.02c-.07.05-.14.06-.21.06s-.32-.02-.44-.27l-.02-.03-.02-.03-53.55-105.15-8.91-17.5h0Z"/></svg>