<?xml version="1.0" encoding="utf-8"?>
<!-- Generator: Adobe Illustrator 26.0.3, SVG Export Plug-In . SVG Version: 6.00 Build 0)  -->
<svg version="1.1" id="Layer_1" xmlns="http://www.w3.org/2000/svg" xmlns:xlink="http://www.w3.org/1999/xlink" x="0px" y="0px"
	 viewBox="0 0 690 726" enable-background="new 0 0 690 726" xml:space="preserve">
<g>
	<path style="fill:#FF0000;" d="M323.54,721l7.79-151.82c0.27-5.94-4.29-11.03-10.18-11.3c-0.16-0.01-0.31-0.01-0.48-0.01
	c-0.6,0-1.22,0.05-1.81,0.16l-152.11,27.16l22.4-62.79c0.86-2.34,0.16-4.94-1.74-6.5L24,381.43l42.86-20.34
	c2.56-1.23,3.84-4.24,2.95-6.99L36,248.46l99.19,21.39c0.36,0.07,0.76,0.12,1.14,0.12c2.27,0,4.31-1.37,5.2-3.49l20.64-49.3
	l76.01,82.88c1.06,1.12,2.51,1.77,4.09,1.77c1.46,0,2.84-0.56,3.9-1.58c1.42-1.36,2.04-3.33,1.67-5.27l-36.19-189.66l64.38,37.81
	c0.9,0.54,1.89,0.81,2.89,0.81c2.01,0,3.89-1.09,4.91-2.85c0.06-0.11,0.1-0.18,0.13-0.24L344.01,21l60,119.72
	c0.98,2.01,2.94,3.23,5.1,3.23c0.88,0,1.73-0.21,2.52-0.61c0.16-0.07,0.22-0.12,0.28-0.15l64.46-37.85L440.17,295
	c-0.59,3.11,1.43,6.14,4.5,6.75c0.35,0.07,0.71,0.11,1.07,0.11c1.55,0,3.05-0.65,4.12-1.8l75.97-82.85l20.64,49.31
	c0.89,2.1,2.94,3.48,5.2,3.48c0.38,0,0.78-0.04,1.16-0.13L652,248.49l-33.8,105.63c-0.89,2.76,0.38,5.77,2.97,7.01L664,381.44
	L500.6,515.89c-1.88,1.54-2.59,4.15-1.74,6.47l22.41,62.81l-152.12-27.15c-0.59-0.11-1.2-0.16-1.81-0.16
	c-5.2,0-9.62,3.79-10.51,9.01c-0.13,0.78-0.19,1.56-0.14,2.33l7.8,151.79h-40.95V721z"/>
</g>
<g>
	<path d="M629.61,351.82l29.26-89.98l9.64-29.64l-30.49,6.47l-85.78,18.2l-15.9-37.4l-10.84-25.5l-18.89,20.28l-43.65,46.85
	l26.68-137.58l7.52-38.77l-34.2,19.76l-50.85,29.39L360.04,31.65l-16.04-31.5l-16.04,31.5l-52.04,102.22l-50.88-29.4l-34.2-19.76
	l7.52,38.77l26.68,137.58l-43.66-46.85l-18.89-20.28l-10.84,25.5l-15.91,37.41l-85.76-18.2l-30.49-6.47l9.64,29.65l29.26,89.99
	l-31.36,14.65L0.95,378.62l22.37,18.12l151.04,122.34l-18.63,51.41l-10.6,29.24l30.64-5.38l137.5-24.16l-7.02,134.72l-0.99,18.94
	h18.96h39.58h18.96l-0.99-18.94l-7.03-134.72l137.51,24.15l30.64,5.38l-10.6-29.24l-18.64-51.42l151.03-122.31l22.38-18.12
	l-26.1-12.18L629.61,351.82z M495.39,510.69c-1.82,1.47-2.5,3.95-1.68,6.16l21.66,59.76L368.3,550.78c-0.57-0.1-1.16-0.15-1.75-0.15
	c-5.03,0-9.3,3.61-10.16,8.57c-0.13,0.74-0.18,1.48-0.14,2.22l7.54,144.42h-39.58l7.53-144.45c0.26-5.65-4.15-10.49-9.84-10.75
	c-0.15-0.01-0.3-0.01-0.46-0.01c-0.58,0-1.18,0.05-1.75,0.15l-147.05,25.84l21.65-59.74c0.83-2.23,0.15-4.7-1.68-6.18L34.65,382.75
	l41.43-19.35c2.47-1.17,3.71-4.03,2.85-6.65L46.24,256.24l95.89,20.35c0.35,0.07,0.73,0.11,1.1,0.11c2.19,0,4.17-1.3,5.03-3.32
	l19.95-46.91l73.48,78.86c1.02,1.07,2.43,1.68,3.95,1.68c1.41,0,2.75-0.53,3.77-1.5c1.37-1.29,1.97-3.17,1.61-5.01l-34.99-180.45
	l62.24,35.97c0.87,0.51,1.83,0.77,2.79,0.77c1.94,0,3.76-1.04,4.75-2.71c0.06-0.1,0.1-0.17,0.13-0.23l58.06-114.03l58,113.91
	c0.95,1.91,2.84,3.07,4.93,3.07c0.85,0,1.67-0.2,2.44-0.58c0.15-0.07,0.21-0.11,0.27-0.14l62.31-36.01l-34.99,180.45
	c-0.57,2.96,1.38,5.84,4.35,6.42c0.34,0.07,0.69,0.1,1.03,0.1c1.5,0,2.95-0.62,3.98-1.71l73.44-78.83l19.95,46.92
	c0.86,2,2.84,3.31,5.03,3.31c0.37,0,0.75-0.04,1.12-0.12l95.88-20.34l-32.68,100.5c-0.86,2.63,0.37,5.49,2.87,6.67l41.41,19.32
	L495.39,510.69z"/>
</g>
</svg>
