<?xml version="1.0" encoding="utf-8"?>
<!-- Generator: Adobe Illustrator 26.0.3, SVG Export Plug-In . SVG Version: 6.00 Build 0)  -->
<svg version="1.1" id="Layer_1" xmlns="http://www.w3.org/2000/svg" xmlns:xlink="http://www.w3.org/1999/xlink" x="0px" y="0px"
	 viewBox="0 0 100 100" enable-background="new 0 0 100 100" xml:space="preserve">
<g>
	<g>
		<polygon fill="#ED2224" points="45.82,98.55 46.91,77.45 24.85,81.38 28.42,71.35 5.89,52.81 12.93,49.46 7.98,33.98 22.68,37.15 
			26,29.22 35.65,39.76 30.84,14.52 41.28,20.65 50,3.24 58.73,20.65 69.16,14.52 64.34,39.76 74,29.23 77.32,37.15 92.02,33.98 
			87.06,49.47 94.11,52.81 71.58,71.35 75.16,81.38 53.09,77.44 54.18,98.55 		"/>
		<path d="M50,6.48l7.77,15.5c0.13,0.26,0.38,0.42,0.66,0.42c0.11,0,0.22-0.03,0.33-0.08c0.02-0.01,0.03-0.02,0.04-0.02l8.35-4.9
			l-4.69,24.55c-0.08,0.4,0.19,0.79,0.58,0.87c0.05,0.01,0.09,0.01,0.14,0.01c0.2,0,0.39-0.08,0.53-0.23l9.84-10.73l2.67,6.38
			c0.12,0.27,0.38,0.45,0.67,0.45c0.05,0,0.1-0.01,0.15-0.02l12.84-2.77L85.5,49.6c-0.12,0.36,0.05,0.75,0.38,0.91l5.54,2.63
			L70.27,70.55c-0.24,0.2-0.34,0.54-0.23,0.84l2.9,8.13L53.26,76c-0.08-0.01-0.16-0.02-0.23-0.02c-0.67,0-1.25,0.49-1.36,1.17
			c-0.02,0.1-0.02,0.2-0.02,0.3l1.01,19.65h-5.3l1.01-19.65c0.03-0.77-0.56-1.43-1.32-1.46c-0.02,0-0.04,0-0.06,0
			c-0.08,0-0.16,0.01-0.23,0.02l-19.69,3.52l2.9-8.13c0.11-0.3,0.02-0.64-0.23-0.84L8.57,53.14l5.55-2.63
			c0.33-0.16,0.5-0.55,0.38-0.9l-4.38-13.68l12.84,2.77c0.05,0.01,0.1,0.02,0.15,0.02c0.29,0,0.56-0.18,0.67-0.45l2.67-6.38
			L36.3,42.6c0.14,0.14,0.32,0.23,0.53,0.23c0.19,0,0.37-0.07,0.5-0.2c0.18-0.18,0.26-0.43,0.22-0.68l-4.69-24.55l8.33,4.89
			c0.12,0.07,0.24,0.1,0.37,0.1c0.26,0,0.5-0.14,0.64-0.37c0.01-0.01,0.01-0.02,0.02-0.03L50,6.48 M47.35,97.1L47.35,97.1
			L47.35,97.1L47.35,97.1 M50,0l-2.59,5.18l-6.73,13.44l-6.34-3.72l-5.52-3.24l1.2,6.29l3.26,17.07l-4.68-5.1l-3.06-3.34l-1.75,4.18
			l-1.98,4.72l-11.07-2.39l-4.9-1.06l1.53,4.78l3.8,11.89l-3.84,1.82L3.2,52.48l3.53,2.9l19.99,16.45l-2.4,6.72l-1.68,4.71
			l4.92-0.88l17.8-3.18l-0.91,17.75L44.3,100h3.05h5.3h3.05l-0.16-3.05l-0.91-17.76l17.8,3.18l4.92,0.88l-1.68-4.71l-2.4-6.72
			l19.98-16.44l3.53-2.9l-4.13-1.96l-3.84-1.82l3.8-11.89l1.53-4.78l-4.9,1.06l-11.07,2.39l-1.98-4.72l-1.75-4.18l-3.06,3.34
			l-4.67,5.1l3.26-17.07l1.2-6.29l-5.52,3.24l-6.34,3.72L52.59,5.18L50,0L50,0z"/>
	</g>
</g>
</svg>
