<?xml version="1.0" encoding="utf-8"?>
<!-- Generator: Adobe Illustrator 26.0.3, SVG Export Plug-In . SVG Version: 6.00 Build 0)  -->
<svg version="1.1" id="Layer_1" xmlns="http://www.w3.org/2000/svg" xmlns:xlink="http://www.w3.org/1999/xlink" x="0px" y="0px"
	 viewBox="0 0 40 40" style="enable-background:new 0 0 40 40;" xml:space="preserve">
<g id="Regular-S_00000040542999819279859970000017124366148186355867_" transform="matrix(1 0 0 1 1401.11 696)">
	<path d="M-1399.4-665.9h36.6c1,0,1.7-0.8,1.7-1.7s-0.8-1.7-1.7-1.7h-36.6c-0.9,0-1.7,0.8-1.7,1.7S-1400.4-665.9-1399.4-665.9z
		 M-1399.4-674.3h36.6c1,0,1.7-0.8,1.7-1.7c0-1-0.8-1.7-1.7-1.7h-36.6c-0.9,0-1.7,0.8-1.7,1.7
		C-1401.1-675-1400.4-674.3-1399.4-674.3z M-1399.4-682.7h36.6c1,0,1.7-0.8,1.7-1.7c0-1-0.8-1.7-1.7-1.7h-36.6
		c-0.9,0-1.7,0.8-1.7,1.7C-1401.1-683.4-1400.4-682.7-1399.4-682.7z"/>
</g>
</svg>
