<?xml version="1.0" encoding="utf-8"?>
<!-- Generator: Adobe Illustrator 26.0.3, SVG Export Plug-In . SVG Version: 6.00 Build 0)  -->
<svg version="1.1" id="Layer_1" xmlns="http://www.w3.org/2000/svg" xmlns:xlink="http://www.w3.org/1999/xlink" x="0px" y="0px"
	 viewBox="0 0 40 40" style="enable-background:new 0 0 40 40;" xml:space="preserve">
<g id="Regular-S" transform="matrix(1 0 0 1 1399.72 696)">
	<path d="M-1379.7-658.6c0.4,0,0.8,0,1.3-0.1l1,2c0.2,0.4,0.7,0.7,1.1,0.6c0.5-0.1,0.8-0.5,0.9-1l0.3-2.2c0.8-0.2,1.6-0.5,2.4-0.9
		l1.6,1.5c0.4,0.3,0.8,0.4,1.3,0.2c0.4-0.3,0.6-0.7,0.5-1.2l-0.5-2.2c0.7-0.5,1.4-1.1,2-1.7l2.1,0.9c0.5,0.2,0.9,0.1,1.3-0.3
		c0.3-0.3,0.3-0.8,0.1-1.3l-1.2-1.9c0.5-0.7,0.9-1.5,1.3-2.3l2.2,0.1c0.5,0,0.9-0.3,1.1-0.7c0.2-0.5,0-1-0.4-1.2l-1.8-1.4
		c0.2-0.8,0.4-1.7,0.5-2.6l2.1-0.7c0.5-0.2,0.8-0.5,0.8-1s-0.3-0.9-0.8-1l-2.1-0.7c-0.1-0.9-0.2-1.7-0.5-2.6l1.8-1.4
		c0.4-0.3,0.5-0.8,0.4-1.2c-0.2-0.4-0.6-0.7-1.1-0.7l-2.2,0.1c-0.4-0.8-0.8-1.6-1.3-2.3l1.2-1.9c0.2-0.4,0.2-0.9-0.1-1.2
		c-0.3-0.4-0.8-0.5-1.3-0.3l-2.1,0.8c-0.6-0.6-1.3-1.2-2-1.7l0.5-2.2c0.1-0.5-0.1-1-0.5-1.2c-0.5-0.3-0.9-0.2-1.3,0.2l-1.6,1.5
		c-0.8-0.3-1.6-0.6-2.4-0.9l-0.3-2.2c-0.1-0.5-0.4-0.9-0.9-1c-0.5-0.1-0.9,0.2-1.1,0.6l-1,2c-0.5,0-0.9,0-1.3,0c-0.5,0-0.9,0-1.3,0
		l-1.1-2c-0.2-0.4-0.6-0.6-1.1-0.6c-0.5,0.1-0.8,0.5-0.9,1l-0.3,2.2c-0.8,0.3-1.6,0.5-2.4,0.9l-1.6-1.5c-0.4-0.4-0.8-0.4-1.3-0.2
		c-0.4,0.2-0.6,0.7-0.5,1.2l0.5,2.2c-0.7,0.5-1.4,1.1-2,1.7l-2-0.8c-0.5-0.2-0.9-0.1-1.3,0.3c-0.3,0.3-0.3,0.8-0.1,1.2l1.2,1.9
		c-0.5,0.7-0.9,1.5-1.3,2.3l-2.2-0.1c-0.5,0-0.9,0.3-1.1,0.7c-0.1,0.5,0,0.9,0.4,1.2l1.7,1.4c-0.2,0.8-0.4,1.7-0.5,2.6l-2.1,0.7
		c-0.5,0.2-0.7,0.5-0.7,1s0.3,0.9,0.7,1l2.1,0.7c0.1,0.9,0.2,1.8,0.5,2.6l-1.7,1.4c-0.4,0.3-0.5,0.8-0.4,1.2
		c0.2,0.4,0.6,0.7,1.1,0.7l2.2-0.1c0.4,0.8,0.8,1.6,1.3,2.3l-1.2,1.9c-0.2,0.4-0.2,0.9,0.1,1.3c0.3,0.4,0.8,0.5,1.3,0.3l2-0.9
		c0.6,0.6,1.3,1.2,2,1.7l-0.5,2.2c-0.1,0.5,0.1,0.9,0.5,1.2c0.5,0.3,0.9,0.2,1.3-0.2l1.6-1.5c0.8,0.3,1.6,0.6,2.4,0.9l0.3,2.2
		c0.1,0.5,0.4,0.9,0.9,1c0.5,0.1,0.9-0.2,1.1-0.6l1.1-2C-1380.6-658.6-1380.2-658.6-1379.7-658.6z M-1379.7-661.7
		c-7.9,0-14-6.4-14-14.3c0-8,6.1-14.3,14-14.3c7.9,0,14,6.4,14,14.3C-1365.7-668-1371.8-661.7-1379.7-661.7z M-1379.8-671.1
		c2.7,0,4.8-2.2,4.8-4.9c0-2.7-2.1-4.9-4.8-4.9s-4.8,2.2-4.8,4.9C-1384.6-673.3-1382.4-671.1-1379.8-671.1z M-1380.8-671.6l-2.2-1.5
		l-6.1,10.1l2.3,1.4L-1380.8-671.6z M-1383-678.9l2.2-1.4l-5.8-10.1l-2.3,1.3L-1383-678.9z M-1375.5-674.7h11.6l0-2.6h-11.6V-674.7z
		 M-1379.8-674c-1.1,0-2-0.9-2-2c0-1.1,0.9-2,2-2s2,0.9,2,2C-1377.8-674.8-1378.7-674-1379.8-674z"/>
</g>
</svg>
