<?xml version="1.0" encoding="utf-8"?>
<!-- Generator: Adobe Illustrator 26.0.3, SVG Export Plug-In . SVG Version: 6.00 Build 0)  -->
<svg version="1.1" id="Layer_1" xmlns="http://www.w3.org/2000/svg" xmlns:xlink="http://www.w3.org/1999/xlink" x="0px" y="0px"
	 viewBox="0 0 40 40" style="enable-background:new 0 0 40 40;" xml:space="preserve">
<g id="Regular-S" transform="matrix(1 0 0 1 1400.26 696)">
	<path d="M-1400.3-660.8c0,1,0.8,1.8,1.8,1.8h36.5c1,0,1.8-0.8,1.8-1.8c0-1-0.8-1.8-1.8-1.8h-36.5
		C-1399.5-662.6-1400.3-661.8-1400.3-660.8z"/>
	<path d="M-1398.5-667.3c0,1.1,0.7,1.7,1.7,1.7h4c1.1,0,1.7-0.6,1.7-1.7v-15.6c0-1.1-0.7-1.7-1.7-1.7h-4c-1.1,0-1.7,0.7-1.7,1.7
		V-667.3z"/>
	<path d="M-1388.8-667.3c0,1.1,0.6,1.7,1.7,1.7h3.9c1.1,0,1.7-0.6,1.7-1.7v-24c0-1-0.7-1.7-1.7-1.7h-3.9c-1.1,0-1.7,0.6-1.7,1.7
		V-667.3z"/>
	<path d="M-1379.1-667.3c0,1.1,0.7,1.7,1.7,1.7h3.9c1.1,0,1.7-0.6,1.7-1.7v-19.9c0-1.1-0.7-1.7-1.7-1.7h-3.9c-1.1,0-1.7,0.6-1.7,1.7
		V-667.3z"/>
	<path d="M-1369.5-667.3c0,1.1,0.7,1.7,1.7,1.7h4c1.1,0,1.7-0.6,1.7-1.7v-11.6c0-1.1-0.7-1.7-1.7-1.7h-4c-1.1,0-1.7,0.7-1.7,1.7
		V-667.3z"/>
</g>
</svg>
