<?xml version="1.0" encoding="utf-8"?>
<!-- Generator: Adobe Illustrator 26.0.3, SVG Export Plug-In . SVG Version: 6.00 Build 0)  -->
<svg version="1.1" id="Layer_1" xmlns="http://www.w3.org/2000/svg" xmlns:xlink="http://www.w3.org/1999/xlink" x="0px" y="0px"
	 viewBox="0 0 40 40" style="enable-background:new 0 0 40 40;" xml:space="preserve">
<g id="Regular-S" transform="matrix(1 0 0 1 1403.58 696)">
	<path d="M-1383.6-656c10,0,18.3-8.3,18.3-18.3c0-10-8.3-18.3-18.3-18.3c-10,0-18.2,8.3-18.2,18.3
		C-1401.8-664.3-1393.5-656-1383.6-656z M-1383.6-671.2c-1.7,0-3.1-1.4-3.1-3.1c0-1.2,0.7-2.2,1.7-2.8v-8.3c0-0.8,0.6-1.4,1.4-1.4
		c0.8,0,1.4,0.6,1.4,1.4v8.3c1,0.5,1.7,1.5,1.7,2.8C-1380.5-672.6-1381.9-671.2-1383.6-671.2z M-1372.6-687.7l2.9,3.1l1.7-1.8
		c0.5-0.5,0.7-1.1,0.7-1.6c0-1.1-0.9-2-2.1-2c-0.7,0-1.2,0.2-1.6,0.7L-1372.6-687.7z M-1385.7-691.5h4.3v-2.2c0-1.2-1-2.2-2.1-2.2
		c-1.2,0-2.1,1-2.1,2.2V-691.5z"/>
</g>
</svg>
