<svg id="Layer_1" data-name="Layer 1" xmlns="http://www.w3.org/2000/svg" viewBox="0 0 294 294"><path d="M99.15,29.53h-.06c-.08,0-.07.15-.11.22s0-.18.11-.21h.06l3.47-.88h0Z" transform="translate(-3 -3)"/><path d="M99.85,33.54l-1.29-3.3a.37.37,0,0,0-.49-.22H98l-3,2-.1-1.4a.28.28,0,0,0-.2-.24l-4.8-1.27L90,29l-.1.11,4.8,1.28a.27.27,0,0,1,.2.23L95,32l3-2v0h0a.38.38,0,0,1,.5.21h0l1.29,3.3.67-.3h0Z" transform="translate(-3 -3)"/><polygon points="149.76 10.05 151.49 8.19 151.49 8.19 149.76 10.05"/><polygon points="99.71 22.15 100.84 19.91 100.84 19.91 99.71 22.15"/><path d="M90.54,28.44h0a.27.27,0,0,0,0-.36l-1.66-1.82h0l1.66,1.82A.27.27,0,0,1,90.54,28.44Z" transform="translate(-3 -3)"/><polygon points="94.04 15.88 94.04 15.88 93.69 16.37 94.04 15.88"/><rect x="88.3" y="21.42" height="1.1"/><path d="M94,25.25h0A.28.28,0,0,0,94,25l-2.53-3.6h0L94,25A.28.28,0,0,1,94,25.25Z" transform="translate(-3 -3)"/><polygon points="90.41 15.31 90.41 15.31 90.27 18.16 90.41 15.31"/><polygon points="142.2 9.2 142.63 8.19 142.63 8.19 142.2 9.2"/><path d="M145.9,19.7l.48-1.31a.27.27,0,0,0-.09-.3L142.43,15h0l3.86,3.12a.27.27,0,0,1,.09.3l-.48,1.31,2.91-.51Z" transform="translate(-3 -3)"/><path d="M147.75,13.06h0a.26.26,0,0,0,.07-.24L147,8.5h0l.83,4.32A.24.24,0,0,1,147.75,13.06Z" transform="translate(-3 -3)"/><polygon points="150.14 5.5 150.14 5.5 149.65 5.79 150.14 5.5"/><path d="M151.78,9.29Z" transform="translate(-3 -3)"/><path d="M150.31,19.35h-.06S150.3,19.38,150.31,19.35Z" transform="translate(-3 -3)"/><polygon points="145.7 6.17 147.06 3.49 147.06 3.49 145.7 6.17 145.7 6.18 145.7 6.17"/><polygon points="56.69 46.75 56.75 46.23 56.75 46.23 56.69 46.75"/><path d="M23.34,97h0a.27.27,0,0,0-.19-.17l-4.3-.93h0l4.3.94A.24.24,0,0,1,23.34,97Z" transform="translate(-3 -3)"/><path d="M21.6,99.27h0a.26.26,0,0,0-.05-.29l-.76-.79h0l.76.79A.24.24,0,0,1,21.6,99.27Z" transform="translate(-3 -3)"/><path d="M20.15,94.58h0l-1.6-1.92Z" transform="translate(-3 -3)"/><path d="M33.27,99.12l-3.18-1.57a.4.4,0,0,0-.52.18h0v.06l-.82,3.48-1-1a.26.26,0,0,0-.31,0L23,102.61v-1a.26.26,0,0,0-.25-.26l-2.45-.22h0l2.45.22a.26.26,0,0,1,.25.26v1l4.39-2.32a.26.26,0,0,1,.31,0l1,1,.82-3.49v-.06h0a.4.4,0,0,1,.52-.18l3.18,1.57.29-.68h0Z" transform="translate(-3 -3)"/><path d="M149.7,23l.18-3.54a.38.38,0,0,0-.37-.41h0a.38.38,0,0,1,.37.41h0L149.7,23Z" transform="translate(-3 -3)"/><path d="M30,96.63v.06h0l2-3h0Z" transform="translate(-3 -3)"/><path d="M98.56,23.19l.82-2.41h0l-.83,2.41h0Z" transform="translate(-3 -3)"/><polygon points="18.44 88.58 18.46 88.77 18.46 88.77 18.46 88.77 18.44 88.58"/><rect x="21.8" y="86.92" height="2.55"/><rect x="51.86" y="45.83" height="2.54"/><rect x="45.75" y="52.05" height="1.1"/><path d="M59.79,60.59,57.42,58a.38.38,0,0,0-.54,0h0v0l-2,2.93-.59-1.26a.27.27,0,0,0-.27-.16L49,60h0l4.94-.51a.24.24,0,0,1,.27.15l.59,1.26,2-2.9v0h0a.39.39,0,0,1,.55,0l2.37,2.63.52-.52h0Z" transform="translate(-3 -3)"/><path d="M57.72,57.09h0a.38.38,0,0,0,0,.5h0a.38.38,0,0,1,0-.5h0L60.65,55h0Z" transform="translate(-3 -3)"/><path d="M49.28,59.12h0a.26.26,0,0,0-.13-.33L47,57.67h0l2.2,1.12A.28.28,0,0,1,49.28,59.12Z" transform="translate(-3 -3)"/><polygon points="51.42 48.53 50.62 47.34 51.42 48.53 51.42 48.53"/><path d="M51.37,54.92h0a.27.27,0,0,0-.12-.23l-3.64-2.45h0l3.64,2.46A.25.25,0,0,1,51.37,54.92Z" transform="translate(-3 -3)"/><path d="M49.29,51.51h0l-.93-2.85h0Z" transform="translate(-3 -3)"/><path d="M143.3,14.56h0a.26.26,0,0,0,.14-.33l-.76-2.34h0l.76,2.35A.27.27,0,0,1,143.3,14.56Z" transform="translate(-3 -3)"/><path d="M241,49.56a.26.26,0,0,0,.33-.13l1.12-2.2h0l-1.12,2.2A.26.26,0,0,1,241,49.56Z" transform="translate(-3 -3)"/><path d="M239.53,60.07l2.64-2.37a.38.38,0,0,0,0-.54h-.06L239.2,55l1.26-.6a.25.25,0,0,0,.16-.26l-.52-5h0l.52,5a.25.25,0,0,1-.16.26l-1.26.6,2.93,2h.05a.39.39,0,0,1,0,.55L239.54,60l.52.52h0Z" transform="translate(-3 -3)"/><path d="M243,58v-.06a.39.39,0,0,0-.5,0h0a.39.39,0,0,1,.5,0V58l2.06,2.93h0Z" transform="translate(-3 -3)"/><path d="M278.62,92.07Z" transform="translate(-3 -3)"/><rect x="245.42" y="54.28" height="4.97"/><path d="M248.61,49.57h0l2.85-.93h0Z" transform="translate(-3 -3)"/><polygon points="241.01 46.24 242.03 45.83 242.03 45.83 241.01 46.24"/><polygon points="248.29 52.09 248.29 52.09 248.12 52.1 248.29 52.09"/><path d="M245.2,51.65a.29.29,0,0,0,.23-.12l2.46-3.64h0l-2.46,3.64A.29.29,0,0,1,245.2,51.65Z" transform="translate(-3 -3)"/><path d="M270.22,97.57V97.5a.38.38,0,0,0-.44-.24h0a.38.38,0,0,1,.44.24v.07l.65,3.51h0Z" transform="translate(-3 -3)"/><path d="M278.79,92.21h0l2.65.3Z" transform="translate(-3 -3)"/><polygon points="271.01 98.19 273.53 99.67 273.53 99.67 271.01 98.19"/><path d="M274.82,92.69a.3.3,0,0,0,.26,0l3.74-2.29h0l-3.75,2.29A.28.28,0,0,1,274.82,92.69Z" transform="translate(-3 -3)"/><polygon points="269.23 86.08 271.16 84.55 271.16 84.55 269.23 86.08"/><path d="M266.17,98l3.38-1.06a.38.38,0,0,0,.25-.49h0v-.06l-1.8-3.1h1.4a.27.27,0,0,0,.25-.18l1.58-4.71h0l-1.58,4.71a.27.27,0,0,1-.25.18H268l1.82,3.09v.06h0a.37.37,0,0,1-.23.48h0L266.17,98l.26.69h0Z" transform="translate(-3 -3)"/><path d="M201.76,22l.81-.75h0l-.81.75Z" transform="translate(-3 -3)"/><polygon points="203.2 17.63 205.55 15.76 205.55 15.76 203.2 17.63 203.19 17.64 203.2 17.63"/><path d="M206,20.67Z" transform="translate(-3 -3)"/><path d="M203.72,23.78a.27.27,0,0,0,.17-.19l1-4.27h0l-1,4.27A.27.27,0,0,1,203.72,23.78Z" transform="translate(-3 -3)"/><path d="M150.71,19.08h0l3.53.62h0Z" transform="translate(-3 -3)"/><polygon points="207.63 21.88 207.63 21.88 205.97 22.57 207.63 21.88"/><rect x="152.77" y="11.05" height="4.97"/><polygon points="207.52 18.87 207.52 18.87 207.35 18.88 207.52 18.87"/><path d="M201.36,33.66,203,30.51a.39.39,0,0,0-.17-.52h-.06l-3.47-.9,1-1a.26.26,0,0,0,0-.3l-2.22-4.45h0l2.22,4.45a.26.26,0,0,1,0,.3l-1,1,3.47.9h.06a.39.39,0,0,1,.17.52l-1.64,3.15.67.3h0Z" transform="translate(-3 -3)"/><path d="M203.37,30.59h0c.08-.11.22-.1.35-.1C203.59,30.49,203.45,30.48,203.37,30.59Z" transform="translate(-3 -3)"/><polygon points="204.17 27.88 204.17 27.88 207.74 26.96 204.17 27.88"/><path d="M203.91,30.49H204l3,2h0Z" transform="translate(-3 -3)"/><path d="M199.05,23.3a.25.25,0,0,0,.26-.24h0l.28-2.45h0l-.28,2.45a.25.25,0,0,1-.26.24Z" transform="translate(-3 -3)"/><path d="M150,3A147,147,0,1,0,297,150,147,147,0,0,0,150,3Zm89.09,51.81,1.27-.6h0l-.52-4.94v-.4l.38.13.9.33h0l1.12-2.2.2-.4.24.37L243.9,49h0l1-.41.37-.14v.39l-.09,2.54h0l2.46-3.65.31-.46.14.54.4,1.5h0l2.86-.93.47-.16-.15.48-.93,2.85h0l1.49.4.54.15-.46.31-3.64,2.46h0l2.55-.09h.39l-.15.36-.41,1h0L253,57.46l.37.24-.39.2L250.81,59h0l.33.9.14.38h-.41l-4.94-.52h0L245.32,61l-.19.4-.25-.36-2-2.93h0a.14.14,0,0,0-.17,0h0l-2.38,2.63-.18.2-.19-.19-.52-.52-.19-.19.2-.18L242,57.51a.13.13,0,0,0,0-.18h0l-2.93-2-.36-.26Zm-41-31.75h1l.28-2.46v-.43l.35.26,1.83,1.35h0l.82-.75.29-.26.12.37.81,2.41h0l1-4.27.13-.54.32.45.9,1.26h0l2.35-1.87.39-.31v.5l.13,3h0l1.54-.15.56-.05-.33.46L208,25.61h0l2.35-1,.36-.15V26h0l2.22.5.43.09-.3.33-1.67,1.82h0l.63.73.26.31-.39.1-4.81,1.25h0L207,32.47v.44l-.36-.25-2.95-2h0a.14.14,0,0,0-.17,0h0l-1.3,3.3-.1.25-.24-.11-.68-.31-.24-.11.12-.24,1.64-3.14a.15.15,0,0,0-.06-.19h0l-3.46-.89-.43-.11.31-.32,1-1h0l-2.22-4.44-.18-.37ZM142.44,12l-.14-.42.43.09,2.23.47h0l.43-1,.15-.36.27.29,1.73,1.86h0l-.83-4.32L146.63,8l.48.28,1.35.78h0l1.36-2.67.22-.45.23.45,1.36,2.67h0L153,8.28l.5-.28-.11.55-.84,4.32h0L154.31,11l.27-.29.15.36.43,1h0l2.23-.47.43-.09-.14.42-.76,2.34h0l.87.4.37.18-.31.25L154,18.29h0l.48,1.32.15.41-.43-.08-3.53-.61h0a.14.14,0,0,0-.14.12h0l.19,3.54v.27h-1.27V23l.19-3.54a.15.15,0,0,0-.13-.14h0l-3.53.61-.43.08.15-.41.48-1.32h0l-3.86-3.13L142,14.9l.37-.18.86-.4h0ZM88.83,26l2.22-.48h0V24l.36.16,2.34,1h0l-2.53-3.59-.32-.46.55.06,1.54.16h0l.14-3v-.5l.39.31L95.91,20h0l.9-1.26.33-.45.13.54,1,4.28h0l.82-2.41.13-.37.29.26.8.75h0l1.9-1.34.35-.26v.44l.26,2.45h1.41l-.18.37-2.24,4.43h0l1,1,.31.31-.43.11-3.47.88h0a.14.14,0,0,0-.07.16h0l1.62,3.16.12.23-.25.11-.67.31-.25.11-.09-.25-1.28-3.31a.14.14,0,0,0-.18-.07h0l-3,2-.36.24V32l-.11-1.4h0l-4.81-1.27-.39-.1.26-.31.63-.73h0l-1.66-1.83L88.44,26Zm-42,31.45,1.91-1.24h0l-.42-1-.14-.37h.39l2.54.09h0l-3.65-2.46L47,52.13l.54-.14,1.5-.4h0l-.93-2.85-.11-.5.48.16,2.85.92h0l.4-1.49.15-.54.31.46,2.46,3.64h0l-.09-2.55v-.39l.36.15,1,.41h0l1.23-1.91.24-.37.2.4,1.12,2.19h0l.9-.33.38-.14v.41l-.52,4.94h0l1.26.59.4.19-.36.25L57.86,57.3h0a.15.15,0,0,0,0,.18h0l2.63,2.37.2.18-.19.19-.52.52-.19.19-.18-.2L57.24,58.1a.13.13,0,0,0-.18,0h0l-2,3-.26.36-.18-.4L54,59.77h0l-5,.51h-.4l.14-.38L49,59h0l-2.2-1.12-.39-.2ZM14.07,155.89a5.79,5.79,0,1,1,5.78-5.8h0A5.8,5.8,0,0,1,14.07,155.89ZM22.76,103v-1.41h0l-2.46-.22h-.43l.25-.36,1.31-1.86h0l-.76-.8-.28-.28L20.7,98l2.4-.86h0l-4.3-.93L18.25,96l.45-.33,1.24-.93h0L18,92.43,17.7,92h.5l3-.2h0L21,90.26V89.7l.46.32,3.64,2.47h0l-1-2.33-.16-.35h1.49l.45-2.23.08-.43.33.29L28.11,89h0l.71-.64.3-.27.12.39,1.35,4.78h0l1.39.08h.44l-.24.37-1.95,3h0a.13.13,0,0,0,.05.17h0l3.33,1.23.25.09-.11.25-.29.68-.1.24-.24-.12L30,97.78a.14.14,0,0,0-.18.06h0L29,101.35l-.1.43-.32-.3-1-1h0l-4.39,2.32ZM150,274A124,124,0,1,1,274,150,124,124,0,0,1,150,274ZM276.87,101.72h0l-.07,1v.41l-.35-.21-4.28-2.52h0l-1.06.91-.34.28-.08-.43L270,97.61h0a.12.12,0,0,0-.15-.08h0L266.6,99l-.24.1-.1-.25-.26-.69-.09-.25.25-.08,3.38-1.07a.14.14,0,0,0,.09-.17h0l-1.82-3.09-.22-.38h1.81L271,88.35l.13-.38.29.28.69.68h0l1.92-1.6.34-.28.07.44.33,2.25h1.5l-.18.35-1.14,2.28h0l3.75-2.3.48-.29-.09.55L278.82,92h0l3,.34.5.06-.34.36L280,95h0l1.19,1,.43.36-.55.09-4.33.73h0l2.36,1,.36.14-.29.27-.79.76h0l1.23,1.91.23.38h-.44Zm8.43,54.05a5.79,5.79,0,1,1,5.79-5.79,5.79,5.79,0,0,1-5.79,5.79Z" transform="translate(-3 -3)" fill="#fff"/><g opacity="0.3"><circle cx="147" cy="147" r="122.81" fill="#fff"/></g><circle cx="51.42" cy="51.08" r="10.13" fill="#fff" opacity="0.85" style="isolation:isolate"/><circle cx="23.33" cy="92.61" r="10.13" fill="#fff" opacity="0.85" style="isolation:isolate"/><circle cx="11.07" cy="147.1" r="5.79" fill="#fff" opacity="0.85" style="isolation:isolate"/><circle cx="271.01" cy="92.54" r="10.13" fill="#fff" opacity="0.85" style="isolation:isolate"/><circle cx="282.3" cy="146.98" r="5.79" fill="#fff" opacity="0.85" style="isolation:isolate"/><circle cx="242.95" cy="51.08" r="10.13" fill="#fff" opacity="0.85" style="isolation:isolate"/><circle cx="202.36" cy="22.99" r="10.13" fill="#fff" opacity="0.85" style="isolation:isolate"/><circle cx="146.96" cy="10.9" r="10.13" fill="#fff" opacity="0.85" style="isolation:isolate"/><circle cx="93.69" cy="22.57" r="10.13" fill="#fff" opacity="0.85" style="isolation:isolate"/></svg>