<svg xmlns="http://www.w3.org/2000/svg" viewBox="0 0 160 160"><rect width="160" height="160" rx="38" fill="#1E5A3C"/><rect transform="rotate(-14 80 84)" x="40" y="36" width="64" height="92" rx="10" fill="#2F7350" stroke="#fff" stroke-width="5"/><g transform="rotate(9 80 84)"><rect x="56" y="36" width="64" height="92" rx="10" fill="#fff"/><path d="M64.14 58 68.11 45.59H73.18L77.29 58H74.03L70.83 47.8L71.73 48.14H69.49L70.41 47.8L67.3 58ZM67.38 55.13 68.33 52.54H73.04L74 55.13Z" fill="#D52B1E"/><path transform="translate(71 66) scale(.34)" d="M50 5L57 19L64 15L61 38L72 27L75 34L86 32L82 45L90 49L70 64L73 73L53 70L53 92L47 92L47 70L27 73L30 64L10 49L18 45L14 32L25 34L28 27L39 38L36 15L43 19Z" fill="#D52B1E"/></g></svg>
