<?xml version="1.0" encoding="UTF-8"?><svg id="Layer_1" xmlns="http://www.w3.org/2000/svg" xmlns:xlink="http://www.w3.org/1999/xlink" viewBox="0 0 250 250"><defs><symbol id="A" viewBox="0 0 131.27 81.55"><g><g><path d="M129.17,15.72s-3.97,29.79-23.83,29.79H25.91C6.05,45.52,2.09,15.72,2.09,15.72c0,0,7.94,5.96,63.54,5.96s63.54-5.96,63.54-5.96h0Z" fill="#61b2e4" stroke="#61b2e4" stroke-linecap="round" stroke-linejoin="round" stroke-width="4.17"/><path d="M74.98,2.07l9.02,5.21-5.69,1.53-26.05,45.1,1.53,5.69-11.46,19.85-10.83-6.25,11.46-19.85,5.69-1.53L74.69,6.71l.28-4.65" fill="#a57939"/></g><path d="M74.7,6.74l.28-4.65m1.25,10.34l-23.96,41.5,1.53,5.69-11.46,19.85-10.83-6.25,11.46-19.85,2.85-.76M74.99,2.09l7.22,4.17m-17.71,39.26h40.86c19.85,0,23.83-29.78,23.83-29.78,0,0-6.73,5-50.86,5.84m-17.14,.1C9.64,21.36,2.11,15.73,2.11,15.73c0,0,3.97,29.79,23.83,29.79h21.48" fill="none" stroke="#000" stroke-linecap="round" stroke-linejoin="round" stroke-width="4.17"/></g></symbol><clipPath id="clippath"><rect x=".81" y="48.03" width="248.06" height="154.13" fill="none"/></clipPath></defs><g clip-path="url(#clippath)"><use width="131.27" height="81.55" transform="translate(.8 48.04) scale(1.89)" xlink:href="#A"/></g></svg>