<?xml version="1.0" encoding="UTF-8"?><svg id="Layer_1" xmlns="http://www.w3.org/2000/svg" xmlns:xlink="http://www.w3.org/1999/xlink" viewBox="0 0 250 250"><defs><symbol id="A" viewBox="0 0 131.27 81.55"><g><g><path d="M129.16,65.84s-3.97-29.79-23.83-29.79H25.9c-19.86,0-23.82,29.79-23.82,29.79,0,0,7.94-5.96,63.54-5.96s63.54,5.96,63.54,5.96h0Z" fill="#61b2e4" stroke="#61b2e4" stroke-linecap="round" stroke-linejoin="round" stroke-width="4.17"/><path d="M74.98,79.49l9.02-5.21-5.69-1.53L52.25,27.65l1.53-5.69L42.32,2.11l-10.83,6.25,11.46,19.85,5.69,1.53,26.04,45.11,.28,4.65" fill="#a57939"/></g><path d="M74.69,74.82l.28,4.65m1.25-10.34L52.26,27.63l1.53-5.69L42.33,2.09l-10.83,6.25,11.46,19.85,2.85,.76m29.17,50.52l7.22-4.17m-17.71-39.26h40.86c19.85,0,23.83,29.78,23.83,29.78,0,0-6.73-5-50.86-5.84m-17.14-.1c-51.55,.32-59.08,5.95-59.08,5.95,0,0,3.97-29.79,23.83-29.79h21.48" fill="none" stroke="#fff" stroke-linecap="round" stroke-linejoin="round" stroke-width="4.17"/></g></symbol><clipPath id="clippath"><rect x=".81" y="48.03" width="248.06" height="154.13" fill="none"/></clipPath><clipPath id="clippath-1"><rect x=".8" y="48.04" width="248.1" height="154.13" fill="none"/></clipPath></defs><g clip-path="url(#clippath)"><g clip-path="url(#clippath-1)"><use width="131.27" height="81.55" transform="translate(.81 202.18) scale(1.89 -1.89)" xlink:href="#A"/></g></g></svg>