<?xml version="1.0" encoding="UTF-8"?><svg id="Capa_1" xmlns="http://www.w3.org/2000/svg" viewBox="0 0 250 250"><path d="M19.97,190.01c-1.59-.9-3.04-1.37-4.19-1.37-.83,0-1.84,.21-3.08,1.73-.83,1.02-1.91,3.91-1.57,6.84,.18,1.58,.73,2.74,1.63,3.45,8.29,6.49,44.07,21.22,57.52,22.82,1.56,.18,3.35,.38,4.95,.38,3.12,0,6.54-.59,11.19-5.8-4.87-.53-10.89-2.27-18.96-5.45-16.11-6.35-32.09-13.95-47.5-22.6h.01Z" fill="#7a4d33"/><path d="M234.22,188.64c-1.14,0-2.59,.47-4.19,1.37-15.41,8.65-31.39,16.26-47.5,22.6-8.07,3.18-14.09,4.92-18.96,5.45,4.65,5.21,8.06,5.8,11.19,5.8,1.6,0,3.4-.2,4.95-.38,13.45-1.6,49.23-16.33,57.52-22.82,.9-.7,1.45-1.87,1.63-3.45,.33-2.93-.74-5.81-1.57-6.84-1.24-1.53-2.25-1.73-3.08-1.73h0Z" fill="#7a4d33"/><path d="M102.94,49.07v2.04c0,2.91,8.38,8.26,22.06,8.26s22.06-5.35,22.06-8.26v-2.04c-5.78,2.94-13.43,4.68-22.06,4.68s-16.28-1.74-22.06-4.68Z" fill="#6eccae"/><path d="M102.94,34.41c0,2.91,8.38,8.26,22.06,8.26s22.06-5.35,22.06-8.26-8.38-8.26-22.06-8.26-22.06,5.35-22.06,8.26Z" fill="#b4f0df"/><path d="M245.9,183.4c-3.09-3.82-7.13-5.83-11.68-5.83-3.08,0-6.31,.94-9.61,2.79-14.97,8.41-30.49,15.79-46.13,21.96-8.29,3.27-14.18,4.85-18,4.85-2.03,0-3.38-.41-5.13-1.25l-23.95-41.49,62.87-108.89c1.53-2.65,.62-6.03-2.03-7.56-2.65-1.53-6.03-.62-7.56,2.03l-59.67,103.36L65.33,50c-1.53-2.65-4.92-3.56-7.56-2.03-2.65,1.53-3.56,4.92-2.03,7.56l62.87,108.89-23.95,41.49c-1.75,.84-3.1,1.25-5.13,1.25-3.82,0-9.71-1.59-18-4.85-15.64-6.16-31.16-13.55-46.13-21.96-3.29-1.85-6.53-2.79-9.61-2.79-4.55,0-8.59,2.02-11.69,5.84-2.98,3.68-4.58,9.73-3.97,15.06,.52,4.58,2.53,8.36,5.8,10.92,9.84,7.7,47.28,23.23,63.04,25.1,1.87,.22,4.05,.46,6.26,.46,11.12,0,19.02-6.19,28.19-22.06l21.58-37.38,21.58,37.38c9.17,15.88,17.07,22.06,28.19,22.06,2.21,0,4.39-.24,6.26-.46,15.76-1.87,53.2-17.4,63.04-25.1,3.28-2.57,5.29-6.34,5.8-10.92,.6-5.33-.99-11.38-3.97-15.06h0Zm-7.03,13.81c-.18,1.58-.73,2.74-1.63,3.45-8.29,6.49-44.07,21.22-57.52,22.82-1.56,.18-3.35,.38-4.95,.38-3.12,0-6.54-.59-11.19-5.8,4.87-.53,10.89-2.27,18.96-5.45,16.11-6.35,32.09-13.95,47.5-22.6,1.59-.9,3.04-1.37,4.19-1.37,.83,0,1.84,.21,3.08,1.73,.83,1.03,1.91,3.91,1.57,6.84h0Zm-163.64,26.65c-1.6,0-3.4-.2-4.95-.38-13.45-1.6-49.23-16.33-57.52-22.82-.9-.7-1.45-1.87-1.63-3.45-.33-2.93,.74-5.81,1.57-6.84,1.24-1.53,2.25-1.73,3.08-1.73,1.14,0,2.59,.47,4.19,1.37,15.41,8.65,31.39,16.26,47.5,22.6,8.07,3.18,14.09,4.92,18.96,5.45-4.65,5.21-8.06,5.8-11.19,5.8h-.01Z"/><path d="M125,70.44c18.89,0,33.14-8.31,33.14-19.34v-16.69c0-11.02-14.25-19.34-33.14-19.34s-33.13,8.31-33.13,19.34v16.7c0,11.02,14.24,19.34,33.13,19.34h0Zm0-44.3c13.69,0,22.06,5.35,22.06,8.26s-8.38,8.26-22.06,8.26-22.06-5.35-22.06-8.26,8.38-8.26,22.06-8.26Zm22.06,24.96c0,2.91-8.38,8.26-22.06,8.26s-22.06-5.35-22.06-8.26v-2.04c5.78,2.94,13.43,4.68,22.06,4.68s16.29-1.74,22.06-4.68v2.04Z"/></svg>