<?xml version="1.0" encoding="UTF-8"?><svg id="Layer_1" xmlns="http://www.w3.org/2000/svg" xmlns:xlink="http://www.w3.org/1999/xlink" viewBox="0 0 143.91 187.17"><defs><symbol id="A" viewBox="0 0 131.27 81.55"><g><g><path d="M129.16,65.84s-3.97-29.79-23.83-29.79H25.9c-19.86,0-23.82,29.79-23.82,29.79,0,0,7.94-5.96,63.54-5.96s63.54,5.96,63.54,5.96h0Z" fill="#63b1e2" stroke="#63b1e2" stroke-linecap="round" stroke-linejoin="round" stroke-width="4.17"/><path d="M74.98,79.49l9.02-5.21-5.69-1.53L52.25,27.65l1.53-5.69L42.32,2.11l-10.83,6.25,11.46,19.85,5.69,1.53,26.04,45.11,.28,4.65" fill="#a47938"/></g><path d="M74.69,74.82l.28,4.65m1.25-10.34L52.26,27.63l1.53-5.69L42.33,2.09l-10.83,6.25,11.46,19.85,2.85,.76m29.17,50.52l7.22-4.17m-17.71-39.26h40.86c19.85,0,23.83,29.78,23.83,29.78,0,0-6.73-5-50.86-5.84m-17.14-.1c-51.55,.32-59.08,5.95-59.08,5.95,0,0,3.97-29.79,23.83-29.79h21.48" fill="none" stroke="#000" stroke-linecap="round" stroke-linejoin="round" stroke-width="4.17"/></g></symbol><clipPath id="clippath"><rect x="23.54" y="12.2" width="10.61" height="6.59" fill="none"/></clipPath><clipPath id="clippath-1"><rect x="23.54" y="12.2" width="10.61" height="6.59" fill="none"/></clipPath><clipPath id="clippath-2"><rect x="123.31" y="26.3" width="10.61" height="6.59" fill="none"/></clipPath><clipPath id="clippath-3"><rect x="123.31" y="26.3" width="10.61" height="6.59" fill="none"/></clipPath><clipPath id="clippath-4"><rect x="80.41" y="111.95" width="10.61" height="6.59" fill="none"/></clipPath><clipPath id="clippath-5"><rect x="80.41" y="111.95" width="10.61" height="6.59" fill="none"/></clipPath><clipPath id="clippath-6"><rect x="23.54" y="152.42" width="10.61" height="6.59" fill="none"/></clipPath><clipPath id="clippath-7"><rect x="23.54" y="152.42" width="10.61" height="6.59" fill="none"/></clipPath></defs><g><rect x="3.54" y="4.52" width="135.88" height="135.88" rx="4" ry="4" fill="#fff"/><rect x="7.4" y="51.3" width="14.38" height="14.06" fill="#6a8cff"/><rect x="50.21" y="51.3" width="42.15" height="42.51" fill="#a6c8ff"/><rect x="-7.62" y="65.25" width="129.46" height="14.23" transform="translate(129.48 15.26) rotate(90)" fill="#a6c8ff"/><rect x="6.86" y="65.36" width="129.46" height="14.23" fill="#a6c8ff"/><rect x="50.22" y="65.52" width="14.38" height="14.06" fill="#6a8cff"/><path d="M134.25,8.27c.87,0,1.57,.71,1.57,1.57v125.18c0,.87-.71,1.57-1.57,1.57H9.07c-.87,0-1.57-.71-1.57-1.57V9.84c0-.87,.71-1.57,1.57-1.57h125.18m0-1.43H9.07c-1.66,0-3,1.34-3,3v125.18c0,1.66,1.34,3,3,3h125.18c1.66,0,3-1.34,3-3V9.84c0-1.66-1.34-3-3-3h0Z" fill="#231f20"/><line x1="92.56" y1="8" x2="92.56" y2="137.22" fill="none" stroke="#231f20" stroke-linejoin="round" stroke-width="1.19"/><line x1="50.22" y1="7.76" x2="50.22" y2="136.98" fill="none" stroke="#231f20" stroke-linejoin="round" stroke-width="1.19"/><line x1="136.27" y1="93.81" x2="7.05" y2="93.81" fill="none" stroke="#231f20" stroke-linejoin="round" stroke-width="1.19"/><line x1="21.72" y1="8" x2="21.72" y2="137.22" fill="none" stroke="#231f20" stroke-linejoin="round" stroke-width=".48"/><line x1="35.97" y1="8" x2="35.97" y2="137.22" fill="none" stroke="#231f20" stroke-linejoin="round" stroke-width=".48"/><line x1="64.51" y1="8.23" x2="64.51" y2="137.45" fill="none" stroke="#231f20" stroke-linejoin="round" stroke-width=".48"/><line x1="78.86" y1="8" x2="78.86" y2="137.22" fill="none" stroke="#231f20" stroke-linejoin="round" stroke-width=".48"/><line x1="107.36" y1="8.23" x2="107.36" y2="137.45" fill="none" stroke="#231f20" stroke-linejoin="round" stroke-width=".48"/><line x1="121.48" y1="8" x2="121.48" y2="137.22" fill="none" stroke="#231f20" stroke-linejoin="round" stroke-width=".48"/><line x1="136.24" y1="22.46" x2="7.02" y2="22.46" fill="none" stroke="#231f20" stroke-linejoin="round" stroke-width=".48"/><line x1="136.24" y1="65.36" x2="7.02" y2="65.36" fill="none" stroke="#231f20" stroke-linejoin="round" stroke-width=".48"/><line x1="136.32" y1="79.59" x2="7.1" y2="79.59" fill="none" stroke="#231f20" stroke-linejoin="round" stroke-width=".48"/><line x1="136.12" y1="108.04" x2="6.9" y2="108.04" fill="none" stroke="#231f20" stroke-linejoin="round" stroke-width=".48"/><line x1="136.08" y1="122.27" x2="6.86" y2="122.27" fill="none" stroke="#231f20" stroke-linejoin="round" stroke-width=".48"/><g id="comp_53-canadian-maple-leaf"><g><path d="M113.91,74.82c-.18,.04-1.84,.47-1.84,.47,0,0,.09-.36,.18-.62,.09-.27,0-.31-.09-.4-.05-.04-1.87-1.64-1.87-1.64l.31-.13c.18-.09,.13-.2,.09-.31-.04-.13-.36-1.19-.36-1.19,0,0,.84,.18,1.02,.22,.13,.04,.18-.04,.22-.13s.27-.57,.27-.57c0,0,.93,1.06,.98,1.11,.18,.13,.36,0,.31-.18,0-.18-.49-2.3-.49-2.3,0,0,.53,.31,.71,.4,.13,.09,.22,.09,.31-.09,.09-.13,.75-1.42,.75-1.42,0,0,.67,1.28,.76,1.42,.09,.18,.18,.18,.31,.09,.18-.09,.71-.4,.71-.4,0,0-.49,2.12-.49,2.3-.04,.18,.13,.31,.31,.18,.04-.04,.98-1.11,.98-1.11,0,0,.22,.49,.27,.58s.09,.18,.22,.13c.18-.04,1.02-.22,1.02-.22,0,0-.31,1.06-.36,1.19-.04,.1-.09,.22,.09,.31l.31,.13s-1.82,1.6-1.87,1.64c-.09,.09-.18,.13-.09,.4,.09,.27,.18,.62,.18,.62,0,0-1.71-.42-1.88-.47l.59,2.37h-1.98l.4-2.37h0Z" fill="#d12026"/><path d="M115.49,77.39h-1.98c-.06,0-.11-.03-.15-.07s-.05-.1-.04-.16l.35-2.07c-.52,.13-1.54,.39-1.55,.39-.07,.02-.14,0-.19-.05-.05-.05-.07-.12-.05-.19,0-.01,.09-.37,.18-.64,.03-.09,.03-.12,.03-.13,0,0-.02-.02-.04-.04,0,0-.02-.02-.03-.03-.06-.06-1.14-1.01-1.86-1.63-.05-.04-.08-.11-.07-.18s.05-.12,.12-.15l.31-.13s0,0,0,0c0-.02-.01-.04-.02-.05,0,0,0,0,0-.01-.04-.14-.35-1.16-.36-1.2-.02-.07,0-.14,.04-.19,.05-.05,.12-.07,.19-.06,.03,0,.81,.17,1.02,.22,0,0,0-.02,.01-.03,.04-.07,.2-.43,.26-.57,.03-.06,.08-.1,.15-.11s.13,.01,.18,.07c.33,.38,.82,.93,.94,1.07h0c0-.14-.26-1.27-.48-2.27-.02-.08,.01-.16,.07-.2s.15-.05,.22-.01c0,0,.53,.31,.7,.39,0,0,.01,0,.02,.01,0,0,.01,0,.02,0,0,0,0-.01,.01-.02,0,0,0-.01,.01-.02,.06-.09,.49-.91,.74-1.4,.03-.07,.1-.11,.18-.11h0c.07,0,.14,.04,.18,.11,.26,.49,.68,1.31,.75,1.4,0,0,0,.01,.01,.02,0,0,0,.02,.01,.02,0,0,0,0,.01,0,0,0,.01,0,.02-.01,.17-.08,.7-.39,.7-.39,.07-.04,.15-.03,.22,.01,.06,.05,.09,.13,.07,.2-.23,.99-.48,2.12-.48,2.26h0c.12-.13,.63-.7,.94-1.06,.04-.05,.11-.07,.18-.07,.07,0,.12,.05,.15,.11,.06,.13,.23,.5,.26,.57,0,0,0,.02,.01,.03,.21-.05,.98-.21,1.02-.22,.07-.01,.14,0,.19,.06s.06,.12,.04,.19c-.01,.04-.32,1.06-.36,1.2,0,0,0,0,0,.01,0,.01-.01,.03-.02,.05,0,0,0,0,0,0l.31,.13c.06,.03,.11,.08,.12,.15,.01,.07-.01,.13-.07,.18-.71,.62-1.8,1.57-1.86,1.63,0,0-.02,.02-.03,.03-.01,.01-.03,.03-.04,.04,0,0,0,.04,.03,.13,.09,.27,.18,.62,.18,.64,.02,.07,0,.14-.05,.19s-.12,.07-.19,.05c0,0-1.02-.25-1.56-.39l.51,2.04s0,.04,0,.06c0,.11-.09,.2-.2,.2h0Zm-1.74-.4h1.49l-.53-2.13c-.02-.07,0-.14,.05-.19,.05-.05,.12-.07,.19-.05,.13,.03,1.05,.26,1.56,.39-.03-.09-.06-.2-.09-.29-.11-.33,0-.47,.11-.58,0,0,.02-.01,.02-.02,.04-.04,1.08-.95,1.64-1.44h-.02s0-.01,0-.01c-.18-.09-.23-.21-.24-.31,0-.1,.02-.18,.05-.25,.03-.1,.17-.55,.26-.87-.25,.05-.58,.12-.69,.15-.04,.01-.08,.02-.12,.02-.21,0-.29-.17-.33-.25-.02-.04-.08-.18-.14-.3-.32,.36-.75,.85-.79,.89,0,0-.01,.01-.02,.02-.08,.06-.17,.09-.26,.09-.12,0-.22-.05-.29-.14-.07-.09-.09-.2-.07-.32,.02-.23,.24-1.22,.39-1.88-.12,.07-.25,.14-.32,.17-.06,.04-.15,.08-.25,.08-.14,0-.25-.08-.34-.25-.08-.13-.38-.7-.59-1.09-.2,.38-.5,.96-.58,1.09-.08,.16-.2,.25-.34,.25-.1,0-.19-.05-.25-.08-.07-.04-.2-.11-.32-.17,.15,.65,.37,1.65,.39,1.87,.02,.12,0,.23-.07,.32-.07,.09-.18,.14-.29,.14-.09,0-.18-.03-.26-.09,0,0-.02-.01-.02-.02-.04-.04-.49-.55-.79-.89-.06,.13-.12,.26-.14,.3-.04,.08-.13,.25-.33,.25-.04,0-.08,0-.12-.02-.11-.03-.43-.1-.69-.15,.11,.35,.23,.77,.26,.87,.03,.06,.06,.15,.05,.25,0,.09-.06,.22-.24,.3,0,0,0,0,0,0h-.02c.53,.47,1.6,1.41,1.64,1.45,0,0,.02,.02,.02,.02,.12,.11,.23,.25,.12,.58,0,0,0,0,0,0-.03,.09-.06,.19-.09,.28,.5-.13,1.39-.35,1.52-.39,.06-.02,.13,0,.18,.05,.05,.05,.07,.11,.06,.18l-.36,2.14h0Z" fill="#6e0e10"/></g></g><g clip-path="url(#clippath)"><g clip-path="url(#clippath-1)"><use width="131.27" height="81.55" transform="translate(23.54 18.8) scale(.08 -.08)" xlink:href="#A"/></g></g><g clip-path="url(#clippath-2)"><g clip-path="url(#clippath-3)"><use width="131.27" height="81.55" transform="translate(123.31 32.89) scale(.08 -.08)" xlink:href="#A"/></g></g><g clip-path="url(#clippath-4)"><g clip-path="url(#clippath-5)"><use width="131.27" height="81.55" transform="translate(80.41 118.55) scale(.08 -.08)" xlink:href="#A"/></g></g><g><path d="M10.38,60.95c-.06-.04-.12-.05-.17-.05-.03,0-.07,0-.12,.07-.03,.04-.08,.16-.06,.27,0,.06,.03,.11,.07,.14,.33,.26,1.76,.85,2.3,.91,.06,0,.13,.02,.2,.02,.12,0,.26-.02,.45-.23-.2-.02-.44-.09-.76-.22-.65-.25-1.29-.56-1.9-.91h0Z" fill="#7a4e34"/><path d="M18.96,60.9s-.1,.02-.17,.05c-.62,.35-1.26,.65-1.9,.91-.32,.13-.56,.2-.76,.22,.19,.21,.32,.23,.45,.23,.06,0,.14,0,.2-.02,.54-.06,1.97-.65,2.3-.91,.04-.03,.06-.07,.07-.14,.01-.12-.03-.23-.06-.27-.05-.06-.09-.07-.12-.07h0Z" fill="#7a4e34"/><path d="M13.7,55.31v.08c0,.12,.34,.33,.88,.33s.88-.21,.88-.33v-.08c-.23,.12-.54,.19-.88,.19s-.65-.07-.88-.19Z" fill="#72c6ab"/><path d="M13.7,54.72c0,.12,.34,.33,.88,.33s.88-.21,.88-.33-.34-.33-.88-.33-.88,.21-.88,.33Z" fill="#b8e0d7"/><path d="M19.43,60.69c-.12-.15-.29-.23-.47-.23-.12,0-.25,.04-.38,.11-.6,.34-1.22,.63-1.85,.88-.33,.13-.57,.19-.72,.19-.08,0-.14-.02-.21-.05l-.96-1.66,2.52-4.36c.06-.11,.02-.24-.08-.3-.11-.06-.24-.02-.3,.08l-2.39,4.14-2.39-4.14c-.06-.11-.2-.14-.3-.08-.11,.06-.14,.2-.08,.3l2.52,4.36-.96,1.66c-.07,.03-.12,.05-.21,.05-.15,0-.39-.06-.72-.19-.63-.25-1.25-.54-1.85-.88-.13-.07-.26-.11-.38-.11-.18,0-.34,.08-.47,.23-.12,.15-.18,.39-.16,.6,.02,.18,.1,.33,.23,.44,.39,.31,1.89,.93,2.52,1.01,.07,0,.16,.02,.25,.02,.45,0,.76-.25,1.13-.88l.86-1.5,.86,1.5c.37,.64,.68,.88,1.13,.88,.09,0,.18,0,.25-.02,.63-.07,2.13-.7,2.52-1.01,.13-.1,.21-.25,.23-.44,.02-.21-.04-.46-.16-.6h0Zm-.28,.55c0,.06-.03,.11-.07,.14-.33,.26-1.76,.85-2.3,.91-.06,0-.13,.02-.2,.02-.12,0-.26-.02-.45-.23,.2-.02,.44-.09,.76-.22,.65-.25,1.29-.56,1.9-.91,.06-.04,.12-.05,.17-.05,.03,0,.07,0,.12,.07,.03,.04,.08,.16,.06,.27h0Zm-6.55,1.07c-.06,0-.14,0-.2-.02-.54-.06-1.97-.65-2.3-.91-.04-.03-.06-.07-.07-.14-.01-.12,.03-.23,.06-.27,.05-.06,.09-.07,.12-.07,.05,0,.1,.02,.17,.05,.62,.35,1.26,.65,1.9,.91,.32,.13,.56,.2,.76,.22-.19,.21-.32,.23-.45,.23h0Z"/><path d="M14.59,56.16c.76,0,1.33-.33,1.33-.77v-.67c0-.44-.57-.77-1.33-.77s-1.33,.33-1.33,.77v.67c0,.44,.57,.77,1.33,.77h0Zm0-1.77c.55,0,.88,.21,.88,.33s-.34,.33-.88,.33-.88-.21-.88-.33,.34-.33,.88-.33Zm.88,1c0,.12-.34,.33-.88,.33s-.88-.21-.88-.33v-.08c.23,.12,.54,.19,.88,.19s.65-.07,.88-.19v.08Z"/></g><g><path d="M53.27,75.1c-.06-.04-.12-.05-.17-.05-.03,0-.07,0-.12,.07-.03,.04-.08,.16-.06,.27,0,.06,.03,.11,.07,.14,.33,.26,1.76,.85,2.3,.91,.06,0,.13,.02,.2,.02,.12,0,.26-.02,.45-.23-.2-.02-.44-.09-.76-.22-.65-.25-1.29-.56-1.9-.91h0Z" fill="#7a4e34"/><path d="M61.85,75.04s-.1,.02-.17,.05c-.62,.35-1.26,.65-1.9,.91-.32,.13-.56,.2-.76,.22,.19,.21,.32,.23,.45,.23,.06,0,.14,0,.2-.02,.54-.06,1.97-.65,2.3-.91,.04-.03,.06-.07,.07-.14,.01-.12-.03-.23-.06-.27-.05-.06-.09-.07-.12-.07h0Z" fill="#7a4e34"/><path d="M56.59,69.45v.08c0,.12,.34,.33,.88,.33s.88-.21,.88-.33v-.08c-.23,.12-.54,.19-.88,.19s-.65-.07-.88-.19Z" fill="#72c6ab"/><path d="M56.59,68.87c0,.12,.34,.33,.88,.33s.88-.21,.88-.33-.34-.33-.88-.33-.88,.21-.88,.33Z" fill="#b8e0d7"/><path d="M62.32,74.83c-.12-.15-.29-.23-.47-.23-.12,0-.25,.04-.38,.11-.6,.34-1.22,.63-1.85,.88-.33,.13-.57,.19-.72,.19-.08,0-.14-.02-.21-.05l-.96-1.66,2.52-4.36c.06-.11,.02-.24-.08-.3-.11-.06-.24-.02-.3,.08l-2.39,4.14-2.39-4.14c-.06-.11-.2-.14-.3-.08-.11,.06-.14,.2-.08,.3l2.52,4.36-.96,1.66c-.07,.03-.12,.05-.21,.05-.15,0-.39-.06-.72-.19-.63-.25-1.25-.54-1.85-.88-.13-.07-.26-.11-.38-.11-.18,0-.34,.08-.47,.23-.12,.15-.18,.39-.16,.6,.02,.18,.1,.33,.23,.44,.39,.31,1.89,.93,2.52,1.01,.07,0,.16,.02,.25,.02,.45,0,.76-.25,1.13-.88l.86-1.5,.86,1.5c.37,.64,.68,.88,1.13,.88,.09,0,.18,0,.25-.02,.63-.07,2.13-.7,2.52-1.01,.13-.1,.21-.25,.23-.44,.02-.21-.04-.46-.16-.6h0Zm-.28,.55c0,.06-.03,.11-.07,.14-.33,.26-1.76,.85-2.3,.91-.06,0-.13,.02-.2,.02-.12,0-.26-.02-.45-.23,.2-.02,.44-.09,.76-.22,.65-.25,1.29-.56,1.9-.91,.06-.04,.12-.05,.17-.05,.03,0,.07,0,.12,.07,.03,.04,.08,.16,.06,.27h0Zm-6.55,1.07c-.06,0-.14,0-.2-.02-.54-.06-1.97-.65-2.3-.91-.04-.03-.06-.07-.07-.14-.01-.12,.03-.23,.06-.27,.05-.06,.09-.07,.12-.07,.05,0,.1,.02,.17,.05,.62,.35,1.26,.65,1.9,.91,.32,.13,.56,.2,.76,.22-.19,.21-.32,.23-.45,.23h0Z"/><path d="M57.47,70.31c.76,0,1.33-.33,1.33-.77v-.67c0-.44-.57-.77-1.33-.77s-1.33,.33-1.33,.77v.67c0,.44,.57,.77,1.33,.77h0Zm0-1.77c.55,0,.88,.21,.88,.33s-.34,.33-.88,.33-.88-.21-.88-.33,.34-.33,.88-.33Zm.88,1c0,.12-.34,.33-.88,.33s-.88-.21-.88-.33v-.08c.23,.12,.54,.19,.88,.19s.65-.07,.88-.19v.08Z"/></g><g><path d="M89.8,13.6l-.03-.11-.28,.1,.21-.63-.11,.04h0s-.52,.16-.52,.16l.26-.83,.06-.34-.22-.03-.98,.32,.33-1.03-.05-.16-.34,.05-.82,.26,.16-.55h0s.04-.12,.04-.12l-.63,.19,.06-.19-.11-.04-.08,.27-.67,.21-.04,.12,.67-.21-.18,.57-.81,.26,.03,.11,.74-.24-.17,.52-.73,.24,.03,.11,.65-.21-.17,.52-.87,.28,.03,.11,.14-.05-.17,.52-.64,.21,.03,.11,.56-.18-.17,.52-.66,.21,.04,.11,.58-.19-.17,.52-.45,.14,.04,.11,.37-.12-.21,.65,.65-.21-.12,.37,.11,.04,.14-.45,.52-.17-.19,.58,.11,.04,.21-.66,.52-.17-.18,.56,.11,.03,.21-.64,.65-.21,.21-.65,.52-.17-.21,.65,.11,.03,.24-.73,.52-.17-.24,.74,.11,.03,.26-.81,.51-.18-.22,.65,.12-.05,.21-.64,.36-.12h0s0,0,0,0Zm-.86-.4l-.52,.17,.17-.52,.52-.17-.17,.52h0Zm-2.65,.98l-.17,.52-.52,.17,.17-.52,.52-.17Zm-.47,.03l.17-.52,.52-.17-.17,.52-.52,.17h0Zm.61-.08l.52-.17-.17,.52-.52,.17,.17-.52h0Zm.04-.13l.17-.52,.52-.17-.17,.52-.52,.17Zm.94-1.48l-.52,.17,.17-.52,.52-.17-.17,.52h0Zm.09,.09l.52-.17-.17,.52-.52,.17,.17-.52h0Zm-.13,.04l-.17,.52-.52,.17,.17-.52,.52-.17h0Zm-.08,.61l.52-.17-.17,.52-.52,.17,.17-.52h0Zm.65-.21l.52-.17-.17,.52-.52,.17,.17-.52h0Zm1.38-1.03l-.17,.52-.52,.17,.17-.52,.52-.17h0Zm-.65,.21l-.17,.52-.52,.17,.17-.52,.52-.17h0Zm-.61,.08l-.52,.17,.17-.52,.52-.17-.17,.52h0Zm.38-1.17l-.17,.52-.52,.17,.17-.52,.52-.17h0Zm-.65,.21l-.17,.52-.52,.17,.17-.52,.52-.17h0Zm-.95-.32l.5-.16-.16,.55-.52,.17,.18-.56h0Zm-.22,.7l.52-.17-.17,.52-.52,.17,.17-.52h0Zm-.21,.65l.52-.17-.17,.52-.52,.17,.17-.52Zm-.21,.65l.52-.17-.17,.52-.52,.17,.17-.52h0Zm-.65,.21l.52-.17-.17,.52-.52,.17,.17-.52Zm-.21,.65l.52-.17-.17,.52-.52,.17,.17-.52h0Zm-.21,.66l.52-.17-.17,.52-.52,.17,.17-.52Zm.14,1l-.52,.17,.17-.52,.52-.17-.17,.52h0Zm.65-.21l-.52,.17,.17-.52,.52-.17-.17,.52Zm.66-.21l-.52,.17,.17-.52,.52-.17-.17,.52h0Zm.65-.21l-.52,.17,.17-.52,.52-.17-.17,.52h0Zm.21-.65l-.52,.17,.17-.52,.52-.17-.17,.52h0Zm.65-.21l-.52,.17,.17-.52,.52-.17-.17,.52Zm.65-.21l-.52,.17,.17-.52,.52-.17-.17,.52h0Zm.13-.04l.17-.52,.52-.17-.17,.51-.51,.18h0Z" fill="#292f33"/><path d="M80.75,20.02c-.18,0-.32-.15-.32-.32,0-.09,.03-.17,.09-.23l3.25-3.25c.13-.13,.33-.13,.46,0s.13,.33,0,.46h0l-3.25,3.25c-.06,.06-.15,.09-.23,.09Z" fill="#226798"/><path d="M88.13,14.84l-.41-.06c.09-.59-.08-1.16-.48-1.56-.4-.4-.97-.58-1.56-.48l-.06-.41c.72-.11,1.42,.11,1.92,.6,.5,.5,.71,1.19,.6,1.92h0Z" fill="#292f33"/><path d="M88.9,14.65l-.41-.05c.1-.74-.14-1.46-.66-1.98-.52-.52-1.24-.76-1.98-.66l-.05-.41c.87-.11,1.72,.17,2.33,.78s.89,1.46,.78,2.33h0Z" fill="#292f33"/><circle cx="87.34" cy="18.07" r=".95" fill="#f19020"/><path d="M89.45,11c-.84-.84-2.21-1.44-3.3-.35-.41,.41-.48,.81-.57,1.24-.11,.58-.24,1.24-1.23,2.24-.47,.47-.49,.85-.51,1.19-.02,.27-.03,.5-.25,.81-.06,.08-.05,.19,.02,.27l.45,.45c.07,.07,.18,.08,.27,.02,.31-.22,.54-.23,.81-.25,.34-.02,.72-.04,1.19-.51,1-1,1.66-1.12,2.24-1.23,.43-.08,.83-.16,1.24-.57,1.09-1.09,.49-2.46-.35-3.31h0Zm-.21,.66c.14-.1,.33-.07,.43,.07s.07,.33-.07,.43c0,0,0,0,0,0-.14,.1-.33,.06-.43-.08-.09-.14-.06-.32,.07-.42h0Zm-.7-.94c.17,0,.31,.13,.32,.3,0,.17-.13,.31-.3,.32h-.02c-.17,0-.3-.15-.3-.32,0-.16,.14-.29,.3-.3h0Zm-1.32-.26c.04-.16,.21-.26,.38-.22s.26,.21,.22,.38c-.04,.16-.21,.26-.38,.22s-.26-.21-.22-.38h0Zm2.28,3.56c-.32,.32-.61,.37-1.02,.45-.61,.12-1.36,.26-2.45,1.35-.05,.05-.1,.09-.15,.13-.3,.07-.72,.07-1.09-.29s-.36-.78-.29-1.09c.04-.05,.09-.1,.13-.15,1.09-1.09,1.23-1.84,1.35-2.45,.08-.41,.13-.7,.45-1.02,.07-.07,.15-.14,.22-.19,.82,.08,1.49,.38,2.08,.95,.59,.58,.89,1.33,.95,2.08-.06,.08-.12,.15-.19,.22h0Zm.41-.78c-.17,0-.31-.13-.32-.3,0-.17,.13-.31,.3-.32h.02c.17,0,.3,.15,.3,.32,0,.16-.14,.29-.3,.3h0Z" fill="#5fa8dc"/><path d="M89.46,13.68s-.07-.03-.07-.07c0-.01,0-.02,0-.03,.07-.16,.21-.36,.3-.49-.18,.02-.41-.02-.51-.25-.11-.26,0-.58,.07-.76-.21,.03-.6,.04-.78-.18-.17-.2-.13-.53-.09-.72-.19,.09-.51,.2-.76,.1-.13-.06-.22-.15-.26-.27-.02-.09-.03-.18,0-.26-.14,.11-.33,.23-.53,.29-.04,.01-.07,0-.09-.05h0s.01-.08,.05-.09c.35-.1,.68-.44,.68-.44,.03-.03,.07-.03,.1,0,.02,.02,.03,.06,.01,.09,0,0-.14,.24-.08,.42,.03,.08,.09,.14,.18,.18,.29,.13,.77-.16,.78-.16,.03-.02,.08,0,.1,.02,.01,.02,.01,.04,0,.06,0,0-.18,.51,.02,.74,.16,.19,.62,.14,.78,.11,.03,0,.05,0,.07,.03,.02,.02,.02,.05,0,.08,0,0-.25,.46-.12,.76,.12,.27,.5,.14,.52,.14,.04-.01,.08,0,.09,.04,0,.02,0,.05-.01,.06,0,0-.28,.38-.39,.61-.01,.02-.04,.04-.06,.04h0Z" fill="#292f33"/></g><g><polygon points="110.41 13.3 110.08 12.27 110.66 11.29 111.64 11.13 112.24 11.49 113.58 11.13 114.95 11.13 116.52 11.53 117.47 11.13 118.31 11.36 118.79 12.28 118.55 13.14 118.94 14.26 119.25 16.33 118.69 17.97 117.11 19.34 115.05 20.07 112.88 19.84 111.52 19.2 110.43 18.25 109.68 16.92 109.55 15.48 109.93 14.22 110.41 13.3" fill="#fff"/><g><path d="M119.46,16.08c0-.66-.12-1.31-.36-1.92h0s0-.03,0-.03l-.04-.08c-.1-.23-.21-.47-.35-.71,.18-.25,.27-.54,.27-.86,0-.82-.67-1.48-1.48-1.48-.37,0-.72,.14-.99,.38-.65-.3-1.37-.46-2.09-.46s-1.46,.17-2.12,.48c-.27-.25-.63-.39-1.01-.39-.82,0-1.48,.67-1.48,1.48,0,.33,.11,.65,.31,.91-.16,.28-.3,.58-.38,.76h0c-.24,.62-.36,1.27-.36,1.93,0,.73,.17,1.35,.51,1.9,.33,.53,.81,.95,1.2,1.26l.02,.02s.07,.07,.39,.24c.17,.09,.44,.23,.76,.36,.84,.35,1.61,.53,2.3,.53h.05c.7,0,1.44-.2,2.22-.59,.57-.28,.96-.56,1.01-.6l.31-.26h0c.72-.65,1.32-1.48,1.32-2.85h0Zm-1.94,2.76h0s-1.43,1.06-2.94,1.09h-.04c-1.51,0-3.1-.98-3.12-1h0c-.94-.74-1.58-1.48-1.58-2.84,0-.62,.12-1.21,.33-1.75,.1-.23,.32-.7,.54-1.01-.27-.18-.44-.48-.44-.83,0-.56,.46-1.02,1.02-1.02,.38,0,.71,.21,.88,.52,.67-.38,1.43-.6,2.24-.6s1.55,.21,2.2,.58c.18-.29,.5-.49,.87-.49,.56,0,1.02,.46,1.02,1.02,0,.33-.15,.62-.4,.8,.23,.32,.4,.7,.56,1.04,.21,.54,.33,1.13,.33,1.75,0,1.31-.59,2.05-1.47,2.76h0Z"/><path d="M115.71,14.49c0,.28,.23,.51,.51,.51s.51-.23,.51-.51-.23-.51-.51-.51-.51,.23-.51,.51Z"/><path d="M112.23,14.49c0,.28,.23,.51,.51,.51s.51-.23,.51-.51h0c0-.28-.23-.51-.51-.51s-.51,.23-.51,.51Z"/><path d="M116.2,17.2s-.08,.02-.11,.05c-.48,.26-1.07,.14-1.41-.27,0,0-.02-.02-.02-.02-.01-.02-.03-.03-.04-.06,.36-.06,.63-.37,.63-.74,0-.41-.33-.59-.75-.59s-.75,.17-.75,.59c0,.36,.26,.67,.6,.74-.01,.02-.03,.04-.04,.06,0,0-.02,.02-.02,.02-.35,.42-.96,.53-1.44,.25h0s-.06-.03-.1-.03c-.08,0-.15,.07-.15,.15,0,.07,.04,.12,.11,.14h0c.6,.35,1.34,.23,1.79-.26,.45,.49,1.2,.62,1.79,.27v-.02s.06-.08,.06-.13c0-.08-.07-.14-.15-.14h0Z"/></g></g><polygon points="124.65 70.28 124.32 69.25 124.9 68.28 125.88 68.11 126.48 68.47 127.82 68.11 129.19 68.11 130.75 68.51 131.71 68.11 132.55 68.34 133.03 69.26 132.78 70.12 133.17 71.25 133.49 73.31 132.92 74.95 131.35 76.32 129.29 77.05 127.12 76.82 125.76 76.18 124.66 75.23 123.92 73.9 123.79 72.46 124.16 71.2 124.65 70.28" fill="#fff"/><g><path d="M133.72,72.97c0-.66-.12-1.31-.36-1.92h0s0-.03,0-.03l-.04-.08c-.1-.23-.21-.47-.35-.71,.18-.25,.27-.54,.27-.86,0-.82-.67-1.48-1.48-1.48-.37,0-.72,.14-.99,.38-.65-.3-1.37-.46-2.09-.46s-1.46,.17-2.12,.48c-.27-.25-.63-.39-1.01-.39-.82,0-1.48,.67-1.48,1.48,0,.33,.11,.65,.31,.91-.16,.28-.3,.58-.38,.76h0c-.24,.62-.36,1.27-.36,1.93,0,.73,.17,1.35,.51,1.9,.33,.53,.81,.95,1.2,1.26l.02,.02s.07,.07,.39,.24c.17,.09,.44,.23,.76,.36,.84,.35,1.61,.53,2.3,.53h.05c.7,0,1.44-.2,2.22-.59,.57-.28,.96-.56,1.01-.6l.31-.26h0c.72-.65,1.32-1.48,1.32-2.85h0Zm-1.94,2.76h0s-1.43,1.06-2.94,1.09h-.04c-1.51,0-3.1-.98-3.12-1h0c-.94-.74-1.58-1.48-1.58-2.84,0-.62,.12-1.21,.33-1.75,.1-.23,.32-.7,.54-1.01-.27-.18-.44-.48-.44-.83,0-.56,.46-1.02,1.02-1.02,.38,0,.71,.21,.88,.52,.67-.38,1.43-.6,2.24-.6s1.55,.21,2.2,.58c.18-.29,.5-.49,.87-.49,.56,0,1.02,.46,1.02,1.02,0,.33-.15,.62-.4,.8,.23,.32,.4,.7,.56,1.04,.21,.54,.33,1.13,.33,1.75,0,1.31-.59,2.05-1.47,2.76h0Z"/><path d="M129.97,71.38c0,.28,.23,.51,.51,.51s.51-.23,.51-.51-.23-.51-.51-.51-.51,.23-.51,.51Z"/><path d="M126.48,71.38c0,.28,.23,.51,.51,.51s.51-.23,.51-.51h0c0-.28-.23-.51-.51-.51s-.51,.23-.51,.51Z"/><path d="M130.45,74.09s-.08,.02-.11,.05c-.48,.26-1.07,.14-1.41-.27,0,0-.02-.02-.02-.02-.01-.02-.03-.03-.04-.06,.36-.06,.63-.37,.63-.74,0-.41-.33-.59-.75-.59s-.75,.17-.75,.59c0,.36,.26,.67,.6,.74-.01,.02-.03,.04-.04,.06,0,0-.02,.02-.02,.02-.35,.42-.96,.53-1.44,.25h0s-.06-.03-.1-.03c-.08,0-.15,.07-.15,.15,0,.07,.04,.12,.11,.14h0c.6,.35,1.34,.23,1.79-.26,.45,.49,1.2,.62,1.79,.27v-.02s.06-.08,.06-.13c0-.08-.07-.14-.15-.14h0Z"/></g><g id="Group_11"><line id="Line_21" x1="99.87" y1="71.48" x2="99.87" y2="67.84" fill="none" stroke="#fff" stroke-linecap="round" stroke-linejoin="round" stroke-width=".56"/><path id="Path_72" d="M98.76,70.27v1.11h-1.11" fill="none" stroke="#fff" stroke-linecap="round" stroke-linejoin="round" stroke-width=".56"/><path id="Path_73" d="M100.99,70.27v1.11h1.11" fill="none" stroke="#fff" stroke-linecap="round" stroke-linejoin="round" stroke-width=".56"/><path id="Path_74" d="M97.74,69.25v1.11h-1.11" fill="none" stroke="#fff" stroke-linecap="round" stroke-linejoin="round" stroke-width=".56"/><path id="Path_75" d="M102,69.25v1.11h1.11" fill="none" stroke="#fff" stroke-linecap="round" stroke-linejoin="round" stroke-width=".56"/><line id="Line_22" x1="99.16" y1="71.79" x2="97.64" y2="70.27" fill="none" stroke="#fff" stroke-linecap="round" stroke-linejoin="round" stroke-width=".56"/><line id="Line_23" x1="100.58" y1="71.79" x2="102.1" y2="70.27" fill="none" stroke="#fff" stroke-linecap="round" stroke-linejoin="round" stroke-width=".56"/><path id="Path_76" d="M98.35,68.55l1.52,1.52,1.52-1.52" fill="none" stroke="#fff" stroke-linecap="round" stroke-linejoin="round" stroke-width=".56"/><line id="Line_24" x1="100.88" y1="72.5" x2="104.53" y2="72.5" fill="none" stroke="#fff" stroke-linecap="round" stroke-linejoin="round" stroke-width=".56"/><path id="Path_77" d="M103.82,70.98l-1.52,1.52,1.52,1.52" fill="none" stroke="#fff" stroke-linecap="round" stroke-linejoin="round" stroke-width=".56"/><line id="Line_25" x1="98.86" y1="72.5" x2="95.21" y2="72.5" fill="none" stroke="#fff" stroke-linecap="round" stroke-linejoin="round" stroke-width=".56"/><path id="Path_78" d="M95.92,74.02l1.52-1.52-1.52-1.52" fill="none" stroke="#fff" stroke-linecap="round" stroke-linejoin="round" stroke-width=".56"/><line id="Line_26" x1="99.87" y1="73.61" x2="99.87" y2="77.26" fill="none" stroke="#fff" stroke-linecap="round" stroke-linejoin="round" stroke-width=".56"/><path id="Path_79" d="M100.99,74.83v-1.11h1.11" fill="none" stroke="#fff" stroke-linecap="round" stroke-linejoin="round" stroke-width=".56"/><path id="Path_80" d="M98.76,74.83v-1.11h-1.11" fill="none" stroke="#fff" stroke-linecap="round" stroke-linejoin="round" stroke-width=".56"/><path id="Path_81" d="M102,75.84v-1.11h1.11" fill="none" stroke="#fff" stroke-linecap="round" stroke-linejoin="round" stroke-width=".56"/><path id="Path_82" d="M97.74,75.84v-1.11h-1.11" fill="none" stroke="#fff" stroke-linecap="round" stroke-linejoin="round" stroke-width=".56"/><line id="Line_27" x1="100.58" y1="73.31" x2="102.1" y2="74.83" fill="none" stroke="#fff" stroke-linecap="round" stroke-linejoin="round" stroke-width=".56"/><line id="Line_28" x1="99.16" y1="73.31" x2="97.64" y2="74.83" fill="none" stroke="#fff" stroke-linecap="round" stroke-linejoin="round" stroke-width=".56"/><path id="Path_83" d="M101.39,76.55l-1.52-1.52-1.52,1.52" fill="none" stroke="#fff" stroke-linecap="round" stroke-linejoin="round" stroke-width=".56"/><circle id="Ellipse_15" cx="99.87" cy="72.5" r="1.11" fill="#abdeea" stroke="#fff" stroke-linecap="round" stroke-linejoin="round" stroke-width=".56"/></g><g id="Group_11-2"><line id="Line_21-2" x1="99.85" y1="71.48" x2="99.85" y2="67.84" fill="none" stroke="#2d4e68" stroke-linecap="round" stroke-linejoin="round" stroke-width=".4"/><path id="Path_72-2" d="M98.74,70.27v1.11h-1.11" fill="none" stroke="#2d4e68" stroke-linecap="round" stroke-linejoin="round" stroke-width=".4"/><path id="Path_73-2" d="M100.97,70.27v1.11h1.11" fill="none" stroke="#2d4e68" stroke-linecap="round" stroke-linejoin="round" stroke-width=".4"/><path id="Path_74-2" d="M97.72,69.25v1.11h-1.11" fill="none" stroke="#2d4e68" stroke-linecap="round" stroke-linejoin="round" stroke-width=".4"/><path id="Path_75-2" d="M101.98,69.25v1.11h1.11" fill="none" stroke="#2d4e68" stroke-linecap="round" stroke-linejoin="round" stroke-width=".4"/><line id="Line_22-2" x1="99.14" y1="71.79" x2="97.62" y2="70.27" fill="none" stroke="#2d4e68" stroke-linecap="round" stroke-linejoin="round" stroke-width=".4"/><line id="Line_23-2" x1="100.56" y1="71.79" x2="102.08" y2="70.27" fill="none" stroke="#2d4e68" stroke-linecap="round" stroke-linejoin="round" stroke-width=".4"/><path id="Path_76-2" d="M98.33,68.55l1.52,1.52,1.52-1.52" fill="none" stroke="#2d4e68" stroke-linecap="round" stroke-linejoin="round" stroke-width=".4"/><line id="Line_24-2" x1="100.87" y1="72.5" x2="104.51" y2="72.5" fill="none" stroke="#2d4e68" stroke-linecap="round" stroke-linejoin="round" stroke-width=".4"/><path id="Path_77-2" d="M103.8,70.98l-1.52,1.52,1.52,1.52" fill="none" stroke="#2d4e68" stroke-linecap="round" stroke-linejoin="round" stroke-width=".4"/><line id="Line_25-2" x1="98.84" y1="72.5" x2="95.19" y2="72.5" fill="none" stroke="#2d4e68" stroke-linecap="round" stroke-linejoin="round" stroke-width=".4"/><path id="Path_78-2" d="M95.9,74.02l1.52-1.52-1.52-1.52" fill="none" stroke="#2d4e68" stroke-linecap="round" stroke-linejoin="round" stroke-width=".4"/><line id="Line_26-2" x1="99.85" y1="73.61" x2="99.85" y2="77.26" fill="none" stroke="#2d4e68" stroke-linecap="round" stroke-linejoin="round" stroke-width=".4"/><path id="Path_79-2" d="M100.97,74.83v-1.11h1.11" fill="none" stroke="#2d4e68" stroke-linecap="round" stroke-linejoin="round" stroke-width=".4"/><path id="Path_80-2" d="M98.74,74.83v-1.11h-1.11" fill="none" stroke="#2d4e68" stroke-linecap="round" stroke-linejoin="round" stroke-width=".4"/><path id="Path_81-2" d="M101.98,75.84v-1.11h1.11" fill="none" stroke="#2d4e68" stroke-linecap="round" stroke-linejoin="round" stroke-width=".4"/><path id="Path_82-2" d="M97.72,75.84v-1.11h-1.11" fill="none" stroke="#2d4e68" stroke-linecap="round" stroke-linejoin="round" stroke-width=".4"/><line id="Line_27-2" x1="100.56" y1="73.31" x2="102.08" y2="74.83" fill="none" stroke="#2d4e68" stroke-linecap="round" stroke-linejoin="round" stroke-width=".4"/><line id="Line_28-2" x1="99.14" y1="73.31" x2="97.62" y2="74.83" fill="none" stroke="#2d4e68" stroke-linecap="round" stroke-linejoin="round" stroke-width=".4"/><path id="Path_83-2" d="M101.37,76.55l-1.52-1.52-1.52,1.52" fill="none" stroke="#2d4e68" stroke-linecap="round" stroke-linejoin="round" stroke-width=".4"/><circle id="Ellipse_15-2" cx="99.85" cy="72.5" r="1.11" fill="#abdeea" stroke="#2d4e68" stroke-linecap="round" stroke-linejoin="round" stroke-width=".4"/></g><g><path d="M24.96,111.64c-.61,0-1.11,.5-1.11,1.11v5c0,.61,.5,1.11,1.11,1.11h1.67v-7.22h-1.67Zm7.77,0h-1.67v7.22h1.67c.61,0,1.11-.5,1.11-1.11v-5c0-.61-.5-1.11-1.11-1.11Z" fill="#d32d27"/><path d="M26.63,111.64h4.44v7.22h-4.44v-7.22Z" fill="#edeced"/><path d="M29.02,116.39c.33,.04,.63,.07,.96,.11l-.08-.28s0-.1,.04-.13l.97-.79-.2-.09c-.09-.03-.06-.08-.03-.2l.15-.54-.56,.12c-.05,0-.09-.03-.1-.06l-.07-.25-.44,.5c-.06,.08-.19,.08-.15-.1l.19-1.01-.25,.13c-.07,.04-.14,.05-.18-.02l-.35-.66h0l-.35,.66c-.04,.07-.11,.06-.18,.02l-.25-.13,.19,1.01c.04,.18-.09,.18-.15,.1l-.44-.5-.07,.25s-.04,.07-.1,.06l-.56-.12,.15,.54c.03,.12,.06,.17-.03,.2l-.2,.09,.97,.79s.06,.08,.04,.13l-.08,.28,.96-.11s.05,.02,.05,.05l-.06,1.03h.27l-.06-1.03s.02-.05,.05-.05h0Z" fill="#d32d27"/></g><path d="M96.28,11.8c-.61,0-1.11,.5-1.11,1.11v5c0,.61,.5,1.11,1.11,1.11h1.67v-7.22h-1.67Zm7.77,0h-1.67v7.22h1.67c.61,0,1.11-.5,1.11-1.11v-5c0-.61-.5-1.11-1.11-1.11Z" fill="#d32d27"/><path d="M97.95,11.8h4.44v7.22h-4.44v-7.22Z" fill="#edeced"/><path d="M100.34,16.55c.33,.04,.63,.07,.96,.11l-.08-.28s0-.1,.04-.13l.97-.79-.2-.09c-.09-.03-.06-.08-.03-.2l.15-.54-.56,.12c-.05,0-.09-.03-.1-.06l-.07-.25-.44,.5c-.06,.08-.19,.08-.15-.1l.19-1.01-.25,.13c-.07,.04-.14,.05-.18-.02l-.35-.66h0l-.35,.66c-.04,.07-.11,.06-.18,.02l-.25-.13,.19,1.01c.04,.18-.09,.18-.15,.1l-.44-.5-.07,.25s-.04,.07-.1,.06l-.56-.12,.15,.54c.03,.12,.06,.17-.03,.2l-.2,.09,.97,.79s.06,.08,.04,.13l-.08,.28,.96-.11s.05,.02,.05,.05l-.06,1.03h.27l-.06-1.03s.02-.05,.05-.05h0Z" fill="#d32d27"/><line x1="136.15" y1="36.77" x2="6.93" y2="36.77" fill="none" stroke="#231f20" stroke-linejoin="round" stroke-width=".48"/><line x1="136.15" y1="51.3" x2="6.93" y2="51.3" fill="none" stroke="#231f20" stroke-linejoin="round" stroke-width="1.19"/></g><rect x="3.35" y="145.27" width="135.88" height="38.17" rx="4" ry="4" fill="#fff"/><g><line x1="92.52" y1="148.49" x2="92.52" y2="162.72" fill="none" stroke="#231f20" stroke-linejoin="round" stroke-width=".48"/><line x1="50.19" y1="148.49" x2="50.19" y2="162.72" fill="none" stroke="#231f20" stroke-linejoin="round" stroke-width=".48"/><line x1="21.68" y1="148.49" x2="21.68" y2="162.72" fill="none" stroke="#231f20" stroke-linejoin="round" stroke-width=".48"/><line x1="35.94" y1="148.49" x2="35.94" y2="162.72" fill="none" stroke="#231f20" stroke-linejoin="round" stroke-width=".48"/><line x1="64.47" y1="148.49" x2="64.47" y2="162.72" fill="none" stroke="#231f20" stroke-linejoin="round" stroke-width=".48"/><line x1="78.82" y1="148.49" x2="78.82" y2="162.72" fill="none" stroke="#231f20" stroke-linejoin="round" stroke-width=".48"/><line x1="107.32" y1="148.49" x2="107.32" y2="162.72" fill="none" stroke="#231f20" stroke-linejoin="round" stroke-width=".48"/><line x1="121.44" y1="148.49" x2="121.44" y2="162.72" fill="none" stroke="#231f20" stroke-linejoin="round" stroke-width=".48"/><polygon points="136.08 148.49 6.86 148.49 6.86 148.93 6.86 162.72 136.05 162.72 136.08 148.49" fill="none" stroke="#231f20" stroke-miterlimit="10" stroke-width=".48"/></g><g id="comp_53-canadian-maple-leaf-2"><g><path d="M13.59,157.81c-.18,.04-1.84,.47-1.84,.47,0,0,.09-.36,.18-.62,.09-.27,0-.31-.09-.4-.05-.04-1.87-1.64-1.87-1.64l.31-.13c.18-.09,.13-.2,.09-.31-.04-.13-.36-1.19-.36-1.19,0,0,.84,.18,1.02,.22,.13,.04,.18-.04,.22-.13s.27-.57,.27-.57c0,0,.93,1.06,.98,1.11,.18,.13,.36,0,.31-.18,0-.18-.49-2.3-.49-2.3,0,0,.53,.31,.71,.4,.13,.09,.22,.09,.31-.09,.09-.13,.75-1.42,.75-1.42,0,0,.67,1.28,.76,1.42,.09,.18,.18,.18,.31,.09,.18-.09,.71-.4,.71-.4,0,0-.49,2.12-.49,2.3-.04,.18,.13,.31,.31,.18,.04-.04,.98-1.11,.98-1.11,0,0,.22,.49,.27,.58s.09,.18,.22,.13c.18-.04,1.02-.22,1.02-.22,0,0-.31,1.06-.36,1.19-.04,.1-.09,.22,.09,.31l.31,.13s-1.82,1.6-1.87,1.64c-.09,.09-.18,.13-.09,.4,.09,.27,.18,.62,.18,.62,0,0-1.71-.42-1.88-.47l.59,2.37h-1.98l.4-2.37h0Z" fill="#d12026"/><path d="M15.17,160.38h-1.98c-.06,0-.11-.03-.15-.07s-.05-.1-.04-.16l.35-2.07c-.52,.13-1.54,.39-1.55,.39-.07,.02-.14,0-.19-.05-.05-.05-.07-.12-.05-.19,0-.01,.09-.37,.18-.64,.03-.09,.03-.12,.03-.13,0,0-.02-.02-.04-.04,0,0-.02-.02-.03-.03-.06-.06-1.14-1.01-1.86-1.63-.05-.04-.08-.11-.07-.18s.05-.12,.12-.15l.31-.13s0,0,0,0c0-.02-.01-.04-.02-.05,0,0,0,0,0-.01-.04-.14-.35-1.16-.36-1.2-.02-.07,0-.14,.04-.19,.05-.05,.12-.07,.19-.06,.03,0,.81,.17,1.02,.22,0,0,0-.02,.01-.03,.04-.07,.2-.43,.26-.57,.03-.06,.08-.1,.15-.11s.13,.01,.18,.07c.33,.38,.82,.93,.94,1.07h0c0-.14-.26-1.27-.48-2.27-.02-.08,.01-.16,.07-.2s.15-.05,.22-.01c0,0,.53,.31,.7,.39,0,0,.01,0,.02,.01,0,0,.01,0,.02,0,0,0,0-.01,.01-.02,0,0,0-.01,.01-.02,.06-.09,.49-.91,.74-1.4,.03-.07,.1-.11,.18-.11h0c.07,0,.14,.04,.18,.11,.26,.49,.68,1.31,.75,1.4,0,0,0,.01,.01,.02,0,0,0,.02,.01,.02,0,0,0,0,.01,0,0,0,.01,0,.02-.01,.17-.08,.7-.39,.7-.39,.07-.04,.15-.03,.22,.01,.06,.05,.09,.13,.07,.2-.23,.99-.48,2.12-.48,2.26h0c.12-.13,.63-.7,.94-1.06,.04-.05,.11-.07,.18-.07,.07,0,.12,.05,.15,.11,.06,.13,.23,.5,.26,.57,0,0,0,.02,.01,.03,.21-.05,.98-.21,1.02-.22,.07-.01,.14,0,.19,.06s.06,.12,.04,.19c-.01,.04-.32,1.06-.36,1.2,0,0,0,0,0,.01,0,.01-.01,.03-.02,.05,0,0,0,0,0,0l.31,.13c.06,.03,.11,.08,.12,.15,.01,.07-.01,.13-.07,.18-.71,.62-1.8,1.57-1.86,1.63,0,0-.02,.02-.03,.03-.01,.01-.03,.03-.04,.04,0,0,0,.04,.03,.13,.09,.27,.18,.62,.18,.64,.02,.07,0,.14-.05,.19s-.12,.07-.19,.05c0,0-1.02-.25-1.56-.39l.51,2.04s0,.04,0,.06c0,.11-.09,.2-.2,.2h0Zm-1.74-.4h1.49l-.53-2.13c-.02-.07,0-.14,.05-.19,.05-.05,.12-.07,.19-.05,.13,.03,1.05,.26,1.56,.39-.03-.09-.06-.2-.09-.29-.11-.33,0-.47,.11-.58,0,0,.02-.01,.02-.02,.04-.04,1.08-.95,1.64-1.44h-.02s0-.01,0-.01c-.18-.09-.23-.21-.24-.31,0-.1,.02-.18,.05-.25,.03-.1,.17-.55,.26-.87-.25,.05-.58,.12-.69,.15-.04,.01-.08,.02-.12,.02-.21,0-.29-.17-.33-.25-.02-.04-.08-.18-.14-.3-.32,.36-.75,.85-.79,.89,0,0-.01,.01-.02,.02-.08,.06-.17,.09-.26,.09-.12,0-.22-.05-.29-.14-.07-.09-.09-.2-.07-.32,.02-.23,.24-1.22,.39-1.88-.12,.07-.25,.14-.32,.17-.06,.04-.15,.08-.25,.08-.14,0-.25-.08-.34-.25-.08-.13-.38-.7-.59-1.09-.2,.38-.5,.96-.58,1.09-.08,.16-.2,.25-.34,.25-.1,0-.19-.05-.25-.08-.07-.04-.2-.11-.32-.17,.15,.65,.37,1.65,.39,1.87,.02,.12,0,.23-.07,.32-.07,.09-.18,.14-.29,.14-.09,0-.18-.03-.26-.09,0,0-.02-.01-.02-.02-.04-.04-.49-.55-.79-.89-.06,.13-.12,.26-.14,.3-.04,.08-.13,.25-.33,.25-.04,0-.08,0-.12-.02-.11-.03-.43-.1-.69-.15,.11,.35,.23,.77,.26,.87,.03,.06,.06,.15,.05,.25,0,.09-.06,.22-.24,.3,0,0,0,0,0,0h-.02c.53,.47,1.6,1.41,1.64,1.45,0,0,.02,.02,.02,.02,.12,.11,.23,.25,.12,.58,0,0,0,0,0,0-.03,.09-.06,.19-.09,.28,.5-.13,1.39-.35,1.52-.39,.06-.02,.13,0,.18,.05,.05,.05,.07,.11,.06,.18l-.36,2.14h0Z" fill="#6e0e10"/></g></g><g clip-path="url(#clippath-6)"><g clip-path="url(#clippath-7)"><use width="131.27" height="81.55" transform="translate(23.54 159.01) scale(.08 -.08)" xlink:href="#A"/></g></g><g><path d="M44.38,157.19c.37,.19,1.06,.37,1.43,.31,.95-.14,1.64-.69,2.05-1.45,.18-.32,.19-.98-.09-1.05-.36-.09-.78-.02-1.44,.29-.67,.32-.83,.82-1.62,.43" fill="none" stroke="#fff" stroke-miterlimit="10" stroke-width=".39"/><path d="M47.47,154.97c.11,0,.21,.01,.3,.04,.04,.01,.08,.04,.11,.07,0,.12-.01,.27-.06,.46-.07,.28-.44,.85-.83,1.11-.38,.25-.67,.4-1.25,.4h-.05c-.1,0-.63-.01-.86-.25-.11-.12-.13-.17-.27-.26l-.02-.04,.17-.77c.2,.1,.37,.14,.51,.14,.4,0,.62-.34,1.12-.57,.49-.23,.85-.33,1.14-.33m0-.2h0c-.34,0-.73,.11-1.23,.35-.21,.1-.37,.21-.51,.31-.2,.14-.34,.24-.52,.24-.12,0-.25-.04-.42-.12l-.22-.11-.05,.24-.17,.77-.02,.08,.05,.07,.02,.04,.02,.03,.03,.02c.08,.05,.1,.08,.15,.14,.02,.03,.05,.06,.09,.1,.25,.26,.73,.31,1,.31h.05c.65,0,.99-.19,1.36-.43,.42-.28,.83-.88,.91-1.23,.06-.23,.07-.39,.07-.52v-.07s-.05-.05-.05-.05c-.06-.07-.13-.11-.2-.13-.11-.03-.23-.04-.35-.04h0Z" fill="#fff"/><path d="M47.47,154.97h.02l-.02,.05,.41,.18c0,.06-.01,.12-.03,.19l-.45-.2-.2,.46,.48,.21c-.03,.05-.06,.11-.1,.16l-.46-.2-.2,.46,.33,.15s-.1,.1-.15,.14l-.26-.12-.16,.39c-.11,.06-.22,.1-.34,.14l-.4-.17-.11,.25s-.05,0-.08,0c-.05,0-.11,0-.13,0,.05-.11,.14-.32,.14-.32l-.46-.2-.19,.42c-.06-.02-.12-.04-.18-.07l.46-1.03c.09-.03,.18-.07,.26-.12l.45,.21,.2-.46-.17-.07c.13-.08,.43-.21,.52-.24l-.1,.22,.46,.2,.2-.46-.19-.09c.17-.04,.31-.06,.45-.06m-.73,1.23l.2-.46-.46-.2-.2,.46,.46,.2m-.91,.35l.2-.46-.46-.2-.2,.46,.46,.2m.63,.28l.2-.46-.46-.2-.2,.46,.46,.2m1.01-1.94h0c-.14,0-.29,.02-.47,.07l-.22,.06h0s-.16,.07-.16,.07c-.08,.03-.39,.16-.53,.25l-.13,.08,.14,.06,.1,.04-.14,.31-.38-.17-.04-.02-.04,.02c-.09,.06-.17,.09-.24,.11h-.04s-.01,.04-.01,.04l-.46,1.03-.03,.07,.07,.03c.06,.03,.12,.05,.19,.07l.07,.02,.03-.06,.15-.35,.31,.14c-.03,.07-.08,.18-.11,.25l-.05,.1h.11s.08,0,.13,0c.03,0,.06,0,.08,0h.05s.02-.05,.02-.05l.08-.18,.33,.14h.03s.03,0,.03,0c.12-.03,.23-.08,.35-.14h.03s.01-.04,.01-.04l.13-.31,.19,.08,.04,.02,.04-.03c.05-.04,.11-.09,.16-.14l.08-.08-.1-.05-.26-.12,.14-.31,.39,.17,.06,.03,.04-.05c.04-.06,.07-.11,.1-.17l.04-.07-.08-.03-.41-.18,.14-.31,.38,.17,.09,.04,.02-.1c.02-.08,.02-.15,.03-.2v-.06s-.05-.02-.05-.02l-.33-.15,.04-.09h-.12s-.01,0-.02,0h0Zm-.8,.44l.07-.15,.07-.16,.19,.08,.12,.05-.14,.31-.31-.14h0Zm-.28,.63l.14-.31,.31,.14-.14,.31-.31-.14h0Zm-.91,.35l.14-.31,.31,.14-.14,.31-.31-.14h0Zm.63,.28l.14-.31,.31,.14-.14,.31-.31-.14h0Z" fill="#fff"/><path d="M39.83,151.48c-.08-.01-.16-.02-.23-.03-.03,0-.07,0-.1,.01-.02,.01-.04,.04-.05,.06-.07,.13-.08,.29-.02,.43,.01,.03,.04,.07,.08,.07,.01,0,.03-.01,.04-.02,.11-.09,.21-.18,.31-.29,.02-.02,.03-.05,.01-.06" fill="none" stroke="#fff" stroke-miterlimit="10" stroke-width=".39"/><path d="M42.86,158.57c-.65,.32-1.09,.69-1.54,1.14-.03,.03-.18,.19-.09,.24,.09,.05,.3-.11,.37-.07,.07,.05,.02,.14,.1,.19s.29-.11,.39-.06c.11,.05,.06,.13,.12,.2,.08,.1,.26,0,.31-.03,.28-.23,.99-.9,1.12-1.05,.17-.19,.27-.45,.12-.63" fill="none" stroke="#fff" stroke-miterlimit="10" stroke-width=".39"/><path d="M40.66,158.35c-.39,.12-.76,.29-1.11,.49-.07,.04-.15,.09-.21,.14-.03,.03-.06,.07-.03,.09,.06,.06,.18-.03,.26,.03,.03,.02,.01,.13,.04,.16,.02,.03,.07,.05,.11,.04s.08-.02,.12-.03c.09-.03,.18-.04,.24,.03,.04,.04,.03,.08,.06,.13,.02,.03,.04,.06,.11,.06,.1,0,.19-.05,.27-.1,.37-.25,.72-.53,1.07-.8" fill="none" stroke="#fff" stroke-miterlimit="10" stroke-width=".39"/><path d="M42.1,151.8c.26,.07,.33,0,.52,.01,.25,.02,.22,.26,.18,.39-.05,.17-.14,.31-.27,.42-.02,.02-.05,.04-.08,.04-.04,0-.07-.02-.1-.04-.18-.15-.29-.37-.3-.6" fill="none" stroke="#fff" stroke-miterlimit="10" stroke-width=".39"/><path d="M42.36,152.41s1.17,1.01,1.74,1.66,1.2,1.9,1.13,2.61c-.07,.71-.47,1.29-.72,1.56-.22,.24-1.01,.8-1.92,.8-.13,0-.25-.01-.38-.03-1.06-.19-1.36-.22-2.26-1.04s-.73-2.3-.73-2.3c0,0-.63-.42-.39-1.15,.16-.5,.63-.55,.63-.55l1.23,.02,1.69-1.58m0-.26l-.13,.12-1.63,1.52-1.15-.02h-.03s-.59,.08-.79,.69c-.2,.61,.12,1.08,.38,1.3-.02,.38-.03,1.61,.81,2.36,.92,.82,1.25,.89,2.25,1.07l.11,.02c.14,.02,.28,.04,.42,.04,.96,0,1.8-.58,2.07-.86,.16-.17,.69-.8,.78-1.67,.08-.83-.63-2.13-1.18-2.76-.57-.65-1.71-1.64-1.76-1.68l-.13-.11h0Z" fill="#fff"/><path d="M40.76,151.15c.52,0,.98,.12,1.41,.71h0c.33,.46,.41,.77,.45,1.07,.05,.42-.13,.92-.67,1.3-.22,.15-.55,.21-.9,.21-.65,0-1.37-.19-1.61-.37-.38-.27-.5-.63-.48-1.01,.03-.49,.28-.92,.48-1.18,.24-.32,.77-.73,1.33-.73m0-.2c-.6,0-1.19,.42-1.48,.81-.17,.23-.47,.71-.51,1.28-.03,.5,.16,.91,.56,1.19,.28,.19,1.04,.4,1.72,.4,.44,0,.78-.08,1.01-.24,.55-.37,.83-.93,.76-1.48-.04-.3-.12-.65-.49-1.16-.5-.7-1.07-.79-1.57-.79h0Z" fill="#fff"/><path d="M41.24,151.96c.08,0,.17,.07,.2,.18,.04,.13,0,.25-.1,.28-.01,0-.03,0-.04,0-.08,0-.17-.07-.2-.18-.04-.13,0-.25,.1-.28,.01,0,.03,0,.04,0m0-.2h0s-.07,0-.1,.02c-.1,.03-.19,.12-.23,.23-.03,.09-.03,.2,0,.3,.06,.19,.22,.31,.39,.31,.04,0,.07,0,.1-.02,.2-.07,.3-.3,.23-.53-.06-.19-.22-.31-.39-.31h0Z" fill="#fff"/><path d="M39.92,153.18l.43,.18c-.03,.22-.03,.68-.15,.69,0,0,0,0-.01,0-.13,0-.19-.2-.19-.2,0,0-.02,.17-.1,.17h0c-.1,0-.22-.41-.18-.68l.22-.15m-.03-.22l-.09,.06-.22,.15-.07,.05v.08c-.05,.27,.03,.66,.17,.81,.07,.08,.15,.1,.2,.1,0,0,0,0,.01,0,.04,0,.07-.01,.1-.03,.05,.04,.11,.06,.18,.06,.01,0,.02,0,.03,0,.14-.01,.23-.12,.27-.32,.02-.1,.03-.23,.04-.35,0-.07,.01-.14,.02-.19l.02-.15-.14-.06-.43-.18-.1-.04h0Z" fill="#fff"/><path d="M39.62,151.89h0c.12,0,.1,.18,.06,.27-.03,.07-.1,.14-.17,.14-.02,0-.04,0-.06-.02-.06-.04-.05-.17-.04-.22,.02-.08,.09-.17,.2-.17m0-.2h0c-.13,0-.32,.08-.39,.31-.04,.12-.04,.35,.12,.45,.05,.03,.11,.05,.16,.05,.17,0,.29-.14,.35-.26,.05-.11,.08-.29,0-.42-.05-.08-.13-.13-.23-.13h-.01Z" fill="#fff"/><path d="M39.83,154.21c.08,0,.15,.04,.23,.07,.1,.05,.2,.07,.3,.15,.3,.23,.34,1.19,1.3,1.52,.12,.04,.24,.06,.36,.06,.66,0,1.16-.58,1.16-.58,0,0-.37,.84-1.18,.84-.07,0-.15,0-.23-.02-.31-.06-.59-.21-.82-.42-.25-.23-.43-.48-.58-.78-.09,0-.17-.03-.24-.08-.06-.04-.11-.1-.17-.13-.07-.03-.14-.02-.21-.04-.01,0-.03-.02,0-.05,.04-.05,.1-.09,.15-.13-.06-.07-.23-.09-.24-.1s-.02-.02-.02-.03c.05-.06,.19-.07,.29-.08-.05-.07-.11-.12-.18-.17,.03,0,.05-.01,.08-.01m0-.2h0c-.05,0-.1,0-.15,.03l-.34,.14,.19,.13s-.03,.03-.05,.05c-.04,.05-.05,.11-.04,.18,.01,.06,.05,.11,.1,.14-.02,.05-.03,.1-.01,.15,.02,.07,.08,.13,.15,.15h0s.09,.02,.12,.02c.02,0,.05,0,.06,0,.01,0,.04,.03,.06,.05,.02,.02,.05,.04,.08,.07,.07,.05,.15,.09,.23,.11,.15,.28,.33,.52,.57,.74,.26,.24,.58,.41,.91,.47,.09,.02,.18,.02,.27,.02,.93,0,1.34-.92,1.36-.95l.51-1.17-.84,.96s-.46,.51-1.01,.51c-.1,0-.2-.02-.29-.05-.57-.19-.77-.64-.94-1-.09-.21-.17-.38-.31-.49-.08-.07-.17-.1-.24-.13-.03-.01-.06-.03-.09-.04-.1-.05-.2-.1-.32-.1h0Z" fill="#fff"/><path d="M40.08,152.21s.06,.01,.08,.04c.06,.08,.15,.19,.18,.24,.08,.12,.06,.26-.03,.32-.08,.05-.32,.17-.32,.17,0,0-.19-.16-.25-.23-.06-.07-.03-.18,0-.23,.05-.08,.16-.17,.28-.28,.02-.02,.05-.03,.07-.03m0-.2c-.07,0-.15,.03-.2,.08l-.04,.04c-.11,.1-.21,.19-.27,.28h0s0,0,0,0c-.08,.12-.1,.31,.02,.46,.07,.09,.25,.23,.28,.26l.1,.08,.11-.05s.26-.12,.35-.19c.18-.13,.22-.39,.08-.59-.03-.04-.08-.11-.14-.19-.02-.02-.03-.04-.05-.06-.06-.08-.15-.12-.24-.12h0Z" fill="#fff"/><path d="M39.98,152.83s.09,.01,.09,.03c0,.08,0,.18,.02,.26,.04,.11,.1,.14,.19,.17,.04,.01,.08,.02,.11,.02,.11,0,.19-.06,.23-.1,.01-.01,.02-.02,.04-.02,.03,0,.06,.04,.01,.12-.11,.17-.25,.23-.37,.23-.17,0-.31-.1-.32-.17-.05,.07-.14,.12-.25,.12-.11,0-.23-.06-.28-.22-.02-.06,0-.11,.01-.11,0,0,0,0,0,0,.02,.02,.09,.13,.21,.13,.04,0,.08-.01,.13-.04,.06-.04,.07-.12,.07-.19,0-.07,0-.13,.02-.19,0-.01,.04-.02,.08-.02m0-.2h0c-.18,0-.24,.09-.26,.15-.03,.08-.03,.16-.03,.22,0,0,0,.02,0,.03,0,.02,0,.04,0,.05,0,0,0,0,0,0,0,0-.02-.02-.05-.04,0,0-.02-.02-.03-.03-.04-.03-.09-.05-.14-.05h0c-.06,0-.12,.03-.16,.08-.05,.07-.07,.18-.03,.28,.07,.22,.25,.36,.47,.36,.08,0,.15-.02,.22-.05,.09,.06,.22,.1,.35,.1,.22,0,.41-.11,.54-.32,.06-.1,.07-.21,.03-.3-.04-.07-.12-.12-.2-.12h0c-.07,0-.14,.03-.19,.09h0s-.03,.03-.08,.03c-.02,0-.03,0-.05,0-.06-.02-.06-.02-.07-.05,0-.03,0-.1,0-.15,0-.02,0-.03,0-.05,0-.03,0-.23-.29-.23h0Z" fill="#fff"/><path d="M39.31,154.9c.1,.16,.11,.38,.07,.54-.03,.08-.07,.15-.1,.18-.02,.02-.04,.02-.06,.02-.02,0-.04,0-.05-.02-.01,0-.03-.03-.04-.04,0,0,.04-.03,.07-.07,.07-.12,.1-.31,.03-.53l.09-.09m.04-.32l-.18,.18-.09,.09-.08,.08,.04,.11c.05,.17,.03,.3,0,.37,0,0,0,.01-.02,.01-.01,.01-.05,.04-.06,.09l-.05,.13,.1,.09s0,0,.01,.01c.01,0,.02,.02,.03,.03,.05,.04,.11,.06,.18,.06,.07,0,.14-.03,.2-.08h0s0,0,0,0c.06-.07,.11-.16,.15-.26,.07-.22,.04-.5-.08-.7l-.13-.22h0Z" fill="#fff"/><path d="M42.37,153.31c.03,.34,.06,1.1-.96,1.23-.05,0-.1,0-.15,0-.32,0-.61-.11-.61-.11,0,0,.58-.04,.83-.34l-.06,.25c.24-.03,.49-.49,.49-.49v.31c.31-.16,.46-.87,.46-.87m.09-1.32l-.28,1.28h0c-.02,.08-.04,.17-.08,.26v-.41s-.35,.62-.35,.62l.08-.37-.51,.6c-.16,.19-.55,.26-.69,.27l-.87,.06,.81,.32s.33,.13,.68,.13c.06,0,.12,0,.18-.01,.51-.07,.86-.28,1.03-.65,.15-.31,.12-.65,.11-.79l-.1-1.3h0Z" fill="#fff"/><path d="M39.05,154.41c.13-.2,.35-.26,.54-.23,0,0,.03,0,.04,.02,.01,.01,0,.03,0,.04-.01,.01-.03,.01-.05,.02-.09,.02-.18,.09-.19,.19,.07-.03,.14-.02,.21,.01,.02,0,.03,.03,.03,.05,0,0-.02,.01-.03,.02-.08,.03-.13,.11-.15,.19,.04,0,.09-.02,.13-.01s.1,.04,.1,.08c0,.04-.1,.01-.15,.09-.03,.05-.05,.12-.1,.16-.04,.04-.11,.04-.16,.03-.06-.02-.1-.05-.14-.1-.13-.15-.16-.37-.07-.55" fill="none" stroke="#fff" stroke-miterlimit="10" stroke-width=".2"/></g><path d="M44.38,157.19c.37,.19,1.06,.37,1.43,.31,.95-.14,1.64-.69,2.05-1.45,.18-.32,.19-.98-.09-1.05-.36-.09-.78-.02-1.44,.29-.67,.32-.83,.82-1.62,.43" fill="#6a4e43"/><path d="M44.56,156.53c.14,.09,.16,.14,.27,.26,.22,.24,.75,.25,.86,.25,.61,0,.91-.14,1.3-.4,.39-.26,.76-.83,.83-1.11,.05-.19,.07-.34,.06-.46-.03-.03-.06-.06-.11-.07-.36-.09-.78-.02-1.44,.29-.67,.32-.83,.82-1.62,.43l-.17,.77,.02,.04h0Z" fill="#b2927c" isolation="isolate" opacity=".44"/><path d="M47.85,155.39c.01-.07,.02-.14,.03-.19l-.41-.18,.02-.05c-.14,0-.29,.02-.47,.06l.19,.09-.2,.46-.46-.2,.1-.22c-.08,.03-.39,.16-.52,.24l.17,.07-.2,.46-.45-.21c-.09,.05-.17,.1-.26,.12l-.46,1.03c.06,.03,.12,.05,.18,.07l.19-.42,.46,.2s-.09,.21-.14,.32c.03,0,.16,0,.2,0l.11-.25,.4,.17c.12-.03,.23-.08,.34-.14l.16-.39,.26,.12c.05-.04,.1-.09,.15-.14l-.33-.15,.2-.46,.46,.2c.04-.06,.07-.11,.1-.16l-.48-.21,.2-.46,.45,.2h0Zm-2.01,1.16l-.46-.2,.2-.46,.46,.2-.2,.46Zm.63,.28l-.46-.2,.2-.46,.46,.2-.2,.46Zm.28-.63l-.46-.2,.2-.46,.46,.2-.2,.46Z" fill="#6a4e43"/><path d="M39.83,151.48c-.08-.01-.16-.02-.23-.03-.03,0-.07,0-.1,.01-.02,.01-.04,.04-.05,.06-.07,.13-.08,.29-.02,.43,.01,.03,.04,.07,.08,.07,.01,0,.03-.01,.04-.02,.11-.09,.21-.18,.31-.29,.02-.02,.03-.05,.01-.06" fill="#825c4f"/><path d="M42.86,158.57c-.65,.32-1.09,.69-1.54,1.14-.03,.03-.18,.19-.09,.24,.09,.05,.3-.11,.37-.07,.07,.05,.02,.14,.1,.19s.29-.11,.39-.06,.06,.13,.12,.2c.08,.1,.26,0,.31-.03,.28-.23,.99-.9,1.12-1.05,.17-.19,.27-.45,.12-.63" fill="#6a4e43"/><path d="M40.66,158.35c-.39,.12-.76,.29-1.11,.49-.07,.04-.15,.09-.21,.14-.03,.03-.06,.07-.03,.09,.06,.06,.18-.03,.26,.03,.03,.02,.01,.13,.04,.16,.02,.03,.07,.05,.11,.04s.08-.02,.12-.03c.09-.03,.18-.04,.24,.03,.04,.04,.03,.08,.06,.13,.02,.03,.04,.06,.11,.06,.1,0,.19-.05,.27-.1,.37-.25,.72-.53,1.07-.8" fill="#6a4e43"/><path d="M42.1,151.8c.26,.07,.33,0,.52,.01,.25,.02,.22,.26,.18,.39-.05,.17-.14,.31-.27,.42-.02,.02-.05,.04-.08,.04-.04,0-.07-.02-.1-.04-.18-.15-.29-.37-.3-.6" fill="#825c4f"/><path d="M39.44,153.97s-.46,.05-.63,.55c-.24,.73,.39,1.15,.39,1.15,0,0-.17,1.49,.73,2.3,.91,.82,1.2,.85,2.26,1.04s2.05-.49,2.3-.76c.26-.27,.65-.85,.72-1.56,.07-.71-.56-1.96-1.13-2.61s-1.74-1.66-1.74-1.66l-1.69,1.58-1.23-.02h0Z" fill="#b1896d"/><path d="M42.17,151.86c-.42-.59-.89-.71-1.41-.71-.56,0-1.08,.41-1.33,.73-.2,.26-.44,.69-.48,1.18-.03,.39,.1,.75,.48,1.01,.38,.27,1.89,.58,2.51,.16,.54-.37,.73-.88,.67-1.3-.04-.3-.13-.61-.45-1.07h0Z" fill="#b1896d"/><ellipse cx="41.27" cy="152.2" rx=".18" ry=".24" transform="translate(-44.48 19.86) rotate(-17.77)" fill="#212120"/><path d="M39.7,153.33c-.04,.27,.08,.69,.18,.68,.08,0,.1-.17,.1-.17,0,0,.07,.21,.21,.2,.13-.01,.12-.47,.15-.69l-.43-.18-.22,.15h0Z" fill="#ffebb1"/><path d="M39.42,152.06c.03-.08,.1-.18,.21-.17,.12,0,.1,.18,.06,.27-.04,.09-.14,.18-.23,.12-.06-.04-.05-.17-.04-.22Z" fill="#212120"/><path d="M41.66,155.95c-.97-.33-1.01-1.29-1.3-1.52-.1-.08-.2-.1-.3-.15-.09-.05-.2-.1-.3-.06,.07,.05,.13,.1,.18,.17-.1,0-.24,.02-.29,.08,0,.01,0,.03,.02,.03,.01,0,.17,.04,.24,.1-.05,.04-.11,.08-.15,.13-.03,.03,0,.05,0,.05,.07,.02,.15,0,.21,.04s.11,.09,.17,.13c.07,.05,.16,.08,.24,.08,.15,.3,.33,.55,.58,.78,.23,.21,.51,.36,.82,.42,.98,.18,1.41-.82,1.41-.82,0,0-.69,.8-1.52,.52h0Z" fill="#825c4f"/><path d="M40.17,152.25s-.11-.06-.16-.02c-.12,.11-.23,.2-.28,.28-.03,.05-.06,.16,0,.23s.25,.23,.25,.23c0,0,.24-.11,.32-.17,.09-.07,.11-.21,.03-.32-.03-.05-.12-.16-.18-.24h0Z" fill="#212120"/><path d="M40.67,153.31c.06-.1,0-.15-.05-.1-.05,.05-.17,.14-.34,.08-.09-.03-.16-.06-.19-.17-.03-.08-.02-.18-.02-.26,0-.04-.16-.04-.17,0-.02,.06-.02,.13-.02,.19,0,.07-.01,.16-.07,.19-.2,.13-.32-.06-.34-.08,0,0-.03,.05-.01,.11,.09,.3,.43,.25,.52,.1,.02,.12,.44,.34,.7-.06h0Z" fill="#212120"/><path d="M39.12,155.59s.03,.03,.04,.04c.03,.03,.08,.02,.11,0,.03-.04,.07-.1,.1-.18,.05-.16,.03-.38-.07-.54l-.09,.09c.07,.22,.04,.41-.03,.53-.03,.05-.07,.07-.07,.07h0Z" fill="#825c4f"/><path d="M41.48,154.1l-.06,.25c.24-.03,.49-.49,.49-.49v.31c.31-.16,.46-.87,.46-.87,.03,.34,.06,1.1-.96,1.23-.37,.05-.76-.1-.76-.1,0,0,.58-.04,.83-.34h0Z" fill="#825c4f"/><path d="M39.05,154.41c.13-.2,.35-.26,.54-.23,0,0,.03,0,.04,.02,.01,.01,0,.03,0,.04-.01,.01-.03,.01-.05,.02-.09,.02-.18,.09-.19,.19,.07-.03,.14-.02,.21,.01,.02,0,.03,.03,.03,.05,0,0-.02,.01-.03,.02-.08,.03-.13,.11-.15,.19,.04,0,.09-.02,.13-.01s.1,.04,.1,.08c0,.04-.1,.01-.15,.09-.03,.05-.05,.12-.1,.16-.04,.04-.11,.04-.16,.03-.06-.02-.1-.05-.14-.1-.13-.15-.16-.37-.07-.55" fill="#825c4f"/><g><g><path d="M56.83,151.04s.02,.02,0,.05c-.02,.05-.06,.13-.1,.21-.02-.04-.04-.08-.06-.11,.04-.05,.08-.09,.12-.13,.01-.01,.03-.02,.03-.02m0-.2c-.06,0-.11,.02-.16,.06-.06,.05-.11,.1-.16,.16l-.09,.11,.08,.12s.02,.04,.04,.06c0,.01,.01,.02,.02,.03l.18,.34,.17-.34,.02-.03c.04-.08,.07-.14,.09-.19,.04-.11,0-.19-.02-.23-.04-.06-.11-.09-.18-.09h0Z" fill="#fff"/><g><path d="M57.09,151.48s.02,.01,.02,.04c-.01,.12-.05,.24-.12,.35-.02-.06-.04-.12-.07-.18,.06-.06,.11-.12,.15-.19,0-.01,.02-.02,.02-.02m0-.2c-.08,0-.16,.05-.2,.12-.03,.05-.07,.1-.12,.14l-.1,.09,.05,.13c.02,.06,.04,.11,.07,.18l.14,.38,.22-.34c.09-.13,.14-.28,.15-.44h0v-.02c0-.16-.11-.24-.22-.24h0Z" fill="#fff"/><path d="M56.62,154.02c-.1,.12-.21,.22-.34,.29-.11,.07-.23,.1-.35,.1-.15,0-.3-.04-.45-.12,.37-.14,.76-.24,1.15-.27m.47-.25l-.49,.05c-.41,.04-.82,.14-1.21,.29l-.43,.17,.42,.2c.19,.09,.37,.14,.54,.14s.32-.04,.46-.13c.15-.09,.28-.2,.39-.34l.32-.38h0Z" fill="#fff"/><path d="M54.33,150.95s.02,.02,0,.07c-.04,.21,.34,1.25,.61,1.25h0c.29-.02,.3-.63,.36-.9,0-.03,.02-.04,.03-.04,.01,0,.03,.02,.04,.04,.11,.28-.17,.89,0,.92,0,0,.02,0,.03,0,.25,0,.41-.81,.5-1.11,0-.03,.02-.04,.03-.04,.01,0,.02,.01,.03,.04,.04,.2-.19,.63,.03,.73,.01,0,.02,0,.04,0,.16,0,.37-.36,.55-.63,.02,.05,.05,.1,.07,.16-.09,.19-.17,.39-.1,.44,0,0,.02,.01,.03,.01,.05,0,.12-.04,.19-.1,.03,.09,.05,.19,.07,.28-.16,.24-.34,.5-.38,.68-.09,.35-.4,.72-.68,.89-.21,.14-.39,.32-.53,.53-.38-.26-.71-.6-.96-.99,.03,0,.05,0,.08,0,.08,0,.16-.02,.23-.07,.58-.41-.53-1.1-.33-2.12,0-.03,.03-.05,.05-.05m0-.2c-.13,0-.22,.11-.24,.22h0s0,0,0,0c-.11,.57,.13,1.03,.31,1.4,.22,.44,.22,.51,.1,.6-.03,.02-.07,.03-.12,.03-.01,0-.03,0-.04,0l-.46-.08,.25,.39c.27,.42,.61,.77,1.02,1.05l.17,.11,.11-.17c.12-.19,.28-.35,.47-.47,.29-.18,.66-.59,.76-1.01,.03-.12,.16-.32,.28-.5,.03-.04,.05-.08,.08-.12l.05-.07-.02-.09s-.01-.05-.02-.07c-.02-.07-.04-.15-.06-.22l-.09-.28h-.01s0,0,0,0l-.03-.08s-.04-.08-.05-.12c0-.02-.01-.03-.02-.05l-.15-.33-.2,.29s-.06,.09-.09,.14c-.05,.08-.14,.2-.21,.29,0-.03,.01-.06,.02-.09,.03-.13,.05-.26,.03-.37-.03-.15-.14-.21-.22-.21h0c-.08,0-.18,.05-.22,.18h0s0,0,0,0c-.02,.06-.04,.14-.07,.23-.01,.05-.03,.1-.04,.15,0-.08-.01-.15-.04-.21-.04-.11-.13-.17-.23-.17-.08,0-.19,.05-.23,.2h0s0,0,0,0c-.01,.06-.02,.13-.03,.21-.02,.12-.04,.26-.07,.37-.02,.08-.05,.12-.06,.14-.05-.05-.14-.18-.26-.45-.12-.28-.16-.49-.16-.54,0-.04,.03-.15-.04-.23-.04-.05-.1-.08-.17-.08h0Z" fill="#fff"/><path d="M57.83,154.13s.05,.02,.05,.04c.01,.05,.03,.36-.43,.74-.28,.22-.27,.33-.41,.4-.05,.02-.09,.03-.14,.03-.19,0-.28-.22-.11-.38,.23-.21,.74-.43,.98-.79,.02-.03,.04-.04,.05-.04m0-.2c-.09,0-.17,.04-.22,.12-.13,.19-.38,.35-.59,.49-.14,.09-.26,.17-.36,.26-.14,.13-.19,.32-.13,.48,.06,.15,.21,.25,.38,.25,.07,0,.15-.02,.22-.05h0s0,0,0,0c.1-.05,.16-.12,.21-.19,.05-.06,.11-.13,.23-.23,.23-.18,.38-.38,.46-.57,.08-.2,.05-.34,.04-.38h0s0,0,0,0c-.03-.1-.13-.18-.24-.18h0Z" fill="#fff"/><path d="M61.15,153.44c.17,0,.27,.07,.32,.22,.96,2.75,.12,4.76-1.14,5.77-.02,0-1.35-.33-1.62-.34-.33-.02-.58-.8-.73-1.1s-.79-.79-.72-1.11c.17-.83,.02-1.36-.13-1.51,.19-.33,.51-.41,.74-.79,.08-.13,.11-.28,.1-.43h.01c.07,0,.14,0,.21,0,.76,0,1.42-.26,1.88-.42,.53-.19,.87-.29,1.08-.29m0-.2c-.24,0-.59,.11-1.15,.3-.03,.01-.06,.02-.09,.03-.44,.16-1.05,.38-1.73,.38-.06,0-.13,0-.19,0h-.25l.02,.22c.01,.11-.01,.21-.07,.3-.1,.17-.22,.27-.35,.37-.14,.11-.28,.23-.39,.42l-.08,.14,.11,.11c.09,.09,.23,.55,.07,1.33-.06,.31,.21,.61,.47,.91,.11,.12,.22,.25,.27,.34,.03,.06,.06,.13,.1,.22,.19,.43,.42,.96,.8,.98,.15,0,.74,.13,1.56,.33,.01,0,.02,0,.02,0l.09,.02,.08-.06c.72-.58,1.23-1.39,1.47-2.34,.28-1.11,.19-2.34-.27-3.65-.08-.23-.25-.35-.51-.35h0Z" fill="#fff"/><path d="M54.92,154.88c-.43,.57,.17,.4-1.36,1.77-.36,.32-.14,1.14-.13,1.66,0,.15,.22,.08,.47,.02,.05-.01,.13,.05,.21,.02,.12-.04,.11-.18,.16-.18s.07,.13,.14,.13c.24,0,.44-.26,.63-.55h0s0-.02,.01-.03c.17-.31,1.48-.5,1.74-.75,.75-.76,.18-1.53,.14-1.57-.31,.14-.57-.18-.36-.5,.15-.23,.71-.48,1.11-.8-.05,0-.11-.01-.16-.02-.29,.21-.61,.38-.95,.51-.34,.13-.1,.54-.47,.64-.43,.12-.13-.42-.25-.45-.2-.04-.38-.12-.56-.22l-.37,.3h0Zm.37-.3s-.04-.03-.07-.04m-1.1,3.38c-.03,.09-.08,.29-.16,.34s-.14,.04-.14-.05c0-.12,.17-.22,.21-.3,.06-.12,.06-.26,0-.37-.04-.1,.03-.09,.08-.03,.07,.08,.08,.27,.02,.42h0Zm.75-.54s.01,.09-.03,.13c-.08,.07-.4,.4-.52,.67,0,.01-.07,.01-.06-.01,.31-.61,.52-.59,.56-.79,0,0-.03,0-.04,0-.04,0-.03-.04,0-.04,.04,0,.07,0,.11,0,0,0,.03,0,.02,.02s-.05,.02-.06,.03h0Zm.67-1.74s-.05,.09-.07,.14c-.01,.05-.06,.05-.05-.01,.05-.35,.34-.43,.6-.32,.02,.01,.02,.02,.02,.03-.05,.29-.49,.16-.49,.16h0s0,0,0,0Z" fill="none" stroke="#fff" stroke-miterlimit="10" stroke-width=".2"/><path d="M58.84,150.71s.03,.02,.05,.08c.1,.37-.5,1.17-.37,1.3,0,0,.01,0,.02,0,.12,0,.47-.51,.51-.71,.01-.07,.05-.11,.08-.11,.03,0,.06,.03,.08,.11,.14,.52-.57,2.43-2.63,3.21-.34,.13-.1,.54-.47,.64-.04,.01-.08,.02-.11,.02-.27,0-.03-.44-.15-.46-1.21-.23-1.94-1.79-1.91-2.15,0-.06,.02-.09,.04-.09,.02,0,.04,.03,.05,.09,.15,.58,1.09,1.77,1.88,1.77,.12,0,.25-.03,.36-.1,1.1-.67,.68-2.33,.21-3.24-.02-.03-.03-.08,0-.08,.01,0,.03,0,.06,.03,.41,.35,.64,1.73,.84,1.73h0c.38-.04,.51-1.15,.59-1.58,0-.04,.02-.07,.04-.07,.02,0,.03,.02,.05,.07,.1,.36-.16,.96-.03,1,0,0,0,0,.01,0,.19,0,.71-1,.75-1.38,0-.03,.02-.08,.04-.08m0-.2c-.13,0-.23,.11-.24,.26h0c-.02,.19-.17,.53-.33,.81,.02-.16,.02-.32-.01-.46h0s0,0,0,0c-.06-.19-.18-.22-.24-.22-.09,0-.21,.06-.24,.23-.01,.06-.02,.13-.04,.21-.04,.24-.09,.57-.17,.83-.05,.17-.1,.26-.14,.32-.05-.11-.11-.28-.15-.42-.16-.46-.33-.97-.6-1.2-.04-.04-.11-.08-.19-.08-.08,0-.14,.04-.18,.1-.06,.1-.02,.22,0,.28,.27,.53,.44,1.13,.46,1.63,.03,.64-.17,1.09-.6,1.34-.08,.05-.16,.07-.25,.07-.29,0-.66-.22-1.03-.61-.31-.33-.58-.75-.65-1.01-.05-.21-.18-.25-.25-.25-.1,0-.23,.07-.24,.28-.04,.45,.71,2,1.93,2.33-.02,.12-.03,.28,.07,.4,.04,.05,.12,.11,.25,.11,.05,0,.1,0,.16-.02,.31-.08,.36-.33,.39-.47,.03-.13,.04-.15,.1-.17,1.18-.45,1.86-1.21,2.23-1.78,.4-.62,.62-1.31,.52-1.67-.02-.06-.08-.26-.28-.26-.02,0-.03,0-.05,0,.03-.12,.03-.24,0-.34-.05-.19-.16-.23-.24-.23h0Z" fill="#fff"/><g><path d="M55.44,155.92s-.07-.02-.09-.04c-.02-.02-.04-.06-.03-.12,.04-.28,.22-.45,.48-.45,.09,0,.18,.02,.26,.06,.05,.02,.08,.07,.08,.13h0c-.03,.18-.17,.28-.38,.28h0c-.06,0-.12,0-.16-.02,0,.02-.02,.04-.02,.06-.02,.06-.07,.11-.13,.11Z"/><path d="M55.79,155.41c.07,0,.15,.02,.22,.05,.02,.01,.02,.02,.02,.03-.03,.15-.16,.19-.28,.19-.11,0-.21-.03-.21-.03-.03,.04-.05,.09-.07,.14,0,.02-.02,.04-.03,.04-.01,0-.03-.02-.02-.05,.03-.25,.19-.37,.38-.37m.02,.09s.05-.01,.05-.03-.02-.03-.05-.03-.05,.01-.05,.03,.02,.03,.05,.03m-.02-.29c-.31,0-.53,.21-.58,.54-.01,.08,0,.15,.05,.2,.04,.05,.1,.08,.17,.08,.1,0,.18-.06,.22-.15,.03,0,.06,0,.1,0,.26,0,.44-.13,.48-.35h0s0-.01,0-.01c.01-.1-.04-.19-.14-.24-.1-.04-.2-.07-.3-.07h0Z" fill="#fff"/></g><g opacity=".39"><path d="M54.03,157.45s.05,.02,.07,.04c.07,.08,.08,.27,.02,.42-.03,.09-.08,.29-.16,.34-.03,.02-.06,.03-.08,.03-.04,0-.06-.03-.06-.08,0-.12,.17-.22,.21-.3,.06-.12,.06-.26,0-.37-.02-.05-.01-.08,0-.08m0-.2h0c-.08,0-.15,.04-.19,.1-.03,.05-.06,.13,0,.26h0s0,.02,0,.02c.03,.06,.03,.13,0,.18h0s-.03,.03-.05,.05c-.07,.07-.18,.18-.18,.34,0,.14,.09,.28,.26,.28,.06,0,.13-.02,.19-.06,.12-.07,.17-.22,.23-.39,0-.02,.01-.04,.02-.05,.06-.18,.07-.46-.06-.61-.06-.07-.14-.12-.23-.12h0Z" fill="#fff"/></g><g opacity=".39"><path d="M54.79,157.33s0,0,0,0c.02,0,.04,0,.05,0s.04,0,.05,0c0,0,.03,0,.02,.02s-.05,.02-.06,.04c-.01,.03,.01,.09-.03,.13-.08,.07-.4,.4-.52,.67,0,0-.01,0-.03,0-.02,0-.04,0-.03-.02,.31-.61,.52-.59,.56-.79,0,0-.03,0-.04,0-.03,0-.03-.04,0-.04m0-.2c-.12,0-.22,.09-.23,.21,0,.03,0,.05,0,.08,0,0-.01,.01-.02,.02-.11,.1-.27,.26-.47,.65-.03,.07-.03,.14,0,.21,.04,.07,.11,.11,.2,.11,.1,0,.18-.05,.21-.13,.1-.23,.4-.53,.46-.59,.06-.05,.09-.12,.09-.17,.02-.02,.03-.04,.05-.06,.03-.07,.03-.14-.01-.2-.02-.03-.08-.1-.19-.1h-.01s-.03,0-.04,0c-.01,0-.02,0-.04,0,0,0-.02,0-.03,0h0Z" fill="#fff"/></g><g><path d="M56.19,160.48c-.07,0-.2-.03-.29-.22-.22-.49-.14-.77-.08-.97,.04-.14,.06-.22,.01-.32-.04-.07-.14-.12-.25-.17-.12-.06-.25-.12-.33-.24-.12-.18-.12-.39-.12-.54,0-.05,0-.13,0-.16,0,0-.02,0-.03,0h0s-.02,0-.03,0c-.05,0-.09-.03-.1-.06-.01-.03-.02-.07,.03-.12h0c.12-.21,.54-.34,1-.47,.31-.09,.65-.2,.75-.3,.6-.61,.29-1.21,.18-1.38-.04,0-.07,.01-.11,.01-.15,0-.27-.08-.34-.2-.08-.15-.06-.33,.04-.5,.1-.16,.33-.3,.6-.46,.22-.13,.46-.29,.64-.45,.02-.02,.07-.06,.14-.06,.03,0,.13,.01,.16,.16,.05,.2,.02,.42-.09,.6-.13,.21-.28,.34-.42,.45-.1,.09-.2,.17-.28,.28,.16,.24,.26,.79,.1,1.54-.03,.16,.21,.43,.4,.64,.13,.15,.25,.29,.31,.41,.03,.06,.06,.13,.1,.22,.12,.28,.34,.81,.55,.82,.16,0,.67,.12,1.56,.33,.04,0,.07,.02,.08,.02l.21,.02-.16,.15c-.43,.42-.95,.64-1.16,.64h0s-.03,0-.04,0c-.28-.06-.68-.45-.91-.9-.08-.17-.22-.24-.37-.32-.08-.04-.16-.09-.23-.15-.09-.08-.1-.21-.12-.37-.03-.28-.07-.59-.45-.7,0,0,0,0,0,0-.01,0-.04,.01-.07,.04-.11,.13-.21,.45-.17,.82,.02,.22-.12,.42-.23,.58-.05,.08-.11,.16-.12,.21-.04,.19-.04,.37-.03,.52,0,.16,0,.29-.03,.42-.03,.09-.15,.19-.28,.19h0Zm1.57-6.14c-.17,.18-.39,.33-.58,.45-.13,.08-.24,.16-.32,.23-.05,.05-.07,.1-.05,.15,.01,.04,.05,.06,.1,.06,.03,0,.06,0,.09-.02,.04-.02,.06-.04,.11-.1,.05-.07,.13-.16,.28-.28,.25-.2,.34-.37,.38-.49h0Z"/><path d="M57.89,153.97s.05,.02,.07,.08c.04,.18,.01,.37-.08,.53-.23,.38-.55,.46-.74,.79,.15,.15,.3,.68,.13,1.51-.07,.32,.57,.82,.72,1.11s.4,1.08,.73,1.1c.27,.02,1.62,.34,1.63,.34-.44,.42-.93,.61-1.09,.61,0,0-.02,0-.03,0-.23-.05-.62-.41-.84-.84-.15-.3-.45-.35-.62-.5s.04-.91-.61-1.09c-.01,0-.02,0-.03,0-.19,0-.39,.44-.34,.97,.03,.3-.3,.57-.35,.75-.09,.39,.01,.71-.06,.93-.02,.06-.1,.13-.19,.13-.07,0-.14-.04-.2-.16-.35-.77,.11-.95-.07-1.29-.1-.2-.45-.22-.59-.42-.21-.3,0-.75-.21-.75-.02,0-.04,0-.06,0,0,0-.01,0-.02,0-.02,0,0-.02,.02-.03,.17-.31,1.48-.5,1.74-.75,.75-.76,.18-1.53,.14-1.57-.05,.02-.1,.03-.15,.03-.24,0-.39-.27-.22-.54,.16-.26,.83-.53,1.23-.9,.01-.01,.04-.04,.07-.04m-.98,1.36s.09-.01,.14-.03c.13-.06,.13-.17,.41-.4,.47-.37,.45-.69,.43-.74,0-.01-.03-.04-.05-.04-.02,0-.04,0-.05,.04-.25,.35-.75,.57-.98,.79-.17,.16-.08,.38,.11,.38m.98-1.56c-.1,0-.18,.06-.21,.09-.17,.16-.4,.3-.63,.44-.28,.17-.52,.32-.63,.5-.13,.2-.14,.42-.04,.6,.09,.16,.25,.25,.43,.25,.02,0,.04,0,.06,0,.04,.08,.1,.2,.12,.35,.05,.3-.06,.59-.32,.85-.08,.08-.44,.19-.71,.27-.56,.17-.92,.29-1.05,.51-.08,.1-.06,.19-.04,.23,.03,.07,.1,.11,.17,.12v.05c0,.17,0,.4,.14,.6,.1,.14,.24,.21,.37,.27,.08,.04,.18,.08,.2,.13,.03,.07,.02,.11-.02,.24-.06,.21-.16,.52,.08,1.04,.04,.08,.15,.28,.38,.28,.19,0,.34-.14,.38-.26,.05-.14,.04-.29,.04-.45,0-.16-.01-.32,.03-.5,0-.03,.07-.11,.1-.17,.11-.16,.27-.39,.25-.65-.04-.4,.08-.68,.15-.74,.26,.09,.3,.3,.34,.6,.02,.17,.04,.33,.16,.43,.08,.07,.16,.11,.25,.16,.14,.08,.26,.14,.33,.28,.24,.47,.67,.89,.98,.95,.02,0,.04,0,.06,0,.22,0,.76-.21,1.23-.67l.32-.31-.43-.04s-.04,0-.07-.02c-.91-.21-1.41-.32-1.58-.33,0,0-.07,0-.2-.22-.1-.16-.19-.37-.26-.54-.04-.09-.07-.17-.1-.23-.06-.13-.19-.28-.33-.43-.11-.12-.22-.24-.29-.36-.09-.14-.08-.19-.08-.2,.15-.72,.08-1.26-.08-1.55,.06-.08,.14-.14,.23-.21,.14-.12,.3-.25,.44-.48,.12-.2,.16-.45,.11-.68-.04-.17-.16-.23-.26-.23h0Zm-.98,1.36s.01-.02,.02-.03c.04-.03,.09-.07,.14-.11-.02,.02-.03,.04-.04,.05-.04,.05-.05,.06-.07,.07-.03,.01-.04,.01-.05,.01h0Z" fill="#fff"/></g><path d="M52.97,151.71s.04,.02,.05,.06c.07,.35,.57,1.1,1.06,1.35,.19,.45,.57,1.06,1.21,1.45l-.37,.3c-1.97-.13-2.41-1.34-2.39-1.56,0-.04,.02-.06,.04-.06s.03,.01,.04,.03c.23,.61,1.16,1.08,1.65,1.08,.12,0,.21-.03,.27-.09,.37-.43-1.61-1.24-1.59-2.52,0-.04,.01-.06,.03-.06m0-.2c-.11,0-.23,.09-.23,.26-.01,.81,.67,1.43,1.16,1.88,.18,.16,.45,.41,.47,.51-.01,0-.04,.02-.11,.02-.43,0-1.27-.43-1.46-.95-.04-.1-.13-.16-.23-.16-.11,0-.23,.08-.24,.25-.02,.24,.19,.61,.4,.85,.33,.38,.98,.85,2.18,.92h.08s.06-.04,.06-.04l.37-.3,.22-.18-.24-.15c-.64-.39-.98-1.02-1.13-1.36l-.03-.07-.06-.03c-.42-.21-.89-.91-.95-1.21-.03-.13-.13-.22-.25-.22h0Z" fill="#fff"/></g></g><path d="M56.84,151.09s0-.07-.04-.03c-.05,.04-.09,.08-.12,.13,.02,.03,.04,.07,.06,.11,.04-.08,.08-.16,.1-.21Z" fill="#776545"/><path d="M57.11,151.52c0-.05-.02-.05-.04-.02-.04,.07-.09,.13-.15,.19,.02,.06,.05,.12,.07,.18,.07-.11,.11-.23,.12-.35h0Z" fill="#776545"/><path d="M56.28,154.31c.13-.08,.25-.18,.34-.29-.4,.04-.78,.13-1.15,.27,.28,.14,.56,.17,.81,.02h0Z" fill="#7c5321"/><path d="M54.62,153.13c-.09,.06-.2,.08-.3,.06,.25,.39,.58,.73,.96,.99,.14-.21,.32-.39,.53-.53,.27-.16,.59-.54,.68-.89,.05-.18,.22-.43,.38-.68-.02-.09-.05-.19-.07-.28-.09,.07-.18,.12-.22,.09-.07-.05,0-.25,.1-.44-.02-.06-.05-.11-.07-.16-.2,.29-.43,.68-.59,.62-.21-.09,.01-.53-.03-.73-.01-.06-.04-.05-.06,0-.1,.31-.26,1.17-.53,1.11-.17-.04,.11-.64,0-.92-.02-.05-.05-.07-.07,0-.05,.26-.07,.88-.36,.9-.27,.02-.66-1.04-.62-1.25,.02-.12-.05-.06-.06-.02-.2,1.02,.91,1.72,.33,2.12h0Z" fill="#776545"/><path d="M57.45,154.9c.47-.38,.45-.69,.43-.74,0-.02-.06-.07-.11,0-.25,.35-.75,.57-.98,.79-.21,.19-.03,.48,.25,.35,.13-.07,.13-.18,.41-.4h0Z" fill="#7c5321"/><path d="M61.47,153.66c-.12-.33-.44-.27-1.4,.07-.5,.18-1.25,.47-2.09,.41h-.01c.02,.15-.02,.3-.1,.43-.23,.38-.55,.46-.74,.79,.15,.15,.3,.68,.13,1.51-.07,.32,.57,.82,.72,1.11,.15,.29,.4,1.08,.73,1.1,.27,.02,1.6,.34,1.62,.34,1.26-1.01,2.1-3.02,1.14-5.77Z" fill="#7c5321"/><path d="M54.92,154.88c-.43,.57,.17,.4-1.36,1.77-.36,.32-.14,1.14-.13,1.66,0,.15,.22,.08,.47,.02,.05-.01,.13,.05,.21,.02,.12-.04,.11-.18,.16-.18s.07,.13,.14,.13c.24,0,.44-.26,.63-.55h0s0-.02,.01-.03c.17-.31,1.48-.5,1.74-.75,.75-.76,.18-1.53,.14-1.57-.31,.14-.57-.18-.36-.5,.15-.23,.71-.48,1.11-.8-.05,0-.11-.01-.16-.02-.29,.21-.61,.38-.95,.51-.34,.13-.1,.54-.47,.64-.43,.12-.13-.42-.25-.45-.2-.04-.38-.12-.56-.22l-.37,.3h0Zm.37-.3s-.04-.03-.07-.04m-1.1,3.38c-.03,.09-.08,.29-.16,.34s-.14,.04-.14-.05c0-.12,.17-.22,.21-.3,.06-.12,.06-.26,0-.37-.04-.1,.03-.09,.08-.03,.07,.08,.08,.27,.02,.42h0Zm.75-.54s.01,.09-.03,.13c-.08,.07-.4,.4-.52,.67,0,.01-.07,.01-.06-.01,.31-.61,.52-.59,.56-.79,0,0-.03,0-.04,0-.04,0-.03-.04,0-.04,.04,0,.07,0,.11,0,0,0,.03,0,.02,.02s-.05,.02-.06,.03h0Zm.67-1.74s-.05,.09-.07,.14c-.01,.05-.06,.05-.05-.01,.05-.35,.34-.43,.6-.32,.02,.01,.02,.02,.02,.03-.05,.29-.49,.16-.49,.16h0s0,0,0,0Z" fill="#7c5321"/><path d="M53.95,152.63c0-.11,.06-.13,.09,0,.17,.67,1.42,2.17,2.23,1.67,1.1-.67,.68-2.33,.21-3.24-.02-.05-.04-.13,.06-.05,.41,.35,.65,1.75,.84,1.73,.38-.04,.51-1.15,.59-1.58,.02-.08,.06-.1,.09,0,.1,.36-.16,.96-.03,1,.17,.05,.72-.98,.77-1.38,0-.05,.05-.16,.09,0,.1,.37-.5,1.17-.37,1.3,.08,.09,.49-.49,.53-.71,.02-.13,.12-.17,.16,0,.14,.52-.57,2.43-2.63,3.21-.34,.13-.1,.54-.47,.64-.43,.12-.13-.42-.25-.45-1.21-.23-1.94-1.79-1.91-2.15h0Z" fill="#b1a189" isolation="isolate" opacity=".7"/><path d="M56.01,155.46c-.26-.12-.55-.03-.6,.32,0,.06,.04,.06,.05,.01,.02-.05,.04-.1,.07-.14,0,0,.44,.13,.49-.16,0,0,0-.02-.02-.03h0Zm-.2,.04s-.05-.01-.05-.03,.02-.03,.05-.03,.05,.01,.05,.03-.02,.03-.05,.03Z" fill="#7c5321" isolation="isolate" opacity=".39"/><path d="M54.02,157.53c-.04-.1,.03-.09,.08-.03,.07,.08,.08,.27,.02,.42-.03,.09-.08,.29-.16,.34s-.14,.04-.14-.05c0-.12,.17-.22,.21-.3,.06-.12,.06-.26,0-.37h0Z" fill="#7c5321" isolation="isolate" opacity=".39"/><path d="M54.26,158.16s.05,.02,.06,.01c.11-.27,.44-.6,.52-.67,.05-.04,.02-.1,.03-.13,0-.01,.05-.02,.06-.04s-.01-.02-.02-.02c-.04,0-.07,0-.11,0-.04,0-.04,.03,0,.04,0,0,.04,0,.04,0-.04,.2-.26,.18-.56,.79h0Z" fill="#7c5321" isolation="isolate" opacity=".39"/><g opacity=".81"><path d="M58.71,159.08c-.33-.02-.59-.8-.73-1.1-.14-.29-.79-.79-.72-1.11,.17-.83,.02-1.36-.13-1.51,.19-.33,.51-.41,.74-.79,.1-.16,.13-.35,.08-.53-.03-.12-.11-.07-.14-.04-.39,.37-1.06,.64-1.23,.9-.21,.33,.05,.65,.37,.51,.04,.03,.61,.81-.14,1.57-.25,.26-1.57,.44-1.74,.75-.01,.02-.05,.04,0,.03,.31-.08,.04,.41,.27,.74,.14,.2,.49,.22,.59,.42,.18,.35-.28,.52,.07,1.29,.13,.27,.35,.14,.38,.03,.08-.22-.02-.54,.06-.93,.04-.18,.38-.46,.35-.75-.06-.57,.18-1.03,.37-.97,.65,.18,.44,.94,.61,1.09s.47,.21,.62,.5c.22,.44,.6,.8,.84,.84,.12,.02,.65-.16,1.11-.61-.01,0-1.36-.33-1.63-.34h0Zm-1.67-3.79c-.28,.13-.46-.16-.25-.35,.23-.21,.74-.43,.98-.79,.05-.07,.1-.02,.11,0,.01,.05,.03,.37-.43,.74-.28,.22-.27,.33-.41,.4h0Z" fill="#7c5321"/></g><path d="M55.3,154.58c-.64-.39-1.02-1-1.21-1.45-.49-.25-.99-1.01-1.06-1.35-.01-.07-.08-.09-.08,0-.02,1.28,1.96,2.08,1.59,2.52-.26,.31-1.63-.23-1.92-.99-.01-.03-.07-.06-.08,.03-.02,.22,.42,1.43,2.39,1.56l.37-.3h0Z" fill="#776545"/></g><g><path d="M67.27,158.2c-.06-.04-.12-.05-.17-.05-.03,0-.07,0-.12,.07-.03,.04-.08,.16-.06,.27,0,.06,.03,.11,.07,.14,.33,.26,1.76,.85,2.3,.91,.06,0,.13,.02,.2,.02,.12,0,.26-.02,.45-.23-.2-.02-.44-.09-.76-.22-.65-.25-1.29-.56-1.9-.91h0Z" fill="#7a4e34"/><path d="M75.85,158.15s-.1,.02-.17,.05c-.62,.35-1.26,.65-1.9,.91-.32,.13-.56,.2-.76,.22,.19,.21,.32,.23,.45,.23,.06,0,.14,0,.2-.02,.54-.06,1.97-.65,2.3-.91,.04-.03,.06-.07,.07-.14,.01-.12-.03-.23-.06-.27-.05-.06-.09-.07-.12-.07h0Z" fill="#7a4e34"/><path d="M70.59,152.56v.08c0,.12,.34,.33,.88,.33s.88-.21,.88-.33v-.08c-.23,.12-.54,.19-.88,.19s-.65-.07-.88-.19Z" fill="#72c6ab"/><path d="M70.59,151.97c0,.12,.34,.33,.88,.33s.88-.21,.88-.33-.34-.33-.88-.33-.88,.21-.88,.33Z" fill="#b8e0d7"/><path d="M76.32,157.94c-.12-.15-.29-.23-.47-.23-.12,0-.25,.04-.38,.11-.6,.34-1.22,.63-1.85,.88-.33,.13-.57,.19-.72,.19-.08,0-.14-.02-.21-.05l-.96-1.66,2.52-4.36c.06-.11,.02-.24-.08-.3-.11-.06-.24-.02-.3,.08l-2.39,4.14-2.39-4.14c-.06-.11-.2-.14-.3-.08-.11,.06-.14,.2-.08,.3l2.52,4.36-.96,1.66c-.07,.03-.12,.05-.21,.05-.15,0-.39-.06-.72-.19-.63-.25-1.25-.54-1.85-.88-.13-.07-.26-.11-.38-.11-.18,0-.34,.08-.47,.23-.12,.15-.18,.39-.16,.6,.02,.18,.1,.33,.23,.44,.39,.31,1.89,.93,2.52,1.01,.07,0,.16,.02,.25,.02,.45,0,.76-.25,1.13-.88l.86-1.5,.86,1.5c.37,.64,.68,.88,1.13,.88,.09,0,.18,0,.25-.02,.63-.07,2.13-.7,2.52-1.01,.13-.1,.21-.25,.23-.44,.02-.21-.04-.46-.16-.6h0Zm-.28,.55c0,.06-.03,.11-.07,.14-.33,.26-1.76,.85-2.3,.91-.06,0-.13,.02-.2,.02-.12,0-.26-.02-.45-.23,.2-.02,.44-.09,.76-.22,.65-.25,1.29-.56,1.9-.91,.06-.04,.12-.05,.17-.05,.03,0,.07,0,.12,.07,.03,.04,.08,.16,.06,.27h0Zm-6.55,1.07c-.06,0-.14,0-.2-.02-.54-.06-1.97-.65-2.3-.91-.04-.03-.06-.07-.07-.14-.01-.12,.03-.23,.06-.27,.05-.06,.09-.07,.12-.07,.05,0,.1,.02,.17,.05,.62,.35,1.26,.65,1.9,.91,.32,.13,.56,.2,.76,.22-.19,.21-.32,.23-.45,.23h0Z"/><path d="M71.47,153.42c.76,0,1.33-.33,1.33-.77v-.67c0-.44-.57-.77-1.33-.77s-1.33,.33-1.33,.77v.67c0,.44,.57,.77,1.33,.77h0Zm0-1.77c.55,0,.88,.21,.88,.33s-.34,.33-.88,.33-.88-.21-.88-.33,.34-.33,.88-.33Zm.88,1c0,.12-.34,.33-.88,.33s-.88-.21-.88-.33v-.08c.23,.12,.54,.19,.88,.19s.65-.07,.88-.19v.08Z"/></g><g><path d="M89.95,154.04l-.03-.11-.28,.1,.21-.63-.11,.04h0s-.52,.16-.52,.16l.26-.83,.06-.34-.22-.03-.98,.32,.33-1.03-.05-.16-.34,.05-.82,.26,.16-.55h0s.04-.12,.04-.12l-.63,.19,.06-.19-.11-.04-.08,.27-.67,.21-.04,.12,.67-.21-.18,.57-.81,.26,.03,.11,.74-.24-.17,.52-.73,.24,.03,.11,.65-.21-.17,.52-.87,.28,.03,.11,.14-.05-.17,.52-.64,.21,.03,.11,.56-.18-.17,.52-.66,.21,.04,.11,.58-.19-.17,.52-.45,.14,.04,.11,.37-.12-.21,.65,.65-.21-.12,.37,.11,.04,.14-.45,.52-.17-.19,.58,.11,.04,.21-.66,.52-.17-.18,.56,.11,.03,.21-.64,.65-.21,.21-.65,.52-.17-.21,.65,.11,.03,.24-.73,.52-.17-.24,.74,.11,.03,.26-.81,.51-.18-.22,.65,.12-.05,.21-.64,.36-.12h0s0,0,0,0Zm-.86-.4l-.52,.17,.17-.52,.52-.17-.17,.52h0Zm-2.65,.98l-.17,.52-.52,.17,.17-.52,.52-.17Zm-.47,.03l.17-.52,.52-.17-.17,.52-.52,.17h0Zm.61-.08l.52-.17-.17,.52-.52,.17,.17-.52h0Zm.04-.13l.17-.52,.52-.17-.17,.52-.52,.17Zm.94-1.48l-.52,.17,.17-.52,.52-.17-.17,.52h0Zm.09,.09l.52-.17-.17,.52-.52,.17,.17-.52h0Zm-.13,.04l-.17,.52-.52,.17,.17-.52,.52-.17h0Zm-.08,.61l.52-.17-.17,.52-.52,.17,.17-.52h0Zm.65-.21l.52-.17-.17,.52-.52,.17,.17-.52h0Zm1.38-1.03l-.17,.52-.52,.17,.17-.52,.52-.17h0Zm-.65,.21l-.17,.52-.52,.17,.17-.52,.52-.17h0Zm-.61,.08l-.52,.17,.17-.52,.52-.17-.17,.52h0Zm.38-1.17l-.17,.52-.52,.17,.17-.52,.52-.17h0Zm-.65,.21l-.17,.52-.52,.17,.17-.52,.52-.17h0Zm-.95-.32l.5-.16-.16,.55-.52,.17,.18-.56h0Zm-.22,.7l.52-.17-.17,.52-.52,.17,.17-.52h0Zm-.21,.65l.52-.17-.17,.52-.52,.17,.17-.52Zm-.21,.65l.52-.17-.17,.52-.52,.17,.17-.52h0Zm-.65,.21l.52-.17-.17,.52-.52,.17,.17-.52Zm-.21,.65l.52-.17-.17,.52-.52,.17,.17-.52h0Zm-.21,.66l.52-.17-.17,.52-.52,.17,.17-.52Zm.14,1l-.52,.17,.17-.52,.52-.17-.17,.52h0Zm.65-.21l-.52,.17,.17-.52,.52-.17-.17,.52Zm.66-.21l-.52,.17,.17-.52,.52-.17-.17,.52h0Zm.65-.21l-.52,.17,.17-.52,.52-.17-.17,.52h0Zm.21-.65l-.52,.17,.17-.52,.52-.17-.17,.52h0Zm.65-.21l-.52,.17,.17-.52,.52-.17-.17,.52Zm.65-.21l-.52,.17,.17-.52,.52-.17-.17,.52h0Zm.13-.04l.17-.52,.52-.17-.17,.51-.51,.18h0Z" fill="#292f33"/><path d="M80.9,160.47c-.18,0-.32-.15-.32-.32,0-.09,.03-.17,.09-.23l3.25-3.25c.13-.13,.33-.13,.46,0s.13,.33,0,.46h0l-3.25,3.25c-.06,.06-.15,.09-.23,.09Z" fill="#226798"/><path d="M88.28,155.28l-.41-.06c.09-.59-.08-1.16-.48-1.56-.4-.4-.97-.58-1.56-.48l-.06-.41c.72-.11,1.42,.11,1.92,.6,.5,.5,.71,1.19,.6,1.92h0Z" fill="#292f33"/><path d="M89.05,155.1l-.41-.05c.1-.74-.14-1.46-.66-1.98-.52-.52-1.24-.76-1.98-.66l-.05-.41c.87-.11,1.72,.17,2.33,.78s.89,1.46,.78,2.33h0Z" fill="#292f33"/><circle cx="87.49" cy="158.51" r=".95" fill="#f19020"/><path d="M89.6,151.44c-.84-.84-2.21-1.44-3.3-.35-.41,.41-.48,.81-.57,1.24-.11,.58-.24,1.24-1.23,2.24-.47,.47-.49,.85-.51,1.19-.02,.27-.03,.5-.25,.81-.06,.08-.05,.19,.02,.27l.45,.45c.07,.07,.18,.08,.27,.02,.31-.22,.54-.23,.81-.25,.34-.02,.72-.04,1.19-.51,1-1,1.66-1.12,2.24-1.23,.43-.08,.83-.16,1.24-.57,1.09-1.09,.49-2.46-.35-3.31h0Zm-.21,.66c.14-.1,.33-.07,.43,.07s.07,.33-.07,.43c0,0,0,0,0,0-.14,.1-.33,.06-.43-.08-.09-.14-.06-.32,.07-.42h0Zm-.7-.94c.17,0,.31,.13,.32,.3,0,.17-.13,.31-.3,.32h-.02c-.17,0-.3-.15-.3-.32,0-.16,.14-.29,.3-.3h0Zm-1.32-.26c.04-.16,.21-.26,.38-.22s.26,.21,.22,.38c-.04,.16-.21,.26-.38,.22s-.26-.21-.22-.38h0Zm2.28,3.56c-.32,.32-.61,.37-1.02,.45-.61,.12-1.36,.26-2.45,1.35-.05,.05-.1,.09-.15,.13-.3,.07-.72,.07-1.09-.29s-.36-.78-.29-1.09c.04-.05,.09-.1,.13-.15,1.09-1.09,1.23-1.84,1.35-2.45,.08-.41,.13-.7,.45-1.02,.07-.07,.15-.14,.22-.19,.82,.08,1.49,.38,2.08,.95,.59,.58,.89,1.33,.95,2.08-.06,.08-.12,.15-.19,.22h0Zm.41-.78c-.17,0-.31-.13-.32-.3,0-.17,.13-.31,.3-.32h.02c.17,0,.3,.15,.3,.32,0,.16-.14,.29-.3,.3h0Z" fill="#5fa8dc"/><path d="M89.61,154.13s-.07-.03-.07-.07c0-.01,0-.02,0-.03,.07-.16,.21-.36,.3-.49-.18,.02-.41-.02-.51-.25-.11-.26,0-.58,.07-.76-.21,.03-.6,.04-.78-.18-.17-.2-.13-.53-.09-.72-.19,.09-.51,.2-.76,.1-.13-.06-.22-.15-.26-.27-.02-.09-.03-.18,0-.26-.14,.11-.33,.23-.53,.29-.04,.01-.07,0-.09-.05h0s.01-.08,.05-.09c.35-.1,.68-.44,.68-.44,.03-.03,.07-.03,.1,0,.02,.02,.03,.06,.01,.09,0,0-.14,.24-.08,.42,.03,.08,.09,.14,.18,.18,.29,.13,.77-.16,.78-.16,.03-.02,.08,0,.1,.02,.01,.02,.01,.04,0,.06,0,0-.18,.51,.02,.74,.16,.19,.62,.14,.78,.11,.03,0,.05,0,.07,.03,.02,.02,.02,.05,0,.08,0,0-.25,.46-.12,.76,.12,.27,.5,.14,.52,.14,.04-.01,.08,0,.09,.04,0,.02,0,.05-.01,.06,0,0-.28,.38-.39,.61-.01,.02-.04,.04-.06,.04h0Z" fill="#292f33"/></g><g><path d="M95.97,151.72c-.61,0-1.11,.5-1.11,1.11v5c0,.61,.5,1.11,1.11,1.11h1.67v-7.22h-1.67Zm7.77,0h-1.67v7.22h1.67c.61,0,1.11-.5,1.11-1.11v-5c0-.61-.5-1.11-1.11-1.11Z" fill="#d32d27"/><path d="M97.63,151.72h4.44v7.22h-4.44v-7.22Z" fill="#edeced"/><path d="M100.02,156.47c.33,.04,.63,.07,.96,.11l-.08-.28s0-.1,.04-.13l.97-.79-.2-.09c-.09-.03-.06-.08-.03-.2l.15-.54-.56,.12c-.05,0-.09-.03-.1-.06l-.07-.25-.44,.5c-.06,.08-.19,.08-.15-.1l.19-1.01-.25,.13c-.07,.04-.14,.05-.18-.02l-.35-.66h0l-.35,.66c-.04,.07-.11,.06-.18,.02l-.25-.13,.19,1.01c.04,.18-.09,.18-.15,.1l-.44-.5-.07,.25s-.04,.07-.1,.06l-.56-.12,.15,.54c.03,.12,.06,.17-.03,.2l-.2,.09,.97,.79s.06,.08,.04,.13l-.08,.28,.96-.11s.05,.02,.05,.05l-.06,1.03h.27l-.06-1.03s.02-.05,.05-.05h0Z" fill="#d32d27"/></g><g><g id="Group_11-2"><line id="Line_21-2" x1="114.31" y1="154.54" x2="114.31" y2="150.89" fill="none" stroke="#fff" stroke-linecap="round" stroke-linejoin="round" stroke-width=".56"/><path id="Path_72-2" d="M113.19,153.32v1.11h-1.11" fill="none" stroke="#fff" stroke-linecap="round" stroke-linejoin="round" stroke-width=".56"/><path id="Path_73-2" d="M115.42,153.32v1.11h1.11" fill="none" stroke="#fff" stroke-linecap="round" stroke-linejoin="round" stroke-width=".56"/><path id="Path_74-2" d="M112.18,152.31v1.11h-1.11" fill="none" stroke="#fff" stroke-linecap="round" stroke-linejoin="round" stroke-width=".56"/><path id="Path_75-2" d="M116.44,152.31v1.11h1.11" fill="none" stroke="#fff" stroke-linecap="round" stroke-linejoin="round" stroke-width=".56"/><line id="Line_22-2" x1="113.6" y1="154.84" x2="112.08" y2="153.32" fill="none" stroke="#fff" stroke-linecap="round" stroke-linejoin="round" stroke-width=".56"/><line id="Line_23-2" x1="115.02" y1="154.84" x2="116.54" y2="153.32" fill="none" stroke="#fff" stroke-linecap="round" stroke-linejoin="round" stroke-width=".56"/><path id="Path_76-2" d="M112.79,151.6l1.52,1.52,1.52-1.52" fill="none" stroke="#fff" stroke-linecap="round" stroke-linejoin="round" stroke-width=".56"/><line id="Line_24-2" x1="115.32" y1="155.55" x2="118.97" y2="155.55" fill="none" stroke="#fff" stroke-linecap="round" stroke-linejoin="round" stroke-width=".56"/><path id="Path_77-2" d="M118.26,154.03l-1.52,1.52,1.52,1.52" fill="none" stroke="#fff" stroke-linecap="round" stroke-linejoin="round" stroke-width=".56"/><line id="Line_25-2" x1="113.29" y1="155.55" x2="109.65" y2="155.55" fill="none" stroke="#fff" stroke-linecap="round" stroke-linejoin="round" stroke-width=".56"/><path id="Path_78-2" d="M110.36,157.07l1.52-1.52-1.52-1.52" fill="none" stroke="#fff" stroke-linecap="round" stroke-linejoin="round" stroke-width=".56"/><line id="Line_26-2" x1="114.31" y1="156.66" x2="114.31" y2="160.31" fill="none" stroke="#fff" stroke-linecap="round" stroke-linejoin="round" stroke-width=".56"/><path id="Path_79-2" d="M115.42,157.88v-1.11h1.11" fill="none" stroke="#fff" stroke-linecap="round" stroke-linejoin="round" stroke-width=".56"/><path id="Path_80-2" d="M113.19,157.88v-1.11h-1.11" fill="none" stroke="#fff" stroke-linecap="round" stroke-linejoin="round" stroke-width=".56"/><path id="Path_81-2" d="M116.44,158.89v-1.11h1.11" fill="none" stroke="#fff" stroke-linecap="round" stroke-linejoin="round" stroke-width=".56"/><path id="Path_82-2" d="M112.18,158.89v-1.11h-1.11" fill="none" stroke="#fff" stroke-linecap="round" stroke-linejoin="round" stroke-width=".56"/><line id="Line_27-2" x1="115.02" y1="156.36" x2="116.54" y2="157.88" fill="none" stroke="#fff" stroke-linecap="round" stroke-linejoin="round" stroke-width=".56"/><line id="Line_28-2" x1="113.6" y1="156.36" x2="112.08" y2="157.88" fill="none" stroke="#fff" stroke-linecap="round" stroke-linejoin="round" stroke-width=".56"/><path id="Path_83-2" d="M115.83,159.6l-1.52-1.52-1.52,1.52" fill="none" stroke="#fff" stroke-linecap="round" stroke-linejoin="round" stroke-width=".56"/><circle id="Ellipse_15-2" cx="114.31" cy="155.55" r="1.11" fill="#abdeea" stroke="#fff" stroke-linecap="round" stroke-linejoin="round" stroke-width=".56"/></g><g id="Group_11-2-2"><line id="Line_21-2-2" x1="114.29" y1="154.54" x2="114.29" y2="150.89" fill="none" stroke="#2d4e68" stroke-linecap="round" stroke-linejoin="round" stroke-width=".4"/><path id="Path_72-2-2" d="M113.17,153.32v1.11h-1.11" fill="none" stroke="#2d4e68" stroke-linecap="round" stroke-linejoin="round" stroke-width=".4"/><path id="Path_73-2-2" d="M115.4,153.32v1.11h1.11" fill="none" stroke="#2d4e68" stroke-linecap="round" stroke-linejoin="round" stroke-width=".4"/><path id="Path_74-2-2" d="M112.16,152.31v1.11h-1.11" fill="none" stroke="#2d4e68" stroke-linecap="round" stroke-linejoin="round" stroke-width=".4"/><path id="Path_75-2-2" d="M116.42,152.31v1.11h1.11" fill="none" stroke="#2d4e68" stroke-linecap="round" stroke-linejoin="round" stroke-width=".4"/><line id="Line_22-2-2" x1="113.58" y1="154.84" x2="112.06" y2="153.32" fill="none" stroke="#2d4e68" stroke-linecap="round" stroke-linejoin="round" stroke-width=".4"/><line id="Line_23-2-2" x1="115" y1="154.84" x2="116.52" y2="153.32" fill="none" stroke="#2d4e68" stroke-linecap="round" stroke-linejoin="round" stroke-width=".4"/><path id="Path_76-2-2" d="M112.77,151.6l1.52,1.52,1.52-1.52" fill="none" stroke="#2d4e68" stroke-linecap="round" stroke-linejoin="round" stroke-width=".4"/><line id="Line_24-2-2" x1="115.3" y1="155.55" x2="118.95" y2="155.55" fill="none" stroke="#2d4e68" stroke-linecap="round" stroke-linejoin="round" stroke-width=".4"/><path id="Path_77-2-2" d="M118.24,154.03l-1.52,1.52,1.52,1.52" fill="none" stroke="#2d4e68" stroke-linecap="round" stroke-linejoin="round" stroke-width=".4"/><line id="Line_25-2-2" x1="113.28" y1="155.55" x2="109.63" y2="155.55" fill="none" stroke="#2d4e68" stroke-linecap="round" stroke-linejoin="round" stroke-width=".4"/><path id="Path_78-2-2" d="M110.34,157.07l1.52-1.52-1.52-1.52" fill="none" stroke="#2d4e68" stroke-linecap="round" stroke-linejoin="round" stroke-width=".4"/><line id="Line_26-2-2" x1="114.29" y1="156.66" x2="114.29" y2="160.31" fill="none" stroke="#2d4e68" stroke-linecap="round" stroke-linejoin="round" stroke-width=".4"/><path id="Path_79-2-2" d="M115.4,157.88v-1.11h1.11" fill="none" stroke="#2d4e68" stroke-linecap="round" stroke-linejoin="round" stroke-width=".4"/><path id="Path_80-2-2" d="M113.17,157.88v-1.11h-1.11" fill="none" stroke="#2d4e68" stroke-linecap="round" stroke-linejoin="round" stroke-width=".4"/><path id="Path_81-2-2" d="M116.42,158.89v-1.11h1.11" fill="none" stroke="#2d4e68" stroke-linecap="round" stroke-linejoin="round" stroke-width=".4"/><path id="Path_82-2-2" d="M112.16,158.89v-1.11h-1.11" fill="none" stroke="#2d4e68" stroke-linecap="round" stroke-linejoin="round" stroke-width=".4"/><line id="Line_27-2-2" x1="115" y1="156.36" x2="116.52" y2="157.88" fill="none" stroke="#2d4e68" stroke-linecap="round" stroke-linejoin="round" stroke-width=".4"/><line id="Line_28-2-2" x1="113.58" y1="156.36" x2="112.06" y2="157.88" fill="none" stroke="#2d4e68" stroke-linecap="round" stroke-linejoin="round" stroke-width=".4"/><path id="Path_83-2-2" d="M115.81,159.6l-1.52-1.52-1.52,1.52" fill="none" stroke="#2d4e68" stroke-linecap="round" stroke-linejoin="round" stroke-width=".4"/><circle id="Ellipse_15-2-2" cx="114.29" cy="155.55" r="1.11" fill="#abdeea" stroke="#2d4e68" stroke-linecap="round" stroke-linejoin="round" stroke-width=".4"/></g></g><g><polygon points="124.63 153.32 124.3 152.29 124.87 151.32 125.86 151.15 126.46 151.51 127.79 151.15 129.17 151.15 130.73 151.56 131.68 151.15 132.52 151.39 133.01 152.31 132.76 153.17 133.15 154.29 133.46 156.35 132.9 157.99 131.32 159.36 129.26 160.1 127.09 159.87 125.73 159.22 124.64 158.27 123.89 156.94 123.77 155.5 124.14 154.24 124.63 153.32" fill="#fff"/><g><path d="M133.68,156.11c0-.66-.12-1.31-.36-1.92h0s0-.03,0-.03l-.04-.08c-.1-.23-.21-.47-.35-.71,.18-.25,.27-.54,.27-.86,0-.82-.67-1.48-1.48-1.48-.37,0-.72,.14-.99,.38-.65-.3-1.37-.46-2.09-.46s-1.46,.17-2.12,.48c-.27-.25-.63-.39-1.01-.39-.82,0-1.48,.67-1.48,1.48,0,.33,.11,.65,.31,.91-.16,.28-.3,.58-.38,.76h0c-.24,.62-.36,1.27-.36,1.93,0,.73,.17,1.35,.51,1.9,.33,.53,.81,.95,1.2,1.26l.02,.02s.07,.07,.39,.24c.17,.09,.44,.23,.76,.36,.84,.35,1.61,.53,2.3,.53h.05c.7,0,1.44-.2,2.22-.59,.57-.28,.96-.56,1.01-.6l.31-.26h0c.72-.65,1.32-1.48,1.32-2.85h0Zm-1.94,2.76h0s-1.43,1.06-2.94,1.09h-.04c-1.51,0-3.1-.98-3.12-1h0c-.94-.74-1.58-1.48-1.58-2.84,0-.62,.12-1.21,.33-1.75,.1-.23,.32-.7,.54-1.01-.27-.18-.44-.48-.44-.83,0-.56,.46-1.02,1.02-1.02,.38,0,.71,.21,.88,.52,.67-.38,1.43-.6,2.24-.6s1.55,.21,2.2,.58c.18-.29,.5-.49,.87-.49,.56,0,1.02,.46,1.02,1.02,0,.33-.15,.62-.4,.8,.23,.32,.4,.7,.56,1.04,.21,.54,.33,1.13,.33,1.75,0,1.31-.59,2.05-1.47,2.76h0Z"/><path d="M129.93,154.52c0,.28,.23,.51,.51,.51s.51-.23,.51-.51-.23-.51-.51-.51-.51,.23-.51,.51Z"/><path d="M126.44,154.52c0,.28,.23,.51,.51,.51s.51-.23,.51-.51h0c0-.28-.23-.51-.51-.51s-.51,.23-.51,.51Z"/><path d="M130.41,157.23s-.08,.02-.11,.05c-.48,.26-1.07,.14-1.41-.27,0,0-.02-.02-.02-.02-.01-.02-.03-.03-.04-.06,.36-.06,.63-.37,.63-.74,0-.41-.33-.59-.75-.59s-.75,.17-.75,.59c0,.36,.26,.67,.6,.74-.01,.02-.03,.04-.04,.06,0,0-.02,.02-.02,.02-.35,.42-.96,.53-1.44,.25h0s-.06-.03-.1-.03c-.08,0-.15,.07-.15,.15,0,.07,.04,.12,.11,.14h0c.6,.35,1.34,.23,1.79-.26,.45,.49,1.2,.62,1.79,.27v-.02s.06-.08,.06-.13c0-.08-.07-.14-.15-.14h0Z"/></g></g><g><path d="M14.44,177.52c.2,.12,.48,.22,.78,.22,.45,0,.71-.24,.71-.58,0-.32-.18-.5-.64-.67-.55-.19-.89-.48-.89-.96,0-.53,.44-.92,1.09-.92,.35,0,.6,.08,.75,.17l-.12,.36c-.11-.06-.34-.16-.64-.16-.46,0-.64,.28-.64,.51,0,.32,.21,.47,.67,.65,.57,.22,.86,.5,.86,.99,0,.52-.39,.97-1.18,.97-.33,0-.68-.1-.86-.22l.11-.37Z"/><path d="M17.22,176.92c.01,.6,.39,.84,.83,.84,.32,0,.51-.05,.67-.12l.07,.32c-.15,.07-.42,.15-.81,.15-.75,0-1.19-.49-1.19-1.22s.43-1.31,1.14-1.31c.79,0,1,.7,1,1.14,0,.09,0,.16-.01,.21h-1.7Zm1.29-.31c0-.28-.12-.72-.61-.72-.45,0-.64,.41-.68,.72h1.29Z"/><path d="M19.48,174.5h.44v3.55h-.44v-3.55Z"/><path d="M20.91,176.92c.01,.6,.39,.84,.83,.84,.32,0,.51-.05,.67-.12l.07,.32c-.15,.07-.42,.15-.81,.15-.75,0-1.19-.49-1.19-1.22s.43-1.31,1.14-1.31c.79,0,1,.7,1,1.14,0,.09,0,.16-.01,.21h-1.7Zm1.29-.31c0-.28-.12-.72-.61-.72-.45,0-.64,.41-.68,.72h1.29Z"/><path d="M24.89,177.96c-.12,.06-.37,.14-.7,.14-.73,0-1.21-.5-1.21-1.24s.51-1.29,1.3-1.29c.26,0,.49,.06,.61,.12l-.1,.34c-.1-.06-.27-.12-.51-.12-.56,0-.86,.41-.86,.92,0,.56,.36,.91,.84,.91,.25,0,.42-.06,.54-.12l.08,.33Z"/><path d="M26,174.94v.7h.63v.34h-.63v1.31c0,.3,.08,.47,.33,.47,.12,0,.2-.02,.26-.03l.02,.33c-.08,.04-.22,.06-.39,.06-.21,0-.37-.07-.48-.19-.13-.13-.17-.35-.17-.63v-1.32h-.38v-.34h.38v-.58l.43-.12Z"/><path d="M29.53,178.05l-.04-.31h-.01c-.14,.19-.4,.36-.74,.36-.49,0-.74-.35-.74-.7,0-.59,.52-.91,1.46-.9v-.05c0-.2-.05-.56-.55-.56-.23,0-.46,.07-.63,.18l-.1-.29c.2-.13,.49-.22,.8-.22,.74,0,.92,.51,.92,.99v.91c0,.21,.01,.42,.04,.58h-.4Zm-.06-1.24c-.48,0-1.03,.08-1.03,.55,0,.29,.19,.42,.42,.42,.32,0,.52-.2,.59-.41,.01-.04,.02-.1,.02-.14v-.42Z"/><path d="M33.38,177.96c-.11,.06-.37,.14-.7,.14-.73,0-1.21-.5-1.21-1.24s.51-1.29,1.3-1.29c.26,0,.49,.06,.61,.12l-.1,.34c-.1-.06-.27-.12-.51-.12-.56,0-.86,.41-.86,.92,0,.56,.36,.91,.84,.91,.25,0,.42-.06,.54-.12l.07,.33Z"/><path d="M34.11,176.92c.01,.6,.39,.84,.83,.84,.32,0,.51-.05,.67-.12l.07,.32c-.15,.07-.42,.15-.81,.15-.75,0-1.19-.49-1.19-1.22s.43-1.31,1.14-1.31c.79,0,1,.7,1,1.14,0,.09,0,.16-.01,.21h-1.7Zm1.29-.31c0-.28-.12-.72-.61-.72-.45,0-.64,.41-.68,.72h1.29Z"/><path d="M36.37,174.5h.44v3.55h-.44v-3.55Z"/><path d="M37.55,174.5h.44v3.55h-.44v-3.55Z"/><path d="M38.4,178.67c.11-.3,.25-.83,.3-1.2l.49-.05c-.11,.43-.33,.98-.48,1.22l-.32,.03Z"/><path d="M41.31,174.94v.7h.63v.34h-.63v1.31c0,.3,.08,.47,.33,.47,.12,0,.2-.02,.26-.03l.02,.33c-.08,.04-.22,.06-.39,.06-.21,0-.37-.07-.48-.19-.13-.13-.17-.35-.17-.63v-1.32h-.38v-.34h.38v-.58l.43-.12Z"/><path d="M42.43,174.5h.44v1.51h.01c.07-.12,.18-.24,.31-.31,.13-.08,.29-.13,.45-.13,.33,0,.85,.2,.85,1.04v1.44h-.44v-1.39c0-.39-.15-.72-.56-.72-.29,0-.51,.2-.59,.44-.03,.06-.03,.12-.03,.21v1.46h-.44v-3.55Z"/><path d="M45.45,176.92c0,.6,.39,.84,.83,.84,.32,0,.51-.05,.67-.12l.08,.32c-.16,.07-.42,.15-.81,.15-.75,0-1.19-.49-1.19-1.22s.43-1.31,1.14-1.31c.79,0,1,.7,1,1.14,0,.09,0,.16-.02,.21h-1.7Zm1.29-.31c0-.28-.12-.72-.61-.72-.45,0-.64,.41-.68,.72h1.29Z"/><path d="M47.71,176.29c0-.25,0-.46-.02-.66h.39l.02,.4h0c.12-.23,.4-.46,.8-.46,.34,0,.86,.2,.86,1.03v1.45h-.44v-1.4c0-.39-.15-.72-.56-.72-.29,0-.52,.21-.59,.45-.02,.06-.03,.13-.03,.21v1.46h-.44v-1.77Z"/><path d="M52.08,174.94v.7h.63v.34h-.63v1.31c0,.3,.08,.47,.33,.47,.12,0,.2-.02,.26-.03l.02,.33c-.08,.04-.22,.06-.39,.06-.21,0-.37-.07-.48-.19-.12-.13-.17-.35-.17-.63v-1.32h-.38v-.34h.38v-.58l.43-.12Z"/><path d="M54.54,178.05l-.04-.31h-.01c-.14,.19-.4,.36-.74,.36-.49,0-.74-.35-.74-.7,0-.59,.52-.91,1.46-.9v-.05c0-.2-.05-.56-.55-.56-.23,0-.46,.07-.63,.18l-.1-.29c.2-.13,.49-.22,.8-.22,.74,0,.92,.51,.92,.99v.91c0,.21,.01,.42,.04,.58h-.4Zm-.06-1.24c-.48,0-1.03,.08-1.03,.55,0,.29,.19,.42,.42,.42,.32,0,.52-.2,.59-.41,.01-.04,.02-.1,.02-.14v-.42Z"/><path d="M55.61,176.42c0-.31,0-.56-.02-.79h.4l.02,.42h0c.18-.3,.47-.47,.86-.47,.59,0,1.03,.5,1.03,1.23,0,.87-.53,1.3-1.1,1.3-.32,0-.6-.14-.75-.38h0v1.32h-.44v-2.62Zm.44,.65c0,.06,0,.12,.02,.18,.08,.31,.35,.52,.66,.52,.47,0,.74-.38,.74-.94,0-.49-.26-.9-.72-.9-.3,0-.58,.22-.67,.55-.02,.06-.03,.12-.03,.18v.42Z"/><path d="M60.86,178.05l-.03-.31h-.02c-.14,.19-.4,.36-.74,.36-.49,0-.74-.35-.74-.7,0-.59,.52-.91,1.46-.9v-.05c0-.2-.06-.56-.55-.56-.23,0-.46,.07-.63,.18l-.1-.29c.2-.13,.49-.22,.8-.22,.74,0,.92,.51,.92,.99v.91c0,.21,.01,.42,.04,.58h-.4Zm-.06-1.24c-.48,0-1.03,.08-1.03,.55,0,.29,.19,.42,.42,.42,.31,0,.52-.2,.59-.41,.02-.04,.02-.1,.02-.14v-.42Z"/><path d="M65.36,177.94c-.16,.08-.48,.16-.89,.16-.95,0-1.67-.6-1.67-1.71s.72-1.77,1.76-1.77c.42,0,.69,.09,.8,.15l-.1,.36c-.17-.08-.4-.14-.68-.14-.79,0-1.32,.51-1.32,1.39,0,.83,.48,1.36,1.3,1.36,.27,0,.54-.06,.71-.14l.09,.35Z"/><path d="M67.19,178.05l-.03-.31h-.02c-.14,.19-.4,.36-.74,.36-.49,0-.74-.35-.74-.7,0-.59,.52-.91,1.46-.9v-.05c0-.2-.06-.56-.55-.56-.23,0-.46,.07-.63,.18l-.1-.29c.2-.13,.49-.22,.8-.22,.74,0,.92,.51,.92,.99v.91c0,.21,.01,.42,.04,.58h-.4Zm-.06-1.24c-.48,0-1.03,.08-1.03,.55,0,.29,.19,.42,.42,.42,.31,0,.52-.2,.59-.41,.02-.04,.02-.1,.02-.14v-.42Z"/><path d="M68.26,176.29c0-.25,0-.46-.02-.66h.39l.02,.4h.01c.12-.23,.4-.46,.8-.46,.33,0,.86,.2,.86,1.03v1.45h-.44v-1.4c0-.39-.15-.72-.56-.72-.29,0-.52,.21-.59,.45-.02,.06-.03,.13-.03,.21v1.46h-.44v-1.77Z"/><path d="M72.38,178.05l-.03-.31h-.02c-.14,.19-.4,.36-.74,.36-.49,0-.74-.35-.74-.7,0-.59,.52-.91,1.46-.9v-.05c0-.2-.06-.56-.55-.56-.23,0-.46,.07-.63,.18l-.1-.29c.2-.13,.49-.22,.8-.22,.74,0,.92,.51,.92,.99v.91c0,.21,.01,.42,.04,.58h-.4Zm-.06-1.24c-.48,0-1.03,.08-1.03,.55,0,.29,.19,.42,.42,.42,.31,0,.52-.2,.59-.41,.02-.04,.02-.1,.02-.14v-.42Z"/><path d="M75.54,174.5v2.93c0,.21,0,.46,.02,.63h-.4l-.02-.42h-.01c-.13,.27-.43,.48-.83,.48-.59,0-1.04-.5-1.04-1.23,0-.81,.5-1.3,1.09-1.3,.37,0,.62,.18,.73,.37h.01v-1.45h.44Zm-.44,2.12c0-.06,0-.13-.02-.19-.07-.28-.31-.51-.64-.51-.46,0-.73,.4-.73,.94,0,.49,.24,.9,.72,.9,.29,0,.57-.2,.65-.53,.01-.06,.02-.12,.02-.19v-.42Z"/><path d="M76.75,174.95c0,.15-.11,.27-.28,.27-.16,0-.27-.12-.27-.27s.12-.28,.28-.28,.27,.12,.27,.28Zm-.49,3.1v-2.42h.44v2.42h-.44Z"/><path d="M78.78,178.05l-.04-.31h-.01c-.14,.19-.4,.36-.74,.36-.49,0-.74-.35-.74-.7,0-.59,.52-.91,1.46-.9v-.05c0-.2-.05-.56-.55-.56-.23,0-.46,.07-.63,.18l-.1-.29c.2-.13,.49-.22,.8-.22,.74,0,.92,.51,.92,.99v.91c0,.21,.01,.42,.04,.58h-.4Zm-.06-1.24c-.48,0-1.03,.08-1.03,.55,0,.29,.19,.42,.42,.42,.32,0,.52-.2,.59-.41,.01-.04,.02-.1,.02-.14v-.42Z"/><path d="M79.84,176.29c0-.25,0-.46-.02-.66h.39l.02,.4h.01c.12-.23,.4-.46,.8-.46,.33,0,.86,.2,.86,1.03v1.45h-.44v-1.4c0-.39-.15-.72-.56-.72-.29,0-.52,.21-.59,.45-.02,.06-.03,.13-.03,.21v1.46h-.44v-1.77Z"/><path d="M84.17,174.95c0,.15-.11,.27-.28,.27-.16,0-.27-.12-.27-.27s.12-.28,.28-.28,.27,.12,.27,.28Zm-.49,3.1v-2.42h.44v2.42h-.44Z"/><path d="M84.85,176.29c0-.25,0-.46-.02-.66h.39l.02,.39h.02c.14-.23,.36-.45,.76-.45,.33,0,.58,.2,.69,.49h0c.08-.14,.17-.24,.27-.32,.15-.11,.31-.17,.54-.17,.32,0,.8,.21,.8,1.05v1.43h-.43v-1.37c0-.47-.17-.75-.53-.75-.25,0-.45,.19-.52,.4-.02,.06-.04,.14-.04,.22v1.5h-.43v-1.45c0-.39-.17-.67-.51-.67-.28,0-.48,.22-.55,.44-.02,.06-.03,.14-.03,.22v1.46h-.43v-1.77Z"/><path d="M90.36,178.05l-.04-.31h-.01c-.14,.19-.4,.36-.74,.36-.49,0-.74-.35-.74-.7,0-.59,.52-.91,1.46-.9v-.05c0-.2-.05-.56-.55-.56-.23,0-.46,.07-.63,.18l-.1-.29c.2-.13,.49-.22,.8-.22,.74,0,.92,.51,.92,.99v.91c0,.21,.01,.42,.04,.58h-.4Zm-.06-1.24c-.48,0-1.03,.08-1.03,.55,0,.29,.19,.42,.42,.42,.32,0,.52-.2,.59-.41,.01-.04,.02-.1,.02-.14v-.42Z"/><path d="M93.52,175.63c-.01,.18-.02,.37-.02,.67v1.41c0,.56-.11,.9-.35,1.11-.23,.22-.58,.29-.88,.29s-.61-.07-.81-.2l.11-.34c.16,.1,.41,.19,.71,.19,.45,0,.78-.24,.78-.85v-.27h-.01c-.13,.23-.4,.41-.77,.41-.6,0-1.03-.51-1.03-1.18,0-.82,.54-1.29,1.09-1.29,.42,0,.65,.22,.76,.42h0l.02-.37h.39Zm-.46,.96c0-.08,0-.14-.02-.2-.08-.26-.3-.47-.62-.47-.42,0-.72,.36-.72,.92,0,.48,.24,.87,.72,.87,.27,0,.52-.17,.61-.45,.02-.07,.04-.16,.04-.23v-.44Z"/><path d="M94.47,176.92c0,.6,.39,.84,.83,.84,.32,0,.51-.05,.67-.12l.08,.32c-.16,.07-.42,.15-.81,.15-.75,0-1.19-.49-1.19-1.22s.43-1.31,1.14-1.31c.79,0,1,.7,1,1.14,0,.09,0,.16-.02,.21h-1.7Zm1.29-.31c0-.28-.12-.72-.61-.72-.45,0-.64,.41-.68,.72h1.29Z"/><path d="M98.32,174.94v.7h.63v.34h-.63v1.31c0,.3,.08,.47,.33,.47,.12,0,.2-.02,.26-.03l.02,.33c-.08,.04-.22,.06-.39,.06-.21,0-.37-.07-.48-.19-.12-.13-.17-.35-.17-.63v-1.32h-.38v-.34h.38v-.58l.43-.12Z"/><path d="M101.61,176.82c0,.9-.62,1.29-1.21,1.29-.66,0-1.16-.48-1.16-1.25,0-.81,.53-1.29,1.2-1.29s1.17,.51,1.17,1.25Zm-1.92,.02c0,.53,.31,.93,.74,.93s.74-.4,.74-.94c0-.41-.21-.93-.73-.93s-.75,.48-.75,.94Z"/><path d="M103.26,178.05v-2.09h-.34v-.34h.34v-.13c0-.64,.38-1.06,1.06-1.06,.23,0,.49,.07,.62,.16l-.12,.34c-.11-.08-.3-.14-.51-.14-.47,0-.6,.33-.6,.71v.12h1.41v2.42h-.44v-2.09h-.97v2.09h-.44Z"/><path d="M105.83,174.5h.44v3.55h-.44v-3.55Z"/><path d="M107.01,174.5h.44v3.55h-.44v-3.55Z"/><path d="M109.74,174.95c0,.15-.1,.27-.28,.27-.16,0-.27-.12-.27-.27s.11-.28,.27-.28,.27,.12,.27,.28Zm-.49,3.1v-2.42h.44v2.42h-.44Z"/><path d="M110.42,176.29c0-.25,0-.46-.02-.66h.39l.02,.4h0c.12-.23,.4-.46,.8-.46,.34,0,.86,.2,.86,1.03v1.45h-.44v-1.4c0-.39-.15-.72-.56-.72-.29,0-.52,.21-.59,.45-.02,.06-.03,.13-.03,.21v1.46h-.44v-1.77Z"/><path d="M114.79,174.94v.7h.63v.34h-.63v1.31c0,.3,.08,.47,.33,.47,.12,0,.2-.02,.26-.03l.02,.33c-.08,.04-.22,.06-.39,.06-.21,0-.37-.07-.48-.19-.12-.13-.17-.35-.17-.63v-1.32h-.38v-.34h.38v-.58l.43-.12Z"/><path d="M115.91,174.5h.44v1.51h.01c.07-.12,.18-.24,.32-.31,.13-.08,.29-.13,.45-.13,.33,0,.85,.2,.85,1.04v1.44h-.44v-1.39c0-.39-.15-.72-.56-.72-.29,0-.51,.2-.59,.44-.02,.06-.03,.12-.03,.21v1.46h-.44v-3.55Z"/><path d="M118.93,176.92c.01,.6,.39,.84,.83,.84,.32,0,.51-.05,.67-.12l.07,.32c-.15,.07-.42,.15-.81,.15-.75,0-1.19-.49-1.19-1.22s.43-1.31,1.14-1.31c.79,0,1,.7,1,1.14,0,.09,0,.16-.01,.21h-1.7Zm1.29-.31c0-.28-.12-.72-.61-.72-.45,0-.64,.41-.68,.72h1.29Z"/><path d="M123.98,177.96c-.12,.06-.37,.14-.7,.14-.73,0-1.21-.5-1.21-1.24s.51-1.29,1.3-1.29c.26,0,.49,.06,.61,.12l-.1,.34c-.1-.06-.27-.12-.51-.12-.56,0-.86,.41-.86,.92,0,.56,.36,.91,.84,.91,.25,0,.42-.06,.54-.12l.08,.33Z"/><path d="M124.71,176.92c0,.6,.39,.84,.83,.84,.32,0,.51-.05,.67-.12l.08,.32c-.16,.07-.42,.15-.81,.15-.75,0-1.19-.49-1.19-1.22s.43-1.31,1.14-1.31c.79,0,1,.7,1,1.14,0,.09,0,.16-.02,.21h-1.7Zm1.29-.31c0-.28-.12-.72-.61-.72-.45,0-.64,.41-.68,.72h1.29Z"/><path d="M126.97,174.5h.44v3.55h-.44v-3.55Z"/><path d="M128.15,174.5h.44v3.55h-.44v-3.55Z"/></g><g><path d="M65.92,75.76c-.15-.34-.49-.77-1.29-.42l-.7,.31-.67-1.51c-.4-.91-1.4-.98-1.9-.5-.37,.35-.53,.91-.29,1.45l2.36,5.4c-.57-.44-1.67-.43-2.16,.08v-.02c-.51,.54-.42,1.3,.37,1.96l4.23,3.33,6.05-2.66,.03-.53c.09-1.37-.16-2.75-.71-4l-.46-1.04c-.02-.05-.05-.11-.08-.16-.32-.58-1.03-.83-1.65-.56l-.45,.2-.51-1.17c-.23-.51-.82-.74-1.34-.52l-.84,.36Z" fill="#fff"/><path d="M71.48,78.54l-.46-1.04c-.03-.06-.06-.12-.09-.18-.19-.34-.49-.59-.86-.72-.37-.12-.76-.11-1.12,.05l-.22,.09-.41-.93c-.14-.31-.39-.55-.71-.67-.32-.12-.66-.11-.97,.02l-.62,.27c-.11-.16-.24-.29-.4-.37-.31-.16-.68-.14-1.11,.04l-.46,.2-.56-1.28c-.21-.49-.61-.82-1.09-.92-.45-.09-.91,.04-1.22,.34-.48,.46-.62,1.14-.35,1.74l2.09,4.79c-.63-.15-1.36-.03-1.78,.35-.02,.01-.03,.02-.05,.04-.28,.29-.42,.64-.4,1.01,.02,.47,.29,.93,.78,1.34,0,0,0,0,0,0l4.23,3.33s.1,.06,.16,.06c.04,0,.07,0,.1-.02l6.05-2.66c.09-.04,.15-.12,.15-.22l.03-.53c.09-1.41-.17-2.83-.73-4.12Zm-2.39,.3c.04,.1,.14,.15,.24,.15,.03,0,.07,0,.1-.02,.13-.06,.19-.21,.13-.34l-.62-1.41,.22-.09c.49-.21,1.06-.02,1.31,.45,.02,.04,.05,.09,.07,.14l.46,1.04c.53,1.22,.77,2.56,.69,3.88l-.02,.37-5.77,2.54-4.1-3.23c-.37-.31-.57-.64-.59-.96-.01-.21,.06-.4,.21-.58,0,0,.02-.02,.03-.03,.38-.39,1.32-.42,1.81-.06l1.05,1.01c.05,.05,.11,.07,.18,.07,.07,0,.14-.03,.19-.08,.1-.1,.1-.27,0-.37l-1.03-.99-2.34-5.35c-.21-.49-.02-.92,.23-1.16,.19-.18,.48-.26,.76-.21,.32,.06,.57,.28,.72,.62l1.77,4.02c.04,.1,.14,.15,.24,.15,.03,0,.07,0,.1-.02,.13-.06,.19-.21,.13-.34l-1-2.27,.46-.2c.28-.12,.5-.14,.66-.06,.11,.06,.21,.17,.28,.34,0,0,0,0,0,0l1.04,2.37c.04,.1,.14,.15,.24,.15,.03,0,.07,0,.1-.02,.13-.06,.19-.21,.13-.34l-.94-2.13,.6-.26s0,0,0,0c.18-.08,.39-.09,.57-.01,.19,.07,.34,.21,.42,.4l1.24,2.82Z"/><path d="M70.28,83.22c-.1,0-.19-.06-.24-.16-.06-.13,0-.28,.13-.34l.3-.13c.13-.06,.28,0,.34,.13,.06,.13,0,.28-.13,.34l-.3,.13s-.07,.02-.1,.02Z"/><path d="M66.16,85.03c-.1,0-.19-.06-.24-.16-.06-.13,0-.28,.13-.34l3.21-1.41c.13-.06,.28,0,.34,.13,.06,.13,0,.28-.13,.34l-3.21,1.41s-.07,.02-.1,.02Z"/></g><g><path d="M79.32,159.73c-.15-.34-.49-.77-1.29-.42l-.7,.31-.67-1.51c-.4-.91-1.4-.98-1.9-.5-.37,.35-.53,.91-.29,1.45l2.36,5.4c-.57-.44-1.67-.43-2.16,.08v-.02c-.51,.54-.42,1.3,.37,1.96l4.23,3.33,6.05-2.66,.03-.53c.09-1.37-.16-2.75-.71-4l-.46-1.04c-.02-.05-.05-.11-.08-.16-.32-.58-1.03-.83-1.65-.56l-.45,.2-.51-1.17c-.23-.51-.82-.74-1.34-.52l-.84,.36Z" fill="#fff"/><path d="M84.88,162.51l-.46-1.04c-.03-.06-.06-.12-.09-.18-.19-.34-.49-.59-.86-.72-.37-.12-.76-.11-1.12,.05l-.22,.09-.41-.93c-.14-.31-.39-.55-.71-.67-.32-.12-.66-.11-.97,.02l-.62,.27c-.11-.16-.24-.29-.4-.37-.31-.16-.68-.14-1.11,.04l-.46,.2-.56-1.28c-.21-.49-.61-.82-1.09-.92-.45-.09-.91,.04-1.22,.34-.48,.46-.62,1.14-.35,1.74l2.09,4.79c-.63-.15-1.36-.03-1.78,.35-.02,.01-.03,.02-.05,.04-.28,.29-.42,.64-.4,1.01,.02,.47,.29,.93,.78,1.34,0,0,0,0,0,0l4.23,3.33s.1,.06,.16,.06c.04,0,.07,0,.1-.02l6.05-2.66c.09-.04,.15-.12,.15-.22l.03-.53c.09-1.41-.17-2.83-.73-4.12Zm-2.39,.3c.04,.1,.14,.15,.24,.15,.03,0,.07,0,.1-.02,.13-.06,.19-.21,.13-.34l-.62-1.41,.22-.09c.49-.21,1.06-.02,1.31,.45,.02,.04,.05,.09,.07,.14l.46,1.04c.53,1.22,.77,2.56,.69,3.88l-.02,.37-5.77,2.54-4.1-3.23c-.37-.31-.57-.64-.59-.96-.01-.21,.06-.4,.21-.58,0,0,.02-.02,.03-.03,.38-.39,1.32-.42,1.81-.06l1.05,1.01c.05,.05,.11,.07,.18,.07,.07,0,.14-.03,.19-.08,.1-.1,.1-.27,0-.37l-1.03-.99-2.34-5.35c-.21-.49-.02-.92,.23-1.16,.19-.18,.48-.26,.76-.21,.32,.06,.57,.28,.72,.62l1.77,4.02c.04,.1,.14,.15,.24,.15,.03,0,.07,0,.1-.02,.13-.06,.19-.21,.13-.34l-1-2.27,.46-.2c.28-.12,.5-.14,.66-.06,.11,.06,.21,.17,.28,.34,0,0,0,0,0,0l1.04,2.37c.04,.1,.14,.15,.24,.15,.03,0,.07,0,.1-.02,.13-.06,.19-.21,.13-.34l-.94-2.13,.6-.26s0,0,0,0c.18-.08,.39-.09,.57-.01,.19,.07,.34,.21,.42,.4l1.24,2.82Z"/><path d="M83.67,167.18c-.1,0-.19-.06-.24-.16-.06-.13,0-.28,.13-.34l.3-.13c.13-.06,.28,0,.34,.13,.06,.13,0,.28-.13,.34l-.3,.13s-.07,.02-.1,.02Z"/><path d="M79.55,169c-.1,0-.19-.06-.24-.16-.06-.13,0-.28,.13-.34l3.21-1.41c.13-.06,.28,0,.34,.13,.06,.13,0,.28-.13,.34l-3.21,1.41s-.07,.02-.1,.02Z"/></g></svg>