<?xml version="1.0" encoding="UTF-8"?><svg id="Layer_1" xmlns="http://www.w3.org/2000/svg" xmlns:xlink="http://www.w3.org/1999/xlink" viewBox="0 0 287.82 374.34"><defs><symbol id="A" viewBox="0 0 131.27 81.55"><g><g><path d="M129.17,15.72s-3.97,29.79-23.83,29.79H25.9C6.04,45.51,2.09,15.72,2.09,15.72c0,0,7.94,5.96,63.54,5.96s63.54-5.96,63.54-5.96h0Z" fill="#63b1e2" stroke="#63b1e2" stroke-linecap="round" stroke-linejoin="round" stroke-width="4.17"/><path d="M74.99,2.07l9.02,5.21-5.69,1.53-26.06,45.1,1.53,5.69-11.46,19.85-10.83-6.25,11.46-19.85,5.69-1.53L74.69,6.71l.28-4.65" fill="#a47938"/></g><path d="M74.7,6.74l.28-4.65m1.25,10.34l-23.96,41.5,1.53,5.69-11.46,19.85-10.83-6.25,11.46-19.85,2.85-.76M74.99,2.09l7.22,4.17m-17.71,39.26h40.86c19.85,0,23.83-29.78,23.83-29.78,0,0-6.73,5-50.86,5.84m-17.14,.1C9.64,21.35,2.11,15.72,2.11,15.72c0,0,3.97,29.79,23.83,29.79h21.48" fill="none" stroke="#000" stroke-linecap="round" stroke-linejoin="round" stroke-width="4.17"/></g></symbol><clipPath id="clippath"><rect x="47.65" y="24.01" width="21.22" height="13.18" fill="none"/></clipPath><clipPath id="clippath-1"><rect x="47.65" y="24.01" width="21.22" height="13.18" fill="none"/></clipPath><clipPath id="clippath-2"><rect x="47.65" y="24.16" width="21" height="13.05" fill="none"/></clipPath><clipPath id="clippath-3"><rect x="247.19" y="52.21" width="21.22" height="13.18" fill="none"/></clipPath><clipPath id="clippath-4"><rect x="247.19" y="52.21" width="21.22" height="13.18" fill="none"/></clipPath><clipPath id="clippath-5"><rect x="247.19" y="52.34" width="21" height="13.05" fill="none"/></clipPath><clipPath id="clippath-6"><rect x="161.39" y="223.5" width="21.22" height="13.18" fill="none"/></clipPath><clipPath id="clippath-7"><rect x="161.39" y="223.5" width="21.22" height="13.18" fill="none"/></clipPath><clipPath id="clippath-8"><rect x="161.39" y="223.66" width="21" height="13.05" fill="none"/></clipPath><clipPath id="clippath-9"><rect x="47.65" y="304.44" width="21.22" height="13.18" fill="none"/></clipPath><clipPath id="clippath-10"><rect x="47.65" y="304.44" width="21.22" height="13.18" fill="none"/></clipPath><clipPath id="clippath-11"><rect x="47.65" y="304.58" width="21" height="13.05" fill="none"/></clipPath></defs><g><rect x="7.65" y="8.65" width="271.76" height="271.76" rx="8" ry="8" fill="#fff"/><rect x="15.37" y="102.2" width="28.76" height="28.12" fill="#6a8cff"/><rect x="100.99" y="102.2" width="84.3" height="85.02" fill="#a6c8ff"/><rect x="100.57" y="14.89" width="28.46" height="258.92" fill="#a6c8ff"/><rect x="14.29" y="130.33" width="258.92" height="28.46" fill="#a6c8ff"/><rect x="101.01" y="130.64" width="28.76" height="28.12" fill="#6a8cff"/><path d="M269.07,16.15c1.74,0,3.14,1.42,3.14,3.14v250.36c0,1.74-1.42,3.14-3.14,3.14H18.71c-1.74,0-3.14-1.42-3.14-3.14V19.29c0-1.74,1.42-3.14,3.14-3.14h250.36m0-2.86H18.71c-3.32,0-6,2.68-6,6v250.36c0,3.32,2.68,6,6,6h250.36c3.32,0,6-2.68,6-6V19.29c0-3.32-2.68-6-6-6h0Z" fill="#231f20"/><line x1="185.69" y1="15.61" x2="185.69" y2="274.05" fill="none" stroke="#231f20" stroke-linejoin="round" stroke-width="2.38"/><line x1="101.01" y1="15.13" x2="101.01" y2="273.56" fill="none" stroke="#231f20" stroke-linejoin="round" stroke-width="2.38"/><line x1="273.11" y1="187.22" x2="14.67" y2="187.22" fill="none" stroke="#231f20" stroke-linejoin="round" stroke-width="2.38"/><line x1="44.01" y1="15.61" x2="44.01" y2="274.05" fill="none" stroke="#231f20" stroke-linejoin="round" stroke-width=".96"/><line x1="72.51" y1="15.61" x2="72.51" y2="274.05" fill="none" stroke="#231f20" stroke-linejoin="round" stroke-width=".96"/><line x1="129.59" y1="16.07" x2="129.59" y2="274.5" fill="none" stroke="#231f20" stroke-linejoin="round" stroke-width=".96"/><line x1="158.29" y1="15.61" x2="158.29" y2="274.05" fill="none" stroke="#231f20" stroke-linejoin="round" stroke-width=".96"/><line x1="215.29" y1="16.07" x2="215.29" y2="274.5" fill="none" stroke="#231f20" stroke-linejoin="round" stroke-width=".96"/><line x1="243.53" y1="15.61" x2="243.53" y2="274.05" fill="none" stroke="#231f20" stroke-linejoin="round" stroke-width=".96"/><line x1="273.05" y1="44.52" x2="14.61" y2="44.52" fill="none" stroke="#231f20" stroke-linejoin="round" stroke-width=".96"/><line x1="273.05" y1="130.33" x2="14.61" y2="130.33" fill="none" stroke="#231f20" stroke-linejoin="round" stroke-width=".96"/><line x1="273.21" y1="158.78" x2="14.77" y2="158.78" fill="none" stroke="#231f20" stroke-linejoin="round" stroke-width=".96"/><line x1="272.81" y1="215.69" x2="14.37" y2="215.69" fill="none" stroke="#231f20" stroke-linejoin="round" stroke-width=".96"/><line x1="272.73" y1="244.14" x2="14.29" y2="244.14" fill="none" stroke="#231f20" stroke-linejoin="round" stroke-width=".96"/><g id="comp_53-canadian-maple-leaf"><g><path d="M228.39,149.24c-.36,.08-3.68,.94-3.68,.94,0,0,.18-.72,.36-1.24,.18-.54,0-.62-.18-.8-.1-.08-3.74-3.28-3.74-3.28l.62-.26c.36-.18,.26-.4,.18-.62-.08-.26-.72-2.38-.72-2.38,0,0,1.68,.36,2.04,.44,.26,.08,.36-.08,.44-.26s.54-1.14,.54-1.14c0,0,1.86,2.12,1.96,2.22,.36,.26,.72,0,.62-.36,0-.36-.98-4.6-.98-4.6,0,0,1.06,.62,1.42,.8,.26,.18,.44,.18,.62-.18,.18-.26,1.5-2.84,1.5-2.84,0,0,1.34,2.56,1.52,2.84,.18,.36,.36,.36,.62,.18,.36-.18,1.42-.8,1.42-.8,0,0-.98,4.24-.98,4.6-.08,.36,.26,.62,.62,.36,.08-.08,1.96-2.22,1.96-2.22,0,0,.44,.98,.54,1.16s.18,.36,.44,.26c.36-.08,2.04-.44,2.04-.44,0,0-.62,2.12-.72,2.38-.08,.2-.18,.44,.18,.62l.62,.26s-3.64,3.2-3.74,3.28c-.18,.18-.36,.26-.18,.8,.18,.54,.36,1.24,.36,1.24,0,0-3.42-.84-3.76-.94l1.18,4.74h-3.96l.8-4.74h0l.04-.02Z" fill="#d12026"/><path d="M231.55,154.38h-3.96c-.12,0-.22-.06-.3-.14s-.1-.2-.08-.32l.7-4.14c-1.04,.26-3.08,.78-3.1,.78-.14,.04-.28,0-.38-.1s-.14-.24-.1-.38c0-.02,.18-.74,.36-1.28,.06-.18,.06-.24,.06-.26l-.08-.08-.06-.06c-.12-.12-2.28-2.02-3.72-3.26-.1-.08-.16-.22-.14-.36s.1-.24,.24-.3l.62-.26h0s-.02-.08-.04-.1v-.02c-.08-.28-.7-2.32-.72-2.4-.04-.14,0-.28,.08-.38,.1-.1,.24-.14,.38-.12,.06,0,1.62,.34,2.04,.44,0,0,0-.04,.02-.06,.08-.14,.4-.86,.52-1.14,.06-.12,.16-.2,.3-.22s.26,.02,.36,.14c.66,.76,1.64,1.86,1.88,2.14h0c0-.28-.52-2.54-.96-4.54-.04-.16,.02-.32,.14-.4s.3-.1,.44-.02c0,0,1.06,.62,1.4,.78,0,0,.02,0,.04,.02h.04s0-.02,.02-.04c0,0,0-.02,.02-.04,.12-.18,.98-1.82,1.48-2.8,.06-.14,.2-.22,.36-.22h0c.14,0,.28,.08,.36,.22,.52,.98,1.36,2.62,1.5,2.8,0,0,0,.02,.02,.04,0,0,0,.04,.02,.04h.02s.02,0,.04-.02c.34-.16,1.4-.78,1.4-.78,.14-.08,.3-.06,.44,.02,.12,.1,.18,.26,.14,.4-.46,1.98-.96,4.24-.96,4.52h0c.24-.26,1.26-1.4,1.88-2.12,.08-.1,.22-.14,.36-.14s.24,.1,.3,.22c.12,.26,.46,1,.52,1.14,0,0,0,.04,.02,.06,.42-.1,1.96-.42,2.04-.44,.14-.02,.28,0,.38,.12s.12,.24,.08,.38c-.02,.08-.64,2.12-.72,2.4v.02s-.02,.06-.04,.1h0l.62,.26c.12,.06,.22,.16,.24,.3s-.02,.26-.14,.36c-1.42,1.24-3.6,3.14-3.72,3.26l-.06,.06-.08,.08s0,.08,.06,.26c.18,.54,.36,1.24,.36,1.28,.04,.14,0,.28-.1,.38s-.24,.14-.38,.1c0,0-2.04-.5-3.12-.78l1.02,4.08v.12c0,.22-.18,.4-.4,.4h.04Zm-3.48-.8h2.98l-1.06-4.26c-.04-.14,0-.28,.1-.38s.24-.14,.38-.1c.26,.06,2.1,.52,3.12,.78-.06-.18-.12-.4-.18-.58-.22-.66,0-.94,.22-1.16,0,0,.04-.02,.04-.04,.08-.08,2.16-1.9,3.28-2.88h-.04v-.02c-.36-.18-.46-.42-.48-.62,0-.2,.04-.36,.1-.5,.06-.2,.34-1.1,.52-1.74-.5,.1-1.16,.24-1.38,.3-.08,.02-.16,.04-.24,.04-.42,0-.58-.34-.66-.5-.04-.08-.16-.36-.28-.6-.64,.72-1.5,1.7-1.58,1.78l-.04,.04c-.16,.12-.34,.18-.52,.18-.24,0-.44-.1-.58-.28s-.18-.4-.14-.64c.04-.46,.48-2.44,.78-3.76-.24,.14-.5,.28-.64,.34-.12,.08-.3,.16-.5,.16-.28,0-.5-.16-.68-.5-.16-.26-.76-1.4-1.18-2.18-.4,.76-1,1.92-1.16,2.18-.16,.32-.4,.5-.68,.5-.2,0-.38-.1-.5-.16-.14-.08-.4-.22-.64-.34,.3,1.3,.74,3.3,.78,3.74,.04,.24,0,.46-.14,.64s-.36,.28-.58,.28c-.18,0-.36-.06-.52-.18,0,0-.04-.02-.04-.04-.08-.08-.98-1.1-1.58-1.78-.12,.26-.24,.52-.28,.6-.08,.16-.26,.5-.66,.5-.08,0-.16,0-.24-.04-.22-.06-.86-.2-1.38-.3,.22,.7,.46,1.54,.52,1.74,.06,.12,.12,.3,.1,.5,0,.18-.12,.44-.48,.6h-.04c1.06,.94,3.2,2.82,3.28,2.9l.04,.04c.24,.22,.46,.5,.24,1.16h0c-.06,.18-.12,.38-.18,.56,1-.26,2.78-.7,3.04-.78,.12-.04,.26,0,.36,.1s.14,.22,.12,.36l-.72,4.28h0v.06Z" fill="#6e0e10"/></g></g><g clip-path="url(#clippath)"><g clip-path="url(#clippath-1)"><g clip-path="url(#clippath-2)"><use width="131.27" height="81.55" transform="translate(47.65 24.16) scale(.16)" xlink:href="#A"/></g></g></g><g clip-path="url(#clippath-3)"><g clip-path="url(#clippath-4)"><g clip-path="url(#clippath-5)"><use width="131.27" height="81.55" transform="translate(247.19 52.34) scale(.16)" xlink:href="#A"/></g></g></g><g clip-path="url(#clippath-6)"><g clip-path="url(#clippath-7)"><g clip-path="url(#clippath-8)"><use width="131.27" height="81.55" transform="translate(161.39 223.66) scale(.16)" xlink:href="#A"/></g></g></g><g><path d="M21.33,121.51c-.12-.08-.24-.1-.34-.1-.06,0-.14,0-.24,.14-.06,.08-.16,.32-.12,.54,0,.12,.06,.22,.14,.28,.66,.52,3.52,1.7,4.6,1.82,.12,0,.26,.04,.4,.04,.24,0,.52-.04,.9-.46-.4-.04-.88-.18-1.52-.44-1.3-.5-2.58-1.12-3.8-1.82h-.02Z" fill="#7a4e34"/><path d="M38.49,121.41s-.2,.04-.34,.1c-1.24,.7-2.52,1.3-3.8,1.82-.64,.26-1.12,.4-1.52,.44,.38,.42,.64,.46,.9,.46,.12,0,.28,0,.4-.04,1.08-.12,3.94-1.3,4.6-1.82,.08-.06,.12-.14,.14-.28,.02-.24-.06-.46-.12-.54-.1-.12-.18-.14-.24-.14h-.02Z" fill="#7a4e34"/><path d="M27.97,110.23v.16c0,.24,.68,.66,1.76,.66s1.76-.42,1.76-.66v-.16c-.46,.24-1.08,.38-1.76,.38s-1.3-.14-1.76-.38Z" fill="#72c6ab"/><path d="M27.97,109.05c0,.24,.68,.66,1.76,.66s1.76-.42,1.76-.66-.68-.66-1.76-.66-1.76,.42-1.76,.66Z" fill="#b8e0d7"/><path d="M39.43,120.98c-.24-.3-.58-.46-.94-.46-.24,0-.5,.08-.76,.22-1.2,.68-2.44,1.26-3.7,1.76-.66,.26-1.14,.38-1.44,.38-.16,0-.28-.04-.42-.1l-1.92-3.32,5.04-8.72c.12-.22,.04-.48-.16-.6-.22-.12-.48-.04-.6,.16l-4.78,8.28-4.78-8.28c-.12-.22-.4-.28-.6-.16-.22,.12-.28,.4-.16,.6l5.04,8.72-1.92,3.32c-.14,.06-.24,.1-.42,.1-.3,0-.78-.12-1.44-.38-1.26-.5-2.5-1.08-3.7-1.76-.26-.14-.52-.22-.76-.22-.36,0-.68,.16-.94,.46-.24,.3-.36,.78-.32,1.2,.04,.36,.2,.66,.46,.88,.78,.62,3.78,1.86,5.04,2.02,.14,0,.32,.04,.5,.04,.9,0,1.52-.5,2.26-1.76l1.72-3,1.72,3c.74,1.28,1.36,1.76,2.26,1.76,.18,0,.36,0,.5-.04,1.26-.14,4.26-1.4,5.04-2.02,.26-.2,.42-.5,.46-.88,.04-.42-.08-.92-.32-1.2h.04Zm-.56,1.1c0,.12-.06,.22-.14,.28-.66,.52-3.52,1.7-4.6,1.82-.12,0-.26,.04-.4,.04-.24,0-.52-.04-.9-.46,.4-.04,.88-.18,1.52-.44,1.3-.5,2.58-1.12,3.8-1.82,.12-.08,.24-.1,.34-.1,.06,0,.14,0,.24,.14,.06,.08,.16,.32,.12,.54h.02Zm-13.1,2.14c-.12,0-.28,0-.4-.04-1.08-.12-3.94-1.3-4.6-1.82-.08-.06-.12-.14-.14-.28-.02-.24,.06-.46,.12-.54,.1-.12,.18-.14,.24-.14,.1,0,.2,.04,.34,.1,1.24,.7,2.52,1.3,3.8,1.82,.64,.26,1.12,.4,1.52,.44-.38,.42-.64,.46-.9,.46h.02Z"/><path d="M29.75,111.93c1.52,0,2.66-.66,2.66-1.54v-1.34c0-.88-1.14-1.54-2.66-1.54s-2.66,.66-2.66,1.54v1.34c0,.88,1.14,1.54,2.66,1.54h0Zm0-3.54c1.1,0,1.76,.42,1.76,.66s-.68,.66-1.76,.66-1.76-.42-1.76-.66,.68-.66,1.76-.66Zm1.76,2c0,.24-.68,.66-1.76,.66s-1.76-.42-1.76-.66v-.16c.46,.24,1.08,.38,1.76,.38s1.3-.14,1.76-.38v.16Z"/></g><g><path d="M107.11,149.8c-.12-.08-.24-.1-.34-.1-.06,0-.14,0-.24,.14-.06,.08-.16,.32-.12,.54,0,.12,.06,.22,.14,.28,.66,.52,3.52,1.7,4.6,1.82,.12,0,.26,.04,.4,.04,.24,0,.52-.04,.9-.46-.4-.04-.88-.18-1.52-.44-1.3-.5-2.58-1.12-3.8-1.82h-.02Z" fill="#7a4e34"/><path d="M124.27,149.69s-.2,.04-.34,.1c-1.24,.7-2.52,1.3-3.8,1.82-.64,.26-1.12,.4-1.52,.44,.38,.42,.64,.46,.9,.46,.12,0,.28,0,.4-.04,1.08-.12,3.94-1.3,4.6-1.82,.08-.06,.12-.14,.14-.28,.02-.24-.06-.46-.12-.54-.1-.12-.18-.14-.24-.14h-.02Z" fill="#7a4e34"/><path d="M113.75,138.5v.16c0,.24,.68,.66,1.76,.66s1.76-.42,1.76-.66v-.16c-.46,.24-1.08,.38-1.76,.38s-1.3-.14-1.76-.38Z" fill="#72c6ab"/><path d="M113.75,137.35c0,.24,.68,.66,1.76,.66s1.76-.42,1.76-.66-.68-.66-1.76-.66-1.76,.42-1.76,.66Z" fill="#b8e0d7"/><path d="M125.21,149.27c-.24-.3-.58-.46-.94-.46-.24,0-.5,.08-.76,.22-1.2,.68-2.44,1.26-3.7,1.76-.66,.26-1.14,.38-1.44,.38-.16,0-.28-.04-.42-.1l-1.92-3.32,5.04-8.72c.12-.22,.04-.48-.16-.6-.22-.12-.48-.04-.6,.16l-4.78,8.28-4.78-8.28c-.12-.22-.4-.28-.6-.16-.22,.12-.28,.4-.16,.6l5.04,8.72-1.92,3.32c-.14,.06-.24,.1-.42,.1-.3,0-.78-.12-1.44-.38-1.26-.5-2.5-1.08-3.7-1.76-.26-.14-.52-.22-.76-.22-.36,0-.68,.16-.94,.46-.24,.3-.36,.78-.32,1.2,.04,.36,.2,.66,.46,.88,.78,.62,3.78,1.86,5.04,2.02,.14,0,.32,.04,.5,.04,.9,0,1.52-.5,2.26-1.76l1.72-3,1.72,3c.74,1.28,1.36,1.76,2.26,1.76,.18,0,.36,0,.5-.04,1.26-.14,4.26-1.4,5.04-2.02,.26-.2,.42-.5,.46-.88,.04-.42-.08-.92-.32-1.2h.04Zm-.56,1.1c0,.12-.06,.22-.14,.28-.66,.52-3.52,1.7-4.6,1.82-.12,0-.26,.04-.4,.04-.24,0-.52-.04-.9-.46,.4-.04,.88-.18,1.52-.44,1.3-.5,2.58-1.12,3.8-1.82,.12-.08,.24-.1,.34-.1,.06,0,.14,0,.24,.14,.06,.08,.16,.32,.12,.54h.02Zm-13.1,2.14c-.12,0-.28,0-.4-.04-1.08-.12-3.94-1.3-4.6-1.82-.08-.06-.12-.14-.14-.28-.02-.24,.06-.46,.12-.54,.1-.12,.18-.14,.24-.14,.1,0,.2,.04,.34,.1,1.24,.7,2.52,1.3,3.8,1.82,.64,.26,1.12,.4,1.52,.44-.38,.42-.64,.46-.9,.46h.02Z"/><path d="M115.51,140.22c1.52,0,2.66-.66,2.66-1.54v-1.34c0-.88-1.14-1.54-2.66-1.54s-2.66,.66-2.66,1.54v1.34c0,.88,1.14,1.54,2.66,1.54h0Zm0-3.54c1.1,0,1.76,.42,1.76,.66s-.68,.66-1.76,.66-1.76-.42-1.76-.66,.68-.66,1.76-.66Zm1.76,2c0,.24-.68,.66-1.76,.66s-1.76-.42-1.76-.66v-.16c.46,.24,1.08,.38,1.76,.38s1.3-.14,1.76-.38v.16Z"/></g><g><path d="M180.17,26.81l-.06-.22-.56,.2,.42-1.26-.22,.08h0l-1.04,.32,.52-1.66,.12-.68-.44-.06-1.96,.64,.66-2.06-.1-.32-.68,.1-1.64,.52,.32-1.1h0l.08-.24-1.26,.38,.12-.38-.22-.08-.16,.54-1.34,.42-.08,.24,1.34-.42-.36,1.14-1.62,.52,.06,.22,1.48-.48-.34,1.04-1.46,.48,.06,.22,1.3-.42-.34,1.04-1.74,.56,.06,.22,.28-.1-.34,1.04-1.28,.42,.06,.22,1.12-.36-.34,1.04-1.32,.42,.08,.22,1.16-.38-.34,1.04-.9,.28,.08,.22,.74-.24-.42,1.3,1.3-.42-.24,.74,.22,.08,.28-.9,1.04-.34-.38,1.16,.22,.08,.42-1.32,1.04-.34-.36,1.12,.22,.06,.42-1.28,1.3-.42,.42-1.3,1.04-.34-.42,1.3,.22,.06,.48-1.46,1.04-.34-.48,1.48,.22,.06,.52-1.62,1.02-.36-.44,1.3,.24-.1,.42-1.28,.72-.24h.02Zm-1.72-.8l-1.04,.34,.34-1.04,1.04-.34-.34,1.04h0Zm-5.3,1.96l-.34,1.04-1.04,.34,.34-1.04,1.04-.34Zm-.94,.06l.34-1.04,1.04-.34-.34,1.04-1.04,.34h0Zm1.22-.16l1.04-.34-.34,1.04-1.04,.34,.34-1.04h0Zm.08-.26l.34-1.04,1.04-.34-.34,1.04-1.04,.34Zm1.88-2.96l-1.04,.34,.34-1.04,1.04-.34-.34,1.04h0Zm.18,.18l1.04-.34-.34,1.04-1.04,.34,.34-1.04h0Zm-.26,.08l-.34,1.04-1.04,.34,.34-1.04,1.04-.34h0Zm-.16,1.22l1.04-.34-.34,1.04-1.04,.34,.34-1.04h0Zm1.3-.42l1.04-.34-.34,1.04-1.04,.34,.34-1.04h0Zm2.76-2.06l-.34,1.04-1.04,.34,.34-1.04,1.04-.34h0Zm-1.3,.42l-.34,1.04-1.04,.34,.34-1.04,1.04-.34h0Zm-1.22,.16l-1.04,.34,.34-1.04,1.04-.34-.34,1.04h0Zm.76-2.34l-.34,1.04-1.04,.34,.34-1.04,1.04-.34h0Zm-1.3,.42l-.34,1.04-1.04,.34,.34-1.04,1.04-.34h0Zm-1.9-.64l1-.32-.32,1.1-1.04,.34,.36-1.12h0Zm-.44,1.4l1.04-.34-.34,1.04-1.04,.34,.34-1.04h0Zm-.42,1.3l1.04-.34-.34,1.04-1.04,.34s.34-1.04,.34-1.04Zm-.42,1.3l1.04-.34-.34,1.04-1.04,.34,.34-1.04h0Zm-1.3,.42l1.04-.34-.34,1.04-1.04,.34,.34-1.04Zm-.42,1.3l1.04-.34-.34,1.04-1.04,.34,.34-1.04h0Zm-.42,1.32l1.04-.34-.34,1.04-1.04,.34,.34-1.04Zm.28,2l-1.04,.34,.34-1.04,1.04-.34-.34,1.04h0Zm1.3-.42l-1.04,.34,.34-1.04,1.04-.34s-.34,1.04-.34,1.04Zm1.32-.42l-1.04,.34,.34-1.04,1.04-.34-.34,1.04h0Zm1.3-.42l-1.04,.34,.34-1.04,1.04-.34-.34,1.04h0Zm.42-1.3l-1.04,.34,.34-1.04,1.04-.34-.34,1.04h0Zm1.3-.42l-1.04,.34,.34-1.04,1.04-.34-.34,1.04Zm1.3-.42l-1.04,.34,.34-1.04,1.04-.34-.34,1.04h0Zm.26-.08l.34-1.04,1.04-.34-.34,1.02-1.02,.36h-.02Z" fill="#292f33"/><path d="M162.07,39.65c-.36,0-.64-.3-.64-.64,0-.18,.06-.34,.18-.46l6.5-6.5c.26-.26,.66-.26,.92,0s.26,.66,0,.92h0l-6.5,6.5c-.12,.12-.3,.18-.46,.18Z" fill="#226798"/><path d="M176.83,29.29l-.82-.12c.18-1.18-.16-2.32-.96-3.12-.8-.8-1.94-1.16-3.12-.96l-.12-.82c1.44-.22,2.84,.22,3.84,1.2,1,1,1.42,2.38,1.2,3.84h0l-.02-.02Z" fill="#292f33"/><path d="M178.37,28.91l-.82-.1c.2-1.48-.28-2.92-1.32-3.96-1.04-1.04-2.48-1.52-3.96-1.32l-.1-.82c1.74-.22,3.44,.34,4.66,1.56s1.78,2.92,1.56,4.66h0l-.02-.02Z" fill="#292f33"/><circle cx="175.25" cy="35.75" r="1.9" fill="#f19020"/><path d="M179.47,21.61c-1.68-1.68-4.42-2.88-6.6-.7-.82,.82-.96,1.62-1.14,2.48-.22,1.16-.48,2.48-2.46,4.48-.94,.94-.98,1.7-1.02,2.38-.04,.54-.06,1-.5,1.62-.12,.16-.1,.38,.04,.54l.9,.9c.14,.14,.36,.16,.54,.04,.62-.44,1.08-.46,1.62-.5,.68-.04,1.44-.08,2.38-1.02,2-2,3.32-2.24,4.48-2.46,.86-.16,1.66-.32,2.48-1.14,2.18-2.18,.98-4.92-.7-6.62h-.02Zm-.42,1.32c.28-.2,.66-.14,.86,.14s.14,.66-.14,.86h0c-.28,.2-.66,.12-.86-.16-.18-.28-.12-.64,.14-.84h0Zm-1.4-1.88c.34,0,.62,.26,.64,.6,0,.34-.26,.62-.6,.64h-.04c-.34,0-.6-.3-.6-.64,0-.32,.28-.58,.6-.6h0Zm-2.64-.52c.08-.32,.42-.52,.76-.44s.52,.42,.44,.76c-.08,.32-.42,.52-.76,.44s-.52-.42-.44-.76h0Zm4.56,7.12c-.64,.64-1.22,.74-2.04,.9-1.22,.24-2.72,.52-4.9,2.7-.1,.1-.2,.18-.3,.26-.6,.14-1.44,.14-2.18-.58s-.72-1.56-.58-2.18c.08-.1,.18-.2,.26-.3,2.18-2.18,2.46-3.68,2.7-4.9,.16-.82,.26-1.4,.9-2.04,.14-.14,.3-.28,.44-.38,1.64,.16,2.98,.76,4.16,1.9,1.18,1.16,1.78,2.66,1.9,4.16-.12,.16-.24,.3-.38,.44h0l.02,.02Zm.82-1.56c-.34,0-.62-.26-.64-.6,0-.34,.26-.62,.6-.64h.04c.34,0,.6,.3,.6,.64,0,.32-.28,.58-.6,.6h0Z" fill="#5fa8dc"/><path d="M179.49,26.97s-.14-.06-.14-.14v-.06c.14-.32,.42-.72,.6-.98-.36,.04-.82-.04-1.02-.5-.22-.52,0-1.16,.14-1.52-.42,.06-1.2,.08-1.56-.36-.34-.4-.26-1.06-.18-1.44-.38,.18-1.02,.4-1.52,.2-.26-.12-.44-.3-.52-.54-.04-.18-.06-.36,0-.52-.28,.22-.66,.46-1.06,.58-.08,.02-.14,0-.18-.1h0s.02-.16,.1-.18c.7-.2,1.36-.88,1.36-.88,.06-.06,.14-.06,.2,0,.04,.04,.06,.12,.02,.18,0,0-.28,.48-.16,.84,.06,.16,.18,.28,.36,.36,.58,.26,1.54-.32,1.56-.32,.06-.04,.16,0,.2,.04,.02,.04,.02,.08,0,.12,0,0-.36,1.02,.04,1.48,.32,.38,1.24,.28,1.56,.22,.06,0,.1,0,.14,.06,.04,.04,.04,.1,0,.16,0,0-.5,.92-.24,1.52,.24,.54,1,.28,1.04,.28,.08-.02,.16,0,.18,.08,0,.04,0,.1-.02,.12,0,0-.56,.76-.78,1.22-.02,.04-.08,.08-.12,.08h0Z" fill="#292f33"/></g><g><polygon points="221.39 26.21 220.73 24.15 221.89 22.19 223.85 21.87 225.05 22.59 227.73 21.87 230.47 21.87 233.61 22.67 235.51 21.87 237.19 22.33 238.15 24.17 237.67 25.89 238.45 28.13 239.07 32.27 237.95 35.55 234.79 38.29 230.67 39.75 226.33 39.29 223.61 38.01 221.43 36.11 219.93 33.45 219.67 30.57 220.43 28.05 221.39 26.21" fill="#fff"/><g><path d="M239.49,31.77c0-1.32-.24-2.62-.72-3.84h0v-.06l-.08-.16c-.2-.46-.42-.94-.7-1.42,.36-.5,.54-1.08,.54-1.72,0-1.64-1.34-2.96-2.96-2.96-.74,0-1.44,.28-1.98,.76-1.3-.6-2.74-.92-4.18-.92s-2.92,.34-4.24,.96c-.54-.5-1.26-.78-2.02-.78-1.64,0-2.96,1.34-2.96,2.96,0,.66,.22,1.3,.62,1.82-.32,.56-.6,1.16-.76,1.52h0c-.48,1.24-.72,2.54-.72,3.86,0,1.46,.34,2.7,1.02,3.8,.66,1.06,1.62,1.9,2.4,2.52l.04,.04s.14,.14,.78,.48c.34,.18,.88,.46,1.52,.72,1.68,.7,3.22,1.06,4.6,1.06h.1c1.4,0,2.88-.4,4.44-1.18,1.14-.56,1.92-1.12,2.02-1.2l.62-.52h0c1.44-1.3,2.64-2.96,2.64-5.7h0l-.02-.04Zm-3.88,5.52h0s-2.86,2.12-5.88,2.18h-.08c-3.02,0-6.2-1.96-6.24-2h0c-1.88-1.48-3.16-2.96-3.16-5.68,0-1.24,.24-2.42,.66-3.5,.2-.46,.64-1.4,1.08-2.02-.54-.36-.88-.96-.88-1.66,0-1.12,.92-2.04,2.04-2.04,.76,0,1.42,.42,1.76,1.04,1.34-.76,2.86-1.2,4.48-1.2s3.1,.42,4.4,1.16c.36-.58,1-.98,1.74-.98,1.12,0,2.04,.92,2.04,2.04,0,.66-.3,1.24-.8,1.6,.46,.64,.8,1.4,1.12,2.08,.42,1.08,.66,2.26,.66,3.5,0,2.62-1.18,4.1-2.94,5.52h0v-.04Z"/><path d="M231.99,28.59c0,.56,.46,1.02,1.02,1.02s1.02-.46,1.02-1.02-.46-1.02-1.02-1.02-1.02,.46-1.02,1.02Z"/><path d="M225.03,28.59c0,.56,.46,1.02,1.02,1.02s1.02-.46,1.02-1.02h0c0-.56-.46-1.02-1.02-1.02s-1.02,.46-1.02,1.02Z"/><path d="M232.97,34.01s-.16,.04-.22,.1c-.96,.52-2.14,.28-2.82-.54l-.04-.04s-.06-.06-.08-.12c.72-.12,1.26-.74,1.26-1.48,0-.82-.66-1.18-1.5-1.18s-1.5,.34-1.5,1.18c0,.72,.52,1.34,1.2,1.48-.02,.04-.06,.08-.08,.12l-.04,.04c-.7,.84-1.92,1.06-2.88,.5h0s-.12-.06-.2-.06c-.16,0-.3,.14-.3,.3,0,.14,.08,.24,.22,.28h0c1.2,.7,2.68,.46,3.58-.52,.9,.98,2.4,1.24,3.58,.54v-.04s.12-.16,.12-.26c0-.16-.14-.28-.3-.28h0v-.02Z"/></g></g><polygon points="249.87 140.16 249.21 138.11 250.37 136.16 252.33 135.83 253.53 136.55 256.21 135.83 258.95 135.83 262.07 136.63 263.99 135.83 265.67 136.28 266.63 138.13 266.13 139.85 266.91 142.11 267.55 146.22 266.41 149.5 263.27 152.24 259.15 153.71 254.81 153.24 252.09 151.97 249.89 150.07 248.41 147.41 248.15 144.52 248.89 142 249.87 140.16" fill="#fff"/><g><path d="M268.01,145.55c0-1.32-.24-2.62-.72-3.84h0v-.06l-.08-.16c-.2-.46-.42-.94-.7-1.42,.36-.5,.54-1.08,.54-1.72,0-1.64-1.34-2.96-2.96-2.96-.74,0-1.44,.28-1.98,.76-1.3-.6-2.74-.92-4.18-.92s-2.92,.34-4.24,.96c-.54-.5-1.26-.78-2.02-.78-1.64,0-2.96,1.34-2.96,2.96,0,.66,.22,1.3,.62,1.82-.32,.56-.6,1.16-.76,1.52h0c-.48,1.24-.72,2.54-.72,3.86,0,1.46,.34,2.7,1.02,3.8,.66,1.06,1.62,1.9,2.4,2.52l.04,.04s.14,.14,.78,.48c.34,.18,.88,.46,1.52,.72,1.68,.7,3.22,1.06,4.6,1.06h.1c1.4,0,2.88-.4,4.44-1.18,1.14-.56,1.92-1.12,2.02-1.2l.62-.52h0c1.44-1.3,2.64-2.96,2.64-5.7h0l-.02-.04Zm-3.88,5.52h0s-2.86,2.12-5.88,2.18h-.08c-3.02,0-6.2-1.96-6.24-2h0c-1.88-1.48-3.16-2.96-3.16-5.68,0-1.24,.24-2.42,.66-3.5,.2-.46,.64-1.4,1.08-2.02-.54-.36-.88-.96-.88-1.66,0-1.12,.92-2.04,2.04-2.04,.76,0,1.42,.42,1.76,1.04,1.34-.76,2.86-1.2,4.48-1.2s3.1,.42,4.4,1.16c.36-.58,1-.98,1.74-.98,1.12,0,2.04,.92,2.04,2.04,0,.66-.3,1.24-.8,1.6,.46,.64,.8,1.4,1.12,2.08,.42,1.08,.66,2.26,.66,3.5,0,2.62-1.18,4.1-2.94,5.52h0v-.04Z"/><path d="M260.51,142.36c0,.56,.46,1.02,1.02,1.02s1.02-.46,1.02-1.02-.46-1.02-1.02-1.02-1.02,.46-1.02,1.02Z"/><path d="M253.53,142.36c0,.56,.46,1.02,1.02,1.02s1.02-.46,1.02-1.02h0c0-.56-.46-1.02-1.02-1.02s-1.02,.46-1.02,1.02Z"/><path d="M261.47,147.78s-.16,.04-.22,.1c-.96,.52-2.14,.28-2.82-.54l-.04-.04s-.06-.06-.08-.12c.72-.12,1.26-.74,1.26-1.48,0-.82-.66-1.18-1.5-1.18s-1.5,.34-1.5,1.18c0,.72,.52,1.34,1.2,1.48-.02,.04-.06,.08-.08,.12l-.04,.04c-.7,.84-1.92,1.06-2.88,.5h0s-.12-.06-.2-.06c-.16,0-.3,.14-.3,.3,0,.14,.08,.24,.22,.28h0c1.2,.7,2.68,.46,3.58-.52,.9,.98,2.4,1.24,3.58,.54v-.04s.12-.16,.12-.26c0-.16-.14-.28-.3-.28h0v-.02Z"/></g><g id="Group_11"><line id="Line_21" x1="200.31" y1="142.57" x2="200.31" y2="135.28" fill="none" stroke="#fff" stroke-linecap="round" stroke-linejoin="round" stroke-width="1.12"/><path id="Path_72" d="M198.09,140.14v2.22h-2.22" fill="none" stroke="#fff" stroke-linecap="round" stroke-linejoin="round" stroke-width="1.12"/><path id="Path_73" d="M202.55,140.14v2.22h2.22" fill="none" stroke="#fff" stroke-linecap="round" stroke-linejoin="round" stroke-width="1.12"/><path id="Path_74" d="M196.05,138.11v2.22h-2.22" fill="none" stroke="#fff" stroke-linecap="round" stroke-linejoin="round" stroke-width="1.12"/><path id="Path_75" d="M204.57,138.11v2.22h2.22" fill="none" stroke="#fff" stroke-linecap="round" stroke-linejoin="round" stroke-width="1.12"/><line id="Line_22" x1="198.89" y1="143.19" x2="195.85" y2="140.14" fill="none" stroke="#fff" stroke-linecap="round" stroke-linejoin="round" stroke-width="1.12"/><line id="Line_23" x1="201.73" y1="143.19" x2="204.77" y2="140.14" fill="none" stroke="#fff" stroke-linecap="round" stroke-linejoin="round" stroke-width="1.12"/><path id="Path_76" d="M197.27,136.71l3.04,3.04,3.04-3.04" fill="none" stroke="#fff" stroke-linecap="round" stroke-linejoin="round" stroke-width="1.12"/><line id="Line_24" x1="202.33" y1="144.61" x2="209.63" y2="144.61" fill="none" stroke="#fff" stroke-linecap="round" stroke-linejoin="round" stroke-width="1.12"/><path id="Path_77" d="M208.21,141.57l-3.04,3.04,3.04,3.04" fill="none" stroke="#fff" stroke-linecap="round" stroke-linejoin="round" stroke-width="1.12"/><line id="Line_25" x1="198.29" y1="144.61" x2="190.99" y2="144.61" fill="none" stroke="#fff" stroke-linecap="round" stroke-linejoin="round" stroke-width="1.12"/><path id="Path_78" d="M192.41,147.64l3.04-3.04-3.04-3.04" fill="none" stroke="#fff" stroke-linecap="round" stroke-linejoin="round" stroke-width="1.12"/><line id="Line_26" x1="200.31" y1="146.83" x2="200.31" y2="154.13" fill="none" stroke="#fff" stroke-linecap="round" stroke-linejoin="round" stroke-width="1.12"/><path id="Path_79" d="M202.55,149.27v-2.22h2.22" fill="none" stroke="#fff" stroke-linecap="round" stroke-linejoin="round" stroke-width="1.12"/><path id="Path_80" d="M198.09,149.27v-2.22h-2.22" fill="none" stroke="#fff" stroke-linecap="round" stroke-linejoin="round" stroke-width="1.12"/><path id="Path_81" d="M204.57,151.28v-2.22h2.22" fill="none" stroke="#fff" stroke-linecap="round" stroke-linejoin="round" stroke-width="1.12"/><path id="Path_82" d="M196.05,151.28v-2.22h-2.22" fill="none" stroke="#fff" stroke-linecap="round" stroke-linejoin="round" stroke-width="1.12"/><line id="Line_27" x1="201.73" y1="146.22" x2="204.77" y2="149.27" fill="none" stroke="#fff" stroke-linecap="round" stroke-linejoin="round" stroke-width="1.12"/><line id="Line_28" x1="198.89" y1="146.22" x2="195.85" y2="149.27" fill="none" stroke="#fff" stroke-linecap="round" stroke-linejoin="round" stroke-width="1.12"/><path id="Path_83" d="M203.35,152.71l-3.04-3.04-3.04,3.04" fill="none" stroke="#fff" stroke-linecap="round" stroke-linejoin="round" stroke-width="1.12"/><circle id="Ellipse_15" cx="200.31" cy="144.61" r="2.22" fill="#abdeea" stroke="#fff" stroke-linecap="round" stroke-linejoin="round" stroke-width="1.12"/></g><g id="Group_11-2"><line id="Line_21-2" x1="200.27" y1="142.57" x2="200.27" y2="135.28" fill="none" stroke="#2d4e68" stroke-linecap="round" stroke-linejoin="round" stroke-width=".8"/><path id="Path_72-2" d="M198.05,140.14v2.22h-2.22" fill="none" stroke="#2d4e68" stroke-linecap="round" stroke-linejoin="round" stroke-width=".8"/><path id="Path_73-2" d="M202.51,140.14v2.22h2.22" fill="none" stroke="#2d4e68" stroke-linecap="round" stroke-linejoin="round" stroke-width=".8"/><path id="Path_74-2" d="M196.01,138.11v2.22h-2.22" fill="none" stroke="#2d4e68" stroke-linecap="round" stroke-linejoin="round" stroke-width=".8"/><path id="Path_75-2" d="M204.53,138.11v2.22h2.22" fill="none" stroke="#2d4e68" stroke-linecap="round" stroke-linejoin="round" stroke-width=".8"/><line id="Line_22-2" x1="198.85" y1="143.19" x2="195.81" y2="140.14" fill="none" stroke="#2d4e68" stroke-linecap="round" stroke-linejoin="round" stroke-width=".8"/><line id="Line_23-2" x1="201.69" y1="143.19" x2="204.73" y2="140.14" fill="none" stroke="#2d4e68" stroke-linecap="round" stroke-linejoin="round" stroke-width=".8"/><path id="Path_76-2" d="M197.23,136.71l3.04,3.04,3.04-3.04" fill="none" stroke="#2d4e68" stroke-linecap="round" stroke-linejoin="round" stroke-width=".8"/><line id="Line_24-2" x1="202.31" y1="144.61" x2="209.59" y2="144.61" fill="none" stroke="#2d4e68" stroke-linecap="round" stroke-linejoin="round" stroke-width=".8"/><path id="Path_77-2" d="M208.17,141.57l-3.04,3.04,3.04,3.04" fill="none" stroke="#2d4e68" stroke-linecap="round" stroke-linejoin="round" stroke-width=".8"/><line id="Line_25-2" x1="198.25" y1="144.61" x2="190.95" y2="144.61" fill="none" stroke="#2d4e68" stroke-linecap="round" stroke-linejoin="round" stroke-width=".8"/><path id="Path_78-2" d="M192.37,147.64l3.04-3.04-3.04-3.04" fill="none" stroke="#2d4e68" stroke-linecap="round" stroke-linejoin="round" stroke-width=".8"/><line id="Line_26-2" x1="200.27" y1="146.83" x2="200.27" y2="154.13" fill="none" stroke="#2d4e68" stroke-linecap="round" stroke-linejoin="round" stroke-width=".8"/><path id="Path_79-2" d="M202.51,149.27v-2.22h2.22" fill="none" stroke="#2d4e68" stroke-linecap="round" stroke-linejoin="round" stroke-width=".8"/><path id="Path_80-2" d="M198.05,149.27v-2.22h-2.22" fill="none" stroke="#2d4e68" stroke-linecap="round" stroke-linejoin="round" stroke-width=".8"/><path id="Path_81-2" d="M204.53,151.28v-2.22h2.22" fill="none" stroke="#2d4e68" stroke-linecap="round" stroke-linejoin="round" stroke-width=".8"/><path id="Path_82-2" d="M196.01,151.28v-2.22h-2.22" fill="none" stroke="#2d4e68" stroke-linecap="round" stroke-linejoin="round" stroke-width=".8"/><line id="Line_27-2" x1="201.69" y1="146.22" x2="204.73" y2="149.27" fill="none" stroke="#2d4e68" stroke-linecap="round" stroke-linejoin="round" stroke-width=".8"/><line id="Line_28-2" x1="198.85" y1="146.22" x2="195.81" y2="149.27" fill="none" stroke="#2d4e68" stroke-linecap="round" stroke-linejoin="round" stroke-width=".8"/><path id="Path_83-2" d="M203.31,152.71l-3.04-3.04-3.04,3.04" fill="none" stroke="#2d4e68" stroke-linecap="round" stroke-linejoin="round" stroke-width=".8"/><circle id="Ellipse_15-2" cx="200.27" cy="144.61" r="2.22" fill="#abdeea" stroke="#2d4e68" stroke-linecap="round" stroke-linejoin="round" stroke-width=".8"/></g><g><path d="M50.49,222.88c-1.22,0-2.22,1-2.22,2.22v10c0,1.22,1,2.22,2.22,2.22h3.34v-14.44h-3.34Zm15.54,0h-3.34v14.44h3.34c1.22,0,2.22-1,2.22-2.22v-10c0-1.22-1-2.22-2.22-2.22Z" fill="#d32d27"/><path d="M53.83,222.88h8.88v14.44h-8.88v-14.44Z" fill="#edeced"/><path d="M58.61,232.38c.66,.08,1.26,.14,1.92,.22l-.16-.56s0-.2,.08-.26l1.94-1.58-.4-.18c-.18-.06-.12-.16-.06-.4l.3-1.08-1.12,.24c-.1,0-.18-.06-.2-.12l-.14-.5-.88,1c-.12,.16-.38,.16-.3-.2l.38-2.02-.5,.26c-.14,.08-.28,.1-.36-.04l-.7-1.32h0l-.7,1.32c-.08,.14-.22,.12-.36,.04l-.5-.26,.38,2.02c.08,.36-.18,.36-.3,.2l-.88-1-.14,.5s-.08,.14-.2,.12l-1.12-.24,.3,1.08c.06,.24,.12,.34-.06,.4l-.4,.18,1.94,1.58s.12,.16,.08,.26l-.16,.56,1.92-.22s.1,.04,.1,.1l-.12,2.06h.54l-.12-2.06s.04-.1,.1-.1h-.1Z" fill="#d32d27"/></g><path d="M193.13,23.21c-1.22,0-2.22,1-2.22,2.22v10c0,1.22,1,2.22,2.22,2.22h3.34v-14.44s-3.34,0-3.34,0Zm15.54,0h-3.34v14.44h3.34c1.22,0,2.22-1,2.22-2.22v-10c0-1.22-1-2.22-2.22-2.22Z" fill="#d32d27"/><path d="M196.47,23.21h8.88v14.44h-8.88v-14.44Z" fill="#edeced"/><path d="M201.25,32.71c.66,.08,1.26,.14,1.92,.22l-.16-.56s0-.2,.08-.26l1.94-1.58-.4-.18c-.18-.06-.12-.16-.06-.4l.3-1.08-1.12,.24c-.1,0-.18-.06-.2-.12l-.14-.5-.88,1c-.12,.16-.38,.16-.3-.2l.38-2.02-.5,.26c-.14,.08-.28,.1-.36-.04l-.7-1.32h0l-.7,1.32c-.08,.14-.22,.12-.36,.04l-.5-.26,.38,2.02c.08,.36-.18,.36-.3,.2l-.88-1-.14,.5s-.08,.14-.2,.12l-1.12-.24,.3,1.08c.06,.24,.12,.34-.06,.4l-.4,.18,1.94,1.58s.12,.16,.08,.26l-.16,.56,1.92-.22s.1,.04,.1,.1l-.12,2.06h.54l-.12-2.06s.04-.1,.1-.1h-.1Z" fill="#d32d27"/><line x1="272.87" y1="73.15" x2="14.43" y2="73.15" fill="none" stroke="#231f20" stroke-linejoin="round" stroke-width=".96"/><line x1="272.87" y1="102.2" x2="14.43" y2="102.2" fill="none" stroke="#231f20" stroke-linejoin="round" stroke-width="2.38"/></g><rect x="7.27" y="290.15" width="271.76" height="76.34" rx="8" ry="8" fill="#fff"/><g><line x1="185.61" y1="296.59" x2="185.61" y2="325.05" fill="none" stroke="#231f20" stroke-linejoin="round" stroke-width=".96"/><line x1="100.95" y1="296.59" x2="100.95" y2="325.05" fill="none" stroke="#231f20" stroke-linejoin="round" stroke-width=".96"/><line x1="43.93" y1="296.59" x2="43.93" y2="325.05" fill="none" stroke="#231f20" stroke-linejoin="round" stroke-width=".96"/><line x1="72.45" y1="296.59" x2="72.45" y2="325.05" fill="none" stroke="#231f20" stroke-linejoin="round" stroke-width=".96"/><line x1="129.51" y1="296.59" x2="129.51" y2="325.05" fill="none" stroke="#231f20" stroke-linejoin="round" stroke-width=".96"/><line x1="158.21" y1="296.59" x2="158.21" y2="325.05" fill="none" stroke="#231f20" stroke-linejoin="round" stroke-width=".96"/><line x1="215.21" y1="296.59" x2="215.21" y2="325.05" fill="none" stroke="#231f20" stroke-linejoin="round" stroke-width=".96"/><line x1="243.45" y1="296.59" x2="243.45" y2="325.05" fill="none" stroke="#231f20" stroke-linejoin="round" stroke-width=".96"/><polygon points="272.73 296.59 14.29 296.59 14.29 297.46 14.29 325.05 272.67 325.05 272.73 296.59" fill="none" stroke="#231f20" stroke-miterlimit="10" stroke-width=".96"/></g><g id="comp_53-canadian-maple-leaf-2"><g><path d="M27.75,315.22c-.36,.08-3.68,.94-3.68,.94,0,0,.18-.72,.36-1.24,.18-.54,0-.62-.18-.8-.1-.08-3.74-3.28-3.74-3.28l.62-.26c.36-.18,.26-.4,.18-.62-.08-.26-.72-2.38-.72-2.38,0,0,1.68,.36,2.04,.44,.26,.08,.36-.08,.44-.26s.54-1.14,.54-1.14c0,0,1.86,2.12,1.96,2.22,.36,.26,.72,0,.62-.36,0-.36-.98-4.6-.98-4.6,0,0,1.06,.62,1.42,.8,.26,.18,.44,.18,.62-.18,.18-.26,1.5-2.84,1.5-2.84,0,0,1.34,2.56,1.52,2.84,.18,.36,.36,.36,.62,.18,.36-.18,1.42-.8,1.42-.8,0,0-.98,4.24-.98,4.6-.08,.36,.26,.62,.62,.36,.08-.08,1.96-2.22,1.96-2.22,0,0,.44,.98,.54,1.16s.18,.36,.44,.26c.36-.08,2.04-.44,2.04-.44,0,0-.62,2.12-.72,2.38-.08,.2-.18,.44,.18,.62l.62,.26s-3.64,3.2-3.74,3.28c-.18,.18-.36,.26-.18,.8,.18,.54,.36,1.24,.36,1.24,0,0-3.42-.84-3.76-.94l1.18,4.74h-3.96l.8-4.74h0l.04-.02Z" fill="#d12026"/><path d="M30.91,320.37h-3.96c-.12,0-.22-.06-.3-.14s-.1-.2-.08-.32l.7-4.14c-1.04,.26-3.08,.78-3.1,.78-.14,.04-.28,0-.38-.1-.1-.1-.14-.24-.1-.38,0-.02,.18-.74,.36-1.28,.06-.18,.06-.24,.06-.26,0,0-.04-.04-.08-.08,0,0-.04-.04-.06-.06-.12-.12-2.28-2.02-3.72-3.26-.1-.08-.16-.22-.14-.36s.1-.24,.24-.3l.62-.26h0s-.02-.08-.04-.1v-.02c-.08-.28-.7-2.32-.72-2.4-.04-.14,0-.28,.08-.38,.1-.1,.24-.14,.38-.12,.06,0,1.62,.34,2.04,.44,0,0,0-.04,.02-.06,.08-.14,.4-.86,.52-1.14,.06-.12,.16-.2,.3-.22s.26,.02,.36,.14c.66,.76,1.64,1.86,1.88,2.14h0c0-.28-.52-2.54-.96-4.54-.04-.16,.02-.32,.14-.4s.3-.1,.44-.02c0,0,1.06,.62,1.4,.78,0,0,.02,0,.04,.02h.04s0-.02,.02-.04c0,0,0-.02,.02-.04,.12-.18,.98-1.82,1.48-2.8,.06-.14,.2-.22,.36-.22h0c.14,0,.28,.08,.36,.22,.52,.98,1.36,2.62,1.5,2.8,0,0,0,.02,.02,.04,0,0,0,.04,.02,.04h.02s.02,0,.04-.02c.34-.16,1.4-.78,1.4-.78,.14-.08,.3-.06,.44,.02,.12,.1,.18,.26,.14,.4-.46,1.98-.96,4.24-.96,4.52h0c.24-.26,1.26-1.4,1.88-2.12,.08-.1,.22-.14,.36-.14s.24,.1,.3,.22c.12,.26,.46,1,.52,1.14,0,0,0,.04,.02,.06,.42-.1,1.96-.42,2.04-.44,.14-.02,.28,0,.38,.12s.12,.24,.08,.38c-.02,.08-.64,2.12-.72,2.4v.02s-.02,.06-.04,.1h0l.62,.26c.12,.06,.22,.16,.24,.3,.02,.14-.02,.26-.14,.36-1.42,1.24-3.6,3.14-3.72,3.26,0,0-.04,.04-.06,.06s-.06,.06-.08,.08c0,0,0,.08,.06,.26,.18,.54,.36,1.24,.36,1.28,.04,.14,0,.28-.1,.38s-.24,.14-.38,.1c0,0-2.04-.5-3.12-.78l1.02,4.08v.12c0,.22-.18,.4-.4,.4h.04Zm-3.48-.8h2.98l-1.06-4.26c-.04-.14,0-.28,.1-.38s.24-.14,.38-.1c.26,.06,2.1,.52,3.12,.78-.06-.18-.12-.4-.18-.58-.22-.66,0-.94,.22-1.16,0,0,.04-.02,.04-.04,.08-.08,2.16-1.9,3.28-2.88h-.04v-.02c-.36-.18-.46-.42-.48-.62,0-.2,.04-.36,.1-.5,.06-.2,.34-1.1,.52-1.74-.5,.1-1.16,.24-1.38,.3-.08,.02-.16,.04-.24,.04-.42,0-.58-.34-.66-.5-.04-.08-.16-.36-.28-.6-.64,.72-1.5,1.7-1.58,1.78,0,0-.02,.02-.04,.04-.16,.12-.34,.18-.52,.18-.24,0-.44-.1-.58-.28s-.18-.4-.14-.64c.04-.46,.48-2.44,.78-3.76-.24,.14-.5,.28-.64,.34-.12,.08-.3,.16-.5,.16-.28,0-.5-.16-.68-.5-.16-.26-.76-1.4-1.18-2.18-.4,.76-1,1.92-1.16,2.18-.16,.32-.4,.5-.68,.5-.2,0-.38-.1-.5-.16-.14-.08-.4-.22-.64-.34,.3,1.3,.74,3.3,.78,3.74,.04,.24,0,.46-.14,.64-.14,.18-.36,.28-.58,.28-.18,0-.36-.06-.52-.18,0,0-.04-.02-.04-.04-.08-.08-.98-1.1-1.58-1.78-.12,.26-.24,.52-.28,.6-.08,.16-.26,.5-.66,.5-.08,0-.16,0-.24-.04-.22-.06-.86-.2-1.38-.3,.22,.7,.46,1.54,.52,1.74,.06,.12,.12,.3,.1,.5,0,.18-.12,.44-.48,.6h-.04c1.06,.94,3.2,2.82,3.28,2.9l.04,.04c.24,.22,.46,.5,.24,1.16h0c-.06,.18-.12,.38-.18,.56,1-.26,2.78-.7,3.04-.78,.12-.04,.26,0,.36,.1s.14,.22,.12,.36l-.72,4.28h0v.06Z" fill="#6e0e10"/></g></g><g clip-path="url(#clippath-9)"><g clip-path="url(#clippath-10)"><g clip-path="url(#clippath-11)"><use width="131.27" height="81.55" transform="translate(47.65 304.58) scale(.16)" xlink:href="#A"/></g></g></g><g><path d="M89.33,313.99c.74,.38,2.12,.74,2.86,.62,1.9-.28,3.28-1.38,4.1-2.9,.36-.64,.38-1.96-.18-2.1-.72-.18-1.56-.04-2.88,.58-1.34,.64-1.66,1.64-3.24,.86" fill="none" stroke="#fff" stroke-miterlimit="10" stroke-width=".78"/><path d="M95.51,309.55c.22,0,.42,.02,.6,.08,.08,.02,.16,.08,.22,.14,0,.24-.02,.54-.12,.92-.14,.56-.88,1.7-1.66,2.22-.76,.5-1.34,.8-2.5,.8h-.1c-.2,0-1.26-.02-1.72-.5-.22-.24-.26-.34-.54-.52l-.04-.08,.34-1.54c.4,.2,.74,.28,1.02,.28,.8,0,1.24-.68,2.24-1.14,.98-.46,1.7-.66,2.28-.66m0-.4h0c-.68,0-1.46,.22-2.46,.7-.42,.2-.74,.42-1.02,.62-.4,.28-.68,.48-1.04,.48-.24,0-.5-.08-.84-.24l-.44-.22-.1,.48-.34,1.54-.04,.16,.1,.14,.04,.08,.04,.06,.06,.04c.16,.1,.2,.16,.3,.28,.04,.06,.1,.12,.18,.2,.5,.52,1.46,.62,2,.62h.1c1.3,0,1.98-.38,2.72-.86,.84-.56,1.66-1.76,1.82-2.46,.12-.46,.14-.78,.14-1.04v-.14l-.1-.1c-.12-.14-.26-.22-.4-.26-.22-.06-.46-.08-.7-.08h-.02Z" fill="#fff"/><path d="M95.51,309.55h.04l-.04,.1,.82,.36c0,.12-.02,.24-.06,.38l-.9-.4-.4,.92,.96,.42c-.06,.1-.12,.22-.2,.32l-.92-.4-.4,.92,.66,.3s-.2,.2-.3,.28l-.52-.24-.32,.78c-.22,.12-.44,.2-.68,.28l-.8-.34-.22,.5h-.42c.1-.22,.28-.64,.28-.64l-.92-.4-.38,.84c-.12-.04-.24-.08-.36-.14l.92-2.06c.18-.06,.36-.14,.52-.24l.9,.42,.4-.92-.34-.14c.26-.16,.86-.42,1.04-.48l-.2,.44,.92,.4,.4-.92-.38-.18c.34-.08,.62-.12,.9-.12m-1.46,2.46l.4-.92-.92-.4-.4,.92,.92,.4m-1.82,.7l.4-.92-.92-.4-.4,.92,.92,.4m1.26,.56l.4-.92-.92-.4-.4,.92,.92,.4m2.02-3.88h0c-.28,0-.58,.04-.94,.14l-.44,.12h0l-.32,.14c-.16,.06-.78,.32-1.06,.5l-.26,.16,.28,.12,.2,.08-.28,.62-.76-.34-.08-.04-.08,.04c-.18,.12-.34,.18-.48,.22h-.08l-.02,.08-.92,2.06-.06,.14,.14,.06c.12,.06,.24,.1,.38,.14l.14,.04,.06-.12,.3-.7,.62,.28c-.06,.14-.16,.36-.22,.5l-.1,.2h.74l.04-.1,.16-.36,.66,.28h.12c.24-.06,.46-.16,.7-.28h.06l.02-.08,.26-.62,.38,.16,.08,.04,.08-.06c.1-.08,.22-.18,.32-.28l.16-.16-.2-.1-.52-.24,.28-.62,.78,.34,.12,.06,.08-.1c.08-.12,.14-.22,.2-.34l.08-.14-.16-.06-.82-.36,.28-.62,.76,.34,.18,.08,.04-.2c.04-.16,.04-.3,.06-.4v-.12l-.1-.04-.66-.3,.08-.18h-.28v.02Zm-1.6,.88l.14-.3,.14-.32,.38,.16,.24,.1-.28,.62-.62-.28h0v.02Zm-.56,1.26l.28-.62,.62,.28-.28,.62-.62-.28h0Zm-1.82,.7l.28-.62,.62,.28-.28,.62-.62-.28h0Zm1.26,.56l.28-.62,.62,.28-.28,.62-.62-.28h0Z" fill="#fff"/><path d="M80.23,302.56c-.16-.02-.32-.04-.46-.06-.06,0-.14,0-.2,.02-.04,.02-.08,.08-.1,.12-.14,.26-.16,.58-.04,.86,.02,.06,.08,.14,.16,.14,.02,0,.06-.02,.08-.04,.22-.18,.42-.36,.62-.58,.04-.04,.06-.1,.02-.12" fill="none" stroke="#fff" stroke-miterlimit="10" stroke-width=".78"/><path d="M86.29,316.75c-1.3,.64-2.18,1.38-3.08,2.28-.06,.06-.36,.38-.18,.48s.6-.22,.74-.14c.14,.1,.04,.28,.2,.38s.58-.22,.78-.12c.22,.1,.12,.26,.24,.4,.16,.2,.52,0,.62-.06,.56-.46,1.98-1.8,2.24-2.1,.34-.38,.54-.9,.24-1.26" fill="none" stroke="#fff" stroke-miterlimit="10" stroke-width=".78"/><path d="M81.89,316.31c-.78,.24-1.52,.58-2.22,.98-.14,.08-.3,.18-.42,.28-.06,.06-.12,.14-.06,.18,.12,.12,.36-.06,.52,.06,.06,.04,.02,.26,.08,.32,.04,.06,.14,.1,.22,.08s.16-.04,.24-.06c.18-.06,.36-.08,.48,.06,.08,.08,.06,.16,.12,.26,.04,.06,.08,.12,.22,.12,.2,0,.38-.1,.54-.2,.74-.5,1.44-1.06,2.14-1.6" fill="none" stroke="#fff" stroke-miterlimit="10" stroke-width=".78"/><path d="M84.77,303.21c.52,.14,.66,0,1.04,.02,.5,.04,.44,.52,.36,.78-.1,.34-.28,.62-.54,.84-.04,.04-.1,.08-.16,.08-.08,0-.14-.04-.2-.08-.36-.3-.58-.74-.6-1.2" fill="none" stroke="#fff" stroke-miterlimit="10" stroke-width=".78"/><path d="M85.29,304.43s2.34,2.02,3.48,3.32,2.4,3.8,2.26,5.22-.94,2.58-1.44,3.12c-.44,.48-2.02,1.6-3.84,1.6-.26,0-.5-.02-.76-.06-2.12-.38-2.72-.44-4.52-2.08s-1.46-4.6-1.46-4.6c0,0-1.26-.84-.78-2.3,.32-1,1.26-1.1,1.26-1.1l2.46,.04,3.38-3.16m0-.52l-.26,.24-3.26,3.04-2.3-.04h-.06s-1.18,.16-1.58,1.38,.24,2.16,.76,2.6c-.04,.76-.06,3.22,1.62,4.72,1.84,1.64,2.5,1.78,4.5,2.14l.22,.04c.28,.04,.56,.08,.84,.08,1.92,0,3.6-1.16,4.14-1.72,.32-.34,1.38-1.6,1.56-3.34,.16-1.66-1.26-4.26-2.36-5.52-1.14-1.3-3.42-3.28-3.52-3.36l-.26-.22h0l-.04-.04Z" fill="#fff"/><path d="M82.09,301.9c1.04,0,1.96,.24,2.82,1.42h0c.66,.92,.82,1.54,.9,2.14,.1,.84-.26,1.84-1.34,2.6-.44,.3-1.1,.42-1.8,.42-1.3,0-2.74-.38-3.22-.74-.76-.54-1-1.26-.96-2.02,.06-.98,.56-1.84,.96-2.36,.48-.64,1.54-1.46,2.66-1.46m0-.4c-1.2,0-2.38,.84-2.96,1.62-.34,.46-.94,1.42-1.02,2.56-.06,1,.32,1.82,1.12,2.38,.56,.38,2.08,.8,3.44,.8,.88,0,1.56-.16,2.02-.48,1.1-.74,1.66-1.86,1.52-2.96-.08-.6-.24-1.3-.98-2.32-1-1.4-2.14-1.58-3.14-1.58h0v-.02Z" fill="#fff"/><path d="M83.05,303.53c.16,0,.34,.14,.4,.36,.08,.26,0,.5-.2,.56h-.08c-.16,0-.34-.14-.4-.36-.08-.26,0-.5,.2-.56h.08m0-.4h0s-.14,0-.2,.04c-.2,.06-.38,.24-.46,.46-.06,.18-.06,.4,0,.6,.12,.38,.44,.62,.78,.62,.08,0,.14,0,.2-.04,.4-.14,.6-.6,.46-1.06-.12-.38-.44-.62-.78-.62h0Z" fill="#fff"/><path d="M80.41,305.96l.86,.36c-.06,.44-.06,1.36-.3,1.38h-.02c-.26,0-.38-.4-.38-.4,0,0-.04,.34-.2,.34h0c-.2,0-.44-.82-.36-1.36l.44-.3m-.06-.44l-.18,.12-.44,.3-.14,.1v.16c-.1,.54,.06,1.32,.34,1.62,.14,.16,.3,.2,.4,.2h.02c.08,0,.14-.02,.2-.06,.1,.08,.22,.12,.36,.12h.06c.28-.02,.46-.24,.54-.64,.04-.2,.06-.46,.08-.7,0-.14,.02-.28,.04-.38l.04-.3-.28-.12-.86-.36-.2-.08h0l.02,.02Z" fill="#fff"/><path d="M79.81,303.38h0c.24,0,.2,.36,.12,.54-.06,.14-.2,.28-.34,.28-.04,0-.08,0-.12-.04-.12-.08-.1-.34-.08-.44,.04-.16,.18-.34,.4-.34m0-.4h0c-.26,0-.64,.16-.78,.62-.08,.24-.08,.7,.24,.9,.1,.06,.22,.1,.32,.1,.34,0,.58-.28,.7-.52,.1-.22,.16-.58,0-.84-.1-.16-.26-.26-.46-.26h-.02Z" fill="#fff"/><path d="M80.23,308.03c.16,0,.3,.08,.46,.14,.2,.1,.4,.14,.6,.3,.6,.46,.68,2.38,2.6,3.04,.24,.08,.48,.12,.72,.12,1.32,0,2.32-1.16,2.32-1.16,0,0-.74,1.68-2.36,1.68-.14,0-.3,0-.46-.04-.62-.12-1.18-.42-1.64-.84-.5-.46-.86-.96-1.16-1.56-.18,0-.34-.06-.48-.16-.12-.08-.22-.2-.34-.26-.14-.06-.28-.04-.42-.08-.02,0-.06-.04,0-.1,.08-.1,.2-.18,.3-.26-.12-.14-.46-.18-.48-.2s-.04-.04-.04-.06c.1-.12,.38-.14,.58-.16-.1-.14-.22-.24-.36-.34,.06,0,.1-.02,.16-.02m0-.4h0c-.1,0-.2,0-.3,.06l-.68,.28,.38,.26s-.06,.06-.1,.1c-.08,.1-.1,.22-.08,.36,.02,.12,.1,.22,.2,.28-.04,.1-.06,.2-.02,.3,.04,.14,.16,.26,.3,.3h0s.18,.04,.24,.04h.12s.08,.06,.12,.1,.1,.08,.16,.14c.14,.1,.3,.18,.46,.22,.3,.56,.66,1.04,1.14,1.48,.52,.48,1.16,.82,1.82,.94,.18,.04,.36,.04,.54,.04,1.86,0,2.68-1.84,2.72-1.9l1.02-2.34-1.68,1.92s-.92,1.02-2.02,1.02c-.2,0-.4-.04-.58-.1-1.14-.38-1.54-1.28-1.88-2-.18-.42-.34-.76-.62-.98-.16-.14-.34-.2-.48-.26-.06-.02-.12-.06-.18-.08-.2-.1-.4-.2-.64-.2h0l.04,.02Z" fill="#fff"/><path d="M80.73,304.03s.12,.02,.16,.08c.12,.16,.3,.38,.36,.48,.16,.24,.12,.52-.06,.64-.16,.1-.64,.34-.64,.34,0,0-.38-.32-.5-.46-.12-.14-.06-.36,0-.46,.1-.16,.32-.34,.56-.56,.04-.04,.1-.06,.14-.06m0-.4c-.14,0-.3,.06-.4,.16l-.08,.08c-.22,.2-.42,.38-.54,.56h0c-.16,.24-.2,.62,.04,.92,.14,.18,.5,.46,.56,.52l.2,.16,.22-.1s.52-.24,.7-.38c.36-.26,.44-.78,.16-1.18-.06-.08-.16-.22-.28-.38-.04-.04-.06-.08-.1-.12-.12-.16-.3-.24-.48-.24h0Z" fill="#fff"/><path d="M80.53,305.27s.18,.02,.18,.06c0,.16,0,.36,.04,.52,.08,.22,.2,.28,.38,.34,.08,.02,.16,.04,.22,.04,.22,0,.38-.12,.46-.2,.02-.02,.04-.04,.08-.04,.06,0,.12,.08,.02,.24-.22,.34-.5,.46-.74,.46-.34,0-.62-.2-.64-.34-.1,.14-.28,.24-.5,.24s-.46-.12-.56-.44c-.04-.12,0-.22,.02-.22h0s.18,.26,.42,.26c.08,0,.16-.02,.26-.08,.12-.08,.14-.24,.14-.38s0-.26,.04-.38c0-.02,.08-.04,.16-.04m0-.4h0c-.36,0-.48,.18-.52,.3-.06,.16-.06,.32-.06,.44v.16h0s-.04-.04-.1-.08c0,0-.04-.04-.06-.06-.08-.06-.18-.1-.28-.1h0c-.12,0-.24,.06-.32,.16-.1,.14-.14,.36-.06,.56,.14,.44,.5,.72,.94,.72,.16,0,.3-.04,.44-.1,.18,.12,.44,.2,.7,.2,.44,0,.82-.22,1.08-.64,.12-.2,.14-.42,.06-.6-.08-.14-.24-.24-.4-.24h0c-.14,0-.28,.06-.38,.18h0s-.06,.06-.16,.06h-.1q-.12-.04-.14-.1v-.4c0-.06,0-.46-.58-.46h-.06Z" fill="#fff"/><path d="M79.19,309.4c.2,.32,.22,.76,.14,1.08-.06,.16-.14,.3-.2,.36-.04,.04-.08,.04-.12,.04s-.08,0-.1-.04c-.02,0-.06-.06-.08-.08,0,0,.08-.06,.14-.14,.14-.24,.2-.62,.06-1.06l.18-.18m.08-.64l-.36,.36-.18,.18-.16,.16,.08,.22c.1,.34,.06,.6,0,.74,0,0,0,.02-.04,.02-.02,.02-.1,.08-.12,.18l-.1,.26,.2,.18,.02,.02s.04,.04,.06,.06c.1,.08,.22,.12,.36,.12s.28-.06,.4-.16h0c.12-.14,.22-.32,.3-.52,.14-.44,.08-1-.16-1.4l-.26-.44h0l-.04,.02Z" fill="#fff"/><path d="M85.31,306.22c.06,.68,.12,2.2-1.92,2.46h-.3c-.64,0-1.22-.22-1.22-.22,0,0,1.16-.08,1.66-.68l-.12,.5c.48-.06,.98-.98,.98-.98v.62c.62-.32,.92-1.74,.92-1.74m.18-2.64l-.56,2.56h0c-.04,.16-.08,.34-.16,.52v-.82l-.7,1.24,.16-.74-1.02,1.2c-.32,.38-1.1,.52-1.38,.54l-1.74,.12,1.62,.64s.66,.26,1.36,.26c.12,0,.24,0,.36-.02,1.02-.14,1.72-.56,2.06-1.3,.3-.62,.24-1.3,.22-1.58l-.2-2.6h0l-.02-.02Z" fill="#fff"/><path d="M78.67,308.43c.26-.4,.7-.52,1.08-.46,0,0,.06,0,.08,.04,.02,.02,0,.06,0,.08-.02,.02-.06,.02-.1,.04-.18,.04-.36,.18-.38,.38,.14-.06,.28-.04,.42,.02,.04,0,.06,.06,.06,.1,0,0-.04,.02-.06,.04-.16,.06-.26,.22-.3,.38,.08,0,.18-.04,.26-.02s.2,.08,.2,.16-.2,.02-.3,.18c-.06,.1-.1,.24-.2,.32-.08,.08-.22,.08-.32,.06-.12-.04-.2-.1-.28-.2-.26-.3-.32-.74-.14-1.1" fill="none" stroke="#fff" stroke-miterlimit="10" stroke-width=".4"/></g><path d="M89.33,313.99c.74,.38,2.12,.74,2.86,.62,1.9-.28,3.28-1.38,4.1-2.9,.36-.64,.38-1.96-.18-2.1-.72-.18-1.56-.04-2.88,.58-1.34,.64-1.66,1.64-3.24,.86" fill="#6a4e43"/><path d="M89.69,312.66c.28,.18,.32,.28,.54,.52,.44,.48,1.5,.5,1.72,.5,1.22,0,1.82-.28,2.6-.8s1.52-1.66,1.66-2.22c.1-.38,.14-.68,.12-.92-.06-.06-.12-.12-.22-.14-.72-.18-1.56-.04-2.88,.58-1.34,.64-1.66,1.64-3.24,.86l-.34,1.54,.04,.08h0Z" fill="#b2927c" isolation="isolate" opacity=".44"/><path d="M96.27,310.38c.02-.14,.04-.28,.06-.38l-.82-.36,.04-.1c-.28,0-.58,.04-.94,.12l.38,.18-.4,.92-.92-.4,.2-.44c-.16,.06-.78,.32-1.04,.48l.34,.14-.4,.92-.9-.42c-.18,.1-.34,.2-.52,.24l-.92,2.06c.12,.06,.24,.1,.36,.14l.38-.84,.92,.4s-.18,.42-.28,.64h.4l.22-.5,.8,.34c.24-.06,.46-.16,.68-.28l.32-.78,.52,.24c.1-.08,.2-.18,.3-.28l-.66-.3,.4-.92,.92,.4c.08-.12,.14-.22,.2-.32l-.96-.42,.4-.92,.9,.4h0l.02,.04Zm-4.02,2.32l-.92-.4,.4-.92,.92,.4-.4,.92Zm1.26,.56l-.92-.4,.4-.92,.92,.4-.4,.92Zm.56-1.26l-.92-.4,.4-.92,.92,.4-.4,.92Z" fill="#6a4e43"/><path d="M80.23,302.56c-.16-.02-.32-.04-.46-.06-.06,0-.14,0-.2,.02-.04,.02-.08,.08-.1,.12-.14,.26-.16,.58-.04,.86,.02,.06,.08,.14,.16,.14,.02,0,.06-.02,.08-.04,.22-.18,.42-.36,.62-.58,.04-.04,.06-.1,.02-.12" fill="#825c4f"/><path d="M86.29,316.75c-1.3,.64-2.18,1.38-3.08,2.28-.06,.06-.36,.38-.18,.48s.6-.22,.74-.14c.14,.1,.04,.28,.2,.38s.58-.22,.78-.12,.12,.26,.24,.4c.16,.2,.52,0,.62-.06,.56-.46,1.98-1.8,2.24-2.1,.34-.38,.54-.9,.24-1.26" fill="#6a4e43"/><path d="M81.89,316.31c-.78,.24-1.52,.58-2.22,.98-.14,.08-.3,.18-.42,.28-.06,.06-.12,.14-.06,.18,.12,.12,.36-.06,.52,.06,.06,.04,.02,.26,.08,.32,.04,.06,.14,.1,.22,.08s.16-.04,.24-.06c.18-.06,.36-.08,.48,.06,.08,.08,.06,.16,.12,.26,.04,.06,.08,.12,.22,.12,.2,0,.38-.1,.54-.2,.74-.5,1.44-1.06,2.14-1.6" fill="#6a4e43"/><path d="M84.77,303.21c.52,.14,.66,0,1.04,.02,.5,.04,.44,.52,.36,.78-.1,.34-.28,.62-.54,.84-.04,.04-.1,.08-.16,.08-.08,0-.14-.04-.2-.08-.36-.3-.58-.74-.6-1.2" fill="#825c4f"/><path d="M79.45,307.55s-.92,.1-1.26,1.1c-.48,1.46,.78,2.3,.78,2.3,0,0-.34,2.98,1.46,4.6,1.82,1.64,2.4,1.7,4.52,2.08s4.1-.98,4.6-1.52c.52-.54,1.3-1.7,1.44-3.12,.14-1.42-1.12-3.92-2.26-5.22s-3.48-3.32-3.48-3.32l-3.38,3.16-2.46-.04h0l.04-.02Z" fill="#b1896d"/><path d="M84.91,303.32c-.84-1.18-1.78-1.42-2.82-1.42-1.12,0-2.16,.82-2.66,1.46-.4,.52-.88,1.38-.96,2.36-.06,.78,.2,1.5,.96,2.02,.76,.54,3.78,1.16,5.02,.32,1.08-.74,1.46-1.76,1.34-2.6-.08-.6-.26-1.22-.9-2.14h.02Z" fill="#b1896d"/><ellipse cx="83.11" cy="304.01" rx=".36" ry=".48" transform="translate(-88.82 39.87) rotate(-17.77)" fill="#212120"/><path d="M79.97,306.27c-.08,.54,.16,1.38,.36,1.36,.16,0,.2-.34,.2-.34,0,0,.14,.42,.42,.4,.26-.02,.24-.94,.3-1.38l-.86-.36-.44,.3h0l.02,.02Z" fill="#ffebb1"/><path d="M79.41,303.72c.06-.16,.2-.36,.42-.34,.24,0,.2,.36,.12,.54-.08,.18-.28,.36-.46,.24-.12-.08-.1-.34-.08-.44Z" fill="#212120"/><path d="M83.89,311.5c-1.94-.66-2.02-2.58-2.6-3.04-.2-.16-.4-.2-.6-.3-.18-.1-.4-.2-.6-.12,.14,.1,.26,.2,.36,.34-.2,0-.48,.04-.58,.16,0,.02,0,.06,.04,.06,.02,0,.34,.08,.48,.2-.1,.08-.22,.16-.3,.26-.06,.06,0,.1,0,.1,.14,.04,.3,0,.42,.08s.22,.18,.34,.26c.14,.1,.32,.16,.48,.16,.3,.6,.66,1.1,1.16,1.56,.46,.42,1.02,.72,1.64,.84,1.96,.36,2.82-1.64,2.82-1.64,0,0-1.38,1.6-3.04,1.04h0l-.02,.04Z" fill="#825c4f"/><path d="M80.91,304.1s-.22-.12-.32-.04c-.24,.22-.46,.4-.56,.56-.06,.1-.12,.32,0,.46s.5,.46,.5,.46c0,0,.48-.22,.64-.34,.18-.14,.22-.42,.06-.64-.06-.1-.24-.32-.36-.48h0l.04,.02Z" fill="#212120"/><path d="M81.91,306.22c.12-.2,0-.3-.1-.2-.1,.1-.34,.28-.68,.16-.18-.06-.32-.12-.38-.34-.06-.16-.04-.36-.04-.52,0-.08-.32-.08-.34,0-.04,.12-.04,.26-.04,.38,0,.14-.02,.32-.14,.38-.4,.26-.64-.12-.68-.16,0,0-.06,.1-.02,.22,.18,.6,.86,.5,1.04,.2,.04,.24,.88,.68,1.4-.12h-.02Z" fill="#212120"/><path d="M78.81,310.78s.06,.06,.08,.08c.06,.06,.16,.04,.22,0,.06-.08,.14-.2,.2-.36,.1-.32,.06-.76-.14-1.08l-.18,.18c.14,.44,.08,.82-.06,1.06-.06,.1-.14,.14-.14,.14h0l.02-.02Z" fill="#825c4f"/><path d="M83.53,307.81l-.12,.5c.48-.06,.98-.98,.98-.98v.62c.62-.32,.92-1.74,.92-1.74,.06,.68,.12,2.2-1.92,2.46-.74,.1-1.52-.2-1.52-.2,0,0,1.16-.08,1.66-.68h0v.02Z" fill="#825c4f"/><path d="M78.67,308.43c.26-.4,.7-.52,1.08-.46,0,0,.06,0,.08,.04,.02,.02,0,.06,0,.08-.02,.02-.06,.02-.1,.04-.18,.04-.36,.18-.38,.38,.14-.06,.28-.04,.42,.02,.04,0,.06,.06,.06,.1,0,0-.04,.02-.06,.04-.16,.06-.26,.22-.3,.38,.08,0,.18-.04,.26-.02s.2,.08,.2,.16-.2,.02-.3,.18c-.06,.1-.1,.24-.2,.32-.08,.08-.22,.08-.32,.06-.12-.04-.2-.1-.28-.2-.26-.3-.32-.74-.14-1.1" fill="#825c4f"/><g><g><path d="M114.23,301.68s.04,.04,0,.1c-.04,.1-.12,.26-.2,.42-.04-.08-.08-.16-.12-.22,.08-.1,.16-.18,.24-.26,.02-.02,.06-.04,.06-.04m0-.4c-.12,0-.22,.04-.32,.12-.12,.1-.22,.2-.32,.32l-.18,.22,.16,.24s.04,.08,.08,.12c0,.02,.02,.04,.04,.06l.36,.68,.34-.68,.04-.06c.08-.16,.14-.28,.18-.38,.08-.22,0-.38-.04-.46-.08-.12-.22-.18-.36-.18h.02Z" fill="#fff"/><g><path d="M114.75,302.56s.04,.02,.04,.08c-.02,.24-.1,.48-.24,.7-.04-.12-.08-.24-.14-.36,.12-.12,.22-.24,.3-.38,0-.02,.04-.04,.04-.04m0-.4c-.16,0-.32,.1-.4,.24-.06,.1-.14,.2-.24,.28l-.2,.18,.1,.26c.04,.12,.08,.22,.14,.36l.28,.76,.44-.68c.18-.26,.28-.56,.3-.88h0v-.04c0-.32-.22-.48-.44-.48h.02Z" fill="#fff"/><path d="M113.81,307.65c-.2,.24-.42,.44-.68,.58-.22,.14-.46,.2-.7,.2-.3,0-.6-.08-.9-.24,.74-.28,1.52-.48,2.3-.54m.94-.5l-.98,.1c-.82,.08-1.64,.28-2.42,.58l-.86,.34,.84,.4c.38,.18,.74,.28,1.08,.28s.64-.08,.92-.26c.3-.18,.56-.4,.78-.68l.64-.76h0Z" fill="#fff"/><path d="M109.23,301.5s.04,.04,0,.14c-.08,.42,.68,2.5,1.22,2.5h0c.58-.04,.6-1.26,.72-1.8,0-.06,.04-.08,.06-.08s.06,.04,.08,.08c.22,.56-.34,1.78,0,1.84h.06c.5,0,.82-1.62,1-2.22,0-.06,.04-.08,.06-.08s.04,.02,.06,.08c.08,.4-.38,1.26,.06,1.46h.08c.32,0,.74-.72,1.1-1.26,.04,.1,.1,.2,.14,.32-.18,.38-.34,.78-.2,.88,0,0,.04,.02,.06,.02,.1,0,.24-.08,.38-.2,.06,.18,.1,.38,.14,.56-.32,.48-.68,1-.76,1.36-.18,.7-.8,1.44-1.36,1.78-.42,.28-.78,.64-1.06,1.06-.76-.52-1.42-1.2-1.92-1.98h.16c.16,0,.32-.04,.46-.14,1.16-.82-1.06-2.2-.66-4.24,0-.06,.06-.1,.1-.1m0-.4c-.26,0-.44,.22-.48,.44h0c-.22,1.14,.26,2.06,.62,2.8,.44,.88,.44,1.02,.2,1.2-.06,.04-.14,.06-.24,.06h-.08l-.92-.16,.5,.78c.54,.84,1.22,1.54,2.04,2.1l.34,.22,.22-.34c.24-.38,.56-.7,.94-.94,.58-.36,1.32-1.18,1.52-2.02,.06-.24,.32-.64,.56-1,.06-.08,.1-.16,.16-.24l.1-.14-.04-.18s-.02-.1-.04-.14c-.04-.14-.08-.3-.12-.44l-.18-.56h-.02l-.06-.16s-.08-.16-.1-.24c0-.04-.02-.06-.04-.1l-.3-.66-.4,.58s-.12,.18-.18,.28c-.1,.16-.28,.4-.42,.58,0-.06,.02-.12,.04-.18,.06-.26,.1-.52,.06-.74-.06-.3-.28-.42-.44-.42h0c-.16,0-.36,.1-.44,.36h0c-.04,.12-.08,.28-.14,.46-.02,.1-.06,.2-.08,.3,0-.16-.02-.3-.08-.42-.08-.22-.26-.34-.46-.34-.16,0-.38,.1-.46,.4h0c-.02,.12-.04,.26-.06,.42-.04,.24-.08,.52-.14,.74-.04,.16-.1,.24-.12,.28-.1-.1-.28-.36-.52-.9-.24-.56-.32-.98-.32-1.08,0-.08,.06-.3-.08-.46-.08-.1-.2-.16-.34-.16h0v.02Z" fill="#fff"/><path d="M116.23,307.87s.1,.04,.1,.08c.02,.1,.06,.72-.86,1.48-.56,.44-.54,.66-.82,.8-.1,.04-.18,.06-.28,.06-.38,0-.56-.44-.22-.76,.46-.42,1.48-.86,1.96-1.58,.04-.06,.08-.08,.1-.08m0-.4c-.18,0-.34,.08-.44,.24-.26,.38-.76,.7-1.18,.98-.28,.18-.52,.34-.72,.52-.28,.26-.38,.64-.26,.96,.12,.3,.42,.5,.76,.5,.14,0,.3-.04,.44-.1h0c.2-.1,.32-.24,.42-.38,.1-.12,.22-.26,.46-.46,.46-.36,.76-.76,.92-1.14,.16-.4,.1-.68,.08-.76h0c-.06-.2-.26-.36-.48-.36h0Z" fill="#fff"/><path d="M122.87,306.49c.34,0,.54,.14,.64,.44,1.92,5.5,.24,9.52-2.28,11.54-.04,0-2.7-.66-3.24-.68-.66-.04-1.16-1.6-1.46-2.2s-1.58-1.58-1.44-2.22c.34-1.66,.04-2.72-.26-3.02,.38-.66,1.02-.82,1.48-1.58,.16-.26,.22-.56,.2-.86h.44c1.52,0,2.84-.52,3.76-.84,1.06-.38,1.74-.58,2.16-.58m0-.4c-.48,0-1.18,.22-2.3,.6-.06,.02-.12,.04-.18,.06-.88,.32-2.1,.76-3.46,.76h-.88l.04,.44c.02,.22-.02,.42-.14,.6-.2,.34-.44,.54-.7,.74-.28,.22-.56,.46-.78,.84l-.16,.28,.22,.22c.18,.18,.46,1.1,.14,2.66-.12,.62,.42,1.22,.94,1.82,.22,.24,.44,.5,.54,.68,.06,.12,.12,.26,.2,.44,.38,.86,.84,1.92,1.6,1.96,.3,0,1.48,.26,3.12,.66h.04l.18,.04,.16-.12c1.44-1.16,2.46-2.78,2.94-4.68,.56-2.22,.38-4.68-.54-7.3-.16-.46-.5-.7-1.02-.7h.04Z" fill="#fff"/><path d="M110.41,309.37c-.86,1.14,.34,.8-2.72,3.54-.72,.64-.28,2.28-.26,3.32,0,.3,.44,.16,.94,.04,.1-.02,.26,.1,.42,.04,.24-.08,.22-.36,.32-.36s.14,.26,.28,.26c.48,0,.88-.52,1.26-1.1h0s0-.04,.02-.06c.34-.62,2.96-1,3.48-1.5,1.5-1.52,.36-3.06,.28-3.14-.62,.28-1.14-.36-.72-1,.3-.46,1.42-.96,2.22-1.6-.1,0-.22-.02-.32-.04-.58,.42-1.22,.76-1.9,1.02-.68,.26-.2,1.08-.94,1.28-.86,.24-.26-.84-.5-.9-.4-.08-.76-.24-1.12-.44l-.74,.6h0v.04Zm.74-.6s-.08-.06-.14-.08m-2.2,6.76c-.06,.18-.16,.58-.32,.68s-.28,.08-.28-.1c0-.24,.34-.44,.42-.6,.12-.24,.12-.52,0-.74-.08-.2,.06-.18,.16-.06,.14,.16,.16,.54,.04,.84h0l-.02-.02Zm1.5-1.08s.02,.18-.06,.26c-.16,.14-.8,.8-1.04,1.34,0,.02-.14,.02-.12-.02,.62-1.22,1.04-1.18,1.12-1.58h-.08c-.08,0-.06-.08,0-.08h.22s.06,0,.04,.04-.1,.04-.12,.06h0l.04-.02Zm1.34-3.48s-.1,.18-.14,.28c-.02,.1-.12,.1-.1-.02,.1-.7,.68-.86,1.2-.64,.04,.02,.04,.04,.04,.06-.1,.58-.98,.32-.98,.32h-.02Z" fill="none" stroke="#fff" stroke-miterlimit="10" stroke-width=".4"/><path d="M118.25,301.03s.06,.04,.1,.16c.2,.74-1,2.34-.74,2.6h.04c.24,0,.94-1.02,1.02-1.42,.02-.14,.1-.22,.16-.22s.12,.06,.16,.22c.28,1.04-1.14,4.86-5.26,6.42-.68,.26-.2,1.08-.94,1.28-.08,.02-.16,.04-.22,.04-.54,0-.06-.88-.3-.92-2.42-.46-3.88-3.58-3.82-4.3,0-.12,.04-.18,.08-.18s.08,.06,.1,.18c.3,1.16,2.18,3.54,3.76,3.54,.24,0,.5-.06,.72-.2,2.2-1.34,1.36-4.66,.42-6.48-.04-.06-.06-.16,0-.16,.02,0,.06,0,.12,.06,.82,.7,1.28,3.46,1.68,3.46h0c.76-.08,1.02-2.3,1.18-3.16,0-.08,.04-.14,.08-.14s.06,.04,.1,.14c.2,.72-.32,1.92-.06,2h.02c.38,0,1.42-2,1.5-2.76,0-.06,.04-.16,.08-.16m0-.4c-.26,0-.46,.22-.48,.52h0c-.04,.38-.34,1.06-.66,1.62,.04-.32,.04-.64-.02-.92h0c-.12-.38-.36-.44-.48-.44-.18,0-.42,.12-.48,.46-.02,.12-.04,.26-.08,.42-.08,.48-.18,1.14-.34,1.66-.1,.34-.2,.52-.28,.64-.1-.22-.22-.56-.3-.84-.32-.92-.66-1.94-1.2-2.4-.08-.08-.22-.16-.38-.16s-.28,.08-.36,.2c-.12,.2-.04,.44,0,.56,.54,1.06,.88,2.26,.92,3.26,.06,1.28-.34,2.18-1.2,2.68-.16,.1-.32,.14-.5,.14-.58,0-1.32-.44-2.06-1.22-.62-.66-1.16-1.5-1.3-2.02-.1-.42-.36-.5-.5-.5-.2,0-.46,.14-.48,.56-.08,.9,1.42,4,3.86,4.66-.04,.24-.06,.56,.14,.8,.08,.1,.24,.22,.5,.22,.1,0,.2,0,.32-.04,.62-.16,.72-.66,.78-.94,.06-.26,.08-.3,.2-.34,2.36-.9,3.72-2.42,4.46-3.56,.8-1.24,1.24-2.62,1.04-3.34-.04-.12-.16-.52-.56-.52h-.1c.06-.24,.06-.48,0-.68-.1-.38-.32-.46-.48-.46h0l.02-.02Z" fill="#fff"/><g><path d="M111.45,311.44s-.14-.04-.18-.08c-.04-.04-.08-.12-.06-.24,.08-.56,.44-.9,.96-.9,.18,0,.36,.04,.52,.12,.1,.04,.16,.14,.16,.26h0c-.06,.36-.34,.56-.76,.56h0c-.12,0-.24,0-.32-.04,0,.04-.04,.08-.04,.12-.04,.12-.14,.22-.26,.22l-.02-.02Z"/><path d="M112.15,310.43c.14,0,.3,.04,.44,.1,.04,.02,.04,.04,.04,.06-.06,.3-.32,.38-.56,.38-.22,0-.42-.06-.42-.06-.06,.08-.1,.18-.14,.28,0,.04-.04,.08-.06,.08s-.06-.04-.04-.1c.06-.5,.38-.74,.76-.74m.04,.18s.1-.02,.1-.06-.04-.06-.1-.06-.1,.02-.1,.06,.04,.06,.1,.06m-.04-.58c-.62,0-1.06,.42-1.16,1.08-.02,.16,0,.3,.1,.4,.08,.1,.2,.16,.34,.16,.2,0,.36-.12,.44-.3h.2c.52,0,.88-.26,.96-.7h0v-.02c.02-.2-.08-.38-.28-.48-.2-.08-.4-.14-.6-.14h0Z" fill="#fff"/></g><g opacity=".39"><path d="M108.63,314.5s.1,.04,.14,.08c.14,.16,.16,.54,.04,.84-.06,.18-.16,.58-.32,.68-.06,.04-.12,.06-.16,.06-.08,0-.12-.06-.12-.16,0-.24,.34-.44,.42-.6,.12-.24,.12-.52,0-.74-.04-.1-.02-.16,0-.16m0-.4h0c-.16,0-.3,.08-.38,.2-.06,.1-.12,.26,0,.52h0v.04c.06,.12,.06,.26,0,.36h0s-.06,.06-.1,.1c-.14,.14-.36,.36-.36,.68,0,.28,.18,.56,.52,.56,.12,0,.26-.04,.38-.12,.24-.14,.34-.44,.46-.78,0-.04,.02-.08,.04-.1,.12-.36,.14-.92-.12-1.22-.12-.14-.28-.24-.46-.24h.02Z" fill="#fff"/></g><g opacity=".39"><path d="M110.15,314.27h.2s.06,0,.04,.04-.1,.04-.12,.08c-.02,.06,.02,.18-.06,.26-.16,.14-.8,.8-1.04,1.34h-.06s-.08,0-.06-.04c.62-1.22,1.04-1.18,1.12-1.58h-.08c-.06,0-.06-.08,0-.08m0-.4c-.24,0-.44,.18-.46,.42v.16s-.02,.02-.04,.04c-.22,.2-.54,.52-.94,1.3-.06,.14-.06,.28,0,.42,.08,.14,.22,.22,.4,.22,.2,0,.36-.1,.42-.26,.2-.46,.8-1.06,.92-1.18,.12-.1,.18-.24,.18-.34,.04-.04,.06-.08,.1-.12,.06-.14,.06-.28-.02-.4-.04-.06-.16-.2-.38-.2h-.24l.06-.06Z" fill="#fff"/></g><g><path d="M112.95,320.56c-.14,0-.4-.06-.58-.44-.44-.98-.28-1.54-.16-1.94,.08-.28,.12-.44,.02-.64-.08-.14-.28-.24-.5-.34-.24-.12-.5-.24-.66-.48-.24-.36-.24-.78-.24-1.08v-.32h-.12c-.1,0-.18-.06-.2-.12s-.04-.14,.06-.24h0c.24-.42,1.08-.68,2-.94,.62-.18,1.3-.4,1.5-.6,1.2-1.22,.58-2.42,.36-2.76-.08,0-.14,.02-.22,.02-.3,0-.54-.16-.68-.4-.16-.3-.12-.66,.08-1,.2-.32,.66-.6,1.2-.92,.44-.26,.92-.58,1.28-.9,.04-.04,.14-.12,.28-.12,.06,0,.26,.02,.32,.32,.1,.4,.04,.84-.18,1.2-.26,.42-.56,.68-.84,.9-.2,.18-.4,.34-.56,.56,.32,.48,.52,1.58,.2,3.08-.06,.32,.42,.86,.8,1.28,.26,.3,.5,.58,.62,.82,.06,.12,.12,.26,.2,.44,.24,.56,.68,1.62,1.1,1.64,.32,0,1.34,.24,3.12,.66,.08,0,.14,.04,.16,.04l.42,.04-.32,.3c-.86,.84-1.9,1.28-2.32,1.28h-.08c-.56-.12-1.36-.9-1.82-1.8-.16-.34-.44-.48-.74-.64-.16-.08-.32-.18-.46-.3-.18-.16-.2-.42-.24-.74-.06-.56-.14-1.18-.9-1.4h0s-.08,.02-.14,.08c-.22,.26-.42,.9-.34,1.64,.04,.44-.24,.84-.46,1.16-.1,.16-.22,.32-.24,.42-.08,.38-.08,.74-.06,1.04,0,.32,0,.58-.06,.84-.06,.18-.3,.38-.56,.38h0l-.04-.02Zm3.14-12.28c-.34,.36-.78,.66-1.16,.9-.26,.16-.48,.32-.64,.46-.1,.1-.14,.2-.1,.3,.02,.08,.1,.12,.2,.12,.06,0,.12,0,.18-.04,.08-.04,.12-.08,.22-.2,.1-.14,.26-.32,.56-.56,.5-.4,.68-.74,.76-.98h-.02Z"/><path d="M116.35,307.55s.1,.04,.14,.16c.08,.36,.02,.74-.16,1.06-.46,.76-1.1,.92-1.48,1.58,.3,.3,.6,1.36,.26,3.02-.14,.64,1.14,1.64,1.44,2.22s.8,2.16,1.46,2.2c.54,.04,3.24,.68,3.26,.68-.88,.84-1.86,1.22-2.18,1.22h-.06c-.46-.1-1.24-.82-1.68-1.68-.3-.6-.9-.7-1.24-1s.08-1.82-1.22-2.18h-.06c-.38,0-.78,.88-.68,1.94,.06,.6-.6,1.14-.7,1.5-.18,.78,.02,1.42-.12,1.86-.04,.12-.2,.26-.38,.26-.14,0-.28-.08-.4-.32-.7-1.54,.22-1.9-.14-2.58-.2-.4-.9-.44-1.18-.84-.42-.6,0-1.5-.42-1.5h-.16s0-.04,.04-.06c.34-.62,2.96-1,3.48-1.5,1.5-1.52,.36-3.06,.28-3.14-.1,.04-.2,.06-.3,.06-.48,0-.78-.54-.44-1.08,.32-.52,1.66-1.06,2.46-1.8,.02-.02,.08-.08,.14-.08m-1.96,2.72s.18-.02,.28-.06c.26-.12,.26-.34,.82-.8,.94-.74,.9-1.38,.86-1.48,0-.02-.06-.08-.1-.08s-.08,0-.1,.08c-.5,.7-1.5,1.14-1.96,1.58-.34,.32-.16,.76,.22,.76m1.96-3.12c-.2,0-.36,.12-.42,.18-.34,.32-.8,.6-1.26,.88-.56,.34-1.04,.64-1.26,1-.26,.4-.28,.84-.08,1.2,.18,.32,.5,.5,.86,.5h.12c.08,.16,.2,.4,.24,.7,.1,.6-.12,1.18-.64,1.7-.16,.16-.88,.38-1.42,.54-1.12,.34-1.84,.58-2.1,1.02-.16,.2-.12,.38-.08,.46,.06,.14,.2,.22,.34,.24v.1c0,.34,0,.8,.28,1.2,.2,.28,.48,.42,.74,.54,.16,.08,.36,.16,.4,.26,.06,.14,.04,.22-.04,.48-.12,.42-.32,1.04,.16,2.08,.08,.16,.3,.56,.76,.56,.38,0,.68-.28,.76-.52,.1-.28,.08-.58,.08-.9s-.02-.64,.06-1c0-.06,.14-.22,.2-.34,.22-.32,.54-.78,.5-1.3-.08-.8,.16-1.36,.3-1.48,.52,.18,.6,.6,.68,1.2,.04,.34,.08,.66,.32,.86,.16,.14,.32,.22,.5,.32,.28,.16,.52,.28,.66,.56,.48,.94,1.34,1.78,1.96,1.9h.12c.44,0,1.52-.42,2.46-1.34l.64-.62-.86-.08s-.08,0-.14-.04c-1.82-.42-2.82-.64-3.16-.66,0,0-.14,0-.4-.44-.2-.32-.38-.74-.52-1.08-.08-.18-.14-.34-.2-.46-.12-.26-.38-.56-.66-.86-.22-.24-.44-.48-.58-.72-.18-.28-.16-.38-.16-.4,.3-1.44,.16-2.52-.16-3.1,.12-.16,.28-.28,.46-.42,.28-.24,.6-.5,.88-.96,.24-.4,.32-.9,.22-1.36-.08-.34-.32-.46-.52-.46h0l-.04,.06Zm-1.96,2.72s.02-.04,.04-.06c.08-.06,.18-.14,.28-.22-.04,.04-.06,.08-.08,.1-.08,.1-.1,.12-.14,.14-.06,.02-.08,.02-.1,.02h0v.02Z" fill="#fff"/></g><path d="M106.51,303.03s.08,.04,.1,.12c.14,.7,1.14,2.2,2.12,2.7,.38,.9,1.14,2.12,2.42,2.9l-.74,.6c-3.94-.26-4.82-2.68-4.78-3.12,0-.08,.04-.12,.08-.12s.06,.02,.08,.06c.46,1.22,2.32,2.16,3.3,2.16,.24,0,.42-.06,.54-.18,.74-.86-3.22-2.48-3.18-5.04,0-.08,.02-.12,.06-.12m0-.4c-.22,0-.46,.18-.46,.52-.02,1.62,1.34,2.86,2.32,3.76,.36,.32,.9,.82,.94,1.02-.02,0-.08,.04-.22,.04-.86,0-2.54-.86-2.92-1.9-.08-.2-.26-.32-.46-.32-.22,0-.46,.16-.48,.5-.04,.48,.38,1.22,.8,1.7,.66,.76,1.96,1.7,4.36,1.84h.16l.12-.08,.74-.6,.44-.36-.48-.3c-1.28-.78-1.96-2.04-2.26-2.72l-.06-.14-.12-.06c-.84-.42-1.78-1.82-1.9-2.42-.06-.26-.26-.44-.5-.44h0l-.02-.04Z" fill="#fff"/></g></g><path d="M114.25,301.78s0-.14-.08-.06c-.1,.08-.18,.16-.24,.26,.04,.06,.08,.14,.12,.22,.08-.16,.16-.32,.2-.42Z" fill="#776545"/><path d="M114.79,302.65c0-.1-.04-.1-.08-.04-.08,.14-.18,.26-.3,.38,.04,.12,.1,.24,.14,.36,.14-.22,.22-.46,.24-.7h0Z" fill="#776545"/><path d="M113.13,308.22c.26-.16,.5-.36,.68-.58-.8,.08-1.56,.26-2.3,.54,.56,.28,1.12,.34,1.62,.04h0Z" fill="#7c5321"/><path d="M109.81,305.87c-.18,.12-.4,.16-.6,.12,.5,.78,1.16,1.46,1.92,1.98,.28-.42,.64-.78,1.06-1.06,.54-.32,1.18-1.08,1.36-1.78,.1-.36,.44-.86,.76-1.36-.04-.18-.1-.38-.14-.56-.18,.14-.36,.24-.44,.18-.14-.1,0-.5,.2-.88-.04-.12-.1-.22-.14-.32-.4,.58-.86,1.36-1.18,1.24-.42-.18,.02-1.06-.06-1.46-.02-.12-.08-.1-.12,0-.2,.62-.52,2.34-1.06,2.22-.34-.08,.22-1.28,0-1.84-.04-.1-.1-.14-.14,0-.1,.52-.14,1.76-.72,1.8-.54,.04-1.32-2.08-1.24-2.5,.04-.24-.1-.12-.12-.04-.4,2.04,1.82,3.44,.66,4.24h0v.02Z" fill="#776545"/><path d="M115.47,309.4c.94-.76,.9-1.38,.86-1.48,0-.04-.12-.14-.22,0-.5,.7-1.5,1.14-1.96,1.58-.42,.38-.06,.96,.5,.7,.26-.14,.26-.36,.82-.8h0Z" fill="#7c5321"/><path d="M123.51,306.93c-.24-.66-.88-.54-2.8,.14-1,.36-2.5,.94-4.18,.82h-.02c.04,.3-.04,.6-.2,.86-.46,.76-1.1,.92-1.48,1.58,.3,.3,.6,1.36,.26,3.02-.14,.64,1.14,1.64,1.44,2.22s.8,2.16,1.46,2.2c.54,.04,3.2,.68,3.24,.68,2.52-2.02,4.2-6.04,2.28-11.54v.02Z" fill="#7c5321"/><path d="M110.41,309.37c-.86,1.14,.34,.8-2.72,3.54-.72,.64-.28,2.28-.26,3.32,0,.3,.44,.16,.94,.04,.1-.02,.26,.1,.42,.04,.24-.08,.22-.36,.32-.36s.14,.26,.28,.26c.48,0,.88-.52,1.26-1.1h0s0-.04,.02-.06c.34-.62,2.96-1,3.48-1.5,1.5-1.52,.36-3.06,.28-3.14-.62,.28-1.14-.36-.72-1,.3-.46,1.42-.96,2.22-1.6-.1,0-.22-.02-.32-.04-.58,.42-1.22,.76-1.9,1.02-.68,.26-.2,1.08-.94,1.28-.86,.24-.26-.84-.5-.9-.4-.08-.76-.24-1.12-.44l-.74,.6h0v.04Zm.74-.6s-.08-.06-.14-.08m-2.2,6.76c-.06,.18-.16,.58-.32,.68s-.28,.08-.28-.1c0-.24,.34-.44,.42-.6,.12-.24,.12-.52,0-.74-.08-.2,.06-.18,.16-.06,.14,.16,.16,.54,.04,.84h0l-.02-.02Zm1.5-1.08s.02,.18-.06,.26c-.16,.14-.8,.8-1.04,1.34,0,.02-.14,.02-.12-.02,.62-1.22,1.04-1.18,1.12-1.58h-.08c-.08,0-.06-.08,0-.08h.22s.06,0,.04,.04-.1,.04-.12,.06h0l.04-.02Zm1.34-3.48s-.1,.18-.14,.28c-.02,.1-.12,.1-.1-.02,.1-.7,.68-.86,1.2-.64,.04,.02,.04,.04,.04,.06-.1,.58-.98,.32-.98,.32h-.02Z" fill="#7c5321"/><path d="M108.47,304.87c0-.22,.12-.26,.18,0,.34,1.34,2.84,4.34,4.46,3.34,2.2-1.34,1.36-4.66,.42-6.48-.04-.1-.08-.26,.12-.1,.82,.7,1.3,3.5,1.68,3.46,.76-.08,1.02-2.3,1.18-3.16,.04-.16,.12-.2,.18,0,.2,.72-.32,1.92-.06,2,.34,.1,1.44-1.96,1.54-2.76,0-.1,.1-.32,.18,0,.2,.74-1,2.34-.74,2.6,.16,.18,.98-.98,1.06-1.42,.04-.26,.24-.34,.32,0,.28,1.04-1.14,4.86-5.26,6.42-.68,.26-.2,1.08-.94,1.28-.86,.24-.26-.84-.5-.9-2.42-.46-3.88-3.58-3.82-4.3h0v.02Z" fill="#b1a189" isolation="isolate" opacity=".7"/><path d="M112.59,310.53c-.52-.24-1.1-.06-1.2,.64,0,.12,.08,.12,.1,.02,.04-.1,.08-.2,.14-.28,0,0,.88,.26,.98-.32,0,0,0-.04-.04-.06h.02Zm-.4,.08s-.1-.02-.1-.06,.04-.06,.1-.06,.1,.02,.1,.06-.04,.06-.1,.06Z" fill="#7c5321" isolation="isolate" opacity=".39"/><path d="M108.61,314.66c-.08-.2,.06-.18,.16-.06,.14,.16,.16,.54,.04,.84-.06,.18-.16,.58-.32,.68s-.28,.08-.28-.1c0-.24,.34-.44,.42-.6,.12-.24,.12-.52,0-.74h0l-.02-.02Z" fill="#7c5321" isolation="isolate" opacity=".39"/><path d="M109.09,315.93s.1,.04,.12,.02c.22-.54,.88-1.2,1.04-1.34,.1-.08,.04-.2,.06-.26,0-.02,.1-.04,.12-.08s-.02-.04-.04-.04h-.22c-.08,0-.08,.06,0,.08h.08c-.08,.4-.52,.36-1.12,1.58h0l-.04,.04Z" fill="#7c5321" isolation="isolate" opacity=".39"/><g opacity=".81"><path d="M117.99,317.77c-.66-.04-1.18-1.6-1.46-2.2-.28-.58-1.58-1.58-1.44-2.22,.34-1.66,.04-2.72-.26-3.02,.38-.66,1.02-.82,1.48-1.58,.2-.32,.26-.7,.16-1.06-.06-.24-.22-.14-.28-.08-.78,.74-2.12,1.28-2.46,1.8-.42,.66,.1,1.3,.74,1.02,.08,.06,1.22,1.62-.28,3.14-.5,.52-3.14,.88-3.48,1.5-.02,.04-.1,.08,0,.06,.62-.16,.08,.82,.54,1.48,.28,.4,.98,.44,1.18,.84,.36,.7-.56,1.04,.14,2.58,.26,.54,.7,.28,.76,.06,.16-.44-.04-1.08,.12-1.86,.08-.36,.76-.92,.7-1.5-.12-1.14,.36-2.06,.74-1.94,1.3,.36,.88,1.88,1.22,2.18s.94,.42,1.24,1c.44,.88,1.2,1.6,1.68,1.68,.24,.04,1.3-.32,2.22-1.22-.02,0-2.72-.66-3.26-.68h0v.02Zm-3.34-7.58c-.56,.26-.92-.32-.5-.7,.46-.42,1.48-.86,1.96-1.58,.1-.14,.2-.04,.22,0,.02,.1,.06,.74-.86,1.48-.56,.44-.54,.66-.82,.8h0Z" fill="#7c5321"/></g><path d="M111.17,308.77c-1.28-.78-2.04-2-2.42-2.9-.98-.5-1.98-2.02-2.12-2.7-.02-.14-.16-.18-.16,0-.04,2.56,3.92,4.16,3.18,5.04-.52,.62-3.26-.46-3.84-1.98-.02-.06-.14-.12-.16,.06-.04,.44,.84,2.86,4.78,3.12l.74-.6h0v-.04Z" fill="#776545"/></g><g><path d="M135.11,316c-.12-.08-.24-.1-.34-.1-.06,0-.14,0-.24,.14-.06,.08-.16,.32-.12,.54,0,.12,.06,.22,.14,.28,.66,.52,3.52,1.7,4.6,1.82,.12,0,.26,.04,.4,.04,.24,0,.52-.04,.9-.46-.4-.04-.88-.18-1.52-.44-1.3-.5-2.58-1.12-3.8-1.82h-.02Z" fill="#7a4e34"/><path d="M152.27,315.9s-.2,.04-.34,.1c-1.24,.7-2.52,1.3-3.8,1.82-.64,.26-1.12,.4-1.52,.44,.38,.42,.64,.46,.9,.46,.12,0,.28,0,.4-.04,1.08-.12,3.94-1.3,4.6-1.82,.08-.06,.12-.14,.14-.28,.02-.24-.06-.46-.12-.54-.1-.12-.18-.14-.24-.14h-.02Z" fill="#7a4e34"/><path d="M141.75,304.72v.16c0,.24,.68,.66,1.76,.66s1.76-.42,1.76-.66v-.16c-.46,.24-1.08,.38-1.76,.38s-1.3-.14-1.76-.38Z" fill="#72c6ab"/><path d="M141.75,303.55c0,.24,.68,.66,1.76,.66s1.76-.42,1.76-.66-.68-.66-1.76-.66-1.76,.42-1.76,.66Z" fill="#b8e0d7"/><path d="M153.21,315.49c-.24-.3-.58-.46-.94-.46-.24,0-.5,.08-.76,.22-1.2,.68-2.44,1.26-3.7,1.76-.66,.26-1.14,.38-1.44,.38-.16,0-.28-.04-.42-.1l-1.92-3.32,5.04-8.72c.12-.22,.04-.48-.16-.6-.22-.12-.48-.04-.6,.16l-4.78,8.28-4.78-8.28c-.12-.22-.4-.28-.6-.16-.22,.12-.28,.4-.16,.6l5.04,8.72-1.92,3.32c-.14,.06-.24,.1-.42,.1-.3,0-.78-.12-1.44-.38-1.26-.5-2.5-1.08-3.7-1.76-.26-.14-.52-.22-.76-.22-.36,0-.68,.16-.94,.46-.24,.3-.36,.78-.32,1.2,.04,.36,.2,.66,.46,.88,.78,.62,3.78,1.86,5.04,2.02,.14,0,.32,.04,.5,.04,.9,0,1.52-.5,2.26-1.76l1.72-3,1.72,3c.74,1.28,1.36,1.76,2.26,1.76,.18,0,.36,0,.5-.04,1.26-.14,4.26-1.4,5.04-2.02,.26-.2,.42-.5,.46-.88,.04-.42-.08-.92-.32-1.2h.04Zm-.56,1.1c0,.12-.06,.22-.14,.28-.66,.52-3.52,1.7-4.6,1.82-.12,0-.26,.04-.4,.04-.24,0-.52-.04-.9-.46,.4-.04,.88-.18,1.52-.44,1.3-.5,2.58-1.12,3.8-1.82,.12-.08,.24-.1,.34-.1,.06,0,.14,0,.24,.14,.06,.08,.16,.32,.12,.54h.02Zm-13.1,2.14c-.12,0-.28,0-.4-.04-1.08-.12-3.94-1.3-4.6-1.82-.08-.06-.12-.14-.14-.28-.02-.24,.06-.46,.12-.54,.1-.12,.18-.14,.24-.14,.1,0,.2,.04,.34,.1,1.24,.7,2.52,1.3,3.8,1.82,.64,.26,1.12,.4,1.52,.44-.38,.42-.64,.46-.9,.46h.02Z"/><path d="M143.51,306.44c1.52,0,2.66-.66,2.66-1.54v-1.34c0-.88-1.14-1.54-2.66-1.54s-2.66,.66-2.66,1.54v1.34c0,.88,1.14,1.54,2.66,1.54h0Zm0-3.54c1.1,0,1.76,.42,1.76,.66s-.68,.66-1.76,.66-1.76-.42-1.76-.66,.68-.66,1.76-.66Zm1.76,2c0,.24-.68,.66-1.76,.66s-1.76-.42-1.76-.66v-.16c.46,.24,1.08,.38,1.76,.38s1.3-.14,1.76-.38v.16Z"/></g><g><path d="M180.47,307.68l-.06-.22-.56,.2,.42-1.26-.22,.08h0l-1.04,.32,.52-1.66,.12-.68-.44-.06-1.96,.64,.66-2.06-.1-.32-.68,.1-1.64,.52,.32-1.1h0l.08-.24-1.26,.38,.12-.38-.22-.08-.16,.54-1.34,.42-.08,.24,1.34-.42-.36,1.14-1.62,.52,.06,.22,1.48-.48-.34,1.04-1.46,.48,.06,.22,1.3-.42-.34,1.04-1.74,.56,.06,.22,.28-.1-.34,1.04-1.28,.42,.06,.22,1.12-.36-.34,1.04-1.32,.42,.08,.22,1.16-.38-.34,1.04-.9,.28,.08,.22,.74-.24-.42,1.3,1.3-.42-.24,.74,.22,.08,.28-.9,1.04-.34-.38,1.16,.22,.08,.42-1.32,1.04-.34-.36,1.12,.22,.06,.42-1.28,1.3-.42,.42-1.3,1.04-.34-.42,1.3,.22,.06,.48-1.46,1.04-.34-.48,1.48,.22,.06,.52-1.62,1.02-.36-.44,1.3,.24-.1,.42-1.28,.72-.24h.02Zm-1.72-.8l-1.04,.34,.34-1.04,1.04-.34-.34,1.04h0Zm-5.3,1.96l-.34,1.04-1.04,.34,.34-1.04,1.04-.34Zm-.94,.06l.34-1.04,1.04-.34-.34,1.04-1.04,.34h0Zm1.22-.16l1.04-.34-.34,1.04-1.04,.34,.34-1.04h0Zm.08-.26l.34-1.04,1.04-.34-.34,1.04-1.04,.34Zm1.88-2.96l-1.04,.34,.34-1.04,1.04-.34-.34,1.04h0Zm.18,.18l1.04-.34-.34,1.04-1.04,.34,.34-1.04h0Zm-.26,.08l-.34,1.04-1.04,.34,.34-1.04,1.04-.34h0Zm-.16,1.22l1.04-.34-.34,1.04-1.04,.34,.34-1.04h0Zm1.3-.42l1.04-.34-.34,1.04-1.04,.34,.34-1.04h0Zm2.76-2.06l-.34,1.04-1.04,.34,.34-1.04,1.04-.34h0Zm-1.3,.42l-.34,1.04-1.04,.34,.34-1.04,1.04-.34h0Zm-1.22,.16l-1.04,.34,.34-1.04,1.04-.34-.34,1.04h0Zm.76-2.34l-.34,1.04-1.04,.34,.34-1.04,1.04-.34h0Zm-1.3,.42l-.34,1.04-1.04,.34,.34-1.04,1.04-.34h0Zm-1.9-.64l1-.32-.32,1.1-1.04,.34,.36-1.12h0Zm-.44,1.4l1.04-.34-.34,1.04-1.04,.34,.34-1.04h0Zm-.42,1.3l1.04-.34-.34,1.04-1.04,.34,.34-1.04Zm-.42,1.3l1.04-.34-.34,1.04-1.04,.34,.34-1.04h0Zm-1.3,.42l1.04-.34-.34,1.04-1.04,.34,.34-1.04Zm-.42,1.3l1.04-.34-.34,1.04-1.04,.34,.34-1.04h0Zm-.42,1.32l1.04-.34-.34,1.04-1.04,.34,.34-1.04Zm.28,2l-1.04,.34,.34-1.04,1.04-.34-.34,1.04h0Zm1.3-.42l-1.04,.34,.34-1.04,1.04-.34-.34,1.04Zm1.32-.42l-1.04,.34,.34-1.04,1.04-.34-.34,1.04h0Zm1.3-.42l-1.04,.34,.34-1.04,1.04-.34-.34,1.04h0Zm.42-1.3l-1.04,.34,.34-1.04,1.04-.34-.34,1.04h0Zm1.3-.42l-1.04,.34,.34-1.04,1.04-.34-.34,1.04Zm1.3-.42l-1.04,.34,.34-1.04,1.04-.34-.34,1.04h0Zm.26-.08l.34-1.04,1.04-.34-.34,1.02-1.02,.36h-.02Z" fill="#292f33"/><path d="M162.37,320.55c-.36,0-.64-.3-.64-.64,0-.18,.06-.34,.18-.46l6.5-6.5c.26-.26,.66-.26,.92,0s.26,.66,0,.92h0l-6.5,6.5c-.12,.12-.3,.18-.46,.18Z" fill="#226798"/><path d="M177.13,310.16l-.82-.12c.18-1.18-.16-2.32-.96-3.12s-1.94-1.16-3.12-.96l-.12-.82c1.44-.22,2.84,.22,3.84,1.2,1,1,1.42,2.38,1.2,3.84h0l-.02-.02Z" fill="#292f33"/><path d="M178.67,309.81l-.82-.1c.2-1.48-.28-2.92-1.32-3.96-1.04-1.04-2.48-1.52-3.96-1.32l-.1-.82c1.74-.22,3.44,.34,4.66,1.56s1.78,2.92,1.56,4.66h0l-.02-.02Z" fill="#292f33"/><circle cx="175.55" cy="316.62" r="1.9" fill="#f19020"/><path d="M179.77,302.49c-1.68-1.68-4.42-2.88-6.6-.7-.82,.82-.96,1.62-1.14,2.48-.22,1.16-.48,2.48-2.46,4.48-.94,.94-.98,1.7-1.02,2.38-.04,.54-.06,1-.5,1.62-.12,.16-.1,.38,.04,.54l.9,.9c.14,.14,.36,.16,.54,.04,.62-.44,1.08-.46,1.62-.5,.68-.04,1.44-.08,2.38-1.02,2-2,3.32-2.24,4.48-2.46,.86-.16,1.66-.32,2.48-1.14,2.18-2.18,.98-4.92-.7-6.62h-.02Zm-.42,1.32c.28-.2,.66-.14,.86,.14s.14,.66-.14,.86h0c-.28,.2-.66,.12-.86-.16-.18-.28-.12-.64,.14-.84h0Zm-1.4-1.88c.34,0,.62,.26,.64,.6,0,.34-.26,.62-.6,.64h-.04c-.34,0-.6-.3-.6-.64,0-.32,.28-.58,.6-.6h0Zm-2.64-.52c.08-.32,.42-.52,.76-.44s.52,.42,.44,.76c-.08,.32-.42,.52-.76,.44s-.52-.42-.44-.76h0Zm4.56,7.12c-.64,.64-1.22,.74-2.04,.9-1.22,.24-2.72,.52-4.9,2.7-.1,.1-.2,.18-.3,.26-.6,.14-1.44,.14-2.18-.58s-.72-1.56-.58-2.18c.08-.1,.18-.2,.26-.3,2.18-2.18,2.46-3.68,2.7-4.9,.16-.82,.26-1.4,.9-2.04,.14-.14,.3-.28,.44-.38,1.64,.16,2.98,.76,4.16,1.9,1.18,1.16,1.78,2.66,1.9,4.16-.12,.16-.24,.3-.38,.44h0l.02,.02Zm.82-1.56c-.34,0-.62-.26-.64-.6,0-.34,.26-.62,.6-.64h.04c.34,0,.6,.3,.6,.64,0,.32-.28,.58-.6,.6h0Z" fill="#5fa8dc"/><path d="M179.79,307.87s-.14-.06-.14-.14v-.06c.14-.32,.42-.72,.6-.98-.36,.04-.82-.04-1.02-.5-.22-.52,0-1.16,.14-1.52-.42,.06-1.2,.08-1.56-.36-.34-.4-.26-1.06-.18-1.44-.38,.18-1.02,.4-1.52,.2-.26-.12-.44-.3-.52-.54-.04-.18-.06-.36,0-.52-.28,.22-.66,.46-1.06,.58-.08,.02-.14,0-.18-.1h0s.02-.16,.1-.18c.7-.2,1.36-.88,1.36-.88,.06-.06,.14-.06,.2,0,.04,.04,.06,.12,.02,.18,0,0-.28,.48-.16,.84,.06,.16,.18,.28,.36,.36,.58,.26,1.54-.32,1.56-.32,.06-.04,.16,0,.2,.04,.02,.04,.02,.08,0,.12,0,0-.36,1.02,.04,1.48,.32,.38,1.24,.28,1.56,.22,.06,0,.1,0,.14,.06,.04,.04,.04,.1,0,.16,0,0-.5,.92-.24,1.52,.24,.54,1,.28,1.04,.28,.08-.02,.16,0,.18,.08,0,.04,0,.1-.02,.12,0,0-.56,.76-.78,1.22-.02,.04-.08,.08-.12,.08h0Z" fill="#292f33"/></g><g><path d="M192.51,303.05c-1.22,0-2.22,1-2.22,2.22v10c0,1.22,1,2.22,2.22,2.22h3.34v-14.44h-3.34Zm15.54,0h-3.34v14.44h3.34c1.22,0,2.22-1,2.22-2.22v-10c0-1.22-1-2.22-2.22-2.22Z" fill="#d32d27"/><path d="M195.83,303.05h8.88v14.44h-8.88v-14.44Z" fill="#edeced"/><path d="M200.61,312.55c.66,.08,1.26,.14,1.92,.22l-.16-.56s0-.2,.08-.26l1.94-1.58-.4-.18c-.18-.06-.12-.16-.06-.4l.3-1.08-1.12,.24c-.1,0-.18-.06-.2-.12l-.14-.5-.88,1c-.12,.16-.38,.16-.3-.2l.38-2.02-.5,.26c-.14,.08-.28,.1-.36-.04l-.7-1.32h0l-.7,1.32c-.08,.14-.22,.12-.36,.04l-.5-.26,.38,2.02c.08,.36-.18,.36-.3,.2l-.88-1-.14,.5s-.08,.14-.2,.12l-1.12-.24,.3,1.08c.06,.24,.12,.34-.06,.4l-.4,.18,1.94,1.58s.12,.16,.08,.26l-.16,.56,1.92-.22s.1,.04,.1,.1l-.12,2.06h.54l-.12-2.06s.04-.1,.1-.1h-.1Z" fill="#d32d27"/></g><g><g id="Group_11-2-2"><line id="Line_21-2-2" x1="229.19" y1="308.68" x2="229.19" y2="301.38" fill="none" stroke="#fff" stroke-linecap="round" stroke-linejoin="round" stroke-width="1.12"/><path id="Path_72-2-2" d="M226.95,306.25v2.22h-2.22" fill="none" stroke="#fff" stroke-linecap="round" stroke-linejoin="round" stroke-width="1.12"/><path id="Path_73-2-2" d="M231.41,306.25v2.22h2.22" fill="none" stroke="#fff" stroke-linecap="round" stroke-linejoin="round" stroke-width="1.12"/><path id="Path_74-2-2" d="M224.93,304.22v2.22h-2.22" fill="none" stroke="#fff" stroke-linecap="round" stroke-linejoin="round" stroke-width="1.12"/><path id="Path_75-2-2" d="M233.45,304.22v2.22h2.22" fill="none" stroke="#fff" stroke-linecap="round" stroke-linejoin="round" stroke-width="1.12"/><line id="Line_22-2-2" x1="227.77" y1="309.28" x2="224.73" y2="306.25" fill="none" stroke="#fff" stroke-linecap="round" stroke-linejoin="round" stroke-width="1.12"/><line id="Line_23-2-2" x1="230.61" y1="309.28" x2="233.65" y2="306.25" fill="none" stroke="#fff" stroke-linecap="round" stroke-linejoin="round" stroke-width="1.12"/><path id="Path_76-2-2" d="M226.15,302.81l3.04,3.04,3.04-3.04" fill="none" stroke="#fff" stroke-linecap="round" stroke-linejoin="round" stroke-width="1.12"/><line id="Line_24-2-2" x1="231.21" y1="310.71" x2="238.51" y2="310.71" fill="none" stroke="#fff" stroke-linecap="round" stroke-linejoin="round" stroke-width="1.12"/><path id="Path_77-2-2" d="M237.09,307.66l-3.04,3.04,3.04,3.04" fill="none" stroke="#fff" stroke-linecap="round" stroke-linejoin="round" stroke-width="1.12"/><line id="Line_25-2-2" x1="227.15" y1="310.71" x2="219.87" y2="310.71" fill="none" stroke="#fff" stroke-linecap="round" stroke-linejoin="round" stroke-width="1.12"/><path id="Path_78-2-2" d="M221.29,313.75l3.04-3.04-3.04-3.04" fill="none" stroke="#fff" stroke-linecap="round" stroke-linejoin="round" stroke-width="1.12"/><line id="Line_26-2-2" x1="229.19" y1="312.93" x2="229.19" y2="320.22" fill="none" stroke="#fff" stroke-linecap="round" stroke-linejoin="round" stroke-width="1.12"/><path id="Path_79-2-2" d="M231.41,315.37v-2.22h2.22" fill="none" stroke="#fff" stroke-linecap="round" stroke-linejoin="round" stroke-width="1.12"/><path id="Path_80-2-2" d="M226.95,315.37v-2.22h-2.22" fill="none" stroke="#fff" stroke-linecap="round" stroke-linejoin="round" stroke-width="1.12"/><path id="Path_81-2-2" d="M233.45,317.38v-2.22h2.22" fill="none" stroke="#fff" stroke-linecap="round" stroke-linejoin="round" stroke-width="1.12"/><path id="Path_82-2-2" d="M224.93,317.38v-2.22h-2.22" fill="none" stroke="#fff" stroke-linecap="round" stroke-linejoin="round" stroke-width="1.12"/><line id="Line_27-2-2" x1="230.61" y1="312.32" x2="233.65" y2="315.37" fill="none" stroke="#fff" stroke-linecap="round" stroke-linejoin="round" stroke-width="1.12"/><line id="Line_28-2-2" x1="227.77" y1="312.32" x2="224.73" y2="315.37" fill="none" stroke="#fff" stroke-linecap="round" stroke-linejoin="round" stroke-width="1.12"/><path id="Path_83-2-2" d="M232.23,318.81l-3.04-3.04-3.04,3.04" fill="none" stroke="#fff" stroke-linecap="round" stroke-linejoin="round" stroke-width="1.12"/><circle id="Ellipse_15-2-2" cx="229.19" cy="310.71" r="2.22" fill="#abdeea" stroke="#fff" stroke-linecap="round" stroke-linejoin="round" stroke-width="1.12"/></g><g id="Group_11-2-2"><line id="Line_21-2-2" x1="229.15" y1="308.68" x2="229.15" y2="301.38" fill="none" stroke="#2d4e68" stroke-linecap="round" stroke-linejoin="round" stroke-width=".8"/><path id="Path_72-2-2" d="M226.91,306.25v2.22h-2.22" fill="none" stroke="#2d4e68" stroke-linecap="round" stroke-linejoin="round" stroke-width=".8"/><path id="Path_73-2-2" d="M231.37,306.25v2.22h2.22" fill="none" stroke="#2d4e68" stroke-linecap="round" stroke-linejoin="round" stroke-width=".8"/><path id="Path_74-2-2" d="M224.89,304.22v2.22h-2.22" fill="none" stroke="#2d4e68" stroke-linecap="round" stroke-linejoin="round" stroke-width=".8"/><path id="Path_75-2-2" d="M233.41,304.22v2.22h2.22" fill="none" stroke="#2d4e68" stroke-linecap="round" stroke-linejoin="round" stroke-width=".8"/><line id="Line_22-2-2" x1="227.73" y1="309.28" x2="224.69" y2="306.25" fill="none" stroke="#2d4e68" stroke-linecap="round" stroke-linejoin="round" stroke-width=".8"/><line id="Line_23-2-2" x1="230.57" y1="309.28" x2="233.61" y2="306.25" fill="none" stroke="#2d4e68" stroke-linecap="round" stroke-linejoin="round" stroke-width=".8"/><path id="Path_76-2-2" d="M226.11,302.81l3.04,3.04,3.04-3.04" fill="none" stroke="#2d4e68" stroke-linecap="round" stroke-linejoin="round" stroke-width=".8"/><line id="Line_24-2-2" x1="231.17" y1="310.71" x2="238.47" y2="310.71" fill="none" stroke="#2d4e68" stroke-linecap="round" stroke-linejoin="round" stroke-width=".8"/><path id="Path_77-2-2" d="M237.05,307.66l-3.04,3.04,3.04,3.04" fill="none" stroke="#2d4e68" stroke-linecap="round" stroke-linejoin="round" stroke-width=".8"/><line id="Line_25-2-2" x1="227.13" y1="310.71" x2="219.83" y2="310.71" fill="none" stroke="#2d4e68" stroke-linecap="round" stroke-linejoin="round" stroke-width=".8"/><path id="Path_78-2-2" d="M221.25,313.75l3.04-3.04-3.04-3.04" fill="none" stroke="#2d4e68" stroke-linecap="round" stroke-linejoin="round" stroke-width=".8"/><line id="Line_26-2-2" x1="229.15" y1="312.93" x2="229.15" y2="320.22" fill="none" stroke="#2d4e68" stroke-linecap="round" stroke-linejoin="round" stroke-width=".8"/><path id="Path_79-2-2" d="M231.37,315.37v-2.22h2.22" fill="none" stroke="#2d4e68" stroke-linecap="round" stroke-linejoin="round" stroke-width=".8"/><path id="Path_80-2-2" d="M226.91,315.37v-2.22h-2.22" fill="none" stroke="#2d4e68" stroke-linecap="round" stroke-linejoin="round" stroke-width=".8"/><path id="Path_81-2-2" d="M233.41,317.38v-2.22h2.22" fill="none" stroke="#2d4e68" stroke-linecap="round" stroke-linejoin="round" stroke-width=".8"/><path id="Path_82-2-2" d="M224.89,317.38v-2.22h-2.22" fill="none" stroke="#2d4e68" stroke-linecap="round" stroke-linejoin="round" stroke-width=".8"/><line id="Line_27-2-2" x1="230.57" y1="312.32" x2="233.61" y2="315.37" fill="none" stroke="#2d4e68" stroke-linecap="round" stroke-linejoin="round" stroke-width=".8"/><line id="Line_28-2-2" x1="227.73" y1="312.32" x2="224.69" y2="315.37" fill="none" stroke="#2d4e68" stroke-linecap="round" stroke-linejoin="round" stroke-width=".8"/><path id="Path_83-2-2" d="M232.19,318.81l-3.04-3.04-3.04,3.04" fill="none" stroke="#2d4e68" stroke-linecap="round" stroke-linejoin="round" stroke-width=".8"/><circle id="Ellipse_15-2-2" cx="229.15" cy="310.71" r="2.22" fill="#abdeea" stroke="#2d4e68" stroke-linecap="round" stroke-linejoin="round" stroke-width=".8"/></g></g><g><polygon points="249.83 306.25 249.17 304.18 250.31 302.25 252.29 301.9 253.49 302.62 256.15 301.9 258.91 301.9 262.03 302.72 263.93 301.9 265.61 302.38 266.59 304.22 266.09 305.94 266.87 308.18 267.49 312.31 266.37 315.59 263.21 318.32 259.09 319.81 254.75 319.34 252.03 318.05 249.85 316.15 248.35 313.49 248.11 310.6 248.85 308.09 249.83 306.25" fill="#fff"/><g><path d="M267.93,311.82c0-1.32-.24-2.62-.72-3.84h0v-.06l-.08-.16c-.2-.46-.42-.94-.7-1.42,.36-.5,.54-1.08,.54-1.72,0-1.64-1.34-2.96-2.96-2.96-.74,0-1.44,.28-1.98,.76-1.3-.6-2.74-.92-4.18-.92s-2.92,.34-4.24,.96c-.54-.5-1.26-.78-2.02-.78-1.64,0-2.96,1.34-2.96,2.96,0,.66,.22,1.3,.62,1.82-.32,.56-.6,1.16-.76,1.52h0c-.48,1.24-.72,2.54-.72,3.86,0,1.46,.34,2.7,1.02,3.8,.66,1.06,1.62,1.9,2.4,2.52l.04,.04s.14,.14,.78,.48c.34,.18,.88,.46,1.52,.72,1.68,.7,3.22,1.06,4.6,1.06h.1c1.4,0,2.88-.4,4.44-1.18,1.14-.56,1.92-1.12,2.02-1.2l.62-.52h0c1.44-1.3,2.64-2.96,2.64-5.7h0l-.02-.04Zm-3.88,5.52h0s-2.86,2.12-5.88,2.18h-.08c-3.02,0-6.2-1.96-6.24-2h0c-1.88-1.48-3.16-2.96-3.16-5.68,0-1.24,.24-2.42,.66-3.5,.2-.46,.64-1.4,1.08-2.02-.54-.36-.88-.96-.88-1.66,0-1.12,.92-2.04,2.04-2.04,.76,0,1.42,.42,1.76,1.04,1.34-.76,2.86-1.2,4.48-1.2s3.1,.42,4.4,1.16c.36-.58,1-.98,1.74-.98,1.12,0,2.04,.92,2.04,2.04,0,.66-.3,1.24-.8,1.6,.46,.64,.8,1.4,1.12,2.08,.42,1.08,.66,2.26,.66,3.5,0,2.62-1.18,4.1-2.94,5.52h0v-.04Z"/><path d="M260.43,308.65c0,.56,.46,1.02,1.02,1.02s1.02-.46,1.02-1.02-.46-1.02-1.02-1.02-1.02,.46-1.02,1.02Z"/><path d="M253.45,308.65c0,.56,.46,1.02,1.02,1.02s1.02-.46,1.02-1.02h0c0-.56-.46-1.02-1.02-1.02s-1.02,.46-1.02,1.02Z"/><path d="M261.39,314.06s-.16,.04-.22,.1c-.96,.52-2.14,.28-2.82-.54l-.04-.04s-.06-.06-.08-.12c.72-.12,1.26-.74,1.26-1.48,0-.82-.66-1.18-1.5-1.18s-1.5,.34-1.5,1.18c0,.72,.52,1.34,1.2,1.48-.02,.04-.06,.08-.08,.12l-.04,.04c-.7,.84-1.92,1.06-2.88,.5h0s-.12-.06-.2-.06c-.16,0-.3,.14-.3,.3,0,.14,.08,.24,.22,.28h0c1.2,.7,2.68,.46,3.58-.52,.9,.98,2.4,1.24,3.58,.54v-.04s.12-.16,.12-.26c0-.16-.14-.28-.3-.28h0v-.02Z"/></g></g><g><path d="M29.45,354.65c.4,.24,.96,.44,1.56,.44,.9,0,1.42-.48,1.42-1.16,0-.64-.36-1-1.28-1.34-1.1-.38-1.78-.96-1.78-1.92,0-1.06,.88-1.84,2.18-1.84,.7,0,1.2,.16,1.5,.34l-.24,.72c-.22-.12-.68-.32-1.28-.32-.92,0-1.28,.56-1.28,1.02,0,.64,.42,.94,1.34,1.3,1.14,.44,1.72,1,1.72,1.98,0,1.04-.78,1.94-2.36,1.94-.66,0-1.36-.2-1.72-.44l.22-.74v.02Z"/><path d="M35.01,353.44c.02,1.2,.78,1.68,1.66,1.68,.64,0,1.02-.1,1.34-.24l.14,.64c-.3,.14-.84,.3-1.62,.3-1.5,0-2.38-.98-2.38-2.44s.86-2.62,2.28-2.62c1.58,0,2,1.4,2,2.28,0,.18,0,.32-.02,.42h-3.4v-.02Zm2.58-.62c0-.56-.24-1.44-1.22-1.44-.9,0-1.28,.82-1.36,1.44h2.58Z"/><path d="M39.53,348.6h.88v7.1h-.88v-7.1Z"/><path d="M42.39,353.44c.02,1.2,.78,1.68,1.66,1.68,.64,0,1.02-.1,1.34-.24l.14,.64c-.3,.14-.84,.3-1.62,.3-1.5,0-2.38-.98-2.38-2.44s.86-2.62,2.28-2.62c1.58,0,2,1.4,2,2.28,0,.18,0,.32-.02,.42h-3.4v-.02Zm2.58-.62c0-.56-.24-1.44-1.22-1.44-.9,0-1.28,.82-1.36,1.44h2.58Z"/><path d="M50.35,355.53c-.24,.12-.74,.28-1.4,.28-1.46,0-2.42-1-2.42-2.48s1.02-2.58,2.6-2.58c.52,0,.98,.12,1.22,.24l-.2,.68c-.2-.12-.54-.24-1.02-.24-1.12,0-1.72,.82-1.72,1.84,0,1.12,.72,1.82,1.68,1.82,.5,0,.84-.12,1.08-.24l.16,.66,.02,.02Z"/><path d="M52.57,349.49v1.4h1.26v.68h-1.26v2.62c0,.6,.16,.94,.66,.94,.24,0,.4-.04,.52-.06l.04,.66c-.16,.08-.44,.12-.78,.12-.42,0-.74-.14-.96-.38-.26-.26-.34-.7-.34-1.26v-2.64h-.76v-.68h.76v-1.16l.86-.24h0Z"/><path d="M59.63,355.71l-.08-.62h-.02c-.28,.38-.8,.72-1.48,.72-.98,0-1.48-.7-1.48-1.4,0-1.18,1.04-1.82,2.92-1.8v-.1c0-.4-.1-1.12-1.1-1.12-.46,0-.92,.14-1.26,.36l-.2-.58c.4-.26,.98-.44,1.6-.44,1.48,0,1.84,1.02,1.84,1.98v1.82c0,.42,.02,.84,.08,1.16h-.8l-.02,.02Zm-.12-2.48c-.96,0-2.06,.16-2.06,1.1,0,.58,.38,.84,.84,.84,.64,0,1.04-.4,1.18-.82,.02-.08,.04-.2,.04-.28v-.84Z"/><path d="M67.33,355.53c-.22,.12-.74,.28-1.4,.28-1.46,0-2.42-1-2.42-2.48s1.02-2.58,2.6-2.58c.52,0,.98,.12,1.22,.24l-.2,.68c-.2-.12-.54-.24-1.02-.24-1.12,0-1.72,.82-1.72,1.84,0,1.12,.72,1.82,1.68,1.82,.5,0,.84-.12,1.08-.24l.14,.66,.04,.02Z"/><path d="M68.79,353.44c.02,1.2,.78,1.68,1.66,1.68,.64,0,1.02-.1,1.34-.24l.14,.64c-.3,.14-.84,.3-1.62,.3-1.5,0-2.38-.98-2.38-2.44s.86-2.62,2.28-2.62c1.58,0,2,1.4,2,2.28,0,.18,0,.32-.02,.42h-3.4v-.02Zm2.58-.62c0-.56-.24-1.44-1.22-1.44-.9,0-1.28,.82-1.36,1.44h2.58Z"/><path d="M73.31,348.6h.88v7.1h-.88v-7.1Z"/><path d="M75.67,348.6h.88v7.1h-.88v-7.1Z"/><path d="M77.37,356.94c.22-.6,.5-1.66,.6-2.4l.98-.1c-.22,.86-.66,1.96-.96,2.44l-.64,.06h.02Z"/><path d="M83.19,349.49v1.4h1.26v.68h-1.26v2.62c0,.6,.16,.94,.66,.94,.24,0,.4-.04,.52-.06l.04,.66c-.16,.08-.44,.12-.78,.12-.42,0-.74-.14-.96-.38-.26-.26-.34-.7-.34-1.26v-2.64h-.76v-.68h.76v-1.16l.86-.24h0Z"/><path d="M85.43,348.6h.88v3.02h.02c.14-.24,.36-.48,.62-.62,.26-.16,.58-.26,.9-.26,.66,0,1.7,.4,1.7,2.08v2.88h-.88v-2.78c0-.78-.3-1.44-1.12-1.44-.58,0-1.02,.4-1.18,.88-.06,.12-.06,.24-.06,.42v2.92h-.88v-7.1Z"/><path d="M91.47,353.44c0,1.2,.78,1.68,1.66,1.68,.64,0,1.02-.1,1.34-.24l.16,.64c-.32,.14-.84,.3-1.62,.3-1.5,0-2.38-.98-2.38-2.44s.86-2.62,2.28-2.62c1.58,0,2,1.4,2,2.28,0,.18,0,.32-.04,.42h-3.4v-.02Zm2.58-.62c0-.56-.24-1.44-1.22-1.44-.9,0-1.28,.82-1.36,1.44h2.58Z"/><path d="M95.99,352.18c0-.5,0-.92-.04-1.32h.78l.04,.8h0c.24-.46,.8-.92,1.6-.92,.68,0,1.72,.4,1.72,2.06v2.9h-.88v-2.8c0-.78-.3-1.44-1.12-1.44-.58,0-1.04,.42-1.18,.9-.04,.12-.06,.26-.06,.42v2.92h-.88v-3.54l.02,.02Z"/><path d="M104.73,349.49v1.4h1.26v.68h-1.26v2.62c0,.6,.16,.94,.66,.94,.24,0,.4-.04,.52-.06l.04,.66c-.16,.08-.44,.12-.78,.12-.42,0-.74-.14-.96-.38-.24-.26-.34-.7-.34-1.26v-2.64h-.76v-.68h.76v-1.16l.86-.24h0Z"/><path d="M109.65,355.71l-.08-.62h-.02c-.28,.38-.8,.72-1.48,.72-.98,0-1.48-.7-1.48-1.4,0-1.18,1.04-1.82,2.92-1.8v-.1c0-.4-.1-1.12-1.1-1.12-.46,0-.92,.14-1.26,.36l-.2-.58c.4-.26,.98-.44,1.6-.44,1.48,0,1.84,1.02,1.84,1.98v1.82c0,.42,.02,.84,.08,1.16h-.8l-.02,.02Zm-.12-2.48c-.96,0-2.06,.16-2.06,1.1,0,.58,.38,.84,.84,.84,.64,0,1.04-.4,1.18-.82,.02-.08,.04-.2,.04-.28v-.84Z"/><path d="M111.79,352.44c0-.62,0-1.12-.04-1.58h.8l.04,.84h0c.36-.6,.94-.94,1.72-.94,1.18,0,2.06,1,2.06,2.46,0,1.74-1.06,2.6-2.2,2.6-.64,0-1.2-.28-1.5-.76h0v2.64h-.88v-5.26Zm.88,1.3c0,.12,0,.24,.04,.36,.16,.62,.7,1.04,1.32,1.04,.94,0,1.48-.76,1.48-1.88,0-.98-.52-1.8-1.44-1.8-.6,0-1.16,.44-1.34,1.1-.04,.12-.06,.24-.06,.36v.82Z"/><path d="M122.29,355.71l-.06-.62h-.04c-.28,.38-.8,.72-1.48,.72-.98,0-1.48-.7-1.48-1.4,0-1.18,1.04-1.82,2.92-1.8v-.1c0-.4-.12-1.12-1.1-1.12-.46,0-.92,.14-1.26,.36l-.2-.58c.4-.26,.98-.44,1.6-.44,1.48,0,1.84,1.02,1.84,1.98v1.82c0,.42,.02,.84,.08,1.16h-.8l-.02,.02Zm-.12-2.48c-.96,0-2.06,.16-2.06,1.1,0,.58,.38,.84,.84,.84,.62,0,1.04-.4,1.18-.82,.04-.08,.04-.2,.04-.28v-.84Z"/><path d="M131.29,355.49c-.32,.16-.96,.32-1.78,.32-1.9,0-3.34-1.2-3.34-3.42s1.44-3.54,3.52-3.54c.84,0,1.38,.18,1.6,.3l-.2,.72c-.34-.16-.8-.28-1.36-.28-1.58,0-2.64,1.02-2.64,2.78,0,1.66,.96,2.72,2.6,2.72,.54,0,1.08-.12,1.42-.28l.18,.7v-.02Z"/><path d="M134.95,355.71l-.06-.62h-.04c-.28,.38-.8,.72-1.48,.72-.98,0-1.48-.7-1.48-1.4,0-1.18,1.04-1.82,2.92-1.8v-.1c0-.4-.12-1.12-1.1-1.12-.46,0-.92,.14-1.26,.36l-.2-.58c.4-.26,.98-.44,1.6-.44,1.48,0,1.84,1.02,1.84,1.98v1.82c0,.42,.02,.84,.08,1.16h-.8l-.02,.02Zm-.12-2.48c-.96,0-2.06,.16-2.06,1.1,0,.58,.38,.84,.84,.84,.62,0,1.04-.4,1.18-.82,.04-.08,.04-.2,.04-.28,0,0,0-.84,0-.84Z"/><path d="M137.09,352.18c0-.5,0-.92-.04-1.32h.78l.04,.8h.02c.24-.46,.8-.92,1.6-.92,.66,0,1.72,.4,1.72,2.06v2.9h-.88v-2.8c0-.78-.3-1.44-1.12-1.44-.58,0-1.04,.42-1.18,.9-.04,.12-.06,.26-.06,.42v2.92h-.88v-3.52Z"/><path d="M145.33,355.71l-.06-.62h-.04c-.28,.38-.8,.72-1.48,.72-.98,0-1.48-.7-1.48-1.4,0-1.18,1.04-1.82,2.92-1.8v-.1c0-.4-.12-1.12-1.1-1.12-.46,0-.92,.14-1.26,.36l-.2-.58c.4-.26,.98-.44,1.6-.44,1.48,0,1.84,1.02,1.84,1.98v1.82c0,.42,.02,.84,.08,1.16h-.8l-.02,.02Zm-.12-2.48c-.96,0-2.06,.16-2.06,1.1,0,.58,.38,.84,.84,.84,.62,0,1.04-.4,1.18-.82,.04-.08,.04-.2,.04-.28,0,0,0-.84,0-.84Z"/><path d="M151.65,348.6v5.86c0,.42,0,.92,.04,1.26h-.8l-.04-.84h-.02c-.26,.54-.86,.96-1.66,.96-1.18,0-2.08-1-2.08-2.46,0-1.62,1-2.6,2.18-2.6,.74,0,1.24,.36,1.46,.74h.02v-2.9h.88l.02-.02Zm-.88,4.24c0-.12,0-.26-.04-.38-.14-.56-.62-1.02-1.28-1.02-.92,0-1.46,.8-1.46,1.88,0,.98,.48,1.8,1.44,1.8,.58,0,1.14-.4,1.3-1.06,.02-.12,.04-.24,.04-.38v-.84Z"/><path d="M154.07,349.5c0,.3-.22,.54-.56,.54-.32,0-.54-.24-.54-.54s.24-.56,.56-.56,.54,.24,.54,.56Zm-.98,6.2v-4.84h.88v4.84h-.88Z"/><path d="M158.13,355.71l-.08-.62h-.02c-.28,.38-.8,.72-1.48,.72-.98,0-1.48-.7-1.48-1.4,0-1.18,1.04-1.82,2.92-1.8v-.1c0-.4-.1-1.12-1.1-1.12-.46,0-.92,.14-1.26,.36l-.2-.58c.4-.26,.98-.44,1.6-.44,1.48,0,1.84,1.02,1.84,1.98v1.82c0,.42,.02,.84,.08,1.16h-.8l-.02,.02Zm-.12-2.48c-.96,0-2.06,.16-2.06,1.1,0,.58,.38,.84,.84,.84,.64,0,1.04-.4,1.18-.82,.02-.08,.04-.2,.04-.28,0,0,0-.84,0-.84Z"/><path d="M160.25,352.18c0-.5,0-.92-.04-1.32h.78l.04,.8h.02c.24-.46,.8-.92,1.6-.92,.66,0,1.72,.4,1.72,2.06v2.9h-.88v-2.8c0-.78-.3-1.44-1.12-1.44-.58,0-1.04,.42-1.18,.9-.04,.12-.06,.26-.06,.42v2.92h-.88v-3.52Z"/><path d="M168.91,349.5c0,.3-.22,.54-.56,.54-.32,0-.54-.24-.54-.54s.24-.56,.56-.56,.54,.24,.54,.56Zm-.98,6.2v-4.84h.88v4.84h-.88Z"/><path d="M170.27,352.18c0-.5,0-.92-.04-1.32h.78l.04,.78h.04c.28-.46,.72-.9,1.52-.9,.66,0,1.16,.4,1.38,.98h0c.16-.28,.34-.48,.54-.64,.3-.22,.62-.34,1.08-.34,.64,0,1.6,.42,1.6,2.1v2.86h-.86v-2.74c0-.94-.34-1.5-1.06-1.5-.5,0-.9,.38-1.04,.8-.04,.12-.08,.28-.08,.44v3h-.86v-2.9c0-.78-.34-1.34-1.02-1.34-.56,0-.96,.44-1.1,.88-.04,.12-.06,.28-.06,.44v2.92h-.86v-3.52Z"/><path d="M181.29,355.71l-.08-.62h-.02c-.28,.38-.8,.72-1.48,.72-.98,0-1.48-.7-1.48-1.4,0-1.18,1.04-1.82,2.92-1.8v-.1c0-.4-.1-1.12-1.1-1.12-.46,0-.92,.14-1.26,.36l-.2-.58c.4-.26,.98-.44,1.6-.44,1.48,0,1.84,1.02,1.84,1.98v1.82c0,.42,.02,.84,.08,1.16h-.8l-.02,.02Zm-.12-2.48c-.96,0-2.06,.16-2.06,1.1,0,.58,.38,.84,.84,.84,.64,0,1.04-.4,1.18-.82,.02-.08,.04-.2,.04-.28,0,0,0-.84,0-.84Z"/><path d="M187.61,350.87c-.02,.36-.04,.74-.04,1.34v2.82c0,1.12-.22,1.8-.7,2.22-.46,.44-1.16,.58-1.76,.58s-1.22-.14-1.62-.4l.22-.68c.32,.2,.82,.38,1.42,.38,.9,0,1.56-.48,1.56-1.7v-.54h-.02c-.26,.46-.8,.82-1.54,.82-1.2,0-2.06-1.02-2.06-2.36,0-1.64,1.08-2.58,2.18-2.58,.84,0,1.3,.44,1.52,.84h0l.04-.74h.8Zm-.92,1.92c0-.16,0-.28-.04-.4-.16-.52-.6-.94-1.24-.94-.84,0-1.44,.72-1.44,1.84,0,.96,.48,1.74,1.44,1.74,.54,0,1.04-.34,1.22-.9,.04-.14,.08-.32,.08-.46v-.88h-.02Z"/><path d="M189.51,353.44c0,1.2,.78,1.68,1.66,1.68,.64,0,1.02-.1,1.34-.24l.16,.64c-.32,.14-.84,.3-1.62,.3-1.5,0-2.38-.98-2.38-2.44s.86-2.62,2.28-2.62c1.58,0,2,1.4,2,2.28,0,.18,0,.32-.04,.42h-3.4v-.02Zm2.58-.62c0-.56-.24-1.44-1.22-1.44-.9,0-1.28,.82-1.36,1.44h2.58Z"/><path d="M197.21,349.49v1.4h1.26v.68h-1.26v2.62c0,.6,.16,.94,.66,.94,.24,0,.4-.04,.52-.06l.04,.66c-.16,.08-.44,.12-.78,.12-.42,0-.74-.14-.96-.38-.24-.26-.34-.7-.34-1.26v-2.64h-.76v-.68h.76v-1.16l.86-.24h0Z"/><path d="M203.79,353.25c0,1.8-1.24,2.58-2.42,2.58-1.32,0-2.32-.96-2.32-2.5,0-1.62,1.06-2.58,2.4-2.58s2.34,1.02,2.34,2.5Zm-3.84,.04c0,1.06,.62,1.86,1.48,1.86s1.48-.8,1.48-1.88c0-.82-.42-1.86-1.46-1.86s-1.5,.96-1.5,1.88Z"/><path d="M207.09,355.71v-4.18h-.68v-.68h.68v-.26c0-1.28,.76-2.12,2.12-2.12,.46,0,.98,.14,1.24,.32l-.24,.68c-.22-.16-.6-.28-1.02-.28-.94,0-1.2,.66-1.2,1.42v.24h2.82v4.84h-.88v-4.18h-1.94v4.18h-.88l-.02,.02Z"/><path d="M212.23,348.6h.88v7.1h-.88v-7.1Z"/><path d="M214.59,348.6h.88v7.1h-.88v-7.1Z"/><path d="M220.05,349.5c0,.3-.2,.54-.56,.54-.32,0-.54-.24-.54-.54s.22-.56,.54-.56,.54,.24,.54,.56h.02Zm-.98,6.2v-4.84h.88v4.84h-.88Z"/><path d="M221.41,352.18c0-.5,0-.92-.04-1.32h.78l.04,.8h0c.24-.46,.8-.92,1.6-.92,.68,0,1.72,.4,1.72,2.06v2.9h-.88v-2.8c0-.78-.3-1.44-1.12-1.44-.58,0-1.04,.42-1.18,.9-.04,.12-.06,.26-.06,.42v2.92h-.88v-3.54l.02,.02Z"/><path d="M230.15,349.49v1.4h1.26v.68h-1.26v2.62c0,.6,.16,.94,.66,.94,.24,0,.4-.04,.52-.06l.04,.66c-.16,.08-.44,.12-.78,.12-.42,0-.74-.14-.96-.38-.24-.26-.34-.7-.34-1.26v-2.64h-.76v-.68h.76v-1.16l.86-.24h0Z"/><path d="M232.39,348.6h.88v3.02h.02c.14-.24,.36-.48,.64-.62,.26-.16,.58-.26,.9-.26,.66,0,1.7,.4,1.7,2.08v2.88h-.88v-2.78c0-.78-.3-1.44-1.12-1.44-.58,0-1.02,.4-1.18,.88-.04,.12-.06,.24-.06,.42v2.92h-.88v-7.1h-.02Z"/><path d="M238.43,353.44c.02,1.2,.78,1.68,1.66,1.68,.64,0,1.02-.1,1.34-.24l.14,.64c-.3,.14-.84,.3-1.62,.3-1.5,0-2.38-.98-2.38-2.44s.86-2.62,2.28-2.62c1.58,0,2,1.4,2,2.28,0,.18,0,.32-.02,.42h-3.4v-.02Zm2.58-.62c0-.56-.24-1.44-1.22-1.44-.9,0-1.28,.82-1.36,1.44h2.58Z"/><path d="M248.53,355.53c-.24,.12-.74,.28-1.4,.28-1.46,0-2.42-1-2.42-2.48s1.02-2.58,2.6-2.58c.52,0,.98,.12,1.22,.24l-.2,.68c-.2-.12-.54-.24-1.02-.24-1.12,0-1.72,.82-1.72,1.84,0,1.12,.72,1.82,1.68,1.82,.5,0,.84-.12,1.08-.24l.16,.66,.02,.02Z"/><path d="M249.99,353.44c0,1.2,.78,1.68,1.66,1.68,.64,0,1.02-.1,1.34-.24l.16,.64c-.32,.14-.84,.3-1.62,.3-1.5,0-2.38-.98-2.38-2.44s.86-2.62,2.28-2.62c1.58,0,2,1.4,2,2.28,0,.18,0,.32-.04,.42h-3.4v-.02Zm2.58-.62c0-.56-.24-1.44-1.22-1.44-.9,0-1.28,.82-1.36,1.44h2.58Z"/><path d="M254.51,348.6h.88v7.1h-.88v-7.1Z"/><path d="M256.87,348.6h.88v7.1h-.88v-7.1Z"/></g><g><path d="M132.41,151.13c-.3-.68-.98-1.54-2.58-.84l-1.4,.62-1.34-3.02c-.8-1.82-2.8-1.96-3.8-1-.74,.7-1.06,1.82-.58,2.9l4.72,10.8c-1.14-.88-3.34-.86-4.32,.16v-.04c-1.02,1.08-.84,2.6,.74,3.92l8.46,6.66,12.1-5.32,.06-1.06c.18-2.74-.32-5.5-1.42-8l-.92-2.08c-.04-.1-.1-.22-.16-.32-.64-1.16-2.06-1.66-3.3-1.12l-.9,.4-1.02-2.34c-.46-1.02-1.64-1.48-2.68-1.04l-1.68,.72h.02Z" fill="#fff"/><path d="M143.53,156.69l-.92-2.08c-.06-.12-.12-.24-.18-.36-.38-.68-.98-1.18-1.72-1.44-.74-.24-1.52-.22-2.24,.1l-.44,.18-.82-1.86c-.28-.62-.78-1.1-1.42-1.34-.64-.24-1.32-.22-1.94,.04l-1.24,.54c-.22-.32-.48-.58-.8-.74-.62-.32-1.36-.28-2.22,.08l-.92,.4-1.12-2.56c-.42-.98-1.22-1.64-2.18-1.84-.9-.18-1.82,.08-2.44,.68-.96,.92-1.24,2.28-.7,3.48l4.18,9.58c-1.26-.3-2.72-.06-3.56,.7-.04,.02-.06,.04-.1,.08-.56,.58-.84,1.28-.8,2.02,.04,.94,.58,1.86,1.56,2.68h0l8.46,6.66s.2,.12,.32,.12c.08,0,.14,0,.2-.04l12.1-5.32c.18-.08,.3-.24,.3-.44l.06-1.06c.18-2.82-.34-5.66-1.46-8.24l.04-.02Zm-4.78,.6c.08,.2,.28,.3,.48,.3,.06,0,.14,0,.2-.04,.26-.12,.38-.42,.26-.68l-1.24-2.82,.44-.18c.98-.42,2.12-.04,2.62,.9,.04,.08,.1,.18,.14,.28l.92,2.08c1.06,2.44,1.54,5.12,1.38,7.76l-.04,.74-11.54,5.08-8.2-6.46c-.74-.62-1.14-1.28-1.18-1.92-.02-.42,.12-.8,.42-1.16,0,0,.04-.04,.06-.06,.76-.78,2.64-.84,3.62-.12l2.1,2.02c.1,.1,.22,.14,.36,.14s.28-.06,.38-.16c.2-.2,.2-.54,0-.74l-2.06-1.98-4.68-10.7c-.42-.98-.04-1.84,.46-2.32,.38-.36,.96-.52,1.52-.42,.64,.12,1.14,.56,1.44,1.24l3.54,8.04c.08,.2,.28,.3,.48,.3,.06,0,.14,0,.2-.04,.26-.12,.38-.42,.26-.68l-2-4.54,.92-.4c.56-.24,1-.28,1.32-.12,.22,.12,.42,.34,.56,.68h0l2.08,4.74c.08,.2,.28,.3,.48,.3,.06,0,.14,0,.2-.04,.26-.12,.38-.42,.26-.68l-1.88-4.26,1.2-.52h0c.36-.16,.78-.18,1.14-.02,.38,.14,.68,.42,.84,.8l2.48,5.64,.06,.02Z"/><path d="M141.13,166.05c-.2,0-.38-.12-.48-.32-.12-.26,0-.56,.26-.68l.6-.26c.26-.12,.56,0,.68,.26s0,.56-.26,.68l-.6,.26s-.14,.04-.2,.04v.02Z"/><path d="M132.89,169.66c-.2,0-.38-.12-.48-.32-.12-.26,0-.56,.26-.68l6.42-2.82c.26-.12,.56,0,.68,.26s0,.56-.26,.68l-6.42,2.82s-.14,.04-.2,.04v.02Z"/></g><g><path d="M159.21,319.06c-.3-.68-.98-1.54-2.58-.84l-1.4,.62-1.34-3.02c-.8-1.82-2.8-1.96-3.8-1-.74,.7-1.06,1.82-.58,2.9l4.72,10.8c-1.14-.88-3.34-.86-4.32,.16v-.04c-1.02,1.08-.84,2.6,.74,3.92l8.46,6.66,12.1-5.32,.06-1.06c.18-2.74-.32-5.5-1.42-8l-.92-2.08c-.04-.1-.1-.22-.16-.32-.64-1.16-2.06-1.66-3.3-1.12l-.9,.4-1.02-2.34c-.46-1.02-1.64-1.48-2.68-1.04l-1.68,.72h.02Z" fill="#fff"/><path d="M170.33,324.62l-.92-2.08-.18-.36c-.38-.68-.98-1.18-1.72-1.44-.74-.24-1.52-.22-2.24,.1l-.44,.18-.82-1.86c-.28-.62-.78-1.1-1.42-1.34s-1.32-.22-1.94,.04l-1.24,.54c-.22-.32-.48-.58-.8-.74-.62-.32-1.36-.28-2.22,.08l-.92,.4-1.12-2.56c-.42-.98-1.22-1.64-2.18-1.84-.9-.18-1.82,.08-2.44,.68-.96,.92-1.24,2.28-.7,3.48l4.18,9.58c-1.26-.3-2.72-.06-3.56,.7-.04,.02-.06,.04-.1,.08-.56,.58-.84,1.28-.8,2.02,.04,.94,.58,1.86,1.56,2.68h0l8.46,6.66s.2,.12,.32,.12c.08,0,.14,0,.2-.04l12.1-5.32c.18-.08,.3-.24,.3-.44l.06-1.06c.18-2.82-.34-5.66-1.46-8.24l.04-.02Zm-4.78,.6c.08,.2,.28,.3,.48,.3,.06,0,.14,0,.2-.04,.26-.12,.38-.42,.26-.68l-1.24-2.82,.44-.18c.98-.42,2.12-.04,2.62,.9,.04,.08,.1,.18,.14,.28l.92,2.08c1.06,2.44,1.54,5.12,1.38,7.76l-.04,.74-11.54,5.08-8.2-6.46c-.74-.62-1.14-1.28-1.18-1.92-.02-.42,.12-.8,.42-1.16,0,0,.04-.04,.06-.06,.76-.78,2.64-.84,3.62-.12l2.1,2.02c.1,.1,.22,.14,.36,.14s.28-.06,.38-.16c.2-.2,.2-.54,0-.74l-2.06-1.98-4.68-10.7c-.42-.98-.04-1.84,.46-2.32,.38-.36,.96-.52,1.52-.42,.64,.12,1.14,.56,1.44,1.24l3.54,8.04c.08,.2,.28,.3,.48,.3,.06,0,.14,0,.2-.04,.26-.12,.38-.42,.26-.68l-2-4.54,.92-.4c.56-.24,1-.28,1.32-.12,.22,.12,.42,.34,.56,.68h0l2.08,4.74c.08,.2,.28,.3,.48,.3,.06,0,.14,0,.2-.04,.26-.12,.38-.42,.26-.68l-1.88-4.26,1.2-.52h0c.36-.16,.78-.18,1.14-.02,.38,.14,.68,.42,.84,.8l2.48,5.64,.06,.02Z"/><path d="M167.91,333.96c-.2,0-.38-.12-.48-.32-.12-.26,0-.56,.26-.68l.6-.26c.26-.12,.56,0,.68,.26s0,.56-.26,.68l-.6,.26s-.14,.04-.2,.04v.02Z"/><path d="M159.67,337.6c-.2,0-.38-.12-.48-.32-.12-.26,0-.56,.26-.68l6.42-2.82c.26-.12,.56,0,.68,.26s0,.56-.26,.68l-6.42,2.82s-.14,.04-.2,.04v.02Z"/></g></svg>