<?xml version="1.0" encoding="UTF-8"?><svg id="Layer_1" xmlns="http://www.w3.org/2000/svg" viewBox="0 0 250 250"><g id="comp_53-canadian-maple-leaf"><g><path d="M111.57,182.85c-4.69,1.16-48.2,12.26-48.2,12.26,0,0,2.32-9.33,4.69-16.29,2.27-6.96,0-8.12-2.37-10.44-1.21-1.16-48.82-42.88-48.82-42.88l8.12-3.53c4.64-2.27,3.43-5.29,2.32-8.07-1.16-3.53-9.33-31.23-9.33-31.23,0,0,22.09,4.64,26.78,5.8,3.48,1.11,4.64-1.16,5.8-3.48s6.96-14.99,6.96-14.99c0,0,24.41,27.75,25.57,28.91,4.69,3.48,9.33,0,8.17-4.64,0-4.64-12.81-60.14-12.81-60.14,0,0,13.97,8.07,18.61,10.4,3.53,2.32,5.85,2.32,8.17-2.32,2.32-3.48,19.72-37.03,19.72-37.03,0,0,17.45,33.55,19.82,37.03,2.32,4.64,4.69,4.64,8.17,2.32,4.64-2.32,18.61-10.4,18.61-10.4,0,0-12.81,55.5-12.81,60.14-1.16,4.64,3.53,8.12,8.17,4.64,1.16-1.11,25.57-28.91,25.57-28.91,0,0,5.8,12.72,6.96,15.04s2.32,4.59,5.8,3.48c4.64-1.16,26.78-5.8,26.78-5.8,0,0-8.21,27.71-9.33,31.23-1.11,2.74-2.32,5.8,2.32,8.08l8.12,3.48s-47.66,41.72-48.82,42.88c-2.32,2.32-4.64,3.48-2.32,10.44,2.32,6.96,4.64,16.29,4.64,16.29,0,0-44.59-11.1-49.23-12.26l15.5,61.98h-51.65l10.33-61.98h0Z" fill="#d30000"/><path d="M152.9,250h-51.66c-1.52,0-2.96-.67-3.94-1.83s-1.4-2.69-1.15-4.19l9.03-54.19c-13.71,3.48-40.19,10.23-40.53,10.32-1.76,.45-3.63-.06-4.92-1.34-1.29-1.28-1.81-3.15-1.37-4.91,.1-.39,2.39-9.59,4.8-16.67,.77-2.36,.68-3.25,.66-3.41-.14-.2-.62-.65-.98-.99-.24-.22-.48-.45-.72-.68-1.57-1.45-29.9-26.3-48.65-42.73-1.33-1.17-1.97-2.93-1.7-4.68s1.42-3.24,3.05-3.94l8-3.47c.08-.04,.15-.08,.22-.12-.14-.42-.35-.95-.51-1.36-.04-.1-.08-.2-.11-.3-1.17-3.56-9.04-30.25-9.38-31.39-.51-1.74-.07-3.63,1.16-4.96,1.23-1.34,3.08-1.93,4.86-1.55,.88,.18,21.13,4.44,26.55,5.74,.12-.24,.25-.49,.35-.68,.92-1.84,5.28-11.33,6.88-14.83,.73-1.59,2.21-2.71,3.94-2.96s3.47,.38,4.63,1.7c8.67,9.86,21.5,24.42,24.7,27.97v-.22c-.2-3.55-6.68-33.04-12.68-59.04-.46-2,.31-4.09,1.96-5.31s3.88-1.35,5.66-.32c.14,.08,13.88,8.02,18.33,10.25,.18,.09,.36,.19,.53,.3,.15,.1,.28,.18,.4,.26,.09-.16,.19-.35,.3-.57,.1-.19,.2-.38,.32-.56,1.58-2.36,12.76-23.67,19.44-36.55,.89-1.71,2.66-2.79,4.59-2.79h0c1.93,0,3.69,1.07,4.58,2.78,6.69,12.87,17.9,34.16,19.5,36.51,.13,.19,.25,.39,.35,.6,.11,.22,.21,.41,.31,.57,.11-.07,.24-.15,.38-.24,.18-.12,.36-.23,.55-.32,4.45-2.22,18.2-10.17,18.33-10.25,1.78-1.03,4-.9,5.66,.32,1.65,1.22,2.42,3.31,1.96,5.31-6,26-12.47,55.49-12.68,59.04v.24c3.18-3.51,16.36-18.48,24.7-27.97,1.16-1.32,2.9-1.96,4.63-1.7,1.73,.26,3.22,1.37,3.95,2.97,1.6,3.51,5.96,13.03,6.88,14.87,.1,.19,.22,.44,.35,.68,5.41-1.31,25.67-5.56,26.55-5.74,1.78-.37,3.63,.22,4.86,1.55s1.67,3.22,1.15,4.97c-.34,1.13-8.24,27.79-9.35,31.32-.04,.13-.09,.26-.14,.39-.14,.35-.36,.89-.51,1.32,.06,.04,.13,.07,.21,.12l7.98,3.42c1.63,.7,2.79,2.19,3.07,3.94,.28,1.75-.36,3.53-1.7,4.69-18.67,16.34-46.94,41.12-48.61,42.69-.26,.26-.51,.5-.76,.74-.35,.33-.82,.78-.95,.97-.02,.16-.11,1.05,.68,3.41,2.36,7.07,4.66,16.29,4.75,16.67,.44,1.76-.08,3.62-1.36,4.9s-3.14,1.8-4.9,1.36c0,0-26.64-6.63-40.89-10.18l13.33,53.31c.16,.5,.25,1.03,.25,1.58,0,2.85-2.31,5.16-5.16,5.16h-.01Zm-45.57-10.33h38.94l-13.89-55.57c-.44-1.76,.08-3.62,1.36-4.91,1.28-1.28,3.15-1.8,4.91-1.36,3.35,.84,27.55,6.86,40.73,10.14-.7-2.47-1.5-5.15-2.29-7.53-2.88-8.65-.12-12.22,2.96-15.14,.2-.19,.4-.38,.61-.59,1.02-1.02,28.12-24.77,42.9-37.71l-.58-.25c-.08-.03-.16-.07-.24-.11-4.68-2.29-5.95-5.61-6.19-7.99-.26-2.58,.6-4.81,1.27-6.47,.83-2.65,4.33-14.4,6.77-22.64-6.63,1.41-15.16,3.24-17.97,3.93-1.05,.32-2.08,.48-3.06,.48-5.44,0-7.68-4.48-8.75-6.63-.57-1.15-2.18-4.62-3.72-7.95-8.26,9.39-19.66,22.33-20.62,23.24-.15,.15-.31,.28-.48,.41-2.13,1.6-4.53,2.45-6.92,2.45-3.01,0-5.79-1.34-7.62-3.68-1.8-2.31-2.47-5.32-1.84-8.33,.59-5.94,6.38-31.97,10.26-49.04-3.21,1.8-6.41,3.57-8.36,4.56-1.54,1-3.8,2.21-6.42,2.21-3.65,0-6.61-2.16-8.82-6.43-2.12-3.35-10-18.27-15.33-28.44-5.23,10.02-13.18,25.13-15.24,28.43-2.21,4.28-5.17,6.44-8.81,6.44-2.61,0-4.88-1.21-6.42-2.2-1.95-.99-5.16-2.76-8.37-4.57,3.88,17.06,9.67,43.09,10.26,49.03,.62,3.02-.04,6.04-1.84,8.35-1.82,2.33-4.59,3.67-7.6,3.67-2.39,0-4.78-.84-6.92-2.43-.2-.15-.4-.32-.57-.5-.93-.93-12.72-14.3-20.54-23.19-1.53,3.32-3.14,6.77-3.71,7.92-1.08,2.15-3.32,6.63-8.75,6.63-.98,0-2.01-.16-3.05-.48-2.84-.69-11.37-2.53-17.99-3.93,2.75,9.28,6,20.23,6.78,22.62,.67,1.68,1.54,3.94,1.28,6.51-.24,2.37-1.5,5.67-6.18,7.97-.07,.03-.14,.07-.21,.1l-.64,.28c13.79,12.09,41.83,36.68,42.86,37.67,.24,.23,.44,.42,.63,.6,3.11,2.91,5.9,6.48,3.07,15.17,0,.02,0,.04-.02,.06-.8,2.35-1.59,4.99-2.29,7.44,12.95-3.3,36.27-9.24,39.67-10.08,1.69-.42,3.47,.04,4.75,1.22,1.28,1.18,1.87,2.93,1.59,4.64l-9.33,55.97h-.02Z" fill="#fff"/></g></g></svg>