<?xml version="1.0" encoding="UTF-8"?><svg id="Layer_1" xmlns="http://www.w3.org/2000/svg" viewBox="0 0 250 250"><g><path d="M115.74,13.57c.39,0,.48,.47,.19,1.17-.5,1.24-1.47,3.12-2.53,5.22-.52-.95-1.02-1.97-1.56-2.78,.89-1.18,1.91-2.25,3.05-3.19,.36-.3,.64-.42,.85-.42m0-5c-1.41,0-2.77,.53-4.03,1.57-1.44,1.19-2.73,2.54-3.86,4.03l-2.14,2.83,1.97,2.95c.25,.38,.56,.95,.88,1.55,.15,.29,.3,.57,.46,.86l4.56,8.33,4.29-8.48,.42-.84c.95-1.88,1.78-3.5,2.29-4.78,1.11-2.76,.22-4.75-.41-5.68-.99-1.47-2.64-2.34-4.42-2.34h0Z" fill="#fff"/><g><path d="M122.13,24.49c.22,0,.39,.32,.39,1.06-.3,3.09-1.33,6.06-3.03,8.66-.54-1.49-1.11-3.01-1.7-4.52,1.46-1.37,2.73-2.93,3.78-4.63,.18-.36,.39-.57,.56-.57m0-5c-2.02,0-3.84,1.14-4.9,3.08-.79,1.28-1.75,2.44-2.85,3.47l-2.47,2.31,1.22,3.15c.54,1.38,1.08,2.83,1.66,4.42l3.42,9.41,5.47-8.38c2.13-3.26,3.45-7.04,3.82-10.91l.02-.24v-.24c0-3.98-2.71-6.06-5.39-6.06h0Z" fill="#fff"/><path d="M110.47,87.21c-2.42,2.88-5.3,5.33-8.52,7.26-2.76,1.68-5.72,2.42-8.78,2.42-3.67,0-7.49-1.07-11.25-2.9,9.16-3.55,18.77-5.84,28.56-6.78m11.69-6.15l-12.17,1.18c-10.24,.99-20.29,3.38-29.88,7.1l-10.7,4.15,10.33,5.01c4.65,2.25,9.16,3.4,13.43,3.4s7.95-1.06,11.38-3.15c3.68-2.19,6.97-5,9.76-8.32l7.86-9.37h0Z" fill="#fff"/><path d="M53.86,11.44c.32,0,.51,.45,.24,1.75-1.1,5.12,8.48,30.89,15.06,30.89,.07,0,.14,0,.2,0,7.21-.59,7.48-15.71,8.84-22.25,.17-.78,.45-1.09,.74-1.09,.36,0,.74,.47,.98,1.09,2.71,7.03-4.21,21.91,0,22.86,.23,.05,.45,.08,.67,.08,6.23,0,10.04-20.14,12.35-27.48,.22-.66,.52-1.06,.81-1.06,.25,0,.49,.32,.64,1.06,.97,4.88-4.59,15.71,.63,17.97,.29,.12,.59,.18,.9,.18,3.85,0,9.08-8.83,13.73-15.5,.59,1.31,1.2,2.53,1.74,3.91-2.33,4.82-4.3,9.7-2.51,11.01,.22,.17,.5,.25,.82,.25,1.18,0,2.97-1.09,4.75-2.51,.7,2.26,1.27,4.66,1.85,6.92-3.87,6.04-8.3,12.28-9.43,16.8-2.15,8.66-9.95,17.93-16.73,22-5.14,3.49-9.56,7.93-13.02,13.09-9.51-6.49-17.59-14.84-23.76-24.55,.62,.11,1.25,.17,1.87,.17,2,0,3.96-.58,5.66-1.69,14.36-10.06-13.05-27.31-8.16-52.52,.14-.65,.74-1.36,1.14-1.36m0-5c-3.18,0-5.48,2.75-6.03,5.33v.04s-.02,.04-.02,.04c-2.71,14,3.1,25.39,7.77,34.55,5.56,10.89,5.45,12.68,2.5,14.78-.86,.54-1.84,.83-2.86,.83-.32,0-.65-.03-.97-.09l-11.28-2.08,6.15,9.68c6.57,10.34,15.04,19.09,25.16,26l4.16,2.84,2.81-4.19c3.09-4.61,6.98-8.54,11.57-11.66,7.26-4.41,16.31-14.63,18.88-25,.74-2.95,3.97-7.9,6.81-12.26,.66-1.01,1.32-2.03,1.97-3.04l1.18-1.84-.55-2.11c-.15-.56-.29-1.13-.43-1.7-.45-1.78-.92-3.63-1.48-5.44l-2.17-7.01-.37,.3,.17-.36-.8-2.04c-.43-1.08-.87-2.04-1.3-2.97-.18-.38-.36-.77-.53-1.16l-3.62-8.07-5.05,7.26c-.75,1.08-1.52,2.22-2.3,3.37-1.33,1.97-3.35,4.96-5.12,7.19,.14-.79,.3-1.58,.43-2.21,.66-3.25,1.29-6.32,.73-9.12-.75-3.76-3.46-5.09-5.54-5.09h0c-1.97,0-4.47,1.18-5.56,4.51v.03s-.02,.03-.02,.03c-.49,1.55-1.01,3.51-1.61,5.78-.31,1.18-.65,2.45-1.01,3.75-.06-1.86-.34-3.65-.97-5.28-1-2.64-3.17-4.29-5.64-4.29-2.08,0-4.81,1.31-5.62,5.01v.03s-.01,.03-.01,.03c-.31,1.49-.55,3.27-.81,5.16-.41,3.02-.88,6.44-1.69,9.22-.58,2.01-1.15,3.02-1.51,3.5-1.19-1.2-3.57-4.42-6.37-11.11-2.88-6.9-3.97-12.19-3.91-13.46,.21-1.01,.67-3.61-1.05-5.72-1.01-1.24-2.51-1.96-4.11-1.96h0Z" fill="#fff"/><path d="M140.42,90.01c.64,0,1.16,.53,1.26,.88,.36,1.31,.77,9.02-10.74,18.31-6.85,5.43-6.78,8.16-10.11,9.79-1.21,.56-2.33,.81-3.35,.81-4.81,0-7.05-5.53-2.78-9.47,5.74-5.27,18.25-10.76,24.35-19.44,.46-.65,.94-.88,1.36-.88m0-5c-2.13,0-4.12,1.1-5.46,3.02-3.33,4.74-9.37,8.68-14.7,12.16-3.37,2.2-6.54,4.27-8.93,6.46-3.57,3.29-4.8,7.86-3.22,11.93,1.48,3.78,5.15,6.22,9.37,6.22,1.8,0,3.64-.43,5.45-1.27l.05-.02,.05-.02c2.58-1.26,3.93-2.95,5.24-4.59,1.22-1.53,2.61-3.27,5.78-5.77,5.59-4.52,9.41-9.29,11.36-14.22,2.01-5.06,1.34-8.43,1.09-9.34l-.02-.07-.02-.07c-.79-2.56-3.33-4.41-6.04-4.41h0Z" fill="#fff"/><path d="M222.52,72.9c4.31,0,6.62,1.71,7.9,5.4,23.78,68.17,2.87,117.7-28.28,142.8-.41-.09-33.3-8.05-40.09-8.43-8.07-.45-14.4-19.83-18.09-27.13-3.69-7.3-19.47-19.49-17.79-27.52,4.27-20.6,.61-33.66-3.21-37.4,4.75-8.12,12.57-10.17,18.31-19.58,1.97-3.19,2.82-6.94,2.42-10.67h.34c1.72,.11,3.42,.16,5.1,.16,18.78,0,35.24-6.33,46.63-10.38,13.16-4.67,21.47-7.25,26.76-7.25m0-5c-6.05,0-14.66,2.65-28.43,7.54-.71,.25-1.44,.51-2.18,.78-10.98,3.93-26.02,9.31-42.77,9.31-1.6,0-3.21-.05-4.79-.15h-.16s-.16,0-.16,0h-5.9l.59,5.53c.28,2.61-.32,5.28-1.7,7.51-2.52,4.13-5.53,6.62-8.72,9.26-3.39,2.81-6.9,5.71-9.65,10.42l-1.97,3.37,2.8,2.73c2.24,2.19,5.81,13.49,1.81,32.8-1.58,7.59,5.14,15.15,11.63,22.47,2.73,3.08,5.56,6.26,6.59,8.31,.69,1.37,1.52,3.29,2.48,5.51,4.59,10.62,10.3,23.83,19.79,24.36,3.62,.2,18.43,3.34,38.67,8.18,.37,.09,.58,.14,.61,.15l2.35,.52,1.87-1.51c17.83-14.36,30.44-34.39,36.45-57.9,7.01-27.4,4.79-57.83-6.58-90.44-2.03-5.81-6.28-8.75-12.63-8.75h0Z" fill="#fff"/><path d="M68.46,108.55c-10.74,14.2,4.32,9.81-33.76,43.77-8.82,7.87-3.44,28.31-3.1,41.19,0,3.75,5.49,2.06,11.55,.52,1.29-.34,3.19,1.31,5.29,.61,2.87-.97,2.69-4.52,3.93-4.34s1.67,3.23,3.39,3.21c5.99,0,10.94-6.44,15.69-13.57l.14-.14c-.16,0,0-.36,.29-.72,4.23-7.66,36.74-12.28,42.96-18.61,18.68-18.83,4.52-37.96,3.57-38.82-7.64,3.37-14.09-4.41-8.89-12.46,3.69-5.77,17.57-11.85,27.38-19.69-1.33-.2-2.69-.32-4.05-.54-7.3,5.17-15.2,9.43-23.54,12.68-8.48,3.21-2.51,13.34-11.69,15.83-10.56,2.94-3.12-10.47-6.24-11.08-4.92-.97-9.52-2.85-13.77-5.34l-9.18,7.48Zm9.18-7.48c-.56-.33-1.11-.66-1.66-1.01m-27.33,83.76c-.79,2.26-2.03,7.17-4,8.39s-3.5,1.11-3.5-1.29c0-2.96,4.14-5.36,5.11-7.39,1.52-2.91,1.47-6.39-.11-9.27-1.06-2.53,.77-2.26,1.94-.84,1.65,2.01,1.9,6.58,.57,10.4Zm18.45-13.34c-.34,.77,.36,2.26-.79,3.19-2.01,1.72-9.99,9.88-12.82,16.48-.14,.34-1.67,.32-1.38-.27,7.57-15.03,12.91-14.49,13.93-19.51,0-.23-.68-.18-.9-.2-.9,0-.84-1.06,.2-.9,.9,.06,1.79,.06,2.69,0,.16,0,.63,0,.5,.38s-1.24,.47-1.42,.84Zm16.57-42.96c-.71,1.1-1.29,2.29-1.72,3.53-.27,1.2-1.58,1.22-1.36-.32,1.18-8.66,8.32-10.74,14.74-7.8,.59,.25,.5,.52,.47,.75-1.27,7.21-12.14,3.89-12.14,3.89v-.05Z" fill="none" stroke="#fff" stroke-miterlimit="10" stroke-width="5"/><g isolation="isolate"><path d="M165.38,5.33c.36,0,.77,.51,1.18,1.99,2.49,9.04-12.28,28.85-9.27,32.29,.15,.16,.33,.24,.56,.24,2.88,0,11.63-12.72,12.58-17.69,.33-1.71,1.15-2.8,2.02-2.8,.74,0,1.5,.79,2.01,2.66,3.48,12.84-14.2,60.21-65,79.47-8.48,3.21-2.51,13.34-11.69,15.83-1.04,.29-1.91,.42-2.62,.42-6.57,0-.8-10.95-3.62-11.5-29.84-5.72-47.93-44.36-47.18-53.27,.11-1.44,.5-2.27,.97-2.27,.43,0,.92,.7,1.29,2.27,3.66,14.37,27.07,43.88,46.42,43.88,3.09,0,6.08-.75,8.86-2.44,27.33-16.46,16.71-57.56,5.18-80.17-.42-.85-.73-2.1-.08-2.1,.28,0,.75,.24,1.46,.86,10.1,8.69,15.93,42.8,20.68,42.8,.03,0,.07,0,.1,0,9.47-.95,12.55-28.53,14.54-39.2,.2-1.06,.58-1.71,1.02-1.71,.4,0,.85,.55,1.24,1.84,2.4,8.82-4.05,23.74-.68,24.64,.1,.03,.21,.05,.32,.05,4.6,0,17.63-24.65,18.65-34.09,.08-.71,.52-1.99,1.08-1.99m0-5c-3.12,0-5.6,2.64-6.05,6.41v.02s0,.02,0,.02c-.5,4.63-4.33,13.18-8.13,19.99,.47-3.84,.59-7.83-.36-11.36l-.02-.07-.02-.07c-1.42-4.69-4.39-5.39-6.03-5.39-2.34,0-5.13,1.52-5.93,5.78-.28,1.52-.57,3.27-.91,5.31-.97,5.91-2.31,14-4.29,20.46-1.28,4.17-2.48,6.5-3.38,7.8-1.16-2.71-2.61-6.95-3.76-10.32-3.85-11.27-8.21-24.04-14.81-29.72-1.02-.88-2.63-2.07-4.72-2.07-1.87,0-3.57,.94-4.54,2.52-1.57,2.53-.58,5.36,.15,6.82,6.63,13,10.91,28.09,11.46,40.38,.71,15.76-4.25,26.95-14.75,33.27-1.92,1.16-3.97,1.72-6.28,1.72-7.12,0-16.4-5.47-25.47-15-7.79-8.19-14.4-18.49-16.09-25.08-1.26-5.28-4.39-6.07-6.14-6.07-2.51,0-5.58,1.8-5.96,6.88-.9,11.22,17.51,49.44,47.75,57.75-.38,2.98-.73,6.87,1.82,9.78,1.05,1.2,2.98,2.62,6.21,2.62,1.21,0,2.51-.2,3.97-.6,7.6-2.06,8.92-8.06,9.71-11.64,.72-3.27,1.01-3.79,2.41-4.33,29.13-11.05,46.14-30.07,55.27-44.09,9.98-15.31,15.23-32.32,12.78-41.37-.41-1.49-2.1-6.35-6.83-6.35-.41,0-.82,.04-1.21,.12,.68-3.02,.85-5.91,.15-8.48-1.3-4.69-3.98-5.67-6-5.67h0Z" fill="#fff"/></g><g><path d="M81.15,134.46c-.87,0-1.69-.38-2.27-1.04-.38-.44-.99-1.42-.75-3.01,.94-6.89,5.45-11.19,11.79-11.19,2.11,0,4.35,.51,6.47,1.48,1.36,.57,2.1,1.81,1.92,3.27l-.03,.19c-.75,4.24-4.15,6.68-9.33,6.68,0,0,0,0,0,0-1.5,0-2.93-.2-4.01-.41-.22,.45-.41,.92-.58,1.39-.43,1.57-1.72,2.64-3.21,2.64Z"/><path d="M89.91,121.72c1.77,0,3.63,.43,5.43,1.25,.59,.25,.5,.52,.47,.75-.66,3.72-3.9,4.61-6.87,4.61-2.75,0-5.27-.77-5.27-.77-.71,1.1-1.29,2.29-1.72,3.53-.13,.57-.49,.87-.81,.87-.36,0-.67-.38-.55-1.19,.85-6.23,4.78-9.05,9.31-9.05m.57,2.14c.7,0,1.29-.27,1.29-.63s-.59-.66-1.29-.66-1.27,.32-1.27,.66,.57,.63,1.27,.63m-.57-7.14c-7.56,0-13.15,5.24-14.27,13.36-.27,1.89,.21,3.66,1.34,4.98,1.05,1.21,2.56,1.91,4.16,1.91,2.38,0,4.47-1.51,5.38-3.77,.76,.08,1.58,.14,2.42,.14,6.42,0,10.83-3.27,11.79-8.74l.03-.19,.02-.15c.3-2.56-1-4.79-3.42-5.85-2.43-1.1-5-1.68-7.46-1.68h0Z" fill="#fff"/></g><g opacity=".39"><path d="M46.38,172.34c.47,0,1.16,.41,1.7,1.07,1.65,2.01,1.9,6.58,.57,10.4-.79,2.26-2.03,7.17-4,8.39-.79,.49-1.51,.76-2.09,.76-.87,0-1.42-.62-1.42-2.05,0-2.96,4.14-5.36,5.11-7.39,1.52-2.91,1.47-6.39-.11-9.27-.57-1.36-.31-1.91,.24-1.91m0-5h0c-1.87,0-3.59,.92-4.61,2.45-.82,1.23-1.52,3.34-.24,6.4l.1,.25,.13,.23c.78,1.41,.8,3.11,.06,4.55v.02c-.21,.26-.77,.83-1.15,1.21-1.8,1.81-4.53,4.56-4.53,8.47,0,3.5,2.2,7.05,6.42,7.05,1.51,0,3.1-.51,4.72-1.52,2.95-1.83,4.32-5.5,5.68-9.75,.15-.46,.28-.89,.41-1.24,1.59-4.56,1.83-11.27-1.42-15.22-1.53-1.85-3.55-2.9-5.57-2.9h0Z" fill="#fff"/></g><g opacity=".39"><path d="M65.12,169.19c.07,0,.14,0,.22,.02,.45,.03,.9,.04,1.35,.04s.9-.01,1.35-.04c.16,0,.68,0,.5,.38s-1.24,.52-1.42,.88c-.34,.77,.36,2.22-.79,3.19-2.01,1.72-10.02,9.88-12.82,16.48-.06,.14-.36,.22-.67,.22-.43,0-.88-.15-.71-.49,7.57-15.1,12.91-14.49,13.93-19.56,.05-.2-.68-.2-.9-.2-.84-.1-.84-.92-.02-.92m0-5c-3.01,0-5.42,2.19-5.6,5.09-.04,.65,.03,1.28,.21,1.86-.16,.15-.33,.32-.52,.5-2.69,2.56-6.76,6.43-11.55,15.99-.83,1.66-.75,3.57,.21,5.13,1.02,1.66,2.83,2.61,4.96,2.61,2.42,0,4.43-1.26,5.28-3.28,2.39-5.62,9.78-13.19,11.46-14.62,1.55-1.31,2.13-2.87,2.34-4.14,.43-.41,.84-.93,1.15-1.6,.78-1.65,.67-3.54-.29-5.05-.47-.74-1.87-2.47-4.73-2.47h-.31c-.34,.03-.69,.04-1.03,.04-.3,0-.6,0-.9-.02-.22-.02-.45-.04-.67-.04h0Z" fill="#fff"/></g><g><path d="M99.91,247.17c-1.73,0-4.96-.71-7.14-5.42-5.51-12.14-3.41-19.04-1.88-24.08,1.08-3.54,1.54-5.35,.27-7.85-.95-1.85-3.47-3.05-6.14-4.32-2.92-1.39-6.23-2.96-8.28-5.86-3.06-4.36-3.03-9.6-3.01-13.43,0-1.31,.02-3.23-.21-3.97-.16,0-.4,.04-.78,.13l-.17,.04c-.33,.06-.59,.09-.84,.09-1.3,0-2.12-.79-2.45-1.54-.31-.71-.46-1.81,.66-3.04l.06-.07c2.86-5.02,13.47-8.26,24.7-11.68,7.59-2.32,16.2-4.95,18.61-7.37,14.96-15.09,7.18-29.92,4.43-34.11-.92,.23-1.84,.35-2.75,.35-3.61,0-6.78-1.86-8.49-4.97-1.98-3.6-1.6-8.2,1.01-12.29,2.46-3.84,8.21-7.38,14.86-11.48,5.39-3.32,11.49-7.08,15.89-11.18,.5-.46,1.84-1.54,3.53-1.54,.75,0,3.26,.28,4.06,3.84,1.24,5.01,.39,10.47-2.34,14.92-3.17,5.19-6.97,8.35-10.33,11.13-2.58,2.14-5.04,4.18-7.03,6.97,4.08,5.94,6.42,19.53,2.57,38.07-.81,3.87,5.1,10.52,9.84,15.86,3.24,3.64,6.29,7.08,7.74,10.04,.72,1.47,1.52,3.34,2.45,5.51,2.98,6.97,8.51,19.93,13.54,20.23,3.99,.23,16.66,2.86,38.73,8.05,.97,.23,1.63,.38,1.9,.45l5.31,.48-3.96,3.8c-10.75,10.33-23.57,15.83-28.7,15.83h0c-.41,0-.77-.03-1.11-.1-7.05-1.41-16.92-11.18-22.45-22.25-2.07-4.16-5.49-6.04-9.12-8.03-1.95-1.07-3.96-2.18-5.62-3.64-2.13-1.88-2.56-5.25-3.05-9.15-.86-6.88-1.84-14.67-11.06-17.25-.07-.02-.11-.03-.16-.03-.31,0-.9,.29-1.63,1.09-2.83,3.13-5.2,11.09-4.28,20.26,.56,5.5-2.88,10.41-5.64,14.35-1.33,1.9-2.7,3.86-2.98,5.09-1.04,4.69-.9,9.07-.77,12.94,.12,3.92,.23,7.3-.82,10.33-.77,2.29-3.67,4.79-6.99,4.79Zm38.88-152.05c-4.12,4.53-9.54,8.07-14.42,11.26-3.1,2.02-6.03,3.94-7.96,5.71-1.26,1.16-1.75,2.53-1.3,3.68,.35,.91,1.25,1.45,2.39,1.45,.7,0,1.48-.19,2.3-.57,1.03-.48,1.54-1.08,2.69-2.52,1.32-1.65,3.13-3.91,6.9-6.95,6.12-4.93,8.5-9.2,9.41-12.05Z"/><path d="M141.79,86.06c.65,0,1.29,.44,1.62,1.89,1.1,4.45,.36,9.16-2.03,13.07-5.74,9.41-13.5,11.46-18.31,19.58,3.82,3.73,7.48,16.8,3.21,37.4-1.67,8.03,14.22,20.24,17.79,27.52,3.57,7.28,9.93,26.66,18.09,27.13,6.71,.38,40.15,8.46,40.4,8.48-10.81,10.38-23.06,15.13-26.96,15.13-.24,0-.44-.02-.62-.05-5.79-1.15-15.28-10.06-20.71-20.91-3.66-7.35-11.03-8.66-15.33-12.43s1.09-22.41-15.08-26.93c-.27-.08-.55-.12-.83-.12-4.64,0-9.74,10.78-8.4,24.11,.75,7.33-7.53,14.11-8.57,18.63-2.13,9.63,.36,17.59-1.51,23.02-.47,1.4-2.44,3.11-4.63,3.11-1.69,0-3.51-1.02-4.86-3.97-8.66-19.08,2.69-23.45-1.65-32.01-2.58-5.04-11.12-5.56-14.61-10.49-5.22-7.43,.16-18.45-5.19-18.45-.42,0-.9,.07-1.45,.21-.18,.03-.31,.05-.4,.05-.48,0,.17-.42,.4-.84,4.16-7.66,36.67-12.28,42.96-18.61,18.68-18.83,4.54-37.96,3.57-38.82-1.28,.55-2.51,.8-3.67,.8-5.92,0-9.72-6.59-5.37-13.42,4.07-6.35,20.64-13.14,30.34-22.18,.35-.32,1.09-.87,1.82-.87m-24.3,33.64c1.01,0,2.14-.25,3.35-.81,3.32-1.54,3.26-4.27,10.11-9.79,11.51-9.27,11.1-17,10.74-18.31-.11-.35-.62-.88-1.26-.88-.42,0-.9,.23-1.36,.88-6.1,8.68-18.61,14.18-24.35,19.44-4.27,3.94-2.03,9.47,2.78,9.47m24.3-38.64c-2.58,0-4.51,1.55-5.23,2.21-4.21,3.93-9.95,7.46-15.5,10.88-6.91,4.26-12.88,7.94-15.65,12.26-3.11,4.89-3.52,10.43-1.1,14.85,2.15,3.93,6.15,6.27,10.68,6.27,.51,0,1.01-.03,1.52-.09,1.08,1.97,2.4,5,2.94,8.58,1.13,7.51-1.53,14.57-7.91,21-1.96,1.98-10.98,4.73-17.57,6.74-13.96,4.26-22.77,7.27-26.01,12.6-2.06,2.39-1.37,4.71-.97,5.6,.76,1.71,2.36,2.83,4.24,3,0,.42,0,.84,0,1.22-.03,4.17-.06,9.87,3.46,14.88,2.44,3.45,6.06,5.17,9.25,6.69,2.07,.98,4.42,2.1,4.99,3.2,.82,1.62,.55,2.73-.44,5.98-1.55,5.11-3.9,12.84,1.99,25.83,.96,2.09,3.78,6.9,9.42,6.9,4.66,0,8.31-3.36,9.37-6.52,1.19-3.43,1.07-7.2,.94-11.19-.12-3.9-.25-7.93,.72-12.34,.17-.72,1.62-2.8,2.59-4.17,2.84-4.06,6.73-9.62,6.07-16.04-1-9.89,2.01-16.72,3.7-18.42,6.38,2.17,7.5,7.36,8.45,14.9,.53,4.22,1.03,8.22,3.88,10.72,1.87,1.64,4,2.82,6.07,3.95,3.42,1.88,6.37,3.5,8.09,6.96,5.84,11.69,16.48,22.05,24.21,23.59,.49,.1,1.02,.15,1.6,.15,5.33,0,18.69-5.25,30.43-16.53l7.9-7.59-10.6-.96c-.33-.08-.91-.21-1.72-.4-22.52-5.3-34.97-7.88-39.17-8.12-.01,0-1.75-.16-4.94-5.37-2.45-3.99-4.66-9.17-6.44-13.34-.94-2.2-1.75-4.1-2.5-5.63-1.6-3.26-4.77-6.83-8.12-10.6-2.64-2.97-5.37-6.04-7.23-8.85-2.26-3.4-2.07-4.71-2.04-4.84,3.71-17.87,1.88-31.28-1.99-38.41,1.6-1.91,3.5-3.48,5.6-5.22,3.51-2.91,7.48-6.2,10.87-11.76,3.06-4.99,4.02-11.12,2.63-16.82-.97-4.23-3.98-5.74-6.48-5.74h0Zm-24.29,33.64c.07-.18,.25-.45,.61-.79,.93-.85,2.14-1.76,3.53-2.72-.42,.5-.78,.95-1.1,1.35-1.09,1.36-1.32,1.6-1.79,1.81-.64,.3-1.06,.34-1.25,.34h0Z" fill="#fff"/></g><path d="M20.16,30.2c.49,0,1.07,.59,1.27,1.51,1.81,8.57,14.13,27.29,26.2,33.46,4.78,11.1,14.07,26.29,30,35.97l-9.18,7.48c-48.7-3.19-59.53-33.08-59.15-38.59,.07-1.04,.49-1.41,.93-1.41,.42,0,.85,.34,1.01,.76,5.69,15.16,28.73,26.66,40.91,26.66,2.97,0,5.3-.69,6.57-2.17,9.2-10.76-39.86-30.64-39.34-62.29,.01-.97,.36-1.38,.77-1.38m0-5c-2.83,0-5.72,2.17-5.77,6.32-.33,20.09,16.47,35.39,28.74,46.57,4.44,4.05,11.08,10.08,11.7,12.55-.3,.14-1.08,.4-2.68,.4-10.58,0-31.46-10.72-36.23-23.42-.88-2.38-3.17-4-5.69-4-2.66,0-5.65,1.9-5.92,6.08-.42,5.97,4.6,15.11,9.78,21.03,8.18,9.36,24.19,20.93,54.03,22.88l1.96,.13,1.52-1.24,9.18-7.48,5.49-4.47-6.05-3.67c-15.9-9.66-24.37-25.24-28-33.68l-.71-1.65-1.6-.82c-10.3-5.26-21.98-22.45-23.59-30.04-.69-3.23-3.22-5.48-6.16-5.48h0Z" fill="#fff"/></g></g><path d="M115.94,14.74c.43-1.06,0-1.61-1.04-.75-1.14,.94-2.16,2.01-3.05,3.19,.54,.81,1.04,1.83,1.56,2.78,1.06-2.1,2.03-3.98,2.53-5.22Z" fill="#776544"/><path d="M122.52,25.55c0-1.33-.54-1.31-.95-.5-1.04,1.71-2.31,3.27-3.78,4.63,.59,1.51,1.15,3.03,1.7,4.52,1.69-2.6,2.73-5.57,3.03-8.66Z" fill="#776544"/><path d="M101.94,94.46c3.23-1.93,6.11-4.38,8.52-7.26-9.78,.95-19.39,3.23-28.56,6.78,6.9,3.35,13.97,4.16,20.03,.47Z" fill="#7c510b"/><path d="M60.88,65.32c-2.22,1.45-4.92,2-7.53,1.51,6.17,9.71,14.26,18.07,23.76,24.55,3.46-5.16,7.88-9.6,13.02-13.09,6.78-4.07,14.58-13.34,16.73-22,1.13-4.52,5.56-10.76,9.43-16.8-.59-2.26-1.15-4.66-1.85-6.92-2.26,1.81-4.52,3.07-5.56,2.26-1.79-1.31,.18-6.19,2.51-11.01-.54-1.38-1.15-2.6-1.74-3.91-5.02,7.21-10.72,16.93-14.63,15.33-5.22-2.26,.34-13.09-.63-17.97-.32-1.58-1.04-1.24-1.45,0-2.4,7.6-6.4,28.92-13.02,27.4-4.21-.95,2.71-15.83,0-22.86-.43-1.13-1.33-1.74-1.72,0-1.36,6.53-1.63,21.66-8.84,22.25-6.58,.54-16.37-25.71-15.26-30.88,.61-2.92-1.13-1.56-1.38-.38-4.88,25.21,22.52,42.46,8.16,52.52Z" fill="#776544"/><path d="M130.95,109.2c11.51-9.29,11.1-17,10.74-18.31-.18-.59-1.47-1.65-2.62,0-6.1,8.68-18.61,14.18-24.35,19.44-5.18,4.77-.79,11.87,6.13,8.66,3.32-1.63,3.26-4.36,10.11-9.79Z" fill="#7c510b"/><path d="M230.43,78.3c-2.87-8.21-10.78-6.62-34.66,1.85-12.41,4.41-30.84,11.53-51.73,10.22h-.34c.4,3.73-.45,7.48-2.42,10.67-5.74,9.41-13.57,11.46-18.31,19.58,3.82,3.73,7.48,16.8,3.21,37.4-1.67,8.03,14.11,20.21,17.79,27.52,3.69,7.3,10.02,26.68,18.09,27.13,6.78,.38,39.68,8.34,40.09,8.43,31.16-25.1,52.07-74.63,28.28-142.8Z" fill="#7c510b"/><path d="M68.46,108.55c-10.74,14.2,4.32,9.81-33.76,43.77-8.82,7.87-3.44,28.31-3.1,41.19,0,3.75,5.49,2.06,11.55,.52,1.29-.34,3.19,1.31,5.29,.61,2.87-.97,2.69-4.52,3.93-4.34s1.67,3.23,3.39,3.21c5.99,0,10.94-6.44,15.69-13.57l.14-.14c-.16,0,0-.36,.29-.72,4.23-7.66,36.74-12.28,42.96-18.61,18.68-18.83,4.52-37.96,3.57-38.82-7.64,3.37-14.09-4.41-8.89-12.46,3.69-5.77,17.57-11.85,27.38-19.69-1.33-.2-2.69-.32-4.05-.54-7.3,5.17-15.2,9.43-23.54,12.68-8.48,3.21-2.51,13.34-11.69,15.83-10.56,2.94-3.12-10.47-6.24-11.08-4.92-.97-9.52-2.85-13.77-5.34l-9.18,7.48Zm9.18-7.48c-.56-.33-1.11-.66-1.66-1.01m-27.33,83.76c-.79,2.26-2.03,7.17-4,8.39s-3.5,1.11-3.5-1.29c0-2.96,4.14-5.36,5.11-7.39,1.52-2.91,1.47-6.39-.11-9.27-1.06-2.53,.77-2.26,1.94-.84,1.65,2.01,1.9,6.58,.57,10.4Zm18.45-13.34c-.34,.77,.36,2.26-.79,3.19-2.01,1.72-9.99,9.88-12.82,16.48-.14,.34-1.67,.32-1.38-.27,7.57-15.03,12.91-14.49,13.93-19.51,0-.23-.68-.18-.9-.2-.9,0-.84-1.06,.2-.9,.9,.06,1.79,.06,2.69,0,.16,0,.63,0,.5,.38s-1.24,.47-1.42,.84Zm16.57-42.96c-.71,1.1-1.29,2.29-1.72,3.53-.27,1.2-1.58,1.22-1.36-.32,1.18-8.66,8.32-10.74,14.74-7.8,.59,.25,.5,.52,.47,.75-1.27,7.21-12.14,3.89-12.14,3.89v-.05Z" fill="#7c510b"/><path d="M44.33,52.97c.2-2.78,1.49-3.26,2.26,0,4.25,16.66,35.04,53.7,55.28,41.44,27.33-16.46,16.71-57.56,5.18-80.17-.61-1.22-.97-3.28,1.38-1.24,10.17,8.75,16.01,43.27,20.78,42.8,9.47-.95,12.55-28.53,14.54-39.2,.38-2.03,1.45-2.55,2.26,.14,2.4,8.82-4.05,23.74-.68,24.64,4.27,1.27,17.93-24.37,18.97-34.05,.14-1.15,1.2-3.84,2.26,0,2.49,9.04-12.28,28.85-9.27,32.29,2.03,2.26,12.12-12.1,13.14-17.45,.61-3.17,2.92-4.21,4.02-.14,3.48,12.84-14.2,60.21-65,79.47-8.48,3.21-2.51,13.34-11.69,15.83-10.56,2.94-3.12-10.47-6.24-11.08-29.84-5.72-47.93-44.36-47.18-53.27Z" fill="#b2a38a" isolation="isolate" opacity=".7"/><path d="M95.34,122.97c-6.42-2.94-13.57-.86-14.74,7.8-.23,1.54,1.09,1.51,1.36,.32,.43-1.24,1.01-2.42,1.72-3.53,0,0,10.87,3.32,12.14-3.84,.02-.23,.11-.5-.47-.75Zm-4.86,.88c-.7,0-1.27-.29-1.27-.63s.57-.66,1.27-.66,1.29,.29,1.29,.66-.59,.63-1.29,.63Z" fill="#7c510b" opacity=".39"/><path d="M46.14,174.25c-1.06-2.53,.77-2.26,1.94-.84,1.65,2.01,1.9,6.58,.57,10.4-.79,2.26-2.03,7.17-4,8.39s-3.5,1.11-3.5-1.29c0-2.96,4.14-5.36,5.11-7.39,1.52-2.91,1.47-6.39-.11-9.27Z" fill="#7c510b" opacity=".39"/><path d="M52.11,189.87c-.29,.59,1.24,.61,1.38,.27,2.8-6.6,10.81-14.76,12.82-16.48,1.15-.97,.45-2.42,.79-3.19,.18-.36,1.24-.5,1.42-.88s-.34-.38-.5-.38c-.9,.06-1.79,.06-2.69,0-1.04-.16-1.11,.79-.2,.9,.23,0,.95,0,.9,.2-1.02,5.06-6.35,4.45-13.93,19.56Z" fill="#7c510b" opacity=".39"/><g opacity=".81"><path d="M162.15,212.64c-8.16-.47-14.51-19.85-18.09-27.13-3.57-7.28-19.47-19.49-17.79-27.52,4.27-20.6,.61-33.66-3.21-37.4,4.82-8.12,12.57-10.17,18.31-19.58,2.4-3.91,3.13-8.62,2.03-13.07-.68-3.05-2.78-1.63-3.44-1.02-9.7,9.04-26.27,15.83-30.34,22.18-5.2,8.16,1.24,15.98,9.04,12.62,.97,.86,15.1,19.99-3.57,38.82-6.29,6.33-38.8,10.94-42.96,18.61-.27,.5-1.13,.99,0,.79,7.71-1.94,1.02,10.24,6.65,18.25,3.48,4.93,12.03,5.45,14.61,10.49,4.34,8.57-7.01,12.93,1.65,32.01,3.12,6.78,8.66,3.35,9.5,.86,1.88-5.43-.61-13.38,1.51-23.02,1.04-4.52,9.31-11.3,8.57-18.63-1.42-14.13,4.39-25.39,9.22-23.99,16.17,4.52,10.78,23.15,15.08,26.93s11.67,5.09,15.33,12.43c5.43,10.85,14.92,19.76,20.71,20.91,3.03,.61,16.12-4.07,27.58-15.08-.25-.02-33.69-8.09-40.4-8.48Zm-41.31-93.74c-6.92,3.21-11.3-3.89-6.13-8.66,5.74-5.27,18.25-10.76,24.35-19.44,1.15-1.65,2.44-.59,2.62,0,.36,1.31,.77,9.04-10.74,18.31-6.85,5.52-6.78,8.25-10.11,9.79Z" fill="#7c510b"/></g><path d="M77.64,101.15c-15.93-9.68-25.22-24.87-30-35.97-12.07-6.17-24.4-24.89-26.2-33.46-.36-1.7-2.01-2.26-2.03-.14-.52,31.65,48.54,51.53,39.34,62.29-6.47,7.57-40.4-5.63-47.48-24.49-.32-.86-1.81-1.38-1.94,.66-.38,5.52,10.45,35.41,59.15,38.59l9.18-7.48Z" fill="#776544"/></svg>