<?xml version="1.0" encoding="UTF-8"?><svg id="Layer_1" xmlns="http://www.w3.org/2000/svg" viewBox="0 0 200 157.2"><g id="Regular-S"><path d="M27.49,157.2H172.51c18.44,0,27.49-9.06,27.49-27.17V27.17c0-18.11-9.06-27.17-27.49-27.17H27.49C9.16,0,0,9.06,0,27.17v102.86C0,148.14,9.16,157.2,27.49,157.2Zm.22-15.63c-7.76,0-12.18-4.2-12.18-12.29V27.92c0-8.19,4.42-12.29,12.18-12.29H172.29c7.76,0,12.18,4.1,12.18,12.29v101.35c0,8.09-4.42,12.29-12.18,12.29H27.71Z"/><path d="M75.31,112.61h8.49c4.41,0,6.5-2.43,6.5-5.84V50.43c0-3.42-2.09-5.84-6.5-5.84h-8.49c-4.41,0-6.5,2.43-6.5,5.84v56.33c0,3.42,2.09,5.84,6.5,5.84Zm41.12,0h8.38c4.3,0,6.39-2.43,6.39-5.84V50.43c0-3.42-2.09-5.84-6.39-5.84h-8.38c-4.52,0-6.61,2.43-6.61,5.84v56.33c0,3.42,2.09,5.84,6.61,5.84Z"/></g></svg>