<?xml version="1.0" encoding="UTF-8"?><svg id="Layer_1" xmlns="http://www.w3.org/2000/svg" viewBox="0 0 200 157.2"><g id="Regular-S"><path d="M27.49,157.2H172.51c18.44,0,27.49-9.06,27.49-27.17V27.17c0-18.11-9.06-27.17-27.49-27.17H27.49C9.16,0,0,9.06,0,27.17v102.86C0,148.14,9.16,157.2,27.49,157.2Zm.22-15.63c-7.76,0-12.18-4.2-12.18-12.29V27.92c0-8.19,4.42-12.29,12.18-12.29H172.29c7.76,0,12.18,4.1,12.18,12.29v101.35c0,8.09-4.42,12.29-12.18,12.29H27.71Z"/><path d="M79.08,111.48l48.09-28.25c3.67-2.05,3.56-7.33,0-9.38l-48.09-28.25c-3.77-2.26-8.95-.54-8.95,3.77v58.33c0,4.31,4.74,6.36,8.95,3.77Z"/></g></svg>