<?xml version="1.0" encoding="UTF-8"?><svg id="Layer_1" xmlns="http://www.w3.org/2000/svg" viewBox="0 0 250 250"><polygon points="25.16 68.77 17.03 43.23 31.35 19.13 55.73 14.98 70.58 23.88 103.72 14.98 137.77 14.98 176.47 25.04 200.08 14.98 220.97 20.78 232.97 43.62 226.79 64.9 236.46 92.76 244.19 143.84 230.26 184.48 191.18 218.53 140.1 236.72 86.31 230.98 52.64 215.05 25.55 191.44 6.97 158.55 3.88 122.88 13.16 91.6 25.16 68.77" fill="#fff"/><g><path d="M250,135.6c0-16.42-2.97-32.41-8.9-47.56l-.11-.32-.11-.32-.95-2.02c-2.55-5.61-5.29-11.65-8.79-17.59,4.34-6.14,6.78-13.45,6.78-21.29,0-20.23-16.53-36.76-36.76-36.76-9.22,0-17.9,3.39-24.47,9.33-16.22-7.41-33.9-11.33-51.7-11.33s-36.12,4.13-52.55,11.86c-6.67-6.25-15.57-9.75-25-9.75C27.22,9.85,10.7,26.38,10.7,46.61c0,8.26,2.76,16.1,7.63,22.46-4.02,6.99-7.52,14.41-9.33,18.75v.21C2.97,103.18,0,119.18,0,135.6c0,18,4.13,33.37,12.6,47.03,8.26,13.24,20.02,23.63,29.66,31.25l.42,.42c.64,.64,1.8,1.8,9.64,5.93,4.13,2.23,10.8,5.61,18.85,9.01,20.76,8.69,39.83,13.03,56.99,13.03h1.27c17.27-.21,35.81-5.08,55.08-14.51,14.19-6.89,23.84-13.88,25.1-14.94l7.63-6.46-.11-.21c17.8-15.89,32.84-36.44,32.84-70.55h.02Zm-47.98,68.32l.11,.21c-.64,.53-35.49,26.16-72.88,26.69h-1.06c-37.4,0-76.91-24.26-77.44-24.79v-.11c-23.2-18.22-39.2-36.65-39.2-70.34,0-15.26,2.86-29.88,8.16-43.33,2.44-5.72,8.05-17.27,13.35-25.1-6.57-4.45-10.8-11.97-10.8-20.55,0-13.98,11.33-25.21,25.21-25.21,9.43,0,17.59,5.19,21.93,12.82,16.53-9.54,35.49-14.94,55.61-14.94s38.35,5.19,54.55,14.3c4.45-7.31,12.39-12.18,21.61-12.18,13.98,0,25.21,11.33,25.21,25.21,0,8.16-3.81,15.36-9.86,19.91,5.82,7.95,9.86,17.27,13.77,25.74,5.29,13.35,8.16,28.07,8.16,43.33,0,32.41-14.73,50.85-36.44,68.32h0Z"/><path d="M157.1,96.19c0,6.99,5.72,12.71,12.71,12.71s12.71-5.72,12.71-12.71-5.72-12.71-12.71-12.71-12.71,5.72-12.71,12.71Z"/><path d="M70.66,96.19c0,6.99,5.72,12.71,12.71,12.71s12.71-5.72,12.71-12.71h0c0-6.99-5.72-12.71-12.71-12.71s-12.71,5.72-12.71,12.71Z"/><path d="M169.07,163.35c-1.06,0-2.02,.42-2.65,1.17-11.86,6.35-26.48,3.39-34.96-6.78,0-.11-.42-.53-.42-.53-.32-.42-.64-.85-.95-1.38,8.9-1.38,15.68-9.11,15.68-18.43,0-10.28-8.26-14.51-18.53-14.51s-18.53,4.13-18.53,14.51c0,9.01,6.35,16.53,14.83,18.22-.32,.53-.74,.95-1.06,1.49,0,0-.53,.42-.42,.53-8.69,10.39-23.73,13.24-35.81,6.25l-.11,.32c-.64-.64-1.49-.95-2.55-.95-2.02,0-3.7,1.7-3.7,3.7,0,1.7,1.06,3.08,2.65,3.5l-.11,.21c14.83,8.58,33.26,5.4,44.39-6.67,11.22,12.07,29.66,15.26,44.49,6.67l-.32-.53c1.17-.64,1.91-1.91,1.91-3.29-.11-1.91-1.8-3.5-3.81-3.5h0Z"/></g></svg>